<svg width="650" height="560" viewBox="0 0 650 560" fill="none" xmlns="http://www.w3.org/2000/svg">
<g clip-path="url(#clip0_457_540)">
<rect width="662" height="560" fill="#00E4F3"/>
<path d="M550.36 61V33H567.216V37.088H557.808V61H550.36ZM568.396 61V33H575.844V44.704H584.524V33H591.972V61H584.524V48.512H575.844V61H568.396ZM607.261 61.616C603.117 61.616 599.887 60.4773 597.573 58.2C595.295 55.8853 594.157 52.32 594.157 47.504C594.157 42.6507 595.277 38.936 597.517 36.36C599.757 33.7467 602.781 32.44 606.589 32.44C610.061 32.44 612.749 33.5413 614.653 35.744C616.594 37.9093 617.565 41.0267 617.565 45.096C617.565 46.0293 617.49 46.8133 617.341 47.448C617.229 48.0827 617.154 48.4747 617.117 48.624H602.053C602.09 51.984 602.575 54.3733 603.509 55.792C604.479 57.1733 606.029 57.864 608.157 57.864C609.426 57.864 610.546 57.6027 611.517 57.08C612.487 56.52 613.253 55.9227 613.813 55.288C614.373 54.616 614.653 54.2427 614.653 54.168L617.173 56.128C617.173 56.2773 616.781 56.8187 615.997 57.752C615.25 58.6853 614.13 59.5627 612.637 60.384C611.181 61.2053 609.389 61.616 607.261 61.616ZM610.621 44.984V43.696C610.621 40.8587 610.322 38.88 609.725 37.76C609.127 36.6027 608.082 36.024 606.589 36.024C605.543 36.024 604.703 36.2853 604.069 36.808C603.471 37.3307 603.005 38.2453 602.669 39.552C602.333 40.8213 602.127 42.632 602.053 44.984H610.621ZM619.616 33H630.312C634.27 33 637.144 33.6907 638.936 35.072C640.728 36.416 641.624 38.2267 641.624 40.504C641.624 43.304 639.982 45.3573 636.696 46.664C638.339 47.112 639.72 47.8587 640.84 48.904C641.998 49.912 642.576 51.2187 642.576 52.824C642.576 55.4373 641.643 57.4533 639.776 58.872C637.91 60.2907 634.792 61 630.424 61H619.616V33ZM631.152 45.488C631.152 45.5627 631.432 45.488 631.992 45.264C632.552 45.0027 633.056 44.536 633.504 43.864C633.952 43.1547 634.176 42.1653 634.176 40.896C634.176 37.872 632.851 36.36 630.2 36.36H627.064V45.488H631.152ZM630.256 57.64C631.899 57.64 633.094 57.1733 633.84 56.24C634.587 55.3067 634.96 54.056 634.96 52.488C634.96 49.576 633.523 48.12 630.648 48.12H627.064V57.64H630.256Z" fill="#BF0C00"/>
<path d="M-41.8359 23.3829C95.7063 1.49123 102.707 6.24156 -20.8344 37.6339C-142.689 67.9759 -135.689 72.7262 0.167037 51.8849C136.689 31.496 143.69 36.2463 21.1685 66.1359C-136.191 117.378 -129.19 122.128 42.17 80.3869C199.597 29.1911 206.598 33.9414 63.1714 94.6379C-193.196 243.301 -186.196 248.051 84.1729 108.889C318.08 -55.015 325.081 -50.2647 105.174 123.14C-111.588 293.191 -104.587 297.942 126.176 137.391C357.534 -22.7561 364.535 -18.0057 147.177 151.642C-69.549 320.62 -62.5485 325.371 168.179 165.893C399.027 6.49729 406.028 11.2476 189.18 180.144C58.204 258.067 65.2045 262.818 210.182 194.395C371.688 137.188 378.688 141.938 231.183 208.646C118.465 247.382 125.466 252.133 252.185 222.897C389.727 201.005 396.727 205.755 273.186 237.148C-0.449458 362.022 6.55103 366.773 294.187 251.399C522.486 95.7602 529.487 100.51 315.189 265.65C171.849 356.034 178.849 360.784 336.19 279.901C507.384 208.418 514.384 213.168 357.192 294.152C157.84 411.272 164.841 416.023 378.193 308.403C579.469 192.588 586.47 197.338 399.195 322.654C266.208 394.824 273.209 399.574 420.196 336.905C579.663 282.703 586.663 287.454 441.198 351.156C123.32 551.356 130.321 556.107 462.199 365.407C739.446 137.635 746.446 142.385 483.201 379.658C260.304 570.786 267.305 575.536 504.202 393.909C747.287 216.48 754.288 221.23 525.204 408.16C308.56 581.584 315.561 586.334 546.205 422.411C779.093 260.01 786.093 264.76 567.207 436.662C405.626 547.589 412.627 552.34 588.208 450.913C774.698 356.888 781.698 361.638 609.209 465.164C496.914 512.966 503.914 517.716 630.211 479.415C771.832 451.512 778.833 456.262 651.212 493.666C317.046 667.45 324.047 672.201 672.214 507.917C942.322 290.664 949.323 295.415 693.215 522.168" stroke="#BF0C00" stroke-width="10"/>
</g>
<rect x="4" y="4" width="654" height="552" stroke="white" stroke-width="8"/>
<defs>
<clipPath id="clip0_457_540">
<rect width="662" height="560" fill="white"/>
</clipPath>
</defs>
</svg>
