<svg width="40" height="1150" viewBox="0 0 40 1150" fill="none" xmlns="http://www.w3.org/2000/svg">
<g clip-path="url(#clip0_638_2903)">
<path d="M20 1136.9C-1.63 1120.11 -1.63 1110.67 20 1108.59C26.75 1105.99 26.75 1096.55 20 1080.28C13.25 1065.95 13.25 1056.51 20 1051.97C39.35 1044.22 39.35 1034.79 20 1023.66C0.65 1007.24 0.65 997.803 20 995.345C44 992.975 44 983.539 20 967.034C-4 949.849 -4 940.412 20 938.723C35.12 936.612 35.12 927.175 20 910.413C4.88 894.698 4.88 885.261 20 882.102C38.27 878.875 38.27 869.438 20 853.791C1.73 837.555 1.73 828.118 20 825.481C38.99 822.851 38.99 813.414 20 797.17C1.01 780.815 1.01 771.378 20 768.859C40.97 766.374 40.97 756.937 20 740.549C-0.97 723.865 -0.97 714.429 20 712.238C36.89 709.923 36.89 700.486 20 683.927C3.11 667.92 3.11 658.483 20 655.617C25.37 652.775 25.37 643.338 20 627.306C14.63 613.205 14.63 603.769 20 598.995C26.09 593.962 26.09 584.525 20 570.685C13.91 556.465 13.91 547.028 20 542.374C30.92 536.275 30.92 526.838 20 514.063C9.08 499.044 9.08 489.607 20 485.753C25.1 482.444 25.1 473.007 20 457.442C14.9 443.386 14.9 433.949 20 429.131C24.38 424.594 24.38 415.157 20 400.821C15.62 386.884 15.62 377.447 20 372.51C24.98 367.285 24.98 357.848 20 344.2C15.02 330.163 15.02 320.727 20 315.889C43.82 303.46 43.82 294.023 20 287.578C-3.82 270.423 -3.82 260.986 20 259.268C43.58 257.538 43.58 248.101 20 230.957C-3.58 213.842 -3.58 204.405 20 202.646C40.19 200.734 40.19 191.297 20 174.336C-0.190001 157.781 -0.190001 148.345 20 146.025C23.09 143.272 23.09 133.835 20 117.714C16.91 103.991 16.91 94.5542 20 89.4036C37.16 73.6914 37.16 64.2545 20 61.093C2.84 45.0404 2.84 35.6035 20 32.7823C23.24 29.9531 23.24 20.5162 20 4.47164" stroke="#003FFF" stroke-width="6"/>
</g>
<defs>
<clipPath id="clip0_638_2903">
<rect width="40" height="1150" fill="white"/>
</clipPath>
</defs>
</svg>
