<svg width="330" height="560" viewBox="0 0 330 560" fill="none" xmlns="http://www.w3.org/2000/svg">
<g clip-path="url(#clip0_457_543)">
<rect width="342" height="560" fill="#7EFFC1"/>
<g filter="url(#filter0_dddddd_457_543)">
<path d="M69.4413 236.508C13.6436 256.12 53.9893 302.482 129.531 302.482" stroke="#FF7FBC" stroke-width="8" stroke-linecap="round"/>
</g>
<g filter="url(#filter1_dddddd_457_543)">
<path d="M129.535 302.481C64.2956 259.687 57.4282 211.543 88.4824 190.158" stroke="#FF7FBC" stroke-width="8" stroke-linecap="round"/>
</g>
<g filter="url(#filter2_dddddd_457_543)">
<path d="M90.0464 189.255C108.074 179.447 141.552 192.821 167.305 221.351" stroke="#FF7FBC" stroke-width="8" stroke-linecap="round"/>
</g>
<g filter="url(#filter3_dddddd_457_543)">
<path d="M167.304 221.35C187.047 241.855 195.669 283.203 172.491 300.143" stroke="#FF7FBC" stroke-width="8" stroke-linecap="round"/>
</g>
<g filter="url(#filter4_dddddd_457_543)">
<path d="M272.56 237.062C328.357 256.675 288.012 303.036 212.469 303.036" stroke="#FF7FBC" stroke-width="8" stroke-linecap="round"/>
</g>
<g filter="url(#filter5_dddddd_457_543)">
<path d="M212.466 303.036C277.705 260.242 284.573 212.098 253.519 190.713" stroke="#FF7FBC" stroke-width="8" stroke-linecap="round"/>
</g>
<g filter="url(#filter6_dddddd_457_543)">
<path d="M251.955 189.81C233.927 180.002 200.449 193.376 174.696 221.906" stroke="#FF7FBC" stroke-width="8" stroke-linecap="round"/>
</g>
<g filter="url(#filter7_dddddd_457_543)">
<path d="M174.698 221.904C154.954 242.41 148.457 283.202 171.635 300.142" stroke="#FF7FBC" stroke-width="8" stroke-linecap="round"/>
</g>
<g filter="url(#filter8_dddddd_457_543)">
<path d="M215.496 223.729C219.807 228.304 222.229 236.846 220.196 238.912C218.163 240.979 211.219 237.035 206.908 232.46C202.597 227.886 200.749 222.502 202.782 220.436C204.815 218.369 211.185 219.155 215.496 223.729Z" fill="#FF7FBC"/>
</g>
<g filter="url(#filter9_dddddd_457_543)">
<path d="M234.418 223.766C230.128 228.362 227.747 236.917 229.79 238.973C231.832 241.029 238.758 237.05 243.047 232.453C247.337 227.857 249.159 222.464 247.116 220.408C245.074 218.352 238.708 219.17 234.418 223.766Z" fill="#FF7FBC"/>
</g>
<path d="M-197 423.242C-164.926 351.318 -218.014 351.318 -185.94 423.242C-153.866 495.167 -206.954 494.294 -174.88 423.242C-142.806 352.191 -195.894 352.191 -163.82 423.242C-131.746 494.294 -184.834 456.73 -152.76 423.242C-120.686 389.755 -173.774 389.755 -141.7 423.242C-109.626 456.73 -162.714 478.278 -130.64 423.242C-98.566 368.207 -151.654 368.207 -119.58 423.242C-87.506 478.278 -140.594 505.068 -108.52 423.242C-76.446 341.417 -129.534 341.417 -97.46 423.242C-65.386 505.068 -118.474 459.642 -86.4 423.242C-54.326 386.843 -107.414 386.843 -75.34 423.242C-43.266 459.642 -96.354 467.213 -64.28 423.242C-32.206 379.272 -85.294 379.272 -53.22 423.242C-21.146 467.213 -74.234 467.213 -42.16 423.242C-10.086 379.272 -63.174 379.272 -31.1 423.242C0.974006 467.213 -52.114 454.4 -20.04 423.242C12.034 392.085 -41.054 392.085 -8.97999 423.242C23.094 454.4 -29.994 484.393 2.08001 423.242C34.154 362.092 -18.934 362.092 13.14 423.242C45.214 484.393 -7.87399 455.856 24.2 423.242C56.274 390.629 3.18601 390.629 35.26 423.242C67.334 455.856 14.246 492.546 46.32 423.242C78.394 353.939 25.306 353.939 57.38 423.242C89.454 492.546 36.366 496.332 68.44 423.242C100.514 350.153 47.426 350.153 79.5 423.242C111.574 496.332 58.486 495.458 90.56 423.242C122.634 351.027 69.546 351.027 101.62 423.242C133.694 495.458 80.606 506.232 112.68 423.242C144.754 340.253 91.666 340.253 123.74 423.242C155.814 506.232 102.726 459.35 134.8 423.242C166.874 387.135 113.786 387.135 145.86 423.242C177.934 459.35 124.846 500.7 156.92 423.242C188.994 345.785 135.906 345.785 167.98 423.242C200.054 500.7 146.966 502.447 179.04 423.242C211.114 344.038 158.026 344.038 190.1 423.242C222.174 502.447 169.086 500.991 201.16 423.242C233.234 345.494 180.146 345.494 212.22 423.242C244.294 500.991 191.206 500.991 223.28 423.242C255.354 345.494 202.266 345.494 234.34 423.242C266.414 500.991 213.326 452.362 245.4 423.242C277.474 394.123 224.386 394.123 256.46 423.242C288.534 452.362 235.446 458.768 267.52 423.242C299.594 387.717 246.506 387.717 278.58 423.242C310.654 458.768 257.566 479.734 289.64 423.242C321.714 366.751 268.626 366.751 300.7 423.242C332.774 479.734 279.686 485.558 311.76 423.242C343.834 360.927 290.746 360.927 322.82 423.242C354.894 485.558 301.806 484.684 333.88 423.242C365.954 361.801 312.866 361.801 344.94 423.242C377.014 484.684 323.926 476.531 356 423.242" stroke="#FF7FBC" stroke-width="6"/>
<path d="M74.056 68.56C73.3093 68.56 72.6 68.168 71.928 67.384C71.2933 66.6 70.7707 65.5547 70.36 64.248C69.9867 62.9413 69.8 61.56 69.8 60.104C69.8 58.312 69.8747 56.4827 70.024 54.616C69.464 54.5413 69.184 54.224 69.184 53.664C69.184 53.552 69.2213 53.3467 69.296 53.048L70.416 51.088C71.2373 45.264 72.88 37.6293 75.344 28.184C77.0987 21.8373 79.1707 17.432 81.56 14.968C82.344 14.1467 83.0907 13.736 83.8 13.736C86.376 13.736 87.664 15.304 87.664 18.44C87.664 22.36 85.928 26.84 82.456 31.88C81.4853 33.336 80.1413 35.296 78.424 37.76C76.632 40.2987 75.2693 42.6133 74.336 44.704C74.1493 45.1147 73.888 45.3947 73.552 45.544L73.384 46.608C77.0053 41.9787 80.272 39.664 83.184 39.664C84.3413 39.664 85.1627 40.28 85.648 41.512C86.1333 42.7067 86.376 44.1067 86.376 45.712C86.376 48.3253 85.7973 51.4613 84.64 55.12C83.52 58.7413 82.1387 61.7467 80.496 64.136C78.4053 67.0853 76.2587 68.56 74.056 68.56ZM76.744 36.416C77.7893 34.848 78.4987 33.7653 78.872 33.168L79.824 31.768C83.2213 26.4667 84.92 22.3787 84.92 19.504C84.92 18.5707 84.864 17.88 84.752 17.432C84.64 16.9467 84.36 16.704 83.912 16.704C83.0907 16.704 82.12 17.824 81 20.064C78.7973 24.432 76.7067 30.9467 74.728 39.608L76.744 36.416ZM74.616 65.816C75.9973 65.816 77.3787 64.6587 78.76 62.344C80.1787 60.0293 81.3733 57.136 82.344 53.664C83.24 50.3413 83.688 47.9147 83.688 46.384C83.688 44.7413 83.5947 43.752 83.408 43.416C83.2213 43.0053 82.7547 42.8 82.008 42.8C80.664 42.8 79.2267 43.584 77.696 45.152C76.2027 46.6827 74.5227 48.96 72.656 51.984C72.432 54.112 72.32 56.0907 72.32 57.92C72.32 63.184 73.0853 65.816 74.616 65.816ZM92.0718 68.672C90.7278 68.672 89.6638 68.3547 88.8798 67.72C88.0958 67.048 87.4611 65.9467 86.9758 64.416C86.9011 64.304 86.8638 64.0613 86.8638 63.688C86.8638 63.352 87.0131 63.0347 87.3118 62.736C87.6105 62.4 87.9465 62.232 88.3198 62.232C88.6558 62.232 88.9731 62.4373 89.2718 62.848C89.2718 65.1253 90.3545 66.264 92.5198 66.264C94.1251 66.264 95.7305 65.4613 97.3358 63.856C98.9411 62.2133 100.416 60.0667 101.76 57.416C102.954 55.1013 103.832 52.992 104.392 51.088L104.84 49.632C105.25 48.2507 105.68 46.8693 106.128 45.488C106.613 44.0693 107.098 42.856 107.584 41.848C108.218 40.5413 108.853 39.888 109.488 39.888C110.16 39.888 110.496 40.2427 110.496 40.952C110.496 41.5867 110.141 42.912 109.432 44.928C108.648 47.28 107.994 50.08 107.472 53.328C106.949 56.5387 106.688 59.7493 106.688 62.96C106.688 64.7893 107.061 65.816 107.808 66.04L108.48 66.096C109.04 66.096 109.525 65.9653 109.936 65.704C110.048 65.6667 110.309 65.48 110.72 65.144C110.794 65.0693 111.093 64.8267 111.616 64.416C112.138 63.968 112.586 63.744 112.96 63.744C113.632 63.744 113.968 64.0987 113.968 64.808C113.968 65.256 113.632 65.7787 112.96 66.376C112.288 66.9733 111.485 67.4773 110.552 67.888C109.618 68.2987 108.76 68.504 107.976 68.504C105.586 68.504 104.392 65.9093 104.392 60.72C104.392 59.712 104.485 58.3307 104.672 56.576C103.328 60.048 101.461 62.9413 99.0718 65.256C96.7198 67.5333 94.3865 68.672 92.0718 68.672ZM117.75 68.672C117.078 68.672 116.742 68.3547 116.742 67.72C116.742 67.4587 116.872 66.9173 117.134 66.096C117.694 64.304 118.384 61.4293 119.206 57.472L120.102 52.432L120.83 48.344C121.016 47.448 121.203 46.0853 121.39 44.256C121.726 40.7467 122.547 38.992 123.854 38.992C124.6 38.992 124.974 39.5333 124.974 40.616C124.899 40.9147 124.768 41.1947 124.582 41.456C124.134 43.7333 123.872 45.208 123.798 45.88C123.611 47 123.331 48.2507 122.958 49.632C122.659 50.752 122.416 51.7973 122.23 52.768C123.462 52.32 124.918 52.096 126.598 52.096L130.182 52.208C131.04 49.2587 132.608 46.1413 134.886 42.856C136.304 40.8773 138.582 39.888 141.718 39.888C142.726 39.888 143.64 40.1867 144.462 40.784C145.283 41.3813 145.768 42.2027 145.918 43.248C146.142 43.5467 146.291 43.808 146.366 44.032C146.254 48.288 145.862 51.76 145.19 54.448C144.518 57.0987 143.64 59.488 142.558 61.616C140.654 65.1253 138.395 67.2347 135.782 67.944C134.55 68.28 133.598 68.448 132.926 68.448C131.656 68.448 130.667 67.7573 129.958 66.376C129.286 64.9947 128.95 63.2027 128.95 61C128.95 59.0587 129.155 56.968 129.566 54.728L126.766 54.672C125.832 54.672 124.862 54.7653 123.854 54.952C122.92 55.176 122.416 55.3813 122.342 55.568C122.192 55.792 121.95 55.9787 121.614 56.128C121.464 56.9867 121.371 57.584 121.334 57.92C120.96 60.0853 120.606 61.9147 120.27 63.408C119.971 64.864 119.56 66.3947 119.038 68C118.702 68.448 118.272 68.672 117.75 68.672ZM134.102 66.152C135.222 66.152 136.566 65.3867 138.134 63.856C139.702 62.288 140.822 60.6453 141.494 58.928C142.203 57.0987 142.726 55.232 143.062 53.328C143.398 51.3867 143.64 48.6427 143.79 45.096C143.678 44.984 143.547 44.7787 143.398 44.48C143.36 43.136 142.67 42.464 141.326 42.464C139.086 42.464 137.219 43.416 135.726 45.32C134.27 47.224 133.187 49.7253 132.478 52.824C131.843 55.7733 131.526 58.424 131.526 60.776C131.526 64.36 132.384 66.152 134.102 66.152ZM152.561 68.672C149.126 68.672 147.409 66.5627 147.409 62.344C147.409 59.1333 147.745 56.0533 148.417 53.104C149.126 50.1173 150.041 47.5227 151.161 45.32C152.318 43.1173 153.569 41.5307 154.913 40.56C155.958 39.8133 156.929 39.44 157.825 39.44C159.542 39.44 160.756 39.7947 161.465 40.504C161.054 39.1973 160.457 37.8533 159.673 36.472C158.814 35.0533 158.105 33.7653 157.545 32.608C155.828 29.4347 154.969 26.3733 154.969 23.424C154.969 21.52 155.342 19.84 156.089 18.384C156.873 16.8907 157.918 15.7333 159.225 14.912C160.532 14.0533 162.006 13.624 163.649 13.624C165.142 13.624 166.505 13.8293 167.737 14.24C169.305 14.688 170.462 14.9867 171.209 15.136C171.993 15.2853 172.926 15.36 174.009 15.36C175.876 15.36 177.35 15.1547 178.433 14.744C178.433 14.744 178.825 14.6133 179.609 14.352C179.908 14.24 180.281 14.184 180.729 14.184C181.401 14.184 181.737 14.464 181.737 15.024C181.737 15.8453 181.046 16.536 179.665 17.096C178.284 17.656 176.772 17.936 175.129 17.936C173.748 17.936 172.684 17.88 171.937 17.768C171.19 17.6187 169.865 17.2827 167.961 16.76C166.318 16.3493 164.601 16.144 162.809 16.144C161.129 16.144 159.841 16.872 158.945 18.328C158.049 19.784 157.601 21.5013 157.601 23.48C157.601 25.272 157.844 26.8773 158.329 28.296C158.814 29.6773 159.785 31.6 161.241 34.064C163.63 38.0213 164.825 41.456 164.825 44.368L164.545 46.888V47C164.545 49.912 164.116 52.7867 163.257 55.624C162.436 58.4613 161.353 60.944 160.009 63.072C158.702 65.2 157.34 66.7307 155.921 67.664C154.876 68.336 153.756 68.672 152.561 68.672ZM152.505 65.928C153.476 65.928 154.372 65.6107 155.193 64.976C156.014 64.304 156.798 63.352 157.545 62.12C158.852 59.8427 159.916 57.136 160.737 54C161.558 51.0133 161.969 48.3813 161.969 46.104C161.969 44.872 161.652 43.9387 161.017 43.304C160.382 42.6693 159.542 42.352 158.497 42.352C157.526 42.352 156.705 42.632 156.033 43.192C155.398 43.752 154.614 44.76 153.681 46.216C152.748 47.7093 151.87 49.8933 151.049 52.768C150.265 55.6053 149.873 58.0133 149.873 59.992C149.873 62.0827 150.06 63.5947 150.433 64.528C150.806 65.4613 151.497 65.928 152.505 65.928ZM170.461 68.672C169.117 68.672 168.053 68.3547 167.269 67.72C166.485 67.048 165.85 65.9467 165.365 64.416C165.29 64.304 165.253 64.0613 165.253 63.688C165.253 63.352 165.402 63.0347 165.701 62.736C166 62.4 166.336 62.232 166.709 62.232C167.045 62.232 167.362 62.4373 167.661 62.848C167.661 65.1253 168.744 66.264 170.909 66.264C172.514 66.264 174.12 65.4613 175.725 63.856C177.33 62.2133 178.805 60.0667 180.149 57.416C181.344 55.1013 182.221 52.992 182.781 51.088L183.229 49.632C183.64 48.2507 184.069 46.8693 184.517 45.488C185.002 44.0693 185.488 42.856 185.973 41.848C186.608 40.5413 187.242 39.888 187.877 39.888C188.549 39.888 188.885 40.2427 188.885 40.952C188.885 41.5867 188.53 42.912 187.821 44.928C187.037 47.28 186.384 50.08 185.861 53.328C185.338 56.5387 185.077 59.7493 185.077 62.96C185.077 64.7893 185.45 65.816 186.197 66.04L186.869 66.096C187.429 66.096 187.914 65.9653 188.325 65.704C188.437 65.6667 188.698 65.48 189.109 65.144C189.184 65.0693 189.482 64.8267 190.005 64.416C190.528 63.968 190.976 63.744 191.349 63.744C192.021 63.744 192.357 64.0987 192.357 64.808C192.357 65.256 192.021 65.7787 191.349 66.376C190.677 66.9733 189.874 67.4773 188.941 67.888C188.008 68.2987 187.149 68.504 186.365 68.504C183.976 68.504 182.781 65.9093 182.781 60.72C182.781 59.712 182.874 58.3307 183.061 56.576C181.717 60.048 179.85 62.9413 177.461 65.256C175.109 67.5333 172.776 68.672 170.461 68.672ZM200.886 68.56C199.691 68.56 198.758 68.3733 198.086 68C197.414 67.5893 196.872 66.9733 196.462 66.152C195.678 64.696 195.285 62.9413 195.285 60.888C195.285 57.304 195.827 53.9067 196.91 50.696C197.992 47.448 199.467 44.7227 201.334 42.52C203.126 40.4293 205.086 39.384 207.214 39.384C208.334 39.384 209.211 39.8507 209.846 40.784C210.518 41.68 210.854 42.7813 210.854 44.088C210.854 46.3653 210.256 48.344 209.062 50.024C207.904 51.704 206.336 53.104 204.358 54.224C202.64 55.232 200.55 56.24 198.086 57.248L197.974 61.28C197.974 64.416 198.925 65.984 200.829 65.984C201.688 65.984 202.584 65.7787 203.518 65.368C204.451 64.92 205.422 64.3973 206.43 63.8C206.915 63.5387 207.307 63.408 207.606 63.408C208.24 63.408 208.558 63.744 208.558 64.416C208.558 64.9013 208.091 65.48 207.158 66.152C206.262 66.824 205.198 67.4027 203.966 67.888C202.734 68.336 201.707 68.56 200.886 68.56ZM198.534 54.56C198.87 54.3733 199.616 53.9813 200.774 53.384C201.296 53.16 202.043 52.7867 203.014 52.264C204.768 51.2933 206.075 50.1733 206.934 48.904C207.83 47.6347 208.278 46.0667 208.278 44.2C208.278 42.744 207.662 42.016 206.43 42.016C205.347 42.016 204.078 43.0053 202.622 44.984C201.091 46.9627 199.859 49.5573 198.926 52.768C198.664 53.664 198.534 54.2613 198.534 54.56ZM228.618 68.616C227.572 68.616 226.77 68.336 226.21 67.776C225.687 67.216 225.426 66.488 225.426 65.592C225.426 64.6587 225.668 63.0533 226.154 60.776L227.442 54C224.716 56.0533 222.196 57.08 219.882 57.08C218.202 57.08 216.914 56.632 216.018 55.736C215.943 56.1093 215.868 56.4827 215.794 56.856C215.756 57.2293 215.7 57.6027 215.626 57.976C215.476 59.208 215.29 60.4587 215.066 61.728C214.394 66.1707 213.386 68.392 212.042 68.392C211.482 68.392 211.146 68 211.034 67.216C211.37 64.304 212.191 59.7867 213.498 53.664C214.842 47.504 215.794 43.3413 216.354 41.176C216.466 40.8027 216.671 40.4853 216.97 40.224C217.306 39.9627 217.642 39.832 217.978 39.832C218.426 39.832 218.743 40.1493 218.93 40.784C218.93 41.3813 218.594 43.3227 217.922 46.608C217.399 49.1093 216.988 51.256 216.69 53.048C217.511 53.9813 218.799 54.448 220.554 54.448C222.271 54.448 224.156 53.5893 226.21 51.872C226.844 51.312 227.442 50.7147 228.002 50.08L228.842 46.328C229.476 43.6027 230.167 41.7173 230.914 40.672C231.287 40.0747 231.791 39.776 232.426 39.776C233.06 39.776 233.378 40.1307 233.378 40.84V41.12C231.324 48.176 230.036 53.2907 229.514 56.464C229.028 59.1893 228.711 61.336 228.562 62.904C228.45 64.136 228.375 64.808 228.338 64.92L228.282 65.648C228.282 65.872 228.375 65.984 228.562 65.984C228.711 65.984 228.842 65.928 228.954 65.816C229.14 65.704 229.439 65.648 229.85 65.648C230.484 65.648 230.802 65.984 230.802 66.656C230.802 67.9627 230.074 68.616 228.618 68.616ZM252.56 68.616C251.515 68.616 250.712 68.336 250.152 67.776C249.629 67.216 249.368 66.488 249.368 65.592C249.368 64.6587 249.611 63.0533 250.096 60.776L251.384 54C248.659 56.0533 246.139 57.08 243.824 57.08C242.144 57.08 240.856 56.632 239.96 55.736C239.885 56.1093 239.811 56.4827 239.736 56.856C239.699 57.2293 239.643 57.6027 239.568 57.976C239.419 59.208 239.232 60.4587 239.008 61.728C238.336 66.1707 237.328 68.392 235.984 68.392C235.424 68.392 235.088 68 234.976 67.216C235.312 64.304 236.133 59.7867 237.44 53.664C238.784 47.504 239.736 43.3413 240.296 41.176C240.408 40.8027 240.613 40.4853 240.912 40.224C241.248 39.9627 241.584 39.832 241.92 39.832C242.368 39.832 242.685 40.1493 242.872 40.784C242.872 41.3813 242.536 43.3227 241.864 46.608C241.341 49.1093 240.931 51.256 240.632 53.048C241.453 53.9813 242.741 54.448 244.496 54.448C246.213 54.448 248.099 53.5893 250.152 51.872C250.787 51.312 251.384 50.7147 251.944 50.08L252.784 46.328C253.419 43.6027 254.109 41.7173 254.856 40.672C255.229 40.0747 255.733 39.776 256.368 39.776C257.003 39.776 257.32 40.1307 257.32 40.84V41.12C255.267 48.176 253.979 53.2907 253.456 56.464C252.971 59.1893 252.653 61.336 252.504 62.904C252.392 64.136 252.317 64.808 252.28 64.92L252.224 65.648C252.224 65.872 252.317 65.984 252.504 65.984C252.653 65.984 252.784 65.928 252.896 65.816C253.083 65.704 253.381 65.648 253.792 65.648C254.427 65.648 254.744 65.984 254.744 66.656C254.744 67.9627 254.016 68.616 252.56 68.616ZM264.126 68.504C262.185 68.504 260.729 67.7387 259.758 66.208C258.825 64.6773 258.358 62.848 258.358 60.72C258.358 57.3227 258.918 54.0373 260.038 50.864C261.195 47.6533 262.763 45.0027 264.742 42.912C266.646 40.784 268.793 39.72 271.182 39.72C274.617 39.72 276.334 42.3333 276.334 47.56C276.334 50.1733 275.905 52.8427 275.046 55.568C274.187 58.2933 273.067 60.72 271.686 62.848C270.342 64.976 268.942 66.5067 267.486 67.44C266.366 68.1493 265.246 68.504 264.126 68.504ZM264.574 65.984C265.731 65.984 267.019 64.976 268.438 62.96C269.894 60.944 271.107 58.4427 272.078 55.456C273.086 52.4693 273.59 49.9307 273.59 47.84C273.59 45.6747 273.459 44.3307 273.198 43.808C272.974 43.248 272.694 42.856 272.358 42.632C272.022 42.408 271.499 42.296 270.79 42.296C270.006 42.296 269.185 42.5947 268.326 43.192C266.609 44.2747 265.115 46.1413 263.846 48.792C261.867 52.7493 260.878 56.5947 260.878 60.328C260.878 62.8667 261.606 64.6213 263.062 65.592C263.585 65.8533 264.089 65.984 264.574 65.984ZM282.654 68.672C280.862 68.672 279.444 68.0187 278.398 66.712C277.39 65.368 276.886 63.7627 276.886 61.896C276.886 58.6107 277.484 55.2133 278.678 51.704C279.91 48.1947 281.516 45.264 283.494 42.912C285.473 40.56 287.564 39.384 289.766 39.384C291.372 39.384 292.417 39.9627 292.902 41.12C293.014 41.3067 293.108 41.512 293.182 41.736C293.257 41.9227 293.332 42.1093 293.406 42.296C293.593 42.8187 293.78 43.1173 293.966 43.192C294.116 43.5653 294.19 43.8453 294.19 44.032C294.19 44.368 294.022 44.6853 293.686 44.984C293.388 45.2827 293.052 45.432 292.678 45.432C291.894 45.432 291.39 44.8533 291.166 43.696C290.942 42.5387 290.326 41.96 289.318 41.96C287.974 41.96 286.556 43.0053 285.062 45.096C283.569 47.1493 282.281 49.7627 281.198 52.936C280.153 55.9227 279.63 58.592 279.63 60.944C279.63 64.2667 280.844 65.928 283.27 65.928C284.502 65.928 285.641 65.3493 286.686 64.192C286.798 64.0427 287.004 63.8 287.302 63.464C287.601 63.0907 287.881 62.8293 288.142 62.68C288.404 62.4933 288.646 62.4 288.87 62.4C289.58 62.4 289.934 62.7173 289.934 63.352C289.934 64.0987 289.58 64.9013 288.87 65.76C288.161 66.5813 287.246 67.272 286.126 67.832C285.006 68.392 283.849 68.672 282.654 68.672ZM293.903 42.912C293.455 42.912 293.063 42.7813 292.727 42.52C292.428 42.2587 292.279 41.9787 292.279 41.68C292.279 41.4187 292.409 41.1947 292.671 41.008C295.807 39.664 299.727 38.992 304.431 38.992C306.447 38.992 308.108 39.0667 309.415 39.216C310.684 39.4027 311.785 39.5333 312.719 39.608C313.503 39.72 313.969 39.8507 314.119 40C314.268 40.1867 314.343 40.448 314.343 40.784C314.343 41.12 314.156 41.456 313.783 41.792C313.409 42.0907 312.943 42.24 312.383 42.24C311.748 42.24 310.684 42.072 309.191 41.736C307.623 41.4373 306.129 41.288 304.711 41.288C300.903 41.288 297.449 41.8107 294.351 42.856L294.127 42.912H293.903ZM296.815 68.84C296.18 68.84 295.863 68.4667 295.863 67.72C295.863 67.3467 295.993 66.992 296.255 66.656C296.591 65.76 296.927 64.5467 297.263 63.016C297.711 61.112 298.009 59.936 298.159 59.488L298.719 56.632L299.335 53.048C299.969 49.3893 300.567 46.7573 301.127 45.152C301.724 43.5467 302.527 42.744 303.535 42.744C303.908 42.744 304.207 42.9867 304.431 43.472L305.159 45.376C305.159 46.16 304.879 46.7573 304.319 47.168C304.169 47.28 303.983 47.336 303.759 47.336C303.535 47.336 303.329 47.224 303.143 47C302.284 50.1733 301.761 52.488 301.575 53.944C301.201 56.3707 300.884 58.2373 300.623 59.544C300.473 59.9547 300.305 60.552 300.119 61.336L299.615 63.184C298.644 66.9547 297.711 68.84 296.815 68.84ZM314.718 68.84C311.508 68.84 309.902 66.656 309.902 62.288C309.902 60.6827 310.145 58.7227 310.63 56.408L311.638 51.592L313.822 40.952C313.972 40.6533 314.214 40.4107 314.55 40.224C314.886 40 315.204 39.888 315.502 39.888C315.764 39.888 316.025 40.056 316.286 40.392C316.548 40.728 316.678 41.0827 316.678 41.456L314.886 48.456L313.15 55.792C312.553 58.48 312.254 60.5333 312.254 61.952C312.254 63.52 312.478 64.64 312.926 65.312C313.374 65.9467 314.102 66.264 315.11 66.264C316.678 66.264 317.966 65.7413 318.974 64.696C319.982 63.6507 320.71 62.2693 321.158 60.552C321.569 58.9093 321.774 57.472 321.774 56.24C321.774 53.0293 320.99 51.424 319.422 51.424C318.414 51.424 317.5 52.2267 316.678 53.832C316.23 54.728 315.838 55.3813 315.502 55.792C315.204 56.0907 314.942 56.24 314.718 56.24C314.046 56.24 313.71 55.9227 313.71 55.288C313.71 54.9147 314.084 54.1493 314.83 52.992C315.614 51.7973 316.249 50.92 316.734 50.36C317.78 49.3147 318.75 48.792 319.646 48.792C321.14 48.792 322.278 49.5013 323.062 50.92C323.846 52.3387 324.238 54.0747 324.238 56.128C324.238 58.48 323.809 60.6267 322.95 62.568C322.129 64.5093 320.99 66.04 319.534 67.16C318.078 68.28 316.473 68.84 314.718 68.84Z" fill="#FF7FBC"/>
</g>
<rect x="4" y="4" width="334" height="552" stroke="white" stroke-width="8"/>
<defs>
<filter id="filter0_dddddd_457_543" x="39.4795" y="232.432" width="93.9756" height="74.125" filterUnits="userSpaceOnUse" color-interpolation-filters="sRGB">
<feFlood flood-opacity="0" result="BackgroundImageFix"/>
<feColorMatrix in="SourceAlpha" type="matrix" values="0 0 0 0 0 0 0 0 0 0 0 0 0 0 0 0 0 0 127 0" result="hardAlpha"/>
<feOffset/>
<feColorMatrix type="matrix" values="0 0 0 0 1 0 0 0 0 1 0 0 0 0 1 0 0 0 1 0"/>
<feBlend mode="normal" in2="BackgroundImageFix" result="effect1_dropShadow_457_543"/>
<feColorMatrix in="SourceAlpha" type="matrix" values="0 0 0 0 0 0 0 0 0 0 0 0 0 0 0 0 0 0 127 0" result="hardAlpha"/>
<feOffset/>
<feColorMatrix type="matrix" values="0 0 0 0 1 0 0 0 0 1 0 0 0 0 1 0 0 0 1 0"/>
<feBlend mode="normal" in2="effect1_dropShadow_457_543" result="effect2_dropShadow_457_543"/>
<feColorMatrix in="SourceAlpha" type="matrix" values="0 0 0 0 0 0 0 0 0 0 0 0 0 0 0 0 0 0 127 0" result="hardAlpha"/>
<feOffset/>
<feColorMatrix type="matrix" values="0 0 0 0 1 0 0 0 0 1 0 0 0 0 1 0 0 0 1 0"/>
<feBlend mode="normal" in2="effect2_dropShadow_457_543" result="effect3_dropShadow_457_543"/>
<feColorMatrix in="SourceAlpha" type="matrix" values="0 0 0 0 0 0 0 0 0 0 0 0 0 0 0 0 0 0 127 0" result="hardAlpha"/>
<feOffset/>
<feColorMatrix type="matrix" values="0 0 0 0 1 0 0 0 0 1 0 0 0 0 1 0 0 0 1 0"/>
<feBlend mode="normal" in2="effect3_dropShadow_457_543" result="effect4_dropShadow_457_543"/>
<feColorMatrix in="SourceAlpha" type="matrix" values="0 0 0 0 0 0 0 0 0 0 0 0 0 0 0 0 0 0 127 0" result="hardAlpha"/>
<feOffset/>
<feColorMatrix type="matrix" values="0 0 0 0 1 0 0 0 0 1 0 0 0 0 1 0 0 0 1 0"/>
<feBlend mode="normal" in2="effect4_dropShadow_457_543" result="effect5_dropShadow_457_543"/>
<feColorMatrix in="SourceAlpha" type="matrix" values="0 0 0 0 0 0 0 0 0 0 0 0 0 0 0 0 0 0 127 0" result="hardAlpha"/>
<feOffset/>
<feColorMatrix type="matrix" values="0 0 0 0 1 0 0 0 0 1 0 0 0 0 1 0 0 0 1 0"/>
<feBlend mode="normal" in2="effect5_dropShadow_457_543" result="effect6_dropShadow_457_543"/>
<feBlend mode="normal" in="SourceGraphic" in2="effect6_dropShadow_457_543" result="shape"/>
</filter>
<filter id="filter1_dddddd_457_543" x="66.6523" y="186.127" width="66.8525" height="120.385" filterUnits="userSpaceOnUse" color-interpolation-filters="sRGB">
<feFlood flood-opacity="0" result="BackgroundImageFix"/>
<feColorMatrix in="SourceAlpha" type="matrix" values="0 0 0 0 0 0 0 0 0 0 0 0 0 0 0 0 0 0 127 0" result="hardAlpha"/>
<feOffset/>
<feColorMatrix type="matrix" values="0 0 0 0 1 0 0 0 0 1 0 0 0 0 1 0 0 0 1 0"/>
<feBlend mode="normal" in2="BackgroundImageFix" result="effect1_dropShadow_457_543"/>
<feColorMatrix in="SourceAlpha" type="matrix" values="0 0 0 0 0 0 0 0 0 0 0 0 0 0 0 0 0 0 127 0" result="hardAlpha"/>
<feOffset/>
<feColorMatrix type="matrix" values="0 0 0 0 1 0 0 0 0 1 0 0 0 0 1 0 0 0 1 0"/>
<feBlend mode="normal" in2="effect1_dropShadow_457_543" result="effect2_dropShadow_457_543"/>
<feColorMatrix in="SourceAlpha" type="matrix" values="0 0 0 0 0 0 0 0 0 0 0 0 0 0 0 0 0 0 127 0" result="hardAlpha"/>
<feOffset/>
<feColorMatrix type="matrix" values="0 0 0 0 1 0 0 0 0 1 0 0 0 0 1 0 0 0 1 0"/>
<feBlend mode="normal" in2="effect2_dropShadow_457_543" result="effect3_dropShadow_457_543"/>
<feColorMatrix in="SourceAlpha" type="matrix" values="0 0 0 0 0 0 0 0 0 0 0 0 0 0 0 0 0 0 127 0" result="hardAlpha"/>
<feOffset/>
<feColorMatrix type="matrix" values="0 0 0 0 1 0 0 0 0 1 0 0 0 0 1 0 0 0 1 0"/>
<feBlend mode="normal" in2="effect3_dropShadow_457_543" result="effect4_dropShadow_457_543"/>
<feColorMatrix in="SourceAlpha" type="matrix" values="0 0 0 0 0 0 0 0 0 0 0 0 0 0 0 0 0 0 127 0" result="hardAlpha"/>
<feOffset/>
<feColorMatrix type="matrix" values="0 0 0 0 1 0 0 0 0 1 0 0 0 0 1 0 0 0 1 0"/>
<feBlend mode="normal" in2="effect4_dropShadow_457_543" result="effect5_dropShadow_457_543"/>
<feColorMatrix in="SourceAlpha" type="matrix" values="0 0 0 0 0 0 0 0 0 0 0 0 0 0 0 0 0 0 127 0" result="hardAlpha"/>
<feOffset/>
<feColorMatrix type="matrix" values="0 0 0 0 1 0 0 0 0 1 0 0 0 0 1 0 0 0 1 0"/>
<feBlend mode="normal" in2="effect5_dropShadow_457_543" result="effect6_dropShadow_457_543"/>
<feBlend mode="normal" in="SourceGraphic" in2="effect6_dropShadow_457_543" result="shape"/>
</filter>
<filter id="filter2_dddddd_457_543" x="86.0811" y="182.025" width="85.1885" height="43.3613" filterUnits="userSpaceOnUse" color-interpolation-filters="sRGB">
<feFlood flood-opacity="0" result="BackgroundImageFix"/>
<feColorMatrix in="SourceAlpha" type="matrix" values="0 0 0 0 0 0 0 0 0 0 0 0 0 0 0 0 0 0 127 0" result="hardAlpha"/>
<feOffset/>
<feColorMatrix type="matrix" values="0 0 0 0 1 0 0 0 0 1 0 0 0 0 1 0 0 0 1 0"/>
<feBlend mode="normal" in2="BackgroundImageFix" result="effect1_dropShadow_457_543"/>
<feColorMatrix in="SourceAlpha" type="matrix" values="0 0 0 0 0 0 0 0 0 0 0 0 0 0 0 0 0 0 127 0" result="hardAlpha"/>
<feOffset/>
<feColorMatrix type="matrix" values="0 0 0 0 1 0 0 0 0 1 0 0 0 0 1 0 0 0 1 0"/>
<feBlend mode="normal" in2="effect1_dropShadow_457_543" result="effect2_dropShadow_457_543"/>
<feColorMatrix in="SourceAlpha" type="matrix" values="0 0 0 0 0 0 0 0 0 0 0 0 0 0 0 0 0 0 127 0" result="hardAlpha"/>
<feOffset/>
<feColorMatrix type="matrix" values="0 0 0 0 1 0 0 0 0 1 0 0 0 0 1 0 0 0 1 0"/>
<feBlend mode="normal" in2="effect2_dropShadow_457_543" result="effect3_dropShadow_457_543"/>
<feColorMatrix in="SourceAlpha" type="matrix" values="0 0 0 0 0 0 0 0 0 0 0 0 0 0 0 0 0 0 127 0" result="hardAlpha"/>
<feOffset/>
<feColorMatrix type="matrix" values="0 0 0 0 1 0 0 0 0 1 0 0 0 0 1 0 0 0 1 0"/>
<feBlend mode="normal" in2="effect3_dropShadow_457_543" result="effect4_dropShadow_457_543"/>
<feColorMatrix in="SourceAlpha" type="matrix" values="0 0 0 0 0 0 0 0 0 0 0 0 0 0 0 0 0 0 127 0" result="hardAlpha"/>
<feOffset/>
<feColorMatrix type="matrix" values="0 0 0 0 1 0 0 0 0 1 0 0 0 0 1 0 0 0 1 0"/>
<feBlend mode="normal" in2="effect4_dropShadow_457_543" result="effect5_dropShadow_457_543"/>
<feColorMatrix in="SourceAlpha" type="matrix" values="0 0 0 0 0 0 0 0 0 0 0 0 0 0 0 0 0 0 127 0" result="hardAlpha"/>
<feOffset/>
<feColorMatrix type="matrix" values="0 0 0 0 1 0 0 0 0 1 0 0 0 0 1 0 0 0 1 0"/>
<feBlend mode="normal" in2="effect5_dropShadow_457_543" result="effect6_dropShadow_457_543"/>
<feBlend mode="normal" in="SourceGraphic" in2="effect6_dropShadow_457_543" result="shape"/>
</filter>
<filter id="filter3_dddddd_457_543" x="163.304" y="217.35" width="27.0928" height="86.793" filterUnits="userSpaceOnUse" color-interpolation-filters="sRGB">
<feFlood flood-opacity="0" result="BackgroundImageFix"/>
<feColorMatrix in="SourceAlpha" type="matrix" values="0 0 0 0 0 0 0 0 0 0 0 0 0 0 0 0 0 0 127 0" result="hardAlpha"/>
<feOffset/>
<feColorMatrix type="matrix" values="0 0 0 0 1 0 0 0 0 1 0 0 0 0 1 0 0 0 1 0"/>
<feBlend mode="normal" in2="BackgroundImageFix" result="effect1_dropShadow_457_543"/>
<feColorMatrix in="SourceAlpha" type="matrix" values="0 0 0 0 0 0 0 0 0 0 0 0 0 0 0 0 0 0 127 0" result="hardAlpha"/>
<feOffset/>
<feColorMatrix type="matrix" values="0 0 0 0 1 0 0 0 0 1 0 0 0 0 1 0 0 0 1 0"/>
<feBlend mode="normal" in2="effect1_dropShadow_457_543" result="effect2_dropShadow_457_543"/>
<feColorMatrix in="SourceAlpha" type="matrix" values="0 0 0 0 0 0 0 0 0 0 0 0 0 0 0 0 0 0 127 0" result="hardAlpha"/>
<feOffset/>
<feColorMatrix type="matrix" values="0 0 0 0 1 0 0 0 0 1 0 0 0 0 1 0 0 0 1 0"/>
<feBlend mode="normal" in2="effect2_dropShadow_457_543" result="effect3_dropShadow_457_543"/>
<feColorMatrix in="SourceAlpha" type="matrix" values="0 0 0 0 0 0 0 0 0 0 0 0 0 0 0 0 0 0 127 0" result="hardAlpha"/>
<feOffset/>
<feColorMatrix type="matrix" values="0 0 0 0 1 0 0 0 0 1 0 0 0 0 1 0 0 0 1 0"/>
<feBlend mode="normal" in2="effect3_dropShadow_457_543" result="effect4_dropShadow_457_543"/>
<feColorMatrix in="SourceAlpha" type="matrix" values="0 0 0 0 0 0 0 0 0 0 0 0 0 0 0 0 0 0 127 0" result="hardAlpha"/>
<feOffset/>
<feColorMatrix type="matrix" values="0 0 0 0 1 0 0 0 0 1 0 0 0 0 1 0 0 0 1 0"/>
<feBlend mode="normal" in2="effect4_dropShadow_457_543" result="effect5_dropShadow_457_543"/>
<feColorMatrix in="SourceAlpha" type="matrix" values="0 0 0 0 0 0 0 0 0 0 0 0 0 0 0 0 0 0 127 0" result="hardAlpha"/>
<feOffset/>
<feColorMatrix type="matrix" values="0 0 0 0 1 0 0 0 0 1 0 0 0 0 1 0 0 0 1 0"/>
<feBlend mode="normal" in2="effect5_dropShadow_457_543" result="effect6_dropShadow_457_543"/>
<feBlend mode="normal" in="SourceGraphic" in2="effect6_dropShadow_457_543" result="shape"/>
</filter>
<filter id="filter4_dddddd_457_543" x="208.546" y="232.986" width="93.9756" height="74.125" filterUnits="userSpaceOnUse" color-interpolation-filters="sRGB">
<feFlood flood-opacity="0" result="BackgroundImageFix"/>
<feColorMatrix in="SourceAlpha" type="matrix" values="0 0 0 0 0 0 0 0 0 0 0 0 0 0 0 0 0 0 127 0" result="hardAlpha"/>
<feOffset/>
<feColorMatrix type="matrix" values="0 0 0 0 1 0 0 0 0 1 0 0 0 0 1 0 0 0 1 0"/>
<feBlend mode="normal" in2="BackgroundImageFix" result="effect1_dropShadow_457_543"/>
<feColorMatrix in="SourceAlpha" type="matrix" values="0 0 0 0 0 0 0 0 0 0 0 0 0 0 0 0 0 0 127 0" result="hardAlpha"/>
<feOffset/>
<feColorMatrix type="matrix" values="0 0 0 0 1 0 0 0 0 1 0 0 0 0 1 0 0 0 1 0"/>
<feBlend mode="normal" in2="effect1_dropShadow_457_543" result="effect2_dropShadow_457_543"/>
<feColorMatrix in="SourceAlpha" type="matrix" values="0 0 0 0 0 0 0 0 0 0 0 0 0 0 0 0 0 0 127 0" result="hardAlpha"/>
<feOffset/>
<feColorMatrix type="matrix" values="0 0 0 0 1 0 0 0 0 1 0 0 0 0 1 0 0 0 1 0"/>
<feBlend mode="normal" in2="effect2_dropShadow_457_543" result="effect3_dropShadow_457_543"/>
<feColorMatrix in="SourceAlpha" type="matrix" values="0 0 0 0 0 0 0 0 0 0 0 0 0 0 0 0 0 0 127 0" result="hardAlpha"/>
<feOffset/>
<feColorMatrix type="matrix" values="0 0 0 0 1 0 0 0 0 1 0 0 0 0 1 0 0 0 1 0"/>
<feBlend mode="normal" in2="effect3_dropShadow_457_543" result="effect4_dropShadow_457_543"/>
<feColorMatrix in="SourceAlpha" type="matrix" values="0 0 0 0 0 0 0 0 0 0 0 0 0 0 0 0 0 0 127 0" result="hardAlpha"/>
<feOffset/>
<feColorMatrix type="matrix" values="0 0 0 0 1 0 0 0 0 1 0 0 0 0 1 0 0 0 1 0"/>
<feBlend mode="normal" in2="effect4_dropShadow_457_543" result="effect5_dropShadow_457_543"/>
<feColorMatrix in="SourceAlpha" type="matrix" values="0 0 0 0 0 0 0 0 0 0 0 0 0 0 0 0 0 0 127 0" result="hardAlpha"/>
<feOffset/>
<feColorMatrix type="matrix" values="0 0 0 0 1 0 0 0 0 1 0 0 0 0 1 0 0 0 1 0"/>
<feBlend mode="normal" in2="effect5_dropShadow_457_543" result="effect6_dropShadow_457_543"/>
<feBlend mode="normal" in="SourceGraphic" in2="effect6_dropShadow_457_543" result="shape"/>
</filter>
<filter id="filter5_dddddd_457_543" x="208.496" y="186.682" width="66.8525" height="120.385" filterUnits="userSpaceOnUse" color-interpolation-filters="sRGB">
<feFlood flood-opacity="0" result="BackgroundImageFix"/>
<feColorMatrix in="SourceAlpha" type="matrix" values="0 0 0 0 0 0 0 0 0 0 0 0 0 0 0 0 0 0 127 0" result="hardAlpha"/>
<feOffset/>
<feColorMatrix type="matrix" values="0 0 0 0 1 0 0 0 0 1 0 0 0 0 1 0 0 0 1 0"/>
<feBlend mode="normal" in2="BackgroundImageFix" result="effect1_dropShadow_457_543"/>
<feColorMatrix in="SourceAlpha" type="matrix" values="0 0 0 0 0 0 0 0 0 0 0 0 0 0 0 0 0 0 127 0" result="hardAlpha"/>
<feOffset/>
<feColorMatrix type="matrix" values="0 0 0 0 1 0 0 0 0 1 0 0 0 0 1 0 0 0 1 0"/>
<feBlend mode="normal" in2="effect1_dropShadow_457_543" result="effect2_dropShadow_457_543"/>
<feColorMatrix in="SourceAlpha" type="matrix" values="0 0 0 0 0 0 0 0 0 0 0 0 0 0 0 0 0 0 127 0" result="hardAlpha"/>
<feOffset/>
<feColorMatrix type="matrix" values="0 0 0 0 1 0 0 0 0 1 0 0 0 0 1 0 0 0 1 0"/>
<feBlend mode="normal" in2="effect2_dropShadow_457_543" result="effect3_dropShadow_457_543"/>
<feColorMatrix in="SourceAlpha" type="matrix" values="0 0 0 0 0 0 0 0 0 0 0 0 0 0 0 0 0 0 127 0" result="hardAlpha"/>
<feOffset/>
<feColorMatrix type="matrix" values="0 0 0 0 1 0 0 0 0 1 0 0 0 0 1 0 0 0 1 0"/>
<feBlend mode="normal" in2="effect3_dropShadow_457_543" result="effect4_dropShadow_457_543"/>
<feColorMatrix in="SourceAlpha" type="matrix" values="0 0 0 0 0 0 0 0 0 0 0 0 0 0 0 0 0 0 127 0" result="hardAlpha"/>
<feOffset/>
<feColorMatrix type="matrix" values="0 0 0 0 1 0 0 0 0 1 0 0 0 0 1 0 0 0 1 0"/>
<feBlend mode="normal" in2="effect4_dropShadow_457_543" result="effect5_dropShadow_457_543"/>
<feColorMatrix in="SourceAlpha" type="matrix" values="0 0 0 0 0 0 0 0 0 0 0 0 0 0 0 0 0 0 127 0" result="hardAlpha"/>
<feOffset/>
<feColorMatrix type="matrix" values="0 0 0 0 1 0 0 0 0 1 0 0 0 0 1 0 0 0 1 0"/>
<feBlend mode="normal" in2="effect5_dropShadow_457_543" result="effect6_dropShadow_457_543"/>
<feBlend mode="normal" in="SourceGraphic" in2="effect6_dropShadow_457_543" result="shape"/>
</filter>
<filter id="filter6_dddddd_457_543" x="170.731" y="182.58" width="85.1885" height="43.3613" filterUnits="userSpaceOnUse" color-interpolation-filters="sRGB">
<feFlood flood-opacity="0" result="BackgroundImageFix"/>
<feColorMatrix in="SourceAlpha" type="matrix" values="0 0 0 0 0 0 0 0 0 0 0 0 0 0 0 0 0 0 127 0" result="hardAlpha"/>
<feOffset/>
<feColorMatrix type="matrix" values="0 0 0 0 1 0 0 0 0 1 0 0 0 0 1 0 0 0 1 0"/>
<feBlend mode="normal" in2="BackgroundImageFix" result="effect1_dropShadow_457_543"/>
<feColorMatrix in="SourceAlpha" type="matrix" values="0 0 0 0 0 0 0 0 0 0 0 0 0 0 0 0 0 0 127 0" result="hardAlpha"/>
<feOffset/>
<feColorMatrix type="matrix" values="0 0 0 0 1 0 0 0 0 1 0 0 0 0 1 0 0 0 1 0"/>
<feBlend mode="normal" in2="effect1_dropShadow_457_543" result="effect2_dropShadow_457_543"/>
<feColorMatrix in="SourceAlpha" type="matrix" values="0 0 0 0 0 0 0 0 0 0 0 0 0 0 0 0 0 0 127 0" result="hardAlpha"/>
<feOffset/>
<feColorMatrix type="matrix" values="0 0 0 0 1 0 0 0 0 1 0 0 0 0 1 0 0 0 1 0"/>
<feBlend mode="normal" in2="effect2_dropShadow_457_543" result="effect3_dropShadow_457_543"/>
<feColorMatrix in="SourceAlpha" type="matrix" values="0 0 0 0 0 0 0 0 0 0 0 0 0 0 0 0 0 0 127 0" result="hardAlpha"/>
<feOffset/>
<feColorMatrix type="matrix" values="0 0 0 0 1 0 0 0 0 1 0 0 0 0 1 0 0 0 1 0"/>
<feBlend mode="normal" in2="effect3_dropShadow_457_543" result="effect4_dropShadow_457_543"/>
<feColorMatrix in="SourceAlpha" type="matrix" values="0 0 0 0 0 0 0 0 0 0 0 0 0 0 0 0 0 0 127 0" result="hardAlpha"/>
<feOffset/>
<feColorMatrix type="matrix" values="0 0 0 0 1 0 0 0 0 1 0 0 0 0 1 0 0 0 1 0"/>
<feBlend mode="normal" in2="effect4_dropShadow_457_543" result="effect5_dropShadow_457_543"/>
<feColorMatrix in="SourceAlpha" type="matrix" values="0 0 0 0 0 0 0 0 0 0 0 0 0 0 0 0 0 0 127 0" result="hardAlpha"/>
<feOffset/>
<feColorMatrix type="matrix" values="0 0 0 0 1 0 0 0 0 1 0 0 0 0 1 0 0 0 1 0"/>
<feBlend mode="normal" in2="effect5_dropShadow_457_543" result="effect6_dropShadow_457_543"/>
<feBlend mode="normal" in="SourceGraphic" in2="effect6_dropShadow_457_543" result="shape"/>
</filter>
<filter id="filter7_dddddd_457_543" x="152.875" y="217.904" width="25.8223" height="86.2383" filterUnits="userSpaceOnUse" color-interpolation-filters="sRGB">
<feFlood flood-opacity="0" result="BackgroundImageFix"/>
<feColorMatrix in="SourceAlpha" type="matrix" values="0 0 0 0 0 0 0 0 0 0 0 0 0 0 0 0 0 0 127 0" result="hardAlpha"/>
<feOffset/>
<feColorMatrix type="matrix" values="0 0 0 0 1 0 0 0 0 1 0 0 0 0 1 0 0 0 1 0"/>
<feBlend mode="normal" in2="BackgroundImageFix" result="effect1_dropShadow_457_543"/>
<feColorMatrix in="SourceAlpha" type="matrix" values="0 0 0 0 0 0 0 0 0 0 0 0 0 0 0 0 0 0 127 0" result="hardAlpha"/>
<feOffset/>
<feColorMatrix type="matrix" values="0 0 0 0 1 0 0 0 0 1 0 0 0 0 1 0 0 0 1 0"/>
<feBlend mode="normal" in2="effect1_dropShadow_457_543" result="effect2_dropShadow_457_543"/>
<feColorMatrix in="SourceAlpha" type="matrix" values="0 0 0 0 0 0 0 0 0 0 0 0 0 0 0 0 0 0 127 0" result="hardAlpha"/>
<feOffset/>
<feColorMatrix type="matrix" values="0 0 0 0 1 0 0 0 0 1 0 0 0 0 1 0 0 0 1 0"/>
<feBlend mode="normal" in2="effect2_dropShadow_457_543" result="effect3_dropShadow_457_543"/>
<feColorMatrix in="SourceAlpha" type="matrix" values="0 0 0 0 0 0 0 0 0 0 0 0 0 0 0 0 0 0 127 0" result="hardAlpha"/>
<feOffset/>
<feColorMatrix type="matrix" values="0 0 0 0 1 0 0 0 0 1 0 0 0 0 1 0 0 0 1 0"/>
<feBlend mode="normal" in2="effect3_dropShadow_457_543" result="effect4_dropShadow_457_543"/>
<feColorMatrix in="SourceAlpha" type="matrix" values="0 0 0 0 0 0 0 0 0 0 0 0 0 0 0 0 0 0 127 0" result="hardAlpha"/>
<feOffset/>
<feColorMatrix type="matrix" values="0 0 0 0 1 0 0 0 0 1 0 0 0 0 1 0 0 0 1 0"/>
<feBlend mode="normal" in2="effect4_dropShadow_457_543" result="effect5_dropShadow_457_543"/>
<feColorMatrix in="SourceAlpha" type="matrix" values="0 0 0 0 0 0 0 0 0 0 0 0 0 0 0 0 0 0 127 0" result="hardAlpha"/>
<feOffset/>
<feColorMatrix type="matrix" values="0 0 0 0 1 0 0 0 0 1 0 0 0 0 1 0 0 0 1 0"/>
<feBlend mode="normal" in2="effect5_dropShadow_457_543" result="effect6_dropShadow_457_543"/>
<feBlend mode="normal" in="SourceGraphic" in2="effect6_dropShadow_457_543" result="shape"/>
</filter>
<filter id="filter8_dddddd_457_543" x="201.956" y="219.354" width="18.9697" height="20.123" filterUnits="userSpaceOnUse" color-interpolation-filters="sRGB">
<feFlood flood-opacity="0" result="BackgroundImageFix"/>
<feColorMatrix in="SourceAlpha" type="matrix" values="0 0 0 0 0 0 0 0 0 0 0 0 0 0 0 0 0 0 127 0" result="hardAlpha"/>
<feOffset/>
<feColorMatrix type="matrix" values="0 0 0 0 1 0 0 0 0 0.498039 0 0 0 0 0.737255 0 0 0 1 0"/>
<feBlend mode="normal" in2="BackgroundImageFix" result="effect1_dropShadow_457_543"/>
<feColorMatrix in="SourceAlpha" type="matrix" values="0 0 0 0 0 0 0 0 0 0 0 0 0 0 0 0 0 0 127 0" result="hardAlpha"/>
<feOffset/>
<feColorMatrix type="matrix" values="0 0 0 0 1 0 0 0 0 0.498039 0 0 0 0 0.737255 0 0 0 1 0"/>
<feBlend mode="normal" in2="effect1_dropShadow_457_543" result="effect2_dropShadow_457_543"/>
<feColorMatrix in="SourceAlpha" type="matrix" values="0 0 0 0 0 0 0 0 0 0 0 0 0 0 0 0 0 0 127 0" result="hardAlpha"/>
<feOffset/>
<feColorMatrix type="matrix" values="0 0 0 0 1 0 0 0 0 0.498039 0 0 0 0 0.737255 0 0 0 1 0"/>
<feBlend mode="normal" in2="effect2_dropShadow_457_543" result="effect3_dropShadow_457_543"/>
<feColorMatrix in="SourceAlpha" type="matrix" values="0 0 0 0 0 0 0 0 0 0 0 0 0 0 0 0 0 0 127 0" result="hardAlpha"/>
<feOffset/>
<feColorMatrix type="matrix" values="0 0 0 0 1 0 0 0 0 0.498039 0 0 0 0 0.737255 0 0 0 1 0"/>
<feBlend mode="normal" in2="effect3_dropShadow_457_543" result="effect4_dropShadow_457_543"/>
<feColorMatrix in="SourceAlpha" type="matrix" values="0 0 0 0 0 0 0 0 0 0 0 0 0 0 0 0 0 0 127 0" result="hardAlpha"/>
<feOffset/>
<feColorMatrix type="matrix" values="0 0 0 0 1 0 0 0 0 0.498039 0 0 0 0 0.737255 0 0 0 1 0"/>
<feBlend mode="normal" in2="effect4_dropShadow_457_543" result="effect5_dropShadow_457_543"/>
<feColorMatrix in="SourceAlpha" type="matrix" values="0 0 0 0 0 0 0 0 0 0 0 0 0 0 0 0 0 0 127 0" result="hardAlpha"/>
<feOffset/>
<feColorMatrix type="matrix" values="0 0 0 0 1 0 0 0 0 0.498039 0 0 0 0 0.737255 0 0 0 1 0"/>
<feBlend mode="normal" in2="effect5_dropShadow_457_543" result="effect6_dropShadow_457_543"/>
<feBlend mode="normal" in="SourceGraphic" in2="effect6_dropShadow_457_543" result="shape"/>
</filter>
<filter id="filter9_dddddd_457_543" x="229.048" y="219.342" width="18.9062" height="20.1875" filterUnits="userSpaceOnUse" color-interpolation-filters="sRGB">
<feFlood flood-opacity="0" result="BackgroundImageFix"/>
<feColorMatrix in="SourceAlpha" type="matrix" values="0 0 0 0 0 0 0 0 0 0 0 0 0 0 0 0 0 0 127 0" result="hardAlpha"/>
<feOffset/>
<feColorMatrix type="matrix" values="0 0 0 0 1 0 0 0 0 0.498039 0 0 0 0 0.737255 0 0 0 1 0"/>
<feBlend mode="normal" in2="BackgroundImageFix" result="effect1_dropShadow_457_543"/>
<feColorMatrix in="SourceAlpha" type="matrix" values="0 0 0 0 0 0 0 0 0 0 0 0 0 0 0 0 0 0 127 0" result="hardAlpha"/>
<feOffset/>
<feColorMatrix type="matrix" values="0 0 0 0 1 0 0 0 0 0.498039 0 0 0 0 0.737255 0 0 0 1 0"/>
<feBlend mode="normal" in2="effect1_dropShadow_457_543" result="effect2_dropShadow_457_543"/>
<feColorMatrix in="SourceAlpha" type="matrix" values="0 0 0 0 0 0 0 0 0 0 0 0 0 0 0 0 0 0 127 0" result="hardAlpha"/>
<feOffset/>
<feColorMatrix type="matrix" values="0 0 0 0 1 0 0 0 0 0.498039 0 0 0 0 0.737255 0 0 0 1 0"/>
<feBlend mode="normal" in2="effect2_dropShadow_457_543" result="effect3_dropShadow_457_543"/>
<feColorMatrix in="SourceAlpha" type="matrix" values="0 0 0 0 0 0 0 0 0 0 0 0 0 0 0 0 0 0 127 0" result="hardAlpha"/>
<feOffset/>
<feColorMatrix type="matrix" values="0 0 0 0 1 0 0 0 0 0.498039 0 0 0 0 0.737255 0 0 0 1 0"/>
<feBlend mode="normal" in2="effect3_dropShadow_457_543" result="effect4_dropShadow_457_543"/>
<feColorMatrix in="SourceAlpha" type="matrix" values="0 0 0 0 0 0 0 0 0 0 0 0 0 0 0 0 0 0 127 0" result="hardAlpha"/>
<feOffset/>
<feColorMatrix type="matrix" values="0 0 0 0 1 0 0 0 0 0.498039 0 0 0 0 0.737255 0 0 0 1 0"/>
<feBlend mode="normal" in2="effect4_dropShadow_457_543" result="effect5_dropShadow_457_543"/>
<feColorMatrix in="SourceAlpha" type="matrix" values="0 0 0 0 0 0 0 0 0 0 0 0 0 0 0 0 0 0 127 0" result="hardAlpha"/>
<feOffset/>
<feColorMatrix type="matrix" values="0 0 0 0 1 0 0 0 0 0.498039 0 0 0 0 0.737255 0 0 0 1 0"/>
<feBlend mode="normal" in2="effect5_dropShadow_457_543" result="effect6_dropShadow_457_543"/>
<feBlend mode="normal" in="SourceGraphic" in2="effect6_dropShadow_457_543" result="shape"/>
</filter>
<clipPath id="clip0_457_543">
<rect width="342" height="560" fill="white"/>
</clipPath>
</defs>
</svg>
