<svg width="400" height="344" viewBox="0 0 400 344" fill="none" xmlns="http://www.w3.org/2000/svg">
<g clip-path="url(#clip0_666_2945)">
<rect width="400" height="344" fill="#1A1A1A"/>
<path d="M-39 71.7993C-12.088 16.5646 -56.632 16.5646 -29.72 71.7993C-2.808 127.034 -47.352 126.363 -20.44 71.7993C6.472 17.2354 -38.072 17.2354 -11.16 71.7993C15.752 126.363 -28.792 97.5159 -1.88 71.7993C25.032 46.0827 -19.512 46.0827 7.4 71.7993C34.312 97.5159 -10.232 114.064 16.68 71.7993C43.592 29.5347 -0.951997 29.5347 25.96 71.7993C52.872 114.064 8.328 134.637 35.24 71.7993C62.152 8.96139 17.608 8.96139 44.52 71.7993C71.432 134.637 26.888 99.7521 53.8 71.7993C80.712 43.8465 36.168 43.8465 63.08 71.7993C89.992 99.7521 45.448 105.566 72.36 71.7993C99.272 38.0323 54.728 38.0323 81.64 71.7993C108.552 105.566 64.008 105.566 90.92 71.7993C117.832 38.0323 73.288 38.0323 100.2 71.7993C127.112 105.566 82.568 95.7269 109.48 71.7993C136.392 47.8717 91.848 47.8717 118.76 71.7993C145.672 95.7269 101.128 118.76 128.04 71.7993C154.952 24.8386 110.408 24.8386 137.32 71.7993C164.232 118.76 119.688 96.845 146.6 71.7993C173.512 46.7536 128.968 46.7536 155.88 71.7993C182.792 96.845 138.248 125.021 165.16 71.7993C192.072 18.5772 147.528 18.5772 174.44 71.7993C201.352 125.021 156.808 127.929 183.72 71.7993C210.632 15.6701 166.088 15.6701 193 71.7993C219.912 127.929 175.368 127.258 202.28 71.7993C229.192 16.3409 184.648 16.3409 211.56 71.7993C238.472 127.258 193.928 135.532 220.84 71.7993C247.752 8.0669 203.208 8.0669 230.12 71.7993C257.032 135.532 212.488 99.5285 239.4 71.7993C266.312 44.0701 221.768 44.0701 248.68 71.7993C275.592 99.5285 231.048 131.283 257.96 71.7993C284.872 12.3157 240.328 12.3157 267.24 71.7993C294.152 131.283 249.608 132.625 276.52 71.7993C303.432 10.974 258.888 10.974 285.8 71.7993C312.712 132.625 268.168 131.507 295.08 71.7993C321.992 12.0921 277.448 12.0921 304.36 71.7993C331.272 131.507 286.728 131.507 313.64 71.7993C340.552 12.0921 296.008 12.0921 322.92 71.7993C349.832 131.507 305.288 94.1616 332.2 71.7993C359.112 49.4371 314.568 49.4371 341.48 71.7993C368.392 94.1616 323.848 99.0813 350.76 71.7993C377.672 44.5174 333.128 44.5174 360.04 71.7993C386.952 99.0813 342.408 115.182 369.32 71.7993C396.232 28.4165 351.688 28.4165 378.6 71.7993C405.512 115.182 360.968 119.655 387.88 71.7993C414.792 23.9441 370.248 23.9441 397.16 71.7993C424.072 119.655 379.528 118.984 406.44 71.7993C433.352 24.615 388.808 24.615 415.72 71.7993C442.632 118.984 398.088 112.722 425 71.7993" stroke="white" stroke-width="4"/>
<path d="M0 265.799C26.912 210.565 -17.632 210.565 9.28 265.799C36.192 321.034 -8.352 320.363 18.56 265.799C45.472 211.235 0.927999 211.235 27.84 265.799C54.752 320.363 10.208 291.516 37.12 265.799C64.032 240.083 19.488 240.083 46.4 265.799C73.312 291.516 28.768 308.064 55.68 265.799C82.592 223.535 38.048 223.535 64.96 265.799C91.872 308.064 47.328 328.637 74.24 265.799C101.152 202.961 56.608 202.961 83.52 265.799C110.432 328.637 65.888 293.752 92.8 265.799C119.712 237.847 75.168 237.847 102.08 265.799C128.992 293.752 84.448 299.566 111.36 265.799C138.272 232.032 93.728 232.032 120.64 265.799C147.552 299.566 103.008 299.566 129.92 265.799C156.832 232.032 112.288 232.032 139.2 265.799C166.112 299.566 121.568 289.727 148.48 265.799C175.392 241.872 130.848 241.872 157.76 265.799C184.672 289.727 140.128 312.76 167.04 265.799C193.952 218.839 149.408 218.839 176.32 265.799C203.232 312.76 158.688 290.845 185.6 265.799C212.512 240.754 167.968 240.754 194.88 265.799C221.792 290.845 177.248 319.021 204.16 265.799C231.072 212.577 186.528 212.577 213.44 265.799C240.352 319.021 195.808 321.929 222.72 265.799C249.632 209.67 205.088 209.67 232 265.799C258.912 321.929 214.368 321.258 241.28 265.799C268.192 210.341 223.648 210.341 250.56 265.799C277.472 321.258 232.928 329.532 259.84 265.799C286.752 202.067 242.208 202.067 269.12 265.799C296.032 329.532 251.488 293.529 278.4 265.799C305.312 238.07 260.768 238.07 287.68 265.799C314.592 293.529 270.048 325.283 296.96 265.799C323.872 206.316 279.328 206.316 306.24 265.799C333.152 325.283 288.608 326.625 315.52 265.799C342.432 204.974 297.888 204.974 324.8 265.799C351.712 326.625 307.168 325.507 334.08 265.799C360.992 206.092 316.448 206.092 343.36 265.799C370.272 325.507 325.728 325.507 352.64 265.799C379.552 206.092 335.008 206.092 361.92 265.799C388.832 325.507 344.288 288.162 371.2 265.799C398.112 243.437 353.568 243.437 380.48 265.799C407.392 288.162 362.848 293.081 389.76 265.799C416.672 238.517 372.128 238.517 399.04 265.799C425.952 293.081 381.408 309.182 408.32 265.799C435.232 222.417 390.688 222.417 417.6 265.799C444.512 309.182 399.968 313.655 426.88 265.799C453.792 217.944 409.248 217.944 436.16 265.799C463.072 313.655 418.528 312.984 445.44 265.799C472.352 218.615 427.808 218.615 454.72 265.799C481.632 312.984 437.088 306.722 464 265.799" stroke="white" stroke-width="4"/>
</g>
<defs>
<clipPath id="clip0_666_2945">
<rect width="400" height="344" fill="white"/>
</clipPath>
</defs>
</svg>
