<svg width="400" height="344" viewBox="0 0 400 344" fill="none" xmlns="http://www.w3.org/2000/svg">
<g clip-path="url(#clip0_666_2952)">
<rect width="400" height="344" fill="#7EFFC1"/>
<g filter="url(#filter0_dddddd_666_2952)">
<path d="M117.248 143.672C71.7839 159.652 104.658 197.428 166.211 197.428" stroke="#FF7FBC" stroke-width="8" stroke-linecap="round"/>
</g>
<g filter="url(#filter1_dddddd_666_2952)">
<path d="M166.213 197.428C113.055 162.559 107.46 123.331 132.763 105.906" stroke="#FF7FBC" stroke-width="8" stroke-linecap="round"/>
</g>
<g filter="url(#filter2_dddddd_666_2952)">
<path d="M134.038 105.171C148.727 97.1791 176.005 108.076 196.989 131.323" stroke="#FF7FBC" stroke-width="8" stroke-linecap="round"/>
</g>
<g filter="url(#filter3_dddddd_666_2952)">
<path d="M196.988 131.322C213.075 148.031 220.1 181.721 201.215 195.524" stroke="#FF7FBC" stroke-width="8" stroke-linecap="round"/>
</g>
<g filter="url(#filter4_dddddd_666_2952)">
<path d="M282.752 144.125C328.216 160.106 295.342 197.881 233.79 197.881" stroke="#FF7FBC" stroke-width="8" stroke-linecap="round"/>
</g>
<g filter="url(#filter5_dddddd_666_2952)">
<path d="M233.787 197.881C286.945 163.012 292.54 123.784 267.237 106.359" stroke="#FF7FBC" stroke-width="8" stroke-linecap="round"/>
</g>
<g filter="url(#filter6_dddddd_666_2952)">
<path d="M265.963 105.624C251.274 97.6322 223.995 108.529 203.012 131.776" stroke="#FF7FBC" stroke-width="8" stroke-linecap="round"/>
</g>
<g filter="url(#filter7_dddddd_666_2952)">
<path d="M203.013 131.775C186.925 148.484 181.632 181.722 200.517 195.524" stroke="#FF7FBC" stroke-width="8" stroke-linecap="round"/>
</g>
<g filter="url(#filter8_dddddd_666_2952)">
<path d="M236.255 133.261C239.768 136.989 241.741 143.949 240.085 145.633C238.429 147.317 232.77 144.103 229.258 140.376C225.745 136.648 224.24 132.262 225.896 130.578C227.552 128.894 232.743 129.534 236.255 133.261Z" fill="#FF7FBC"/>
</g>
<g filter="url(#filter9_dddddd_666_2952)">
<path d="M251.673 133.291C248.178 137.036 246.238 144.006 247.902 145.681C249.566 147.357 255.209 144.114 258.705 140.369C262.2 136.624 263.684 132.23 262.02 130.554C260.355 128.879 255.168 129.545 251.673 133.291Z" fill="#FF7FBC"/>
</g>
<path d="M-83 277.277C-54 212.246 -102 212.246 -73 277.277C-44 342.308 -92 341.519 -63 277.277C-34 213.036 -82 213.036 -53 277.277C-24 341.519 -72 307.555 -43 277.277C-14 246.999 -62 246.999 -33 277.277C-4 307.555 -52 327.038 -23 277.277C6 227.516 -42 227.516 -13 277.277C16 327.038 -32 351.26 -3 277.277C26 203.294 -22 203.294 7 277.277C36 351.26 -12 310.188 17 277.277C46 244.367 -2 244.367 27 277.277C56 310.188 8 317.033 37 277.277C66 237.521 18 237.521 47 277.277C76 317.033 28 317.033 57 277.277C86 237.521 38 237.521 67 277.277C96 317.033 48 305.449 77 277.277C106 249.106 58 249.106 87 277.277C116 305.449 68 332.567 97 277.277C126 221.987 78 221.987 107 277.277C136 332.567 88 306.765 117 277.277C146 247.789 98 247.789 127 277.277C156 306.765 108 339.939 137 277.277C166 214.615 118 214.615 147 277.277C176 339.939 128 343.362 157 277.277C186 211.193 138 211.193 167 277.277C196 343.362 148 342.572 177 277.277C206 211.983 158 211.983 187 277.277C216 342.572 168 352.313 197 277.277C226 202.241 178 202.241 207 277.277C236 352.313 188 309.924 217 277.277C246 244.63 198 244.63 227 277.277C256 309.924 208 347.311 237 277.277C266 207.243 218 207.243 247 277.277C276 347.311 228 348.891 257 277.277C286 205.664 238 205.664 267 277.277C296 348.891 248 347.574 277 277.277C306 206.98 258 206.98 287 277.277C316 347.574 268 347.574 297 277.277C326 206.98 278 206.98 307 277.277C336 347.574 288 303.606 317 277.277C346 250.949 298 250.949 327 277.277C356 303.606 308 309.398 337 277.277C366 245.156 318 245.156 347 277.277C376 309.398 328 328.354 357 277.277C386 226.2 338 226.2 367 277.277C396 328.354 348 333.62 377 277.277C406 220.934 358 220.934 387 277.277C416 333.62 368 332.83 397 277.277C426 221.724 378 221.724 407 277.277C436 332.83 388 325.458 417 277.277" stroke="#FF7FBC" stroke-width="6"/>
<path d="M237.536 44.36C237.056 44.36 236.6 44.108 236.168 43.604C235.76 43.1 235.424 42.428 235.16 41.588C234.92 40.748 234.8 39.86 234.8 38.924C234.8 37.772 234.848 36.596 234.944 35.396C234.584 35.348 234.404 35.144 234.404 34.784C234.404 34.712 234.428 34.58 234.476 34.388L235.196 33.128C235.724 29.384 236.78 24.476 238.364 18.404C239.492 14.324 240.824 11.492 242.36 9.908C242.864 9.38 243.344 9.116 243.8 9.116C245.456 9.116 246.284 10.124 246.284 12.14C246.284 14.66 245.168 17.54 242.936 20.78C242.312 21.716 241.448 22.976 240.344 24.56C239.192 26.192 238.316 27.68 237.716 29.024C237.596 29.288 237.428 29.468 237.212 29.564L237.104 30.248C239.432 27.272 241.532 25.784 243.404 25.784C244.148 25.784 244.676 26.18 244.988 26.972C245.3 27.74 245.456 28.64 245.456 29.672C245.456 31.352 245.084 33.368 244.34 35.72C243.62 38.048 242.732 39.98 241.676 41.516C240.332 43.412 238.952 44.36 237.536 44.36ZM239.264 23.696C239.936 22.688 240.392 21.992 240.632 21.608L241.244 20.708C243.428 17.3 244.52 14.672 244.52 12.824C244.52 12.224 244.484 11.78 244.412 11.492C244.34 11.18 244.16 11.024 243.872 11.024C243.344 11.024 242.72 11.744 242 13.184C240.584 15.992 239.24 20.18 237.968 25.748L239.264 23.696ZM237.896 42.596C238.784 42.596 239.672 41.852 240.56 40.364C241.472 38.876 242.24 37.016 242.864 34.784C243.44 32.648 243.728 31.088 243.728 30.104C243.728 29.048 243.668 28.412 243.548 28.196C243.428 27.932 243.128 27.8 242.648 27.8C241.784 27.8 240.86 28.304 239.876 29.312C238.916 30.296 237.836 31.76 236.636 33.704C236.492 35.072 236.42 36.344 236.42 37.52C236.42 40.904 236.912 42.596 237.896 42.596ZM248.398 44.432C247.534 44.432 246.85 44.228 246.346 43.82C245.842 43.388 245.434 42.68 245.122 41.696C245.074 41.624 245.05 41.468 245.05 41.228C245.05 41.012 245.146 40.808 245.338 40.616C245.53 40.4 245.746 40.292 245.986 40.292C246.202 40.292 246.406 40.424 246.598 40.688C246.598 42.152 247.294 42.884 248.686 42.884C249.718 42.884 250.75 42.368 251.782 41.336C252.814 40.28 253.762 38.9 254.626 37.196C255.394 35.708 255.958 34.352 256.318 33.128L256.606 32.192C256.87 31.304 257.146 30.416 257.434 29.528C257.746 28.616 258.058 27.836 258.37 27.188C258.778 26.348 259.186 25.928 259.594 25.928C260.026 25.928 260.242 26.156 260.242 26.612C260.242 27.02 260.014 27.872 259.558 29.168C259.054 30.68 258.634 32.48 258.298 34.568C257.962 36.632 257.794 38.696 257.794 40.76C257.794 41.936 258.034 42.596 258.514 42.74L258.946 42.776C259.306 42.776 259.618 42.692 259.882 42.524C259.954 42.5 260.122 42.38 260.386 42.164C260.434 42.116 260.626 41.96 260.962 41.696C261.298 41.408 261.586 41.264 261.826 41.264C262.258 41.264 262.474 41.492 262.474 41.948C262.474 42.236 262.258 42.572 261.826 42.956C261.394 43.34 260.878 43.664 260.278 43.928C259.678 44.192 259.126 44.324 258.622 44.324C257.086 44.324 256.318 42.656 256.318 39.32C256.318 38.672 256.378 37.784 256.498 36.656C255.634 38.888 254.434 40.748 252.898 42.236C251.386 43.7 249.886 44.432 248.398 44.432ZM264.185 44.432C263.753 44.432 263.537 44.228 263.537 43.82C263.537 43.652 263.621 43.304 263.789 42.776C264.149 41.624 264.593 39.776 265.121 37.232L265.697 33.992L266.165 31.364C266.285 30.788 266.405 29.912 266.525 28.736C266.741 26.48 267.269 25.352 268.109 25.352C268.589 25.352 268.829 25.7 268.829 26.396C268.781 26.588 268.697 26.768 268.577 26.936C268.289 28.4 268.121 29.348 268.073 29.78C267.953 30.5 267.773 31.304 267.533 32.192C267.341 32.912 267.185 33.584 267.065 34.208C267.857 33.92 268.793 33.776 269.873 33.776L272.177 33.848C272.729 31.952 273.737 29.948 275.201 27.836C276.113 26.564 277.577 25.928 279.593 25.928C280.241 25.928 280.829 26.12 281.357 26.504C281.885 26.888 282.197 27.416 282.293 28.088C282.437 28.28 282.533 28.448 282.581 28.592C282.509 31.328 282.257 33.56 281.825 35.288C281.393 36.992 280.829 38.528 280.133 39.896C278.909 42.152 277.457 43.508 275.777 43.964C274.985 44.18 274.373 44.288 273.941 44.288C273.125 44.288 272.489 43.844 272.033 42.956C271.601 42.068 271.385 40.916 271.385 39.5C271.385 38.252 271.517 36.908 271.781 35.468L269.981 35.432C269.381 35.432 268.757 35.492 268.109 35.612C267.509 35.756 267.185 35.888 267.137 36.008C267.041 36.152 266.885 36.272 266.669 36.368C266.573 36.92 266.513 37.304 266.489 37.52C266.249 38.912 266.021 40.088 265.805 41.048C265.613 41.984 265.349 42.968 265.013 44C264.797 44.288 264.521 44.432 264.185 44.432ZM274.697 42.812C275.417 42.812 276.281 42.32 277.289 41.336C278.297 40.328 279.017 39.272 279.449 38.168C279.905 36.992 280.241 35.792 280.457 34.568C280.673 33.32 280.829 31.556 280.925 29.276C280.853 29.204 280.769 29.072 280.673 28.88C280.649 28.016 280.205 27.584 279.341 27.584C277.901 27.584 276.701 28.196 275.741 29.42C274.805 30.644 274.109 32.252 273.653 34.244C273.245 36.14 273.041 37.844 273.041 39.356C273.041 41.66 273.593 42.812 274.697 42.812ZM285.843 44.432C283.635 44.432 282.531 43.076 282.531 40.364C282.531 38.3 282.747 36.32 283.179 34.424C283.635 32.504 284.223 30.836 284.943 29.42C285.687 28.004 286.491 26.984 287.355 26.36C288.027 25.88 288.651 25.64 289.227 25.64C290.331 25.64 291.111 25.868 291.567 26.324C291.303 25.484 290.919 24.62 290.415 23.732C289.863 22.82 289.407 21.992 289.047 21.248C287.943 19.208 287.391 17.24 287.391 15.344C287.391 14.12 287.631 13.04 288.111 12.104C288.615 11.144 289.287 10.4 290.127 9.872C290.967 9.32 291.915 9.044 292.971 9.044C293.931 9.044 294.807 9.176 295.599 9.44C296.607 9.728 297.351 9.92 297.831 10.016C298.335 10.112 298.935 10.16 299.631 10.16C300.831 10.16 301.779 10.028 302.476 9.764C302.476 9.764 302.728 9.68 303.231 9.512C303.423 9.44 303.663 9.404 303.951 9.404C304.383 9.404 304.599 9.584 304.599 9.944C304.599 10.472 304.155 10.916 303.267 11.276C302.379 11.636 301.407 11.816 300.352 11.816C299.463 11.816 298.779 11.78 298.299 11.708C297.819 11.612 296.967 11.396 295.743 11.06C294.687 10.796 293.583 10.664 292.431 10.664C291.351 10.664 290.523 11.132 289.947 12.068C289.371 13.004 289.083 14.108 289.083 15.38C289.083 16.532 289.239 17.564 289.551 18.476C289.863 19.364 290.487 20.6 291.423 22.184C292.959 24.728 293.727 26.936 293.727 28.808L293.547 30.428V30.5C293.547 32.372 293.271 34.22 292.719 36.044C292.191 37.868 291.495 39.464 290.631 40.832C289.791 42.2 288.915 43.184 288.003 43.784C287.331 44.216 286.611 44.432 285.843 44.432ZM285.807 42.668C286.431 42.668 287.007 42.464 287.535 42.056C288.063 41.624 288.567 41.012 289.047 40.22C289.887 38.756 290.571 37.016 291.099 35C291.627 33.08 291.891 31.388 291.891 29.924C291.891 29.132 291.687 28.532 291.279 28.124C290.871 27.716 290.331 27.512 289.659 27.512C289.035 27.512 288.507 27.692 288.075 28.052C287.667 28.412 287.163 29.06 286.563 29.996C285.963 30.956 285.399 32.36 284.871 34.208C284.367 36.032 284.115 37.58 284.115 38.852C284.115 40.196 284.235 41.168 284.475 41.768C284.715 42.368 285.159 42.668 285.807 42.668ZM296.631 44.432C295.767 44.432 295.083 44.228 294.579 43.82C294.075 43.388 293.667 42.68 293.355 41.696C293.307 41.624 293.283 41.468 293.283 41.228C293.283 41.012 293.379 40.808 293.571 40.616C293.763 40.4 293.979 40.292 294.219 40.292C294.435 40.292 294.639 40.424 294.831 40.688C294.831 42.152 295.527 42.884 296.919 42.884C297.951 42.884 298.983 42.368 300.015 41.336C301.047 40.28 301.995 38.9 302.859 37.196C303.627 35.708 304.191 34.352 304.551 33.128L304.839 32.192C305.103 31.304 305.379 30.416 305.667 29.528C305.979 28.616 306.291 27.836 306.603 27.188C307.011 26.348 307.419 25.928 307.827 25.928C308.259 25.928 308.475 26.156 308.475 26.612C308.475 27.02 308.247 27.872 307.791 29.168C307.287 30.68 306.867 32.48 306.531 34.568C306.195 36.632 306.027 38.696 306.027 40.76C306.027 41.936 306.267 42.596 306.747 42.74L307.179 42.776C307.539 42.776 307.851 42.692 308.115 42.524C308.187 42.5 308.355 42.38 308.619 42.164C308.667 42.116 308.859 41.96 309.195 41.696C309.531 41.408 309.819 41.264 310.059 41.264C310.491 41.264 310.707 41.492 310.707 41.948C310.707 42.236 310.491 42.572 310.059 42.956C309.627 43.34 309.111 43.664 308.511 43.928C307.911 44.192 307.359 44.324 306.855 44.324C305.319 44.324 304.551 42.656 304.551 39.32C304.551 38.672 304.611 37.784 304.731 36.656C303.867 38.888 302.667 40.748 301.131 42.236C299.619 43.7 298.119 44.432 296.631 44.432ZM315.469 44.36C314.701 44.36 314.101 44.24 313.669 44C313.237 43.736 312.889 43.34 312.625 42.812C312.121 41.876 311.869 40.748 311.869 39.428C311.869 37.124 312.217 34.94 312.913 32.876C313.609 30.788 314.557 29.036 315.757 27.62C316.909 26.276 318.169 25.604 319.537 25.604C320.257 25.604 320.821 25.904 321.229 26.504C321.661 27.08 321.877 27.788 321.877 28.628C321.877 30.092 321.493 31.364 320.725 32.444C319.981 33.524 318.973 34.424 317.701 35.144C316.597 35.792 315.253 36.44 313.669 37.088L313.597 39.68C313.597 41.696 314.209 42.704 315.433 42.704C315.985 42.704 316.561 42.572 317.161 42.308C317.761 42.02 318.385 41.684 319.033 41.3C319.345 41.132 319.597 41.048 319.789 41.048C320.197 41.048 320.401 41.264 320.401 41.696C320.401 42.008 320.101 42.38 319.501 42.812C318.925 43.244 318.241 43.616 317.449 43.928C316.657 44.216 315.997 44.36 315.469 44.36ZM313.957 35.36C314.173 35.24 314.653 34.988 315.397 34.604C315.733 34.46 316.213 34.22 316.837 33.884C317.965 33.26 318.805 32.54 319.357 31.724C319.933 30.908 320.221 29.9 320.221 28.7C320.221 27.764 319.825 27.296 319.033 27.296C318.337 27.296 317.521 27.932 316.585 29.204C315.601 30.476 314.809 32.144 314.209 34.208C314.041 34.784 313.957 35.168 313.957 35.36ZM332.577 44.396C331.905 44.396 331.389 44.216 331.029 43.856C330.693 43.496 330.525 43.028 330.525 42.452C330.525 41.852 330.681 40.82 330.993 39.356L331.821 35C330.069 36.32 328.449 36.98 326.961 36.98C325.881 36.98 325.053 36.692 324.477 36.116C324.429 36.356 324.381 36.596 324.333 36.836C324.309 37.076 324.273 37.316 324.225 37.556C324.129 38.348 324.009 39.152 323.865 39.968C323.433 42.824 322.785 44.252 321.921 44.252C321.561 44.252 321.345 44 321.273 43.496C321.489 41.624 322.017 38.72 322.857 34.784C323.721 30.824 324.333 28.148 324.693 26.756C324.765 26.516 324.897 26.312 325.089 26.144C325.305 25.976 325.521 25.892 325.737 25.892C326.025 25.892 326.229 26.096 326.349 26.504C326.349 26.888 326.133 28.136 325.701 30.248C325.365 31.856 325.101 33.236 324.909 34.388C325.437 34.988 326.265 35.288 327.393 35.288C328.497 35.288 329.709 34.736 331.029 33.632C331.437 33.272 331.821 32.888 332.181 32.48L332.721 30.068C333.129 28.316 333.573 27.104 334.053 26.432C334.293 26.048 334.617 25.856 335.025 25.856C335.433 25.856 335.637 26.084 335.637 26.54V26.72C334.317 31.256 333.489 34.544 333.153 36.584C332.841 38.336 332.637 39.716 332.541 40.724C332.469 41.516 332.421 41.948 332.397 42.02L332.361 42.488C332.361 42.632 332.421 42.704 332.541 42.704C332.637 42.704 332.721 42.668 332.793 42.596C332.913 42.524 333.105 42.488 333.369 42.488C333.777 42.488 333.981 42.704 333.981 43.136C333.981 43.976 333.513 44.396 332.577 44.396ZM347.249 44.396C346.577 44.396 346.061 44.216 345.701 43.856C345.365 43.496 345.197 43.028 345.197 42.452C345.197 41.852 345.353 40.82 345.665 39.356L346.493 35C344.741 36.32 343.121 36.98 341.633 36.98C340.553 36.98 339.725 36.692 339.149 36.116C339.101 36.356 339.053 36.596 339.005 36.836C338.981 37.076 338.945 37.316 338.897 37.556C338.801 38.348 338.681 39.152 338.537 39.968C338.105 42.824 337.457 44.252 336.593 44.252C336.233 44.252 336.017 44 335.945 43.496C336.161 41.624 336.689 38.72 337.529 34.784C338.393 30.824 339.005 28.148 339.365 26.756C339.437 26.516 339.569 26.312 339.761 26.144C339.977 25.976 340.193 25.892 340.409 25.892C340.697 25.892 340.901 26.096 341.021 26.504C341.021 26.888 340.805 28.136 340.373 30.248C340.037 31.856 339.773 33.236 339.581 34.388C340.109 34.988 340.937 35.288 342.065 35.288C343.169 35.288 344.381 34.736 345.701 33.632C346.109 33.272 346.493 32.888 346.853 32.48L347.393 30.068C347.801 28.316 348.245 27.104 348.725 26.432C348.965 26.048 349.289 25.856 349.697 25.856C350.105 25.856 350.309 26.084 350.309 26.54V26.72C348.989 31.256 348.161 34.544 347.825 36.584C347.513 38.336 347.309 39.716 347.213 40.724C347.141 41.516 347.093 41.948 347.069 42.02L347.033 42.488C347.033 42.632 347.093 42.704 347.213 42.704C347.309 42.704 347.393 42.668 347.465 42.596C347.585 42.524 347.777 42.488 348.041 42.488C348.449 42.488 348.653 42.704 348.653 43.136C348.653 43.976 348.185 44.396 347.249 44.396ZM353.964 44.324C352.716 44.324 351.78 43.832 351.156 42.848C350.556 41.864 350.256 40.688 350.256 39.32C350.256 37.136 350.616 35.024 351.336 32.984C352.08 30.92 353.088 29.216 354.36 27.872C355.584 26.504 356.964 25.82 358.5 25.82C360.708 25.82 361.812 27.5 361.812 30.86C361.812 32.54 361.536 34.256 360.984 36.008C360.432 37.76 359.712 39.32 358.824 40.688C357.96 42.056 357.06 43.04 356.124 43.64C355.404 44.096 354.684 44.324 353.964 44.324ZM354.252 42.704C354.996 42.704 355.824 42.056 356.736 40.76C357.672 39.464 358.452 37.856 359.076 35.936C359.724 34.016 360.048 32.384 360.048 31.04C360.048 29.648 359.964 28.784 359.796 28.448C359.652 28.088 359.472 27.836 359.256 27.692C359.04 27.548 358.704 27.476 358.248 27.476C357.744 27.476 357.216 27.668 356.664 28.052C355.56 28.748 354.6 29.948 353.784 31.652C352.512 34.196 351.876 36.668 351.876 39.068C351.876 40.7 352.344 41.828 353.28 42.452C353.616 42.62 353.94 42.704 354.252 42.704ZM365.155 44.432C364.003 44.432 363.091 44.012 362.419 43.172C361.771 42.308 361.447 41.276 361.447 40.076C361.447 37.964 361.831 35.78 362.599 33.524C363.391 31.268 364.423 29.384 365.695 27.872C366.967 26.36 368.311 25.604 369.727 25.604C370.759 25.604 371.431 25.976 371.743 26.72C371.815 26.84 371.875 26.972 371.923 27.116C371.971 27.236 372.019 27.356 372.067 27.476C372.187 27.812 372.307 28.004 372.427 28.052C372.523 28.292 372.571 28.472 372.571 28.592C372.571 28.808 372.463 29.012 372.247 29.204C372.055 29.396 371.839 29.492 371.599 29.492C371.095 29.492 370.771 29.12 370.627 28.376C370.483 27.632 370.087 27.26 369.439 27.26C368.575 27.26 367.663 27.932 366.703 29.276C365.743 30.596 364.915 32.276 364.219 34.316C363.547 36.236 363.211 37.952 363.211 39.464C363.211 41.6 363.991 42.668 365.551 42.668C366.343 42.668 367.075 42.296 367.747 41.552C367.819 41.456 367.951 41.3 368.143 41.084C368.335 40.844 368.515 40.676 368.683 40.58C368.851 40.46 369.007 40.4 369.151 40.4C369.607 40.4 369.835 40.604 369.835 41.012C369.835 41.492 369.607 42.008 369.151 42.56C368.695 43.088 368.107 43.532 367.387 43.892C366.667 44.252 365.923 44.432 365.155 44.432ZM371.666 27.872C371.378 27.872 371.126 27.788 370.91 27.62C370.718 27.452 370.622 27.272 370.622 27.08C370.622 26.912 370.706 26.768 370.874 26.648C372.89 25.784 375.41 25.352 378.434 25.352C379.73 25.352 380.798 25.4 381.638 25.496C382.454 25.616 383.162 25.7 383.762 25.748C384.266 25.82 384.566 25.904 384.662 26C384.758 26.12 384.806 26.288 384.806 26.504C384.806 26.72 384.686 26.936 384.446 27.152C384.206 27.344 383.906 27.44 383.546 27.44C383.138 27.44 382.454 27.332 381.494 27.116C380.486 26.924 379.526 26.828 378.614 26.828C376.166 26.828 373.946 27.164 371.954 27.836L371.81 27.872H371.666ZM373.538 44.54C373.13 44.54 372.926 44.3 372.926 43.82C372.926 43.58 373.01 43.352 373.178 43.136C373.394 42.56 373.61 41.78 373.826 40.796C374.114 39.572 374.306 38.816 374.402 38.528L374.762 36.692L375.158 34.388C375.566 32.036 375.95 30.344 376.31 29.312C376.694 28.28 377.21 27.764 377.858 27.764C378.098 27.764 378.29 27.92 378.434 28.232L378.902 29.456C378.902 29.96 378.722 30.344 378.362 30.608C378.266 30.68 378.146 30.716 378.002 30.716C377.858 30.716 377.726 30.644 377.606 30.5C377.054 32.54 376.718 34.028 376.598 34.964C376.358 36.524 376.154 37.724 375.986 38.564C375.89 38.828 375.782 39.212 375.662 39.716L375.338 40.904C374.714 43.328 374.114 44.54 373.538 44.54ZM384.327 44.54C382.263 44.54 381.231 43.136 381.231 40.328C381.231 39.296 381.387 38.036 381.699 36.548L382.347 33.452L383.751 26.612C383.847 26.42 384.003 26.264 384.219 26.144C384.435 26 384.639 25.928 384.831 25.928C384.999 25.928 385.167 26.036 385.335 26.252C385.503 26.468 385.587 26.696 385.587 26.936L384.435 31.436L383.319 36.152C382.935 37.88 382.743 39.2 382.743 40.112C382.743 41.12 382.887 41.84 383.175 42.272C383.463 42.68 383.931 42.884 384.579 42.884C385.587 42.884 386.415 42.548 387.063 41.876C387.711 41.204 388.179 40.316 388.467 39.212C388.731 38.156 388.863 37.232 388.863 36.44C388.863 34.376 388.359 33.344 387.351 33.344C386.703 33.344 386.115 33.86 385.587 34.892C385.299 35.468 385.047 35.888 384.831 36.152C384.639 36.344 384.471 36.44 384.327 36.44C383.895 36.44 383.679 36.236 383.679 35.828C383.679 35.588 383.919 35.096 384.399 34.352C384.903 33.584 385.311 33.02 385.623 32.66C386.295 31.988 386.919 31.652 387.495 31.652C388.455 31.652 389.187 32.108 389.691 33.02C390.195 33.932 390.447 35.048 390.447 36.368C390.447 37.88 390.171 39.26 389.619 40.508C389.091 41.756 388.359 42.74 387.423 43.46C386.487 44.18 385.455 44.54 384.327 44.54Z" fill="#FF7FBC"/>
</g>
<defs>
<filter id="filter0_dddddd_666_2952" x="92.1072" y="139.596" width="78.0271" height="61.9062" filterUnits="userSpaceOnUse" color-interpolation-filters="sRGB">
<feFlood flood-opacity="0" result="BackgroundImageFix"/>
<feColorMatrix in="SourceAlpha" type="matrix" values="0 0 0 0 0 0 0 0 0 0 0 0 0 0 0 0 0 0 127 0" result="hardAlpha"/>
<feOffset/>
<feColorMatrix type="matrix" values="0 0 0 0 1 0 0 0 0 1 0 0 0 0 1 0 0 0 1 0"/>
<feBlend mode="normal" in2="BackgroundImageFix" result="effect1_dropShadow_666_2952"/>
<feColorMatrix in="SourceAlpha" type="matrix" values="0 0 0 0 0 0 0 0 0 0 0 0 0 0 0 0 0 0 127 0" result="hardAlpha"/>
<feOffset/>
<feColorMatrix type="matrix" values="0 0 0 0 1 0 0 0 0 1 0 0 0 0 1 0 0 0 1 0"/>
<feBlend mode="normal" in2="effect1_dropShadow_666_2952" result="effect2_dropShadow_666_2952"/>
<feColorMatrix in="SourceAlpha" type="matrix" values="0 0 0 0 0 0 0 0 0 0 0 0 0 0 0 0 0 0 127 0" result="hardAlpha"/>
<feOffset/>
<feColorMatrix type="matrix" values="0 0 0 0 1 0 0 0 0 1 0 0 0 0 1 0 0 0 1 0"/>
<feBlend mode="normal" in2="effect2_dropShadow_666_2952" result="effect3_dropShadow_666_2952"/>
<feColorMatrix in="SourceAlpha" type="matrix" values="0 0 0 0 0 0 0 0 0 0 0 0 0 0 0 0 0 0 127 0" result="hardAlpha"/>
<feOffset/>
<feColorMatrix type="matrix" values="0 0 0 0 1 0 0 0 0 1 0 0 0 0 1 0 0 0 1 0"/>
<feBlend mode="normal" in2="effect3_dropShadow_666_2952" result="effect4_dropShadow_666_2952"/>
<feColorMatrix in="SourceAlpha" type="matrix" values="0 0 0 0 0 0 0 0 0 0 0 0 0 0 0 0 0 0 127 0" result="hardAlpha"/>
<feOffset/>
<feColorMatrix type="matrix" values="0 0 0 0 1 0 0 0 0 1 0 0 0 0 1 0 0 0 1 0"/>
<feBlend mode="normal" in2="effect4_dropShadow_666_2952" result="effect5_dropShadow_666_2952"/>
<feColorMatrix in="SourceAlpha" type="matrix" values="0 0 0 0 0 0 0 0 0 0 0 0 0 0 0 0 0 0 127 0" result="hardAlpha"/>
<feOffset/>
<feColorMatrix type="matrix" values="0 0 0 0 1 0 0 0 0 1 0 0 0 0 1 0 0 0 1 0"/>
<feBlend mode="normal" in2="effect5_dropShadow_666_2952" result="effect6_dropShadow_666_2952"/>
<feBlend mode="normal" in="SourceGraphic" in2="effect6_dropShadow_666_2952" result="shape"/>
</filter>
<filter id="filter1_dddddd_666_2952" x="114.241" y="101.875" width="55.9421" height="99.584" filterUnits="userSpaceOnUse" color-interpolation-filters="sRGB">
<feFlood flood-opacity="0" result="BackgroundImageFix"/>
<feColorMatrix in="SourceAlpha" type="matrix" values="0 0 0 0 0 0 0 0 0 0 0 0 0 0 0 0 0 0 127 0" result="hardAlpha"/>
<feOffset/>
<feColorMatrix type="matrix" values="0 0 0 0 1 0 0 0 0 1 0 0 0 0 1 0 0 0 1 0"/>
<feBlend mode="normal" in2="BackgroundImageFix" result="effect1_dropShadow_666_2952"/>
<feColorMatrix in="SourceAlpha" type="matrix" values="0 0 0 0 0 0 0 0 0 0 0 0 0 0 0 0 0 0 127 0" result="hardAlpha"/>
<feOffset/>
<feColorMatrix type="matrix" values="0 0 0 0 1 0 0 0 0 1 0 0 0 0 1 0 0 0 1 0"/>
<feBlend mode="normal" in2="effect1_dropShadow_666_2952" result="effect2_dropShadow_666_2952"/>
<feColorMatrix in="SourceAlpha" type="matrix" values="0 0 0 0 0 0 0 0 0 0 0 0 0 0 0 0 0 0 127 0" result="hardAlpha"/>
<feOffset/>
<feColorMatrix type="matrix" values="0 0 0 0 1 0 0 0 0 1 0 0 0 0 1 0 0 0 1 0"/>
<feBlend mode="normal" in2="effect2_dropShadow_666_2952" result="effect3_dropShadow_666_2952"/>
<feColorMatrix in="SourceAlpha" type="matrix" values="0 0 0 0 0 0 0 0 0 0 0 0 0 0 0 0 0 0 127 0" result="hardAlpha"/>
<feOffset/>
<feColorMatrix type="matrix" values="0 0 0 0 1 0 0 0 0 1 0 0 0 0 1 0 0 0 1 0"/>
<feBlend mode="normal" in2="effect3_dropShadow_666_2952" result="effect4_dropShadow_666_2952"/>
<feColorMatrix in="SourceAlpha" type="matrix" values="0 0 0 0 0 0 0 0 0 0 0 0 0 0 0 0 0 0 127 0" result="hardAlpha"/>
<feOffset/>
<feColorMatrix type="matrix" values="0 0 0 0 1 0 0 0 0 1 0 0 0 0 1 0 0 0 1 0"/>
<feBlend mode="normal" in2="effect4_dropShadow_666_2952" result="effect5_dropShadow_666_2952"/>
<feColorMatrix in="SourceAlpha" type="matrix" values="0 0 0 0 0 0 0 0 0 0 0 0 0 0 0 0 0 0 127 0" result="hardAlpha"/>
<feOffset/>
<feColorMatrix type="matrix" values="0 0 0 0 1 0 0 0 0 1 0 0 0 0 1 0 0 0 1 0"/>
<feBlend mode="normal" in2="effect5_dropShadow_666_2952" result="effect6_dropShadow_666_2952"/>
<feBlend mode="normal" in="SourceGraphic" in2="effect6_dropShadow_666_2952" result="shape"/>
</filter>
<filter id="filter2_dddddd_666_2952" x="130.073" y="98.5332" width="70.8804" height="36.8262" filterUnits="userSpaceOnUse" color-interpolation-filters="sRGB">
<feFlood flood-opacity="0" result="BackgroundImageFix"/>
<feColorMatrix in="SourceAlpha" type="matrix" values="0 0 0 0 0 0 0 0 0 0 0 0 0 0 0 0 0 0 127 0" result="hardAlpha"/>
<feOffset/>
<feColorMatrix type="matrix" values="0 0 0 0 1 0 0 0 0 1 0 0 0 0 1 0 0 0 1 0"/>
<feBlend mode="normal" in2="BackgroundImageFix" result="effect1_dropShadow_666_2952"/>
<feColorMatrix in="SourceAlpha" type="matrix" values="0 0 0 0 0 0 0 0 0 0 0 0 0 0 0 0 0 0 127 0" result="hardAlpha"/>
<feOffset/>
<feColorMatrix type="matrix" values="0 0 0 0 1 0 0 0 0 1 0 0 0 0 1 0 0 0 1 0"/>
<feBlend mode="normal" in2="effect1_dropShadow_666_2952" result="effect2_dropShadow_666_2952"/>
<feColorMatrix in="SourceAlpha" type="matrix" values="0 0 0 0 0 0 0 0 0 0 0 0 0 0 0 0 0 0 127 0" result="hardAlpha"/>
<feOffset/>
<feColorMatrix type="matrix" values="0 0 0 0 1 0 0 0 0 1 0 0 0 0 1 0 0 0 1 0"/>
<feBlend mode="normal" in2="effect2_dropShadow_666_2952" result="effect3_dropShadow_666_2952"/>
<feColorMatrix in="SourceAlpha" type="matrix" values="0 0 0 0 0 0 0 0 0 0 0 0 0 0 0 0 0 0 127 0" result="hardAlpha"/>
<feOffset/>
<feColorMatrix type="matrix" values="0 0 0 0 1 0 0 0 0 1 0 0 0 0 1 0 0 0 1 0"/>
<feBlend mode="normal" in2="effect3_dropShadow_666_2952" result="effect4_dropShadow_666_2952"/>
<feColorMatrix in="SourceAlpha" type="matrix" values="0 0 0 0 0 0 0 0 0 0 0 0 0 0 0 0 0 0 127 0" result="hardAlpha"/>
<feOffset/>
<feColorMatrix type="matrix" values="0 0 0 0 1 0 0 0 0 1 0 0 0 0 1 0 0 0 1 0"/>
<feBlend mode="normal" in2="effect4_dropShadow_666_2952" result="effect5_dropShadow_666_2952"/>
<feColorMatrix in="SourceAlpha" type="matrix" values="0 0 0 0 0 0 0 0 0 0 0 0 0 0 0 0 0 0 127 0" result="hardAlpha"/>
<feOffset/>
<feColorMatrix type="matrix" values="0 0 0 0 1 0 0 0 0 1 0 0 0 0 1 0 0 0 1 0"/>
<feBlend mode="normal" in2="effect5_dropShadow_666_2952" result="effect6_dropShadow_666_2952"/>
<feBlend mode="normal" in="SourceGraphic" in2="effect6_dropShadow_666_2952" result="shape"/>
</filter>
<filter id="filter3_dddddd_666_2952" x="192.988" y="127.322" width="23.5566" height="72.2012" filterUnits="userSpaceOnUse" color-interpolation-filters="sRGB">
<feFlood flood-opacity="0" result="BackgroundImageFix"/>
<feColorMatrix in="SourceAlpha" type="matrix" values="0 0 0 0 0 0 0 0 0 0 0 0 0 0 0 0 0 0 127 0" result="hardAlpha"/>
<feOffset/>
<feColorMatrix type="matrix" values="0 0 0 0 1 0 0 0 0 1 0 0 0 0 1 0 0 0 1 0"/>
<feBlend mode="normal" in2="BackgroundImageFix" result="effect1_dropShadow_666_2952"/>
<feColorMatrix in="SourceAlpha" type="matrix" values="0 0 0 0 0 0 0 0 0 0 0 0 0 0 0 0 0 0 127 0" result="hardAlpha"/>
<feOffset/>
<feColorMatrix type="matrix" values="0 0 0 0 1 0 0 0 0 1 0 0 0 0 1 0 0 0 1 0"/>
<feBlend mode="normal" in2="effect1_dropShadow_666_2952" result="effect2_dropShadow_666_2952"/>
<feColorMatrix in="SourceAlpha" type="matrix" values="0 0 0 0 0 0 0 0 0 0 0 0 0 0 0 0 0 0 127 0" result="hardAlpha"/>
<feOffset/>
<feColorMatrix type="matrix" values="0 0 0 0 1 0 0 0 0 1 0 0 0 0 1 0 0 0 1 0"/>
<feBlend mode="normal" in2="effect2_dropShadow_666_2952" result="effect3_dropShadow_666_2952"/>
<feColorMatrix in="SourceAlpha" type="matrix" values="0 0 0 0 0 0 0 0 0 0 0 0 0 0 0 0 0 0 127 0" result="hardAlpha"/>
<feOffset/>
<feColorMatrix type="matrix" values="0 0 0 0 1 0 0 0 0 1 0 0 0 0 1 0 0 0 1 0"/>
<feBlend mode="normal" in2="effect3_dropShadow_666_2952" result="effect4_dropShadow_666_2952"/>
<feColorMatrix in="SourceAlpha" type="matrix" values="0 0 0 0 0 0 0 0 0 0 0 0 0 0 0 0 0 0 127 0" result="hardAlpha"/>
<feOffset/>
<feColorMatrix type="matrix" values="0 0 0 0 1 0 0 0 0 1 0 0 0 0 1 0 0 0 1 0"/>
<feBlend mode="normal" in2="effect4_dropShadow_666_2952" result="effect5_dropShadow_666_2952"/>
<feColorMatrix in="SourceAlpha" type="matrix" values="0 0 0 0 0 0 0 0 0 0 0 0 0 0 0 0 0 0 127 0" result="hardAlpha"/>
<feOffset/>
<feColorMatrix type="matrix" values="0 0 0 0 1 0 0 0 0 1 0 0 0 0 1 0 0 0 1 0"/>
<feBlend mode="normal" in2="effect5_dropShadow_666_2952" result="effect6_dropShadow_666_2952"/>
<feBlend mode="normal" in="SourceGraphic" in2="effect6_dropShadow_666_2952" result="shape"/>
</filter>
<filter id="filter4_dddddd_666_2952" x="229.866" y="140.049" width="78.0271" height="61.9062" filterUnits="userSpaceOnUse" color-interpolation-filters="sRGB">
<feFlood flood-opacity="0" result="BackgroundImageFix"/>
<feColorMatrix in="SourceAlpha" type="matrix" values="0 0 0 0 0 0 0 0 0 0 0 0 0 0 0 0 0 0 127 0" result="hardAlpha"/>
<feOffset/>
<feColorMatrix type="matrix" values="0 0 0 0 1 0 0 0 0 1 0 0 0 0 1 0 0 0 1 0"/>
<feBlend mode="normal" in2="BackgroundImageFix" result="effect1_dropShadow_666_2952"/>
<feColorMatrix in="SourceAlpha" type="matrix" values="0 0 0 0 0 0 0 0 0 0 0 0 0 0 0 0 0 0 127 0" result="hardAlpha"/>
<feOffset/>
<feColorMatrix type="matrix" values="0 0 0 0 1 0 0 0 0 1 0 0 0 0 1 0 0 0 1 0"/>
<feBlend mode="normal" in2="effect1_dropShadow_666_2952" result="effect2_dropShadow_666_2952"/>
<feColorMatrix in="SourceAlpha" type="matrix" values="0 0 0 0 0 0 0 0 0 0 0 0 0 0 0 0 0 0 127 0" result="hardAlpha"/>
<feOffset/>
<feColorMatrix type="matrix" values="0 0 0 0 1 0 0 0 0 1 0 0 0 0 1 0 0 0 1 0"/>
<feBlend mode="normal" in2="effect2_dropShadow_666_2952" result="effect3_dropShadow_666_2952"/>
<feColorMatrix in="SourceAlpha" type="matrix" values="0 0 0 0 0 0 0 0 0 0 0 0 0 0 0 0 0 0 127 0" result="hardAlpha"/>
<feOffset/>
<feColorMatrix type="matrix" values="0 0 0 0 1 0 0 0 0 1 0 0 0 0 1 0 0 0 1 0"/>
<feBlend mode="normal" in2="effect3_dropShadow_666_2952" result="effect4_dropShadow_666_2952"/>
<feColorMatrix in="SourceAlpha" type="matrix" values="0 0 0 0 0 0 0 0 0 0 0 0 0 0 0 0 0 0 127 0" result="hardAlpha"/>
<feOffset/>
<feColorMatrix type="matrix" values="0 0 0 0 1 0 0 0 0 1 0 0 0 0 1 0 0 0 1 0"/>
<feBlend mode="normal" in2="effect4_dropShadow_666_2952" result="effect5_dropShadow_666_2952"/>
<feColorMatrix in="SourceAlpha" type="matrix" values="0 0 0 0 0 0 0 0 0 0 0 0 0 0 0 0 0 0 127 0" result="hardAlpha"/>
<feOffset/>
<feColorMatrix type="matrix" values="0 0 0 0 1 0 0 0 0 1 0 0 0 0 1 0 0 0 1 0"/>
<feBlend mode="normal" in2="effect5_dropShadow_666_2952" result="effect6_dropShadow_666_2952"/>
<feBlend mode="normal" in="SourceGraphic" in2="effect6_dropShadow_666_2952" result="shape"/>
</filter>
<filter id="filter5_dddddd_666_2952" x="229.817" y="102.328" width="55.9421" height="99.584" filterUnits="userSpaceOnUse" color-interpolation-filters="sRGB">
<feFlood flood-opacity="0" result="BackgroundImageFix"/>
<feColorMatrix in="SourceAlpha" type="matrix" values="0 0 0 0 0 0 0 0 0 0 0 0 0 0 0 0 0 0 127 0" result="hardAlpha"/>
<feOffset/>
<feColorMatrix type="matrix" values="0 0 0 0 1 0 0 0 0 1 0 0 0 0 1 0 0 0 1 0"/>
<feBlend mode="normal" in2="BackgroundImageFix" result="effect1_dropShadow_666_2952"/>
<feColorMatrix in="SourceAlpha" type="matrix" values="0 0 0 0 0 0 0 0 0 0 0 0 0 0 0 0 0 0 127 0" result="hardAlpha"/>
<feOffset/>
<feColorMatrix type="matrix" values="0 0 0 0 1 0 0 0 0 1 0 0 0 0 1 0 0 0 1 0"/>
<feBlend mode="normal" in2="effect1_dropShadow_666_2952" result="effect2_dropShadow_666_2952"/>
<feColorMatrix in="SourceAlpha" type="matrix" values="0 0 0 0 0 0 0 0 0 0 0 0 0 0 0 0 0 0 127 0" result="hardAlpha"/>
<feOffset/>
<feColorMatrix type="matrix" values="0 0 0 0 1 0 0 0 0 1 0 0 0 0 1 0 0 0 1 0"/>
<feBlend mode="normal" in2="effect2_dropShadow_666_2952" result="effect3_dropShadow_666_2952"/>
<feColorMatrix in="SourceAlpha" type="matrix" values="0 0 0 0 0 0 0 0 0 0 0 0 0 0 0 0 0 0 127 0" result="hardAlpha"/>
<feOffset/>
<feColorMatrix type="matrix" values="0 0 0 0 1 0 0 0 0 1 0 0 0 0 1 0 0 0 1 0"/>
<feBlend mode="normal" in2="effect3_dropShadow_666_2952" result="effect4_dropShadow_666_2952"/>
<feColorMatrix in="SourceAlpha" type="matrix" values="0 0 0 0 0 0 0 0 0 0 0 0 0 0 0 0 0 0 127 0" result="hardAlpha"/>
<feOffset/>
<feColorMatrix type="matrix" values="0 0 0 0 1 0 0 0 0 1 0 0 0 0 1 0 0 0 1 0"/>
<feBlend mode="normal" in2="effect4_dropShadow_666_2952" result="effect5_dropShadow_666_2952"/>
<feColorMatrix in="SourceAlpha" type="matrix" values="0 0 0 0 0 0 0 0 0 0 0 0 0 0 0 0 0 0 127 0" result="hardAlpha"/>
<feOffset/>
<feColorMatrix type="matrix" values="0 0 0 0 1 0 0 0 0 1 0 0 0 0 1 0 0 0 1 0"/>
<feBlend mode="normal" in2="effect5_dropShadow_666_2952" result="effect6_dropShadow_666_2952"/>
<feBlend mode="normal" in="SourceGraphic" in2="effect6_dropShadow_666_2952" result="shape"/>
</filter>
<filter id="filter6_dddddd_666_2952" x="199.047" y="98.9863" width="70.8804" height="36.8262" filterUnits="userSpaceOnUse" color-interpolation-filters="sRGB">
<feFlood flood-opacity="0" result="BackgroundImageFix"/>
<feColorMatrix in="SourceAlpha" type="matrix" values="0 0 0 0 0 0 0 0 0 0 0 0 0 0 0 0 0 0 127 0" result="hardAlpha"/>
<feOffset/>
<feColorMatrix type="matrix" values="0 0 0 0 1 0 0 0 0 1 0 0 0 0 1 0 0 0 1 0"/>
<feBlend mode="normal" in2="BackgroundImageFix" result="effect1_dropShadow_666_2952"/>
<feColorMatrix in="SourceAlpha" type="matrix" values="0 0 0 0 0 0 0 0 0 0 0 0 0 0 0 0 0 0 127 0" result="hardAlpha"/>
<feOffset/>
<feColorMatrix type="matrix" values="0 0 0 0 1 0 0 0 0 1 0 0 0 0 1 0 0 0 1 0"/>
<feBlend mode="normal" in2="effect1_dropShadow_666_2952" result="effect2_dropShadow_666_2952"/>
<feColorMatrix in="SourceAlpha" type="matrix" values="0 0 0 0 0 0 0 0 0 0 0 0 0 0 0 0 0 0 127 0" result="hardAlpha"/>
<feOffset/>
<feColorMatrix type="matrix" values="0 0 0 0 1 0 0 0 0 1 0 0 0 0 1 0 0 0 1 0"/>
<feBlend mode="normal" in2="effect2_dropShadow_666_2952" result="effect3_dropShadow_666_2952"/>
<feColorMatrix in="SourceAlpha" type="matrix" values="0 0 0 0 0 0 0 0 0 0 0 0 0 0 0 0 0 0 127 0" result="hardAlpha"/>
<feOffset/>
<feColorMatrix type="matrix" values="0 0 0 0 1 0 0 0 0 1 0 0 0 0 1 0 0 0 1 0"/>
<feBlend mode="normal" in2="effect3_dropShadow_666_2952" result="effect4_dropShadow_666_2952"/>
<feColorMatrix in="SourceAlpha" type="matrix" values="0 0 0 0 0 0 0 0 0 0 0 0 0 0 0 0 0 0 127 0" result="hardAlpha"/>
<feOffset/>
<feColorMatrix type="matrix" values="0 0 0 0 1 0 0 0 0 1 0 0 0 0 1 0 0 0 1 0"/>
<feBlend mode="normal" in2="effect4_dropShadow_666_2952" result="effect5_dropShadow_666_2952"/>
<feColorMatrix in="SourceAlpha" type="matrix" values="0 0 0 0 0 0 0 0 0 0 0 0 0 0 0 0 0 0 127 0" result="hardAlpha"/>
<feOffset/>
<feColorMatrix type="matrix" values="0 0 0 0 1 0 0 0 0 1 0 0 0 0 1 0 0 0 1 0"/>
<feBlend mode="normal" in2="effect5_dropShadow_666_2952" result="effect6_dropShadow_666_2952"/>
<feBlend mode="normal" in="SourceGraphic" in2="effect6_dropShadow_666_2952" result="shape"/>
</filter>
<filter id="filter7_dddddd_666_2952" x="184.491" y="127.775" width="22.5217" height="71.75" filterUnits="userSpaceOnUse" color-interpolation-filters="sRGB">
<feFlood flood-opacity="0" result="BackgroundImageFix"/>
<feColorMatrix in="SourceAlpha" type="matrix" values="0 0 0 0 0 0 0 0 0 0 0 0 0 0 0 0 0 0 127 0" result="hardAlpha"/>
<feOffset/>
<feColorMatrix type="matrix" values="0 0 0 0 1 0 0 0 0 1 0 0 0 0 1 0 0 0 1 0"/>
<feBlend mode="normal" in2="BackgroundImageFix" result="effect1_dropShadow_666_2952"/>
<feColorMatrix in="SourceAlpha" type="matrix" values="0 0 0 0 0 0 0 0 0 0 0 0 0 0 0 0 0 0 127 0" result="hardAlpha"/>
<feOffset/>
<feColorMatrix type="matrix" values="0 0 0 0 1 0 0 0 0 1 0 0 0 0 1 0 0 0 1 0"/>
<feBlend mode="normal" in2="effect1_dropShadow_666_2952" result="effect2_dropShadow_666_2952"/>
<feColorMatrix in="SourceAlpha" type="matrix" values="0 0 0 0 0 0 0 0 0 0 0 0 0 0 0 0 0 0 127 0" result="hardAlpha"/>
<feOffset/>
<feColorMatrix type="matrix" values="0 0 0 0 1 0 0 0 0 1 0 0 0 0 1 0 0 0 1 0"/>
<feBlend mode="normal" in2="effect2_dropShadow_666_2952" result="effect3_dropShadow_666_2952"/>
<feColorMatrix in="SourceAlpha" type="matrix" values="0 0 0 0 0 0 0 0 0 0 0 0 0 0 0 0 0 0 127 0" result="hardAlpha"/>
<feOffset/>
<feColorMatrix type="matrix" values="0 0 0 0 1 0 0 0 0 1 0 0 0 0 1 0 0 0 1 0"/>
<feBlend mode="normal" in2="effect3_dropShadow_666_2952" result="effect4_dropShadow_666_2952"/>
<feColorMatrix in="SourceAlpha" type="matrix" values="0 0 0 0 0 0 0 0 0 0 0 0 0 0 0 0 0 0 127 0" result="hardAlpha"/>
<feOffset/>
<feColorMatrix type="matrix" values="0 0 0 0 1 0 0 0 0 1 0 0 0 0 1 0 0 0 1 0"/>
<feBlend mode="normal" in2="effect4_dropShadow_666_2952" result="effect5_dropShadow_666_2952"/>
<feColorMatrix in="SourceAlpha" type="matrix" values="0 0 0 0 0 0 0 0 0 0 0 0 0 0 0 0 0 0 127 0" result="hardAlpha"/>
<feOffset/>
<feColorMatrix type="matrix" values="0 0 0 0 1 0 0 0 0 1 0 0 0 0 1 0 0 0 1 0"/>
<feBlend mode="normal" in2="effect5_dropShadow_666_2952" result="effect6_dropShadow_666_2952"/>
<feBlend mode="normal" in="SourceGraphic" in2="effect6_dropShadow_666_2952" result="shape"/>
</filter>
<filter id="filter8_dddddd_666_2952" x="225.223" y="129.697" width="15.4568" height="16.3945" filterUnits="userSpaceOnUse" color-interpolation-filters="sRGB">
<feFlood flood-opacity="0" result="BackgroundImageFix"/>
<feColorMatrix in="SourceAlpha" type="matrix" values="0 0 0 0 0 0 0 0 0 0 0 0 0 0 0 0 0 0 127 0" result="hardAlpha"/>
<feOffset/>
<feColorMatrix type="matrix" values="0 0 0 0 1 0 0 0 0 0.498039 0 0 0 0 0.737255 0 0 0 1 0"/>
<feBlend mode="normal" in2="BackgroundImageFix" result="effect1_dropShadow_666_2952"/>
<feColorMatrix in="SourceAlpha" type="matrix" values="0 0 0 0 0 0 0 0 0 0 0 0 0 0 0 0 0 0 127 0" result="hardAlpha"/>
<feOffset/>
<feColorMatrix type="matrix" values="0 0 0 0 1 0 0 0 0 0.498039 0 0 0 0 0.737255 0 0 0 1 0"/>
<feBlend mode="normal" in2="effect1_dropShadow_666_2952" result="effect2_dropShadow_666_2952"/>
<feColorMatrix in="SourceAlpha" type="matrix" values="0 0 0 0 0 0 0 0 0 0 0 0 0 0 0 0 0 0 127 0" result="hardAlpha"/>
<feOffset/>
<feColorMatrix type="matrix" values="0 0 0 0 1 0 0 0 0 0.498039 0 0 0 0 0.737255 0 0 0 1 0"/>
<feBlend mode="normal" in2="effect2_dropShadow_666_2952" result="effect3_dropShadow_666_2952"/>
<feColorMatrix in="SourceAlpha" type="matrix" values="0 0 0 0 0 0 0 0 0 0 0 0 0 0 0 0 0 0 127 0" result="hardAlpha"/>
<feOffset/>
<feColorMatrix type="matrix" values="0 0 0 0 1 0 0 0 0 0.498039 0 0 0 0 0.737255 0 0 0 1 0"/>
<feBlend mode="normal" in2="effect3_dropShadow_666_2952" result="effect4_dropShadow_666_2952"/>
<feColorMatrix in="SourceAlpha" type="matrix" values="0 0 0 0 0 0 0 0 0 0 0 0 0 0 0 0 0 0 127 0" result="hardAlpha"/>
<feOffset/>
<feColorMatrix type="matrix" values="0 0 0 0 1 0 0 0 0 0.498039 0 0 0 0 0.737255 0 0 0 1 0"/>
<feBlend mode="normal" in2="effect4_dropShadow_666_2952" result="effect5_dropShadow_666_2952"/>
<feColorMatrix in="SourceAlpha" type="matrix" values="0 0 0 0 0 0 0 0 0 0 0 0 0 0 0 0 0 0 127 0" result="hardAlpha"/>
<feOffset/>
<feColorMatrix type="matrix" values="0 0 0 0 1 0 0 0 0 0.498039 0 0 0 0 0.737255 0 0 0 1 0"/>
<feBlend mode="normal" in2="effect5_dropShadow_666_2952" result="effect6_dropShadow_666_2952"/>
<feBlend mode="normal" in="SourceGraphic" in2="effect6_dropShadow_666_2952" result="shape"/>
</filter>
<filter id="filter9_dddddd_666_2952" x="247.298" y="129.686" width="15.4045" height="16.4492" filterUnits="userSpaceOnUse" color-interpolation-filters="sRGB">
<feFlood flood-opacity="0" result="BackgroundImageFix"/>
<feColorMatrix in="SourceAlpha" type="matrix" values="0 0 0 0 0 0 0 0 0 0 0 0 0 0 0 0 0 0 127 0" result="hardAlpha"/>
<feOffset/>
<feColorMatrix type="matrix" values="0 0 0 0 1 0 0 0 0 0.498039 0 0 0 0 0.737255 0 0 0 1 0"/>
<feBlend mode="normal" in2="BackgroundImageFix" result="effect1_dropShadow_666_2952"/>
<feColorMatrix in="SourceAlpha" type="matrix" values="0 0 0 0 0 0 0 0 0 0 0 0 0 0 0 0 0 0 127 0" result="hardAlpha"/>
<feOffset/>
<feColorMatrix type="matrix" values="0 0 0 0 1 0 0 0 0 0.498039 0 0 0 0 0.737255 0 0 0 1 0"/>
<feBlend mode="normal" in2="effect1_dropShadow_666_2952" result="effect2_dropShadow_666_2952"/>
<feColorMatrix in="SourceAlpha" type="matrix" values="0 0 0 0 0 0 0 0 0 0 0 0 0 0 0 0 0 0 127 0" result="hardAlpha"/>
<feOffset/>
<feColorMatrix type="matrix" values="0 0 0 0 1 0 0 0 0 0.498039 0 0 0 0 0.737255 0 0 0 1 0"/>
<feBlend mode="normal" in2="effect2_dropShadow_666_2952" result="effect3_dropShadow_666_2952"/>
<feColorMatrix in="SourceAlpha" type="matrix" values="0 0 0 0 0 0 0 0 0 0 0 0 0 0 0 0 0 0 127 0" result="hardAlpha"/>
<feOffset/>
<feColorMatrix type="matrix" values="0 0 0 0 1 0 0 0 0 0.498039 0 0 0 0 0.737255 0 0 0 1 0"/>
<feBlend mode="normal" in2="effect3_dropShadow_666_2952" result="effect4_dropShadow_666_2952"/>
<feColorMatrix in="SourceAlpha" type="matrix" values="0 0 0 0 0 0 0 0 0 0 0 0 0 0 0 0 0 0 127 0" result="hardAlpha"/>
<feOffset/>
<feColorMatrix type="matrix" values="0 0 0 0 1 0 0 0 0 0.498039 0 0 0 0 0.737255 0 0 0 1 0"/>
<feBlend mode="normal" in2="effect4_dropShadow_666_2952" result="effect5_dropShadow_666_2952"/>
<feColorMatrix in="SourceAlpha" type="matrix" values="0 0 0 0 0 0 0 0 0 0 0 0 0 0 0 0 0 0 127 0" result="hardAlpha"/>
<feOffset/>
<feColorMatrix type="matrix" values="0 0 0 0 1 0 0 0 0 0.498039 0 0 0 0 0.737255 0 0 0 1 0"/>
<feBlend mode="normal" in2="effect5_dropShadow_666_2952" result="effect6_dropShadow_666_2952"/>
<feBlend mode="normal" in="SourceGraphic" in2="effect6_dropShadow_666_2952" result="shape"/>
</filter>
<clipPath id="clip0_666_2952">
<rect width="400" height="344" fill="white"/>
</clipPath>
</defs>
</svg>
