<svg width="330" height="560" viewBox="0 0 330 560" fill="none" xmlns="http://www.w3.org/2000/svg">
<g clip-path="url(#clip0_457_543)">
<rect width="342" height="560" fill="#7EFFC1"/>
<g filter="url(#filter0_dddddd_457_543)">
<path d="M69.4413 236.508C13.6436 256.12 53.9893 302.482 129.531 302.482" stroke="#FF7FBC" stroke-width="8" stroke-linecap="round"/>
</g>
<g filter="url(#filter1_dddddd_457_543)">
<path d="M129.535 302.481C64.2956 259.687 57.4282 211.543 88.4824 190.158" stroke="#FF7FBC" stroke-width="8" stroke-linecap="round"/>
</g>
<g filter="url(#filter2_dddddd_457_543)">
<path d="M90.0464 189.255C108.074 179.447 141.552 192.821 167.305 221.351" stroke="#FF7FBC" stroke-width="8" stroke-linecap="round"/>
</g>
<g filter="url(#filter3_dddddd_457_543)">
<path d="M167.304 221.35C187.047 241.855 195.669 283.203 172.491 300.143" stroke="#FF7FBC" stroke-width="8" stroke-linecap="round"/>
</g>
<g filter="url(#filter4_dddddd_457_543)">
<path d="M272.56 237.062C328.357 256.675 288.012 303.036 212.469 303.036" stroke="#FF7FBC" stroke-width="8" stroke-linecap="round"/>
</g>
<g filter="url(#filter5_dddddd_457_543)">
<path d="M212.466 303.036C277.705 260.242 284.573 212.098 253.519 190.713" stroke="#FF7FBC" stroke-width="8" stroke-linecap="round"/>
</g>
<g filter="url(#filter6_dddddd_457_543)">
<path d="M251.955 189.81C233.927 180.002 200.449 193.376 174.696 221.906" stroke="#FF7FBC" stroke-width="8" stroke-linecap="round"/>
</g>
<g filter="url(#filter7_dddddd_457_543)">
<path d="M174.698 221.904C154.954 242.41 148.457 283.202 171.635 300.142" stroke="#FF7FBC" stroke-width="8" stroke-linecap="round"/>
</g>
<g filter="url(#filter8_dddddd_457_543)">
<path d="M215.496 223.729C219.807 228.304 222.229 236.846 220.196 238.912C218.163 240.979 211.219 237.035 206.908 232.46C202.597 227.886 200.749 222.502 202.782 220.436C204.815 218.369 211.185 219.155 215.496 223.729Z" fill="#FF7FBC"/>
</g>
<g filter="url(#filter9_dddddd_457_543)">
<path d="M234.418 223.766C230.128 228.362 227.747 236.917 229.79 238.973C231.832 241.029 238.758 237.05 243.047 232.453C247.337 227.857 249.159 222.464 247.116 220.408C245.074 218.352 238.708 219.17 234.418 223.766Z" fill="#FF7FBC"/>
</g>
<path d="M-197 423.242C-164.926 351.318 -218.014 351.318 -185.94 423.242C-153.866 495.167 -206.954 494.294 -174.88 423.242C-142.806 352.191 -195.894 352.191 -163.82 423.242C-131.746 494.294 -184.834 456.73 -152.76 423.242C-120.686 389.755 -173.774 389.755 -141.7 423.242C-109.626 456.73 -162.714 478.278 -130.64 423.242C-98.566 368.207 -151.654 368.207 -119.58 423.242C-87.506 478.278 -140.594 505.068 -108.52 423.242C-76.446 341.417 -129.534 341.417 -97.46 423.242C-65.386 505.068 -118.474 459.642 -86.4 423.242C-54.326 386.843 -107.414 386.843 -75.34 423.242C-43.266 459.642 -96.354 467.213 -64.28 423.242C-32.206 379.272 -85.294 379.272 -53.22 423.242C-21.146 467.213 -74.234 467.213 -42.16 423.242C-10.086 379.272 -63.174 379.272 -31.1 423.242C0.974006 467.213 -52.114 454.4 -20.04 423.242C12.034 392.085 -41.054 392.085 -8.97999 423.242C23.094 454.4 -29.994 484.393 2.08001 423.242C34.154 362.092 -18.934 362.092 13.14 423.242C45.214 484.393 -7.87399 455.856 24.2 423.242C56.274 390.629 3.18601 390.629 35.26 423.242C67.334 455.856 14.246 492.546 46.32 423.242C78.394 353.939 25.306 353.939 57.38 423.242C89.454 492.546 36.366 496.332 68.44 423.242C100.514 350.153 47.426 350.153 79.5 423.242C111.574 496.332 58.486 495.458 90.56 423.242C122.634 351.027 69.546 351.027 101.62 423.242C133.694 495.458 80.606 506.232 112.68 423.242C144.754 340.253 91.666 340.253 123.74 423.242C155.814 506.232 102.726 459.35 134.8 423.242C166.874 387.135 113.786 387.135 145.86 423.242C177.934 459.35 124.846 500.7 156.92 423.242C188.994 345.785 135.906 345.785 167.98 423.242C200.054 500.7 146.966 502.447 179.04 423.242C211.114 344.038 158.026 344.038 190.1 423.242C222.174 502.447 169.086 500.991 201.16 423.242C233.234 345.494 180.146 345.494 212.22 423.242C244.294 500.991 191.206 500.991 223.28 423.242C255.354 345.494 202.266 345.494 234.34 423.242C266.414 500.991 213.326 452.362 245.4 423.242C277.474 394.123 224.386 394.123 256.46 423.242C288.534 452.362 235.446 458.768 267.52 423.242C299.594 387.717 246.506 387.717 278.58 423.242C310.654 458.768 257.566 479.734 289.64 423.242C321.714 366.751 268.626 366.751 300.7 423.242C332.774 479.734 279.686 485.558 311.76 423.242C343.834 360.927 290.746 360.927 322.82 423.242C354.894 485.558 301.806 484.684 333.88 423.242C365.954 361.801 312.866 361.801 344.94 423.242C377.014 484.684 323.926 476.531 356 423.242" stroke="#FF7FBC" stroke-width="6"/>
<path d="M82.056 68.56C81.3093 68.56 80.6 68.168 79.928 67.384C79.2933 66.6 78.7707 65.5547 78.36 64.248C77.9867 62.9413 77.8 61.56 77.8 60.104C77.8 58.312 77.8747 56.4827 78.024 54.616C77.464 54.5413 77.184 54.224 77.184 53.664C77.184 53.552 77.2213 53.3467 77.296 53.048L78.416 51.088C79.2373 45.264 80.88 37.6293 83.344 28.184C85.0987 21.8373 87.1707 17.432 89.56 14.968C90.344 14.1467 91.0907 13.736 91.8 13.736C94.376 13.736 95.664 15.304 95.664 18.44C95.664 22.36 93.928 26.84 90.456 31.88C89.4853 33.336 88.1413 35.296 86.424 37.76C84.632 40.2987 83.2693 42.6133 82.336 44.704C82.1493 45.1147 81.888 45.3947 81.552 45.544L81.384 46.608C85.0053 41.9787 88.272 39.664 91.184 39.664C92.3413 39.664 93.1627 40.28 93.648 41.512C94.1333 42.7067 94.376 44.1067 94.376 45.712C94.376 48.3253 93.7973 51.4613 92.64 55.12C91.52 58.7413 90.1387 61.7467 88.496 64.136C86.4053 67.0853 84.2587 68.56 82.056 68.56ZM84.744 36.416C85.7893 34.848 86.4987 33.7653 86.872 33.168L87.824 31.768C91.2213 26.4667 92.92 22.3787 92.92 19.504C92.92 18.5707 92.864 17.88 92.752 17.432C92.64 16.9467 92.36 16.704 91.912 16.704C91.0907 16.704 90.12 17.824 89 20.064C86.7973 24.432 84.7067 30.9467 82.728 39.608L84.744 36.416ZM82.616 65.816C83.9973 65.816 85.3787 64.6587 86.76 62.344C88.1787 60.0293 89.3733 57.136 90.344 53.664C91.24 50.3413 91.688 47.9147 91.688 46.384C91.688 44.7413 91.5947 43.752 91.408 43.416C91.2213 43.0053 90.7547 42.8 90.008 42.8C88.664 42.8 87.2267 43.584 85.696 45.152C84.2027 46.6827 82.5227 48.96 80.656 51.984C80.432 54.112 80.32 56.0907 80.32 57.92C80.32 63.184 81.0853 65.816 82.616 65.816ZM98.9518 68.672C97.6078 68.672 96.5438 68.3547 95.7598 67.72C94.9758 67.048 94.3411 65.9467 93.8558 64.416C93.7811 64.304 93.7438 64.0613 93.7438 63.688C93.7438 63.352 93.8931 63.0347 94.1918 62.736C94.4905 62.4 94.8265 62.232 95.1998 62.232C95.5358 62.232 95.8531 62.4373 96.1518 62.848C96.1518 65.1253 97.2345 66.264 99.3998 66.264C101.005 66.264 102.61 65.4613 104.216 63.856C105.821 62.2133 107.296 60.0667 108.64 57.416C109.834 55.1013 110.712 52.992 111.272 51.088L111.72 49.632C112.13 48.2507 112.56 46.8693 113.008 45.488C113.493 44.0693 113.978 42.856 114.464 41.848C115.098 40.5413 115.733 39.888 116.368 39.888C117.04 39.888 117.376 40.2427 117.376 40.952C117.376 41.5867 117.021 42.912 116.312 44.928C115.528 47.28 114.874 50.08 114.352 53.328C113.829 56.5387 113.568 59.7493 113.568 62.96C113.568 64.7893 113.941 65.816 114.688 66.04L115.36 66.096C115.92 66.096 116.405 65.9653 116.816 65.704C116.928 65.6667 117.189 65.48 117.6 65.144C117.674 65.0693 117.973 64.8267 118.496 64.416C119.018 63.968 119.466 63.744 119.84 63.744C120.512 63.744 120.848 64.0987 120.848 64.808C120.848 65.256 120.512 65.7787 119.84 66.376C119.168 66.9733 118.365 67.4773 117.432 67.888C116.498 68.2987 115.64 68.504 114.856 68.504C112.466 68.504 111.272 65.9093 111.272 60.72C111.272 59.712 111.365 58.3307 111.552 56.576C110.208 60.048 108.341 62.9413 105.952 65.256C103.6 67.5333 101.266 68.672 98.9518 68.672ZM123.51 68.672C122.838 68.672 122.502 68.3547 122.502 67.72C122.502 67.4587 122.632 66.9173 122.894 66.096C123.454 64.304 124.144 61.4293 124.966 57.472L125.862 52.432L126.59 48.344C126.776 47.448 126.963 46.0853 127.15 44.256C127.486 40.7467 128.307 38.992 129.614 38.992C130.36 38.992 130.734 39.5333 130.734 40.616C130.659 40.9147 130.528 41.1947 130.342 41.456C129.894 43.7333 129.632 45.208 129.558 45.88C129.371 47 129.091 48.2507 128.718 49.632C128.419 50.752 128.176 51.7973 127.99 52.768C129.222 52.32 130.678 52.096 132.358 52.096L135.942 52.208C136.8 49.2587 138.368 46.1413 140.646 42.856C142.064 40.8773 144.342 39.888 147.478 39.888C148.486 39.888 149.4 40.1867 150.222 40.784C151.043 41.3813 151.528 42.2027 151.678 43.248C151.902 43.5467 152.051 43.808 152.126 44.032C152.014 48.288 151.622 51.76 150.95 54.448C150.278 57.0987 149.4 59.488 148.318 61.616C146.414 65.1253 144.155 67.2347 141.542 67.944C140.31 68.28 139.358 68.448 138.686 68.448C137.416 68.448 136.427 67.7573 135.718 66.376C135.046 64.9947 134.71 63.2027 134.71 61C134.71 59.0587 134.915 56.968 135.326 54.728L132.526 54.672C131.592 54.672 130.622 54.7653 129.614 54.952C128.68 55.176 128.176 55.3813 128.102 55.568C127.952 55.792 127.71 55.9787 127.374 56.128C127.224 56.9867 127.131 57.584 127.094 57.92C126.72 60.0853 126.366 61.9147 126.03 63.408C125.731 64.864 125.32 66.3947 124.798 68C124.462 68.448 124.032 68.672 123.51 68.672ZM139.862 66.152C140.982 66.152 142.326 65.3867 143.894 63.856C145.462 62.288 146.582 60.6453 147.254 58.928C147.963 57.0987 148.486 55.232 148.822 53.328C149.158 51.3867 149.4 48.6427 149.55 45.096C149.438 44.984 149.307 44.7787 149.158 44.48C149.12 43.136 148.43 42.464 147.086 42.464C144.846 42.464 142.979 43.416 141.486 45.32C140.03 47.224 138.947 49.7253 138.238 52.824C137.603 55.7733 137.286 58.424 137.286 60.776C137.286 64.36 138.144 66.152 139.862 66.152ZM157.201 68.672C153.766 68.672 152.049 66.5627 152.049 62.344C152.049 59.1333 152.385 56.0533 153.057 53.104C153.766 50.1173 154.681 47.5227 155.801 45.32C156.958 43.1173 158.209 41.5307 159.553 40.56C160.598 39.8133 161.569 39.44 162.465 39.44C164.182 39.44 165.396 39.7947 166.105 40.504C165.694 39.1973 165.097 37.8533 164.313 36.472C163.454 35.0533 162.745 33.7653 162.185 32.608C160.468 29.4347 159.609 26.3733 159.609 23.424C159.609 21.52 159.982 19.84 160.729 18.384C161.513 16.8907 162.558 15.7333 163.865 14.912C165.172 14.0533 166.646 13.624 168.289 13.624C169.782 13.624 171.145 13.8293 172.377 14.24C173.945 14.688 175.102 14.9867 175.849 15.136C176.633 15.2853 177.566 15.36 178.649 15.36C180.516 15.36 181.99 15.1547 183.073 14.744C183.073 14.744 183.465 14.6133 184.249 14.352C184.548 14.24 184.921 14.184 185.369 14.184C186.041 14.184 186.377 14.464 186.377 15.024C186.377 15.8453 185.686 16.536 184.305 17.096C182.924 17.656 181.412 17.936 179.769 17.936C178.388 17.936 177.324 17.88 176.577 17.768C175.83 17.6187 174.505 17.2827 172.601 16.76C170.958 16.3493 169.241 16.144 167.449 16.144C165.769 16.144 164.481 16.872 163.585 18.328C162.689 19.784 162.241 21.5013 162.241 23.48C162.241 25.272 162.484 26.8773 162.969 28.296C163.454 29.6773 164.425 31.6 165.881 34.064C168.27 38.0213 169.465 41.456 169.465 44.368L169.185 46.888V47C169.185 49.912 168.756 52.7867 167.897 55.624C167.076 58.4613 165.993 60.944 164.649 63.072C163.342 65.2 161.98 66.7307 160.561 67.664C159.516 68.336 158.396 68.672 157.201 68.672ZM157.145 65.928C158.116 65.928 159.012 65.6107 159.833 64.976C160.654 64.304 161.438 63.352 162.185 62.12C163.492 59.8427 164.556 57.136 165.377 54C166.198 51.0133 166.609 48.3813 166.609 46.104C166.609 44.872 166.292 43.9387 165.657 43.304C165.022 42.6693 164.182 42.352 163.137 42.352C162.166 42.352 161.345 42.632 160.673 43.192C160.038 43.752 159.254 44.76 158.321 46.216C157.388 47.7093 156.51 49.8933 155.689 52.768C154.905 55.6053 154.513 58.0133 154.513 59.992C154.513 62.0827 154.7 63.5947 155.073 64.528C155.446 65.4613 156.137 65.928 157.145 65.928ZM173.981 68.672C172.637 68.672 171.573 68.3547 170.789 67.72C170.005 67.048 169.37 65.9467 168.885 64.416C168.81 64.304 168.773 64.0613 168.773 63.688C168.773 63.352 168.922 63.0347 169.221 62.736C169.52 62.4 169.856 62.232 170.229 62.232C170.565 62.232 170.882 62.4373 171.181 62.848C171.181 65.1253 172.264 66.264 174.429 66.264C176.034 66.264 177.64 65.4613 179.245 63.856C180.85 62.2133 182.325 60.0667 183.669 57.416C184.864 55.1013 185.741 52.992 186.301 51.088L186.749 49.632C187.16 48.2507 187.589 46.8693 188.037 45.488C188.522 44.0693 189.008 42.856 189.493 41.848C190.128 40.5413 190.762 39.888 191.397 39.888C192.069 39.888 192.405 40.2427 192.405 40.952C192.405 41.5867 192.05 42.912 191.341 44.928C190.557 47.28 189.904 50.08 189.381 53.328C188.858 56.5387 188.597 59.7493 188.597 62.96C188.597 64.7893 188.97 65.816 189.717 66.04L190.389 66.096C190.949 66.096 191.434 65.9653 191.845 65.704C191.957 65.6667 192.218 65.48 192.629 65.144C192.704 65.0693 193.002 64.8267 193.525 64.416C194.048 63.968 194.496 63.744 194.869 63.744C195.541 63.744 195.877 64.0987 195.877 64.808C195.877 65.256 195.541 65.7787 194.869 66.376C194.197 66.9733 193.394 67.4773 192.461 67.888C191.528 68.2987 190.669 68.504 189.885 68.504C187.496 68.504 186.301 65.9093 186.301 60.72C186.301 59.712 186.394 58.3307 186.581 56.576C185.237 60.048 183.37 62.9413 180.981 65.256C178.629 67.5333 176.296 68.672 173.981 68.672ZM203.286 68.56C202.091 68.56 201.158 68.3733 200.486 68C199.814 67.5893 199.272 66.9733 198.862 66.152C198.078 64.696 197.686 62.9413 197.686 60.888C197.686 57.304 198.227 53.9067 199.31 50.696C200.392 47.448 201.867 44.7227 203.734 42.52C205.526 40.4293 207.486 39.384 209.614 39.384C210.734 39.384 211.611 39.8507 212.246 40.784C212.918 41.68 213.254 42.7813 213.254 44.088C213.254 46.3653 212.656 48.344 211.462 50.024C210.304 51.704 208.736 53.104 206.758 54.224C205.04 55.232 202.95 56.24 200.486 57.248L200.374 61.28C200.374 64.416 201.326 65.984 203.23 65.984C204.088 65.984 204.984 65.7787 205.918 65.368C206.851 64.92 207.822 64.3973 208.83 63.8C209.315 63.5387 209.707 63.408 210.006 63.408C210.64 63.408 210.958 63.744 210.958 64.416C210.958 64.9013 210.491 65.48 209.558 66.152C208.662 66.824 207.598 67.4027 206.366 67.888C205.134 68.336 204.107 68.56 203.286 68.56ZM200.934 54.56C201.27 54.3733 202.016 53.9813 203.174 53.384C203.696 53.16 204.443 52.7867 205.414 52.264C207.168 51.2933 208.475 50.1733 209.334 48.904C210.23 47.6347 210.678 46.0667 210.678 44.2C210.678 42.744 210.062 42.016 208.83 42.016C207.747 42.016 206.478 43.0053 205.022 44.984C203.491 46.9627 202.259 49.5573 201.326 52.768C201.064 53.664 200.934 54.2613 200.934 54.56ZM229.898 68.616C228.852 68.616 228.05 68.336 227.49 67.776C226.967 67.216 226.706 66.488 226.706 65.592C226.706 64.6587 226.948 63.0533 227.434 60.776L228.722 54C225.996 56.0533 223.476 57.08 221.162 57.08C219.482 57.08 218.194 56.632 217.298 55.736C217.223 56.1093 217.148 56.4827 217.074 56.856C217.036 57.2293 216.98 57.6027 216.906 57.976C216.756 59.208 216.57 60.4587 216.346 61.728C215.674 66.1707 214.666 68.392 213.322 68.392C212.762 68.392 212.426 68 212.314 67.216C212.65 64.304 213.471 59.7867 214.778 53.664C216.122 47.504 217.074 43.3413 217.634 41.176C217.746 40.8027 217.951 40.4853 218.25 40.224C218.586 39.9627 218.922 39.832 219.258 39.832C219.706 39.832 220.023 40.1493 220.21 40.784C220.21 41.3813 219.874 43.3227 219.202 46.608C218.679 49.1093 218.268 51.256 217.97 53.048C218.791 53.9813 220.079 54.448 221.834 54.448C223.551 54.448 225.436 53.5893 227.49 51.872C228.124 51.312 228.722 50.7147 229.282 50.08L230.122 46.328C230.756 43.6027 231.447 41.7173 232.194 40.672C232.567 40.0747 233.071 39.776 233.706 39.776C234.34 39.776 234.658 40.1307 234.658 40.84V41.12C232.604 48.176 231.316 53.2907 230.794 56.464C230.308 59.1893 229.991 61.336 229.842 62.904C229.73 64.136 229.655 64.808 229.618 64.92L229.562 65.648C229.562 65.872 229.655 65.984 229.842 65.984C229.991 65.984 230.122 65.928 230.234 65.816C230.42 65.704 230.719 65.648 231.13 65.648C231.764 65.648 232.082 65.984 232.082 66.656C232.082 67.9627 231.354 68.616 229.898 68.616ZM252.72 68.616C251.675 68.616 250.872 68.336 250.312 67.776C249.789 67.216 249.528 66.488 249.528 65.592C249.528 64.6587 249.771 63.0533 250.256 60.776L251.544 54C248.819 56.0533 246.299 57.08 243.984 57.08C242.304 57.08 241.016 56.632 240.12 55.736C240.045 56.1093 239.971 56.4827 239.896 56.856C239.859 57.2293 239.803 57.6027 239.728 57.976C239.579 59.208 239.392 60.4587 239.168 61.728C238.496 66.1707 237.488 68.392 236.144 68.392C235.584 68.392 235.248 68 235.136 67.216C235.472 64.304 236.293 59.7867 237.6 53.664C238.944 47.504 239.896 43.3413 240.456 41.176C240.568 40.8027 240.773 40.4853 241.072 40.224C241.408 39.9627 241.744 39.832 242.08 39.832C242.528 39.832 242.845 40.1493 243.032 40.784C243.032 41.3813 242.696 43.3227 242.024 46.608C241.501 49.1093 241.091 51.256 240.792 53.048C241.613 53.9813 242.901 54.448 244.656 54.448C246.373 54.448 248.259 53.5893 250.312 51.872C250.947 51.312 251.544 50.7147 252.104 50.08L252.944 46.328C253.579 43.6027 254.269 41.7173 255.016 40.672C255.389 40.0747 255.893 39.776 256.528 39.776C257.163 39.776 257.48 40.1307 257.48 40.84V41.12C255.427 48.176 254.139 53.2907 253.616 56.464C253.131 59.1893 252.813 61.336 252.664 62.904C252.552 64.136 252.477 64.808 252.44 64.92L252.384 65.648C252.384 65.872 252.477 65.984 252.664 65.984C252.813 65.984 252.944 65.928 253.056 65.816C253.243 65.704 253.541 65.648 253.952 65.648C254.587 65.648 254.904 65.984 254.904 66.656C254.904 67.9627 254.176 68.616 252.72 68.616ZM263.166 68.504C261.225 68.504 259.769 67.7387 258.798 66.208C257.865 64.6773 257.398 62.848 257.398 60.72C257.398 57.3227 257.958 54.0373 259.078 50.864C260.235 47.6533 261.803 45.0027 263.782 42.912C265.686 40.784 267.833 39.72 270.222 39.72C273.657 39.72 275.374 42.3333 275.374 47.56C275.374 50.1733 274.945 52.8427 274.086 55.568C273.227 58.2933 272.107 60.72 270.726 62.848C269.382 64.976 267.982 66.5067 266.526 67.44C265.406 68.1493 264.286 68.504 263.166 68.504ZM263.614 65.984C264.771 65.984 266.059 64.976 267.478 62.96C268.934 60.944 270.147 58.4427 271.118 55.456C272.126 52.4693 272.63 49.9307 272.63 47.84C272.63 45.6747 272.499 44.3307 272.238 43.808C272.014 43.248 271.734 42.856 271.398 42.632C271.062 42.408 270.539 42.296 269.83 42.296C269.046 42.296 268.225 42.5947 267.366 43.192C265.649 44.2747 264.155 46.1413 262.886 48.792C260.907 52.7493 259.918 56.5947 259.918 60.328C259.918 62.8667 260.646 64.6213 262.102 65.592C262.625 65.8533 263.129 65.984 263.614 65.984ZM280.574 68.672C278.782 68.672 277.364 68.0187 276.318 66.712C275.31 65.368 274.806 63.7627 274.806 61.896C274.806 58.6107 275.404 55.2133 276.598 51.704C277.83 48.1947 279.436 45.264 281.414 42.912C283.393 40.56 285.484 39.384 287.686 39.384C289.292 39.384 290.337 39.9627 290.822 41.12C290.934 41.3067 291.028 41.512 291.102 41.736C291.177 41.9227 291.252 42.1093 291.326 42.296C291.513 42.8187 291.7 43.1173 291.886 43.192C292.036 43.5653 292.11 43.8453 292.11 44.032C292.11 44.368 291.942 44.6853 291.606 44.984C291.308 45.2827 290.972 45.432 290.598 45.432C289.814 45.432 289.31 44.8533 289.086 43.696C288.862 42.5387 288.246 41.96 287.238 41.96C285.894 41.96 284.476 43.0053 282.982 45.096C281.489 47.1493 280.201 49.7627 279.118 52.936C278.073 55.9227 277.55 58.592 277.55 60.944C277.55 64.2667 278.764 65.928 281.19 65.928C282.422 65.928 283.561 65.3493 284.606 64.192C284.718 64.0427 284.924 63.8 285.222 63.464C285.521 63.0907 285.801 62.8293 286.062 62.68C286.324 62.4933 286.566 62.4 286.79 62.4C287.5 62.4 287.854 62.7173 287.854 63.352C287.854 64.0987 287.5 64.9013 286.79 65.76C286.081 66.5813 285.166 67.272 284.046 67.832C282.926 68.392 281.769 68.672 280.574 68.672ZM290.703 42.912C290.255 42.912 289.863 42.7813 289.527 42.52C289.228 42.2587 289.079 41.9787 289.079 41.68C289.079 41.4187 289.209 41.1947 289.471 41.008C292.607 39.664 296.527 38.992 301.231 38.992C303.247 38.992 304.908 39.0667 306.215 39.216C307.484 39.4027 308.585 39.5333 309.519 39.608C310.303 39.72 310.769 39.8507 310.919 40C311.068 40.1867 311.143 40.448 311.143 40.784C311.143 41.12 310.956 41.456 310.583 41.792C310.209 42.0907 309.743 42.24 309.183 42.24C308.548 42.24 307.484 42.072 305.991 41.736C304.423 41.4373 302.929 41.288 301.511 41.288C297.703 41.288 294.249 41.8107 291.151 42.856L290.927 42.912H290.703ZM293.615 68.84C292.98 68.84 292.663 68.4667 292.663 67.72C292.663 67.3467 292.793 66.992 293.055 66.656C293.391 65.76 293.727 64.5467 294.063 63.016C294.511 61.112 294.809 59.936 294.959 59.488L295.519 56.632L296.135 53.048C296.769 49.3893 297.367 46.7573 297.927 45.152C298.524 43.5467 299.327 42.744 300.335 42.744C300.708 42.744 301.007 42.9867 301.231 43.472L301.959 45.376C301.959 46.16 301.679 46.7573 301.119 47.168C300.969 47.28 300.783 47.336 300.559 47.336C300.335 47.336 300.129 47.224 299.943 47C299.084 50.1733 298.561 52.488 298.375 53.944C298.001 56.3707 297.684 58.2373 297.423 59.544C297.273 59.9547 297.105 60.552 296.919 61.336L296.415 63.184C295.444 66.9547 294.511 68.84 293.615 68.84ZM310.398 68.84C307.188 68.84 305.582 66.656 305.582 62.288C305.582 60.6827 305.825 58.7227 306.31 56.408L307.318 51.592L309.502 40.952C309.652 40.6533 309.894 40.4107 310.23 40.224C310.566 40 310.884 39.888 311.182 39.888C311.444 39.888 311.705 40.056 311.966 40.392C312.228 40.728 312.358 41.0827 312.358 41.456L310.566 48.456L308.83 55.792C308.233 58.48 307.934 60.5333 307.934 61.952C307.934 63.52 308.158 64.64 308.606 65.312C309.054 65.9467 309.782 66.264 310.79 66.264C312.358 66.264 313.646 65.7413 314.654 64.696C315.662 63.6507 316.39 62.2693 316.838 60.552C317.249 58.9093 317.454 57.472 317.454 56.24C317.454 53.0293 316.67 51.424 315.102 51.424C314.094 51.424 313.18 52.2267 312.358 53.832C311.91 54.728 311.518 55.3813 311.182 55.792C310.884 56.0907 310.622 56.24 310.398 56.24C309.726 56.24 309.39 55.9227 309.39 55.288C309.39 54.9147 309.764 54.1493 310.51 52.992C311.294 51.7973 311.929 50.92 312.414 50.36C313.46 49.3147 314.43 48.792 315.326 48.792C316.82 48.792 317.958 49.5013 318.742 50.92C319.526 52.3387 319.918 54.0747 319.918 56.128C319.918 58.48 319.489 60.6267 318.63 62.568C317.809 64.5093 316.67 66.04 315.214 67.16C313.758 68.28 312.153 68.84 310.398 68.84Z" fill="#FF7FBC"/>
</g>
<defs>
<filter id="filter0_dddddd_457_543" x="39.4795" y="232.432" width="93.9756" height="74.125" filterUnits="userSpaceOnUse" color-interpolation-filters="sRGB">
<feFlood flood-opacity="0" result="BackgroundImageFix"/>
<feColorMatrix in="SourceAlpha" type="matrix" values="0 0 0 0 0 0 0 0 0 0 0 0 0 0 0 0 0 0 127 0" result="hardAlpha"/>
<feOffset/>
<feColorMatrix type="matrix" values="0 0 0 0 1 0 0 0 0 1 0 0 0 0 1 0 0 0 1 0"/>
<feBlend mode="normal" in2="BackgroundImageFix" result="effect1_dropShadow_457_543"/>
<feColorMatrix in="SourceAlpha" type="matrix" values="0 0 0 0 0 0 0 0 0 0 0 0 0 0 0 0 0 0 127 0" result="hardAlpha"/>
<feOffset/>
<feColorMatrix type="matrix" values="0 0 0 0 1 0 0 0 0 1 0 0 0 0 1 0 0 0 1 0"/>
<feBlend mode="normal" in2="effect1_dropShadow_457_543" result="effect2_dropShadow_457_543"/>
<feColorMatrix in="SourceAlpha" type="matrix" values="0 0 0 0 0 0 0 0 0 0 0 0 0 0 0 0 0 0 127 0" result="hardAlpha"/>
<feOffset/>
<feColorMatrix type="matrix" values="0 0 0 0 1 0 0 0 0 1 0 0 0 0 1 0 0 0 1 0"/>
<feBlend mode="normal" in2="effect2_dropShadow_457_543" result="effect3_dropShadow_457_543"/>
<feColorMatrix in="SourceAlpha" type="matrix" values="0 0 0 0 0 0 0 0 0 0 0 0 0 0 0 0 0 0 127 0" result="hardAlpha"/>
<feOffset/>
<feColorMatrix type="matrix" values="0 0 0 0 1 0 0 0 0 1 0 0 0 0 1 0 0 0 1 0"/>
<feBlend mode="normal" in2="effect3_dropShadow_457_543" result="effect4_dropShadow_457_543"/>
<feColorMatrix in="SourceAlpha" type="matrix" values="0 0 0 0 0 0 0 0 0 0 0 0 0 0 0 0 0 0 127 0" result="hardAlpha"/>
<feOffset/>
<feColorMatrix type="matrix" values="0 0 0 0 1 0 0 0 0 1 0 0 0 0 1 0 0 0 1 0"/>
<feBlend mode="normal" in2="effect4_dropShadow_457_543" result="effect5_dropShadow_457_543"/>
<feColorMatrix in="SourceAlpha" type="matrix" values="0 0 0 0 0 0 0 0 0 0 0 0 0 0 0 0 0 0 127 0" result="hardAlpha"/>
<feOffset/>
<feColorMatrix type="matrix" values="0 0 0 0 1 0 0 0 0 1 0 0 0 0 1 0 0 0 1 0"/>
<feBlend mode="normal" in2="effect5_dropShadow_457_543" result="effect6_dropShadow_457_543"/>
<feBlend mode="normal" in="SourceGraphic" in2="effect6_dropShadow_457_543" result="shape"/>
</filter>
<filter id="filter1_dddddd_457_543" x="66.6523" y="186.127" width="66.8525" height="120.385" filterUnits="userSpaceOnUse" color-interpolation-filters="sRGB">
<feFlood flood-opacity="0" result="BackgroundImageFix"/>
<feColorMatrix in="SourceAlpha" type="matrix" values="0 0 0 0 0 0 0 0 0 0 0 0 0 0 0 0 0 0 127 0" result="hardAlpha"/>
<feOffset/>
<feColorMatrix type="matrix" values="0 0 0 0 1 0 0 0 0 1 0 0 0 0 1 0 0 0 1 0"/>
<feBlend mode="normal" in2="BackgroundImageFix" result="effect1_dropShadow_457_543"/>
<feColorMatrix in="SourceAlpha" type="matrix" values="0 0 0 0 0 0 0 0 0 0 0 0 0 0 0 0 0 0 127 0" result="hardAlpha"/>
<feOffset/>
<feColorMatrix type="matrix" values="0 0 0 0 1 0 0 0 0 1 0 0 0 0 1 0 0 0 1 0"/>
<feBlend mode="normal" in2="effect1_dropShadow_457_543" result="effect2_dropShadow_457_543"/>
<feColorMatrix in="SourceAlpha" type="matrix" values="0 0 0 0 0 0 0 0 0 0 0 0 0 0 0 0 0 0 127 0" result="hardAlpha"/>
<feOffset/>
<feColorMatrix type="matrix" values="0 0 0 0 1 0 0 0 0 1 0 0 0 0 1 0 0 0 1 0"/>
<feBlend mode="normal" in2="effect2_dropShadow_457_543" result="effect3_dropShadow_457_543"/>
<feColorMatrix in="SourceAlpha" type="matrix" values="0 0 0 0 0 0 0 0 0 0 0 0 0 0 0 0 0 0 127 0" result="hardAlpha"/>
<feOffset/>
<feColorMatrix type="matrix" values="0 0 0 0 1 0 0 0 0 1 0 0 0 0 1 0 0 0 1 0"/>
<feBlend mode="normal" in2="effect3_dropShadow_457_543" result="effect4_dropShadow_457_543"/>
<feColorMatrix in="SourceAlpha" type="matrix" values="0 0 0 0 0 0 0 0 0 0 0 0 0 0 0 0 0 0 127 0" result="hardAlpha"/>
<feOffset/>
<feColorMatrix type="matrix" values="0 0 0 0 1 0 0 0 0 1 0 0 0 0 1 0 0 0 1 0"/>
<feBlend mode="normal" in2="effect4_dropShadow_457_543" result="effect5_dropShadow_457_543"/>
<feColorMatrix in="SourceAlpha" type="matrix" values="0 0 0 0 0 0 0 0 0 0 0 0 0 0 0 0 0 0 127 0" result="hardAlpha"/>
<feOffset/>
<feColorMatrix type="matrix" values="0 0 0 0 1 0 0 0 0 1 0 0 0 0 1 0 0 0 1 0"/>
<feBlend mode="normal" in2="effect5_dropShadow_457_543" result="effect6_dropShadow_457_543"/>
<feBlend mode="normal" in="SourceGraphic" in2="effect6_dropShadow_457_543" result="shape"/>
</filter>
<filter id="filter2_dddddd_457_543" x="86.0811" y="182.025" width="85.1885" height="43.3613" filterUnits="userSpaceOnUse" color-interpolation-filters="sRGB">
<feFlood flood-opacity="0" result="BackgroundImageFix"/>
<feColorMatrix in="SourceAlpha" type="matrix" values="0 0 0 0 0 0 0 0 0 0 0 0 0 0 0 0 0 0 127 0" result="hardAlpha"/>
<feOffset/>
<feColorMatrix type="matrix" values="0 0 0 0 1 0 0 0 0 1 0 0 0 0 1 0 0 0 1 0"/>
<feBlend mode="normal" in2="BackgroundImageFix" result="effect1_dropShadow_457_543"/>
<feColorMatrix in="SourceAlpha" type="matrix" values="0 0 0 0 0 0 0 0 0 0 0 0 0 0 0 0 0 0 127 0" result="hardAlpha"/>
<feOffset/>
<feColorMatrix type="matrix" values="0 0 0 0 1 0 0 0 0 1 0 0 0 0 1 0 0 0 1 0"/>
<feBlend mode="normal" in2="effect1_dropShadow_457_543" result="effect2_dropShadow_457_543"/>
<feColorMatrix in="SourceAlpha" type="matrix" values="0 0 0 0 0 0 0 0 0 0 0 0 0 0 0 0 0 0 127 0" result="hardAlpha"/>
<feOffset/>
<feColorMatrix type="matrix" values="0 0 0 0 1 0 0 0 0 1 0 0 0 0 1 0 0 0 1 0"/>
<feBlend mode="normal" in2="effect2_dropShadow_457_543" result="effect3_dropShadow_457_543"/>
<feColorMatrix in="SourceAlpha" type="matrix" values="0 0 0 0 0 0 0 0 0 0 0 0 0 0 0 0 0 0 127 0" result="hardAlpha"/>
<feOffset/>
<feColorMatrix type="matrix" values="0 0 0 0 1 0 0 0 0 1 0 0 0 0 1 0 0 0 1 0"/>
<feBlend mode="normal" in2="effect3_dropShadow_457_543" result="effect4_dropShadow_457_543"/>
<feColorMatrix in="SourceAlpha" type="matrix" values="0 0 0 0 0 0 0 0 0 0 0 0 0 0 0 0 0 0 127 0" result="hardAlpha"/>
<feOffset/>
<feColorMatrix type="matrix" values="0 0 0 0 1 0 0 0 0 1 0 0 0 0 1 0 0 0 1 0"/>
<feBlend mode="normal" in2="effect4_dropShadow_457_543" result="effect5_dropShadow_457_543"/>
<feColorMatrix in="SourceAlpha" type="matrix" values="0 0 0 0 0 0 0 0 0 0 0 0 0 0 0 0 0 0 127 0" result="hardAlpha"/>
<feOffset/>
<feColorMatrix type="matrix" values="0 0 0 0 1 0 0 0 0 1 0 0 0 0 1 0 0 0 1 0"/>
<feBlend mode="normal" in2="effect5_dropShadow_457_543" result="effect6_dropShadow_457_543"/>
<feBlend mode="normal" in="SourceGraphic" in2="effect6_dropShadow_457_543" result="shape"/>
</filter>
<filter id="filter3_dddddd_457_543" x="163.304" y="217.35" width="27.0928" height="86.793" filterUnits="userSpaceOnUse" color-interpolation-filters="sRGB">
<feFlood flood-opacity="0" result="BackgroundImageFix"/>
<feColorMatrix in="SourceAlpha" type="matrix" values="0 0 0 0 0 0 0 0 0 0 0 0 0 0 0 0 0 0 127 0" result="hardAlpha"/>
<feOffset/>
<feColorMatrix type="matrix" values="0 0 0 0 1 0 0 0 0 1 0 0 0 0 1 0 0 0 1 0"/>
<feBlend mode="normal" in2="BackgroundImageFix" result="effect1_dropShadow_457_543"/>
<feColorMatrix in="SourceAlpha" type="matrix" values="0 0 0 0 0 0 0 0 0 0 0 0 0 0 0 0 0 0 127 0" result="hardAlpha"/>
<feOffset/>
<feColorMatrix type="matrix" values="0 0 0 0 1 0 0 0 0 1 0 0 0 0 1 0 0 0 1 0"/>
<feBlend mode="normal" in2="effect1_dropShadow_457_543" result="effect2_dropShadow_457_543"/>
<feColorMatrix in="SourceAlpha" type="matrix" values="0 0 0 0 0 0 0 0 0 0 0 0 0 0 0 0 0 0 127 0" result="hardAlpha"/>
<feOffset/>
<feColorMatrix type="matrix" values="0 0 0 0 1 0 0 0 0 1 0 0 0 0 1 0 0 0 1 0"/>
<feBlend mode="normal" in2="effect2_dropShadow_457_543" result="effect3_dropShadow_457_543"/>
<feColorMatrix in="SourceAlpha" type="matrix" values="0 0 0 0 0 0 0 0 0 0 0 0 0 0 0 0 0 0 127 0" result="hardAlpha"/>
<feOffset/>
<feColorMatrix type="matrix" values="0 0 0 0 1 0 0 0 0 1 0 0 0 0 1 0 0 0 1 0"/>
<feBlend mode="normal" in2="effect3_dropShadow_457_543" result="effect4_dropShadow_457_543"/>
<feColorMatrix in="SourceAlpha" type="matrix" values="0 0 0 0 0 0 0 0 0 0 0 0 0 0 0 0 0 0 127 0" result="hardAlpha"/>
<feOffset/>
<feColorMatrix type="matrix" values="0 0 0 0 1 0 0 0 0 1 0 0 0 0 1 0 0 0 1 0"/>
<feBlend mode="normal" in2="effect4_dropShadow_457_543" result="effect5_dropShadow_457_543"/>
<feColorMatrix in="SourceAlpha" type="matrix" values="0 0 0 0 0 0 0 0 0 0 0 0 0 0 0 0 0 0 127 0" result="hardAlpha"/>
<feOffset/>
<feColorMatrix type="matrix" values="0 0 0 0 1 0 0 0 0 1 0 0 0 0 1 0 0 0 1 0"/>
<feBlend mode="normal" in2="effect5_dropShadow_457_543" result="effect6_dropShadow_457_543"/>
<feBlend mode="normal" in="SourceGraphic" in2="effect6_dropShadow_457_543" result="shape"/>
</filter>
<filter id="filter4_dddddd_457_543" x="208.546" y="232.986" width="93.9756" height="74.125" filterUnits="userSpaceOnUse" color-interpolation-filters="sRGB">
<feFlood flood-opacity="0" result="BackgroundImageFix"/>
<feColorMatrix in="SourceAlpha" type="matrix" values="0 0 0 0 0 0 0 0 0 0 0 0 0 0 0 0 0 0 127 0" result="hardAlpha"/>
<feOffset/>
<feColorMatrix type="matrix" values="0 0 0 0 1 0 0 0 0 1 0 0 0 0 1 0 0 0 1 0"/>
<feBlend mode="normal" in2="BackgroundImageFix" result="effect1_dropShadow_457_543"/>
<feColorMatrix in="SourceAlpha" type="matrix" values="0 0 0 0 0 0 0 0 0 0 0 0 0 0 0 0 0 0 127 0" result="hardAlpha"/>
<feOffset/>
<feColorMatrix type="matrix" values="0 0 0 0 1 0 0 0 0 1 0 0 0 0 1 0 0 0 1 0"/>
<feBlend mode="normal" in2="effect1_dropShadow_457_543" result="effect2_dropShadow_457_543"/>
<feColorMatrix in="SourceAlpha" type="matrix" values="0 0 0 0 0 0 0 0 0 0 0 0 0 0 0 0 0 0 127 0" result="hardAlpha"/>
<feOffset/>
<feColorMatrix type="matrix" values="0 0 0 0 1 0 0 0 0 1 0 0 0 0 1 0 0 0 1 0"/>
<feBlend mode="normal" in2="effect2_dropShadow_457_543" result="effect3_dropShadow_457_543"/>
<feColorMatrix in="SourceAlpha" type="matrix" values="0 0 0 0 0 0 0 0 0 0 0 0 0 0 0 0 0 0 127 0" result="hardAlpha"/>
<feOffset/>
<feColorMatrix type="matrix" values="0 0 0 0 1 0 0 0 0 1 0 0 0 0 1 0 0 0 1 0"/>
<feBlend mode="normal" in2="effect3_dropShadow_457_543" result="effect4_dropShadow_457_543"/>
<feColorMatrix in="SourceAlpha" type="matrix" values="0 0 0 0 0 0 0 0 0 0 0 0 0 0 0 0 0 0 127 0" result="hardAlpha"/>
<feOffset/>
<feColorMatrix type="matrix" values="0 0 0 0 1 0 0 0 0 1 0 0 0 0 1 0 0 0 1 0"/>
<feBlend mode="normal" in2="effect4_dropShadow_457_543" result="effect5_dropShadow_457_543"/>
<feColorMatrix in="SourceAlpha" type="matrix" values="0 0 0 0 0 0 0 0 0 0 0 0 0 0 0 0 0 0 127 0" result="hardAlpha"/>
<feOffset/>
<feColorMatrix type="matrix" values="0 0 0 0 1 0 0 0 0 1 0 0 0 0 1 0 0 0 1 0"/>
<feBlend mode="normal" in2="effect5_dropShadow_457_543" result="effect6_dropShadow_457_543"/>
<feBlend mode="normal" in="SourceGraphic" in2="effect6_dropShadow_457_543" result="shape"/>
</filter>
<filter id="filter5_dddddd_457_543" x="208.496" y="186.682" width="66.8525" height="120.385" filterUnits="userSpaceOnUse" color-interpolation-filters="sRGB">
<feFlood flood-opacity="0" result="BackgroundImageFix"/>
<feColorMatrix in="SourceAlpha" type="matrix" values="0 0 0 0 0 0 0 0 0 0 0 0 0 0 0 0 0 0 127 0" result="hardAlpha"/>
<feOffset/>
<feColorMatrix type="matrix" values="0 0 0 0 1 0 0 0 0 1 0 0 0 0 1 0 0 0 1 0"/>
<feBlend mode="normal" in2="BackgroundImageFix" result="effect1_dropShadow_457_543"/>
<feColorMatrix in="SourceAlpha" type="matrix" values="0 0 0 0 0 0 0 0 0 0 0 0 0 0 0 0 0 0 127 0" result="hardAlpha"/>
<feOffset/>
<feColorMatrix type="matrix" values="0 0 0 0 1 0 0 0 0 1 0 0 0 0 1 0 0 0 1 0"/>
<feBlend mode="normal" in2="effect1_dropShadow_457_543" result="effect2_dropShadow_457_543"/>
<feColorMatrix in="SourceAlpha" type="matrix" values="0 0 0 0 0 0 0 0 0 0 0 0 0 0 0 0 0 0 127 0" result="hardAlpha"/>
<feOffset/>
<feColorMatrix type="matrix" values="0 0 0 0 1 0 0 0 0 1 0 0 0 0 1 0 0 0 1 0"/>
<feBlend mode="normal" in2="effect2_dropShadow_457_543" result="effect3_dropShadow_457_543"/>
<feColorMatrix in="SourceAlpha" type="matrix" values="0 0 0 0 0 0 0 0 0 0 0 0 0 0 0 0 0 0 127 0" result="hardAlpha"/>
<feOffset/>
<feColorMatrix type="matrix" values="0 0 0 0 1 0 0 0 0 1 0 0 0 0 1 0 0 0 1 0"/>
<feBlend mode="normal" in2="effect3_dropShadow_457_543" result="effect4_dropShadow_457_543"/>
<feColorMatrix in="SourceAlpha" type="matrix" values="0 0 0 0 0 0 0 0 0 0 0 0 0 0 0 0 0 0 127 0" result="hardAlpha"/>
<feOffset/>
<feColorMatrix type="matrix" values="0 0 0 0 1 0 0 0 0 1 0 0 0 0 1 0 0 0 1 0"/>
<feBlend mode="normal" in2="effect4_dropShadow_457_543" result="effect5_dropShadow_457_543"/>
<feColorMatrix in="SourceAlpha" type="matrix" values="0 0 0 0 0 0 0 0 0 0 0 0 0 0 0 0 0 0 127 0" result="hardAlpha"/>
<feOffset/>
<feColorMatrix type="matrix" values="0 0 0 0 1 0 0 0 0 1 0 0 0 0 1 0 0 0 1 0"/>
<feBlend mode="normal" in2="effect5_dropShadow_457_543" result="effect6_dropShadow_457_543"/>
<feBlend mode="normal" in="SourceGraphic" in2="effect6_dropShadow_457_543" result="shape"/>
</filter>
<filter id="filter6_dddddd_457_543" x="170.731" y="182.58" width="85.1885" height="43.3613" filterUnits="userSpaceOnUse" color-interpolation-filters="sRGB">
<feFlood flood-opacity="0" result="BackgroundImageFix"/>
<feColorMatrix in="SourceAlpha" type="matrix" values="0 0 0 0 0 0 0 0 0 0 0 0 0 0 0 0 0 0 127 0" result="hardAlpha"/>
<feOffset/>
<feColorMatrix type="matrix" values="0 0 0 0 1 0 0 0 0 1 0 0 0 0 1 0 0 0 1 0"/>
<feBlend mode="normal" in2="BackgroundImageFix" result="effect1_dropShadow_457_543"/>
<feColorMatrix in="SourceAlpha" type="matrix" values="0 0 0 0 0 0 0 0 0 0 0 0 0 0 0 0 0 0 127 0" result="hardAlpha"/>
<feOffset/>
<feColorMatrix type="matrix" values="0 0 0 0 1 0 0 0 0 1 0 0 0 0 1 0 0 0 1 0"/>
<feBlend mode="normal" in2="effect1_dropShadow_457_543" result="effect2_dropShadow_457_543"/>
<feColorMatrix in="SourceAlpha" type="matrix" values="0 0 0 0 0 0 0 0 0 0 0 0 0 0 0 0 0 0 127 0" result="hardAlpha"/>
<feOffset/>
<feColorMatrix type="matrix" values="0 0 0 0 1 0 0 0 0 1 0 0 0 0 1 0 0 0 1 0"/>
<feBlend mode="normal" in2="effect2_dropShadow_457_543" result="effect3_dropShadow_457_543"/>
<feColorMatrix in="SourceAlpha" type="matrix" values="0 0 0 0 0 0 0 0 0 0 0 0 0 0 0 0 0 0 127 0" result="hardAlpha"/>
<feOffset/>
<feColorMatrix type="matrix" values="0 0 0 0 1 0 0 0 0 1 0 0 0 0 1 0 0 0 1 0"/>
<feBlend mode="normal" in2="effect3_dropShadow_457_543" result="effect4_dropShadow_457_543"/>
<feColorMatrix in="SourceAlpha" type="matrix" values="0 0 0 0 0 0 0 0 0 0 0 0 0 0 0 0 0 0 127 0" result="hardAlpha"/>
<feOffset/>
<feColorMatrix type="matrix" values="0 0 0 0 1 0 0 0 0 1 0 0 0 0 1 0 0 0 1 0"/>
<feBlend mode="normal" in2="effect4_dropShadow_457_543" result="effect5_dropShadow_457_543"/>
<feColorMatrix in="SourceAlpha" type="matrix" values="0 0 0 0 0 0 0 0 0 0 0 0 0 0 0 0 0 0 127 0" result="hardAlpha"/>
<feOffset/>
<feColorMatrix type="matrix" values="0 0 0 0 1 0 0 0 0 1 0 0 0 0 1 0 0 0 1 0"/>
<feBlend mode="normal" in2="effect5_dropShadow_457_543" result="effect6_dropShadow_457_543"/>
<feBlend mode="normal" in="SourceGraphic" in2="effect6_dropShadow_457_543" result="shape"/>
</filter>
<filter id="filter7_dddddd_457_543" x="152.875" y="217.904" width="25.8223" height="86.2383" filterUnits="userSpaceOnUse" color-interpolation-filters="sRGB">
<feFlood flood-opacity="0" result="BackgroundImageFix"/>
<feColorMatrix in="SourceAlpha" type="matrix" values="0 0 0 0 0 0 0 0 0 0 0 0 0 0 0 0 0 0 127 0" result="hardAlpha"/>
<feOffset/>
<feColorMatrix type="matrix" values="0 0 0 0 1 0 0 0 0 1 0 0 0 0 1 0 0 0 1 0"/>
<feBlend mode="normal" in2="BackgroundImageFix" result="effect1_dropShadow_457_543"/>
<feColorMatrix in="SourceAlpha" type="matrix" values="0 0 0 0 0 0 0 0 0 0 0 0 0 0 0 0 0 0 127 0" result="hardAlpha"/>
<feOffset/>
<feColorMatrix type="matrix" values="0 0 0 0 1 0 0 0 0 1 0 0 0 0 1 0 0 0 1 0"/>
<feBlend mode="normal" in2="effect1_dropShadow_457_543" result="effect2_dropShadow_457_543"/>
<feColorMatrix in="SourceAlpha" type="matrix" values="0 0 0 0 0 0 0 0 0 0 0 0 0 0 0 0 0 0 127 0" result="hardAlpha"/>
<feOffset/>
<feColorMatrix type="matrix" values="0 0 0 0 1 0 0 0 0 1 0 0 0 0 1 0 0 0 1 0"/>
<feBlend mode="normal" in2="effect2_dropShadow_457_543" result="effect3_dropShadow_457_543"/>
<feColorMatrix in="SourceAlpha" type="matrix" values="0 0 0 0 0 0 0 0 0 0 0 0 0 0 0 0 0 0 127 0" result="hardAlpha"/>
<feOffset/>
<feColorMatrix type="matrix" values="0 0 0 0 1 0 0 0 0 1 0 0 0 0 1 0 0 0 1 0"/>
<feBlend mode="normal" in2="effect3_dropShadow_457_543" result="effect4_dropShadow_457_543"/>
<feColorMatrix in="SourceAlpha" type="matrix" values="0 0 0 0 0 0 0 0 0 0 0 0 0 0 0 0 0 0 127 0" result="hardAlpha"/>
<feOffset/>
<feColorMatrix type="matrix" values="0 0 0 0 1 0 0 0 0 1 0 0 0 0 1 0 0 0 1 0"/>
<feBlend mode="normal" in2="effect4_dropShadow_457_543" result="effect5_dropShadow_457_543"/>
<feColorMatrix in="SourceAlpha" type="matrix" values="0 0 0 0 0 0 0 0 0 0 0 0 0 0 0 0 0 0 127 0" result="hardAlpha"/>
<feOffset/>
<feColorMatrix type="matrix" values="0 0 0 0 1 0 0 0 0 1 0 0 0 0 1 0 0 0 1 0"/>
<feBlend mode="normal" in2="effect5_dropShadow_457_543" result="effect6_dropShadow_457_543"/>
<feBlend mode="normal" in="SourceGraphic" in2="effect6_dropShadow_457_543" result="shape"/>
</filter>
<filter id="filter8_dddddd_457_543" x="201.956" y="219.354" width="18.9697" height="20.123" filterUnits="userSpaceOnUse" color-interpolation-filters="sRGB">
<feFlood flood-opacity="0" result="BackgroundImageFix"/>
<feColorMatrix in="SourceAlpha" type="matrix" values="0 0 0 0 0 0 0 0 0 0 0 0 0 0 0 0 0 0 127 0" result="hardAlpha"/>
<feOffset/>
<feColorMatrix type="matrix" values="0 0 0 0 1 0 0 0 0 0.498039 0 0 0 0 0.737255 0 0 0 1 0"/>
<feBlend mode="normal" in2="BackgroundImageFix" result="effect1_dropShadow_457_543"/>
<feColorMatrix in="SourceAlpha" type="matrix" values="0 0 0 0 0 0 0 0 0 0 0 0 0 0 0 0 0 0 127 0" result="hardAlpha"/>
<feOffset/>
<feColorMatrix type="matrix" values="0 0 0 0 1 0 0 0 0 0.498039 0 0 0 0 0.737255 0 0 0 1 0"/>
<feBlend mode="normal" in2="effect1_dropShadow_457_543" result="effect2_dropShadow_457_543"/>
<feColorMatrix in="SourceAlpha" type="matrix" values="0 0 0 0 0 0 0 0 0 0 0 0 0 0 0 0 0 0 127 0" result="hardAlpha"/>
<feOffset/>
<feColorMatrix type="matrix" values="0 0 0 0 1 0 0 0 0 0.498039 0 0 0 0 0.737255 0 0 0 1 0"/>
<feBlend mode="normal" in2="effect2_dropShadow_457_543" result="effect3_dropShadow_457_543"/>
<feColorMatrix in="SourceAlpha" type="matrix" values="0 0 0 0 0 0 0 0 0 0 0 0 0 0 0 0 0 0 127 0" result="hardAlpha"/>
<feOffset/>
<feColorMatrix type="matrix" values="0 0 0 0 1 0 0 0 0 0.498039 0 0 0 0 0.737255 0 0 0 1 0"/>
<feBlend mode="normal" in2="effect3_dropShadow_457_543" result="effect4_dropShadow_457_543"/>
<feColorMatrix in="SourceAlpha" type="matrix" values="0 0 0 0 0 0 0 0 0 0 0 0 0 0 0 0 0 0 127 0" result="hardAlpha"/>
<feOffset/>
<feColorMatrix type="matrix" values="0 0 0 0 1 0 0 0 0 0.498039 0 0 0 0 0.737255 0 0 0 1 0"/>
<feBlend mode="normal" in2="effect4_dropShadow_457_543" result="effect5_dropShadow_457_543"/>
<feColorMatrix in="SourceAlpha" type="matrix" values="0 0 0 0 0 0 0 0 0 0 0 0 0 0 0 0 0 0 127 0" result="hardAlpha"/>
<feOffset/>
<feColorMatrix type="matrix" values="0 0 0 0 1 0 0 0 0 0.498039 0 0 0 0 0.737255 0 0 0 1 0"/>
<feBlend mode="normal" in2="effect5_dropShadow_457_543" result="effect6_dropShadow_457_543"/>
<feBlend mode="normal" in="SourceGraphic" in2="effect6_dropShadow_457_543" result="shape"/>
</filter>
<filter id="filter9_dddddd_457_543" x="229.048" y="219.342" width="18.9062" height="20.1875" filterUnits="userSpaceOnUse" color-interpolation-filters="sRGB">
<feFlood flood-opacity="0" result="BackgroundImageFix"/>
<feColorMatrix in="SourceAlpha" type="matrix" values="0 0 0 0 0 0 0 0 0 0 0 0 0 0 0 0 0 0 127 0" result="hardAlpha"/>
<feOffset/>
<feColorMatrix type="matrix" values="0 0 0 0 1 0 0 0 0 0.498039 0 0 0 0 0.737255 0 0 0 1 0"/>
<feBlend mode="normal" in2="BackgroundImageFix" result="effect1_dropShadow_457_543"/>
<feColorMatrix in="SourceAlpha" type="matrix" values="0 0 0 0 0 0 0 0 0 0 0 0 0 0 0 0 0 0 127 0" result="hardAlpha"/>
<feOffset/>
<feColorMatrix type="matrix" values="0 0 0 0 1 0 0 0 0 0.498039 0 0 0 0 0.737255 0 0 0 1 0"/>
<feBlend mode="normal" in2="effect1_dropShadow_457_543" result="effect2_dropShadow_457_543"/>
<feColorMatrix in="SourceAlpha" type="matrix" values="0 0 0 0 0 0 0 0 0 0 0 0 0 0 0 0 0 0 127 0" result="hardAlpha"/>
<feOffset/>
<feColorMatrix type="matrix" values="0 0 0 0 1 0 0 0 0 0.498039 0 0 0 0 0.737255 0 0 0 1 0"/>
<feBlend mode="normal" in2="effect2_dropShadow_457_543" result="effect3_dropShadow_457_543"/>
<feColorMatrix in="SourceAlpha" type="matrix" values="0 0 0 0 0 0 0 0 0 0 0 0 0 0 0 0 0 0 127 0" result="hardAlpha"/>
<feOffset/>
<feColorMatrix type="matrix" values="0 0 0 0 1 0 0 0 0 0.498039 0 0 0 0 0.737255 0 0 0 1 0"/>
<feBlend mode="normal" in2="effect3_dropShadow_457_543" result="effect4_dropShadow_457_543"/>
<feColorMatrix in="SourceAlpha" type="matrix" values="0 0 0 0 0 0 0 0 0 0 0 0 0 0 0 0 0 0 127 0" result="hardAlpha"/>
<feOffset/>
<feColorMatrix type="matrix" values="0 0 0 0 1 0 0 0 0 0.498039 0 0 0 0 0.737255 0 0 0 1 0"/>
<feBlend mode="normal" in2="effect4_dropShadow_457_543" result="effect5_dropShadow_457_543"/>
<feColorMatrix in="SourceAlpha" type="matrix" values="0 0 0 0 0 0 0 0 0 0 0 0 0 0 0 0 0 0 127 0" result="hardAlpha"/>
<feOffset/>
<feColorMatrix type="matrix" values="0 0 0 0 1 0 0 0 0 0.498039 0 0 0 0 0.737255 0 0 0 1 0"/>
<feBlend mode="normal" in2="effect5_dropShadow_457_543" result="effect6_dropShadow_457_543"/>
<feBlend mode="normal" in="SourceGraphic" in2="effect6_dropShadow_457_543" result="shape"/>
</filter>
<clipPath id="clip0_457_543">
<rect width="342" height="560" fill="white"/>
</clipPath>
</defs>
</svg>
