<svg width="342" height="560" viewBox="0 0 342 560" fill="none" xmlns="http://www.w3.org/2000/svg">
<g clip-path="url(#clip0_607_1141)">
<path d="M-201 458.242C-168.926 386.318 -222.014 386.318 -189.94 458.242C-157.866 530.167 -210.954 529.294 -178.88 458.242C-146.806 387.191 -199.894 387.191 -167.82 458.242C-135.746 529.294 -188.834 491.73 -156.76 458.242C-124.686 424.755 -177.774 424.755 -145.7 458.242C-113.626 491.73 -166.714 513.278 -134.64 458.242C-102.566 403.207 -155.654 403.207 -123.58 458.242C-91.506 513.278 -144.594 540.068 -112.52 458.242C-80.446 376.417 -133.534 376.417 -101.46 458.242C-69.386 540.068 -122.474 494.642 -90.4 458.242C-58.326 421.843 -111.414 421.843 -79.34 458.242C-47.266 494.642 -100.354 502.213 -68.28 458.242C-36.206 414.272 -89.294 414.272 -57.22 458.242C-25.146 502.213 -78.234 502.213 -46.16 458.242C-14.086 414.272 -67.174 414.272 -35.1 458.242C-3.02599 502.213 -56.114 489.4 -24.04 458.242C8.03401 427.085 -45.054 427.085 -12.98 458.242C19.094 489.4 -33.994 519.393 -1.91999 458.242C30.154 397.092 -22.934 397.092 9.14001 458.242C41.214 519.393 -11.874 490.856 20.2 458.242C52.274 425.629 -0.813993 425.629 31.26 458.242C63.334 490.856 10.246 527.546 42.32 458.242C74.394 388.939 21.306 388.939 53.38 458.242C85.454 527.546 32.366 531.332 64.44 458.242C96.514 385.153 43.426 385.153 75.5 458.242C107.574 531.332 54.486 530.458 86.56 458.242C118.634 386.027 65.546 386.027 97.62 458.242C129.694 530.458 76.606 541.232 108.68 458.242C140.754 375.253 87.666 375.253 119.74 458.242C151.814 541.232 98.726 494.35 130.8 458.242C162.874 422.135 109.786 422.135 141.86 458.242C173.934 494.35 120.846 535.7 152.92 458.242C184.994 380.785 131.906 380.785 163.98 458.242C196.054 535.7 142.966 537.447 175.04 458.242C207.114 379.038 154.026 379.038 186.1 458.242C218.174 537.447 165.086 535.991 197.16 458.242C229.234 380.494 176.146 380.494 208.22 458.242C240.294 535.991 187.206 535.991 219.28 458.242C251.354 380.494 198.266 380.494 230.34 458.242C262.414 535.991 209.326 487.362 241.4 458.242C273.474 429.123 220.386 429.123 252.46 458.242C284.534 487.362 231.446 493.768 263.52 458.242C295.594 422.717 242.506 422.717 274.58 458.242C306.654 493.768 253.566 514.734 285.64 458.242C317.714 401.751 264.626 401.751 296.7 458.242C328.774 514.734 275.686 520.558 307.76 458.242C339.834 395.927 286.746 395.927 318.82 458.242C350.894 520.558 297.806 519.684 329.88 458.242C361.954 396.801 308.866 396.801 340.94 458.242C373.014 519.684 319.926 511.531 352 458.242" stroke="white" stroke-width="6"/>
<path d="M-181 104.242C-148.926 32.3178 -202.014 32.3178 -169.94 104.242C-137.866 176.167 -190.954 175.294 -158.88 104.242C-126.806 33.1914 -179.894 33.1914 -147.82 104.242C-115.746 175.294 -168.834 137.73 -136.76 104.242C-104.686 70.7553 -157.774 70.7553 -125.7 104.242C-93.626 137.73 -146.714 159.278 -114.64 104.242C-82.566 49.207 -135.654 49.207 -103.58 104.242C-71.506 159.278 -124.594 186.068 -92.52 104.242C-60.446 22.4173 -113.534 22.4173 -81.46 104.242C-49.386 186.068 -102.474 140.642 -70.4 104.242C-38.326 67.8434 -91.414 67.8434 -59.34 104.242C-27.266 140.642 -80.354 148.213 -48.28 104.242C-16.206 60.2724 -69.294 60.2724 -37.22 104.242C-5.146 148.213 -58.234 148.213 -26.16 104.242C5.91401 60.2724 -47.174 60.2724 -15.1 104.242C16.974 148.213 -36.114 135.4 -4.03999 104.242C28.034 73.0848 -25.054 73.0848 7.02 104.242C39.094 135.4 -13.994 165.393 18.08 104.242C50.154 43.092 -2.934 43.092 29.14 104.242C61.214 165.393 8.12601 136.856 40.2 104.242C72.274 71.6289 19.186 71.6289 51.26 104.242C83.334 136.856 30.246 173.546 62.32 104.242C94.394 34.9386 41.306 34.9386 73.38 104.242C105.454 173.546 52.366 177.332 84.44 104.242C116.514 31.1531 63.426 31.1531 95.5 104.242C127.574 177.332 74.486 176.458 106.56 104.242C138.634 32.0266 85.546 32.0266 117.62 104.242C149.694 176.458 96.606 187.232 128.68 104.242C160.754 21.2525 107.666 21.2525 139.74 104.242C171.814 187.232 118.726 140.35 150.8 104.242C182.874 68.1346 129.786 68.1346 161.86 104.242C193.934 140.35 140.846 181.7 172.92 104.242C204.994 26.7852 151.906 26.7852 183.98 104.242C216.054 181.7 162.966 183.447 195.04 104.242C227.114 25.038 174.026 25.038 206.1 104.242C238.174 183.447 185.086 181.991 217.16 104.242C249.234 26.494 196.146 26.494 228.22 104.242C260.294 181.991 207.206 181.991 239.28 104.242C271.354 26.494 218.266 26.494 250.34 104.242C282.414 181.991 229.326 133.362 261.4 104.242C293.474 75.1232 240.386 75.1232 272.46 104.242C304.534 133.362 251.446 139.768 283.52 104.242C315.594 68.7169 262.506 68.7169 294.58 104.242C326.654 139.768 273.566 160.734 305.64 104.242C337.714 47.7511 284.626 47.7511 316.7 104.242C348.774 160.734 295.686 166.558 327.76 104.242C359.834 41.9272 306.746 41.9272 338.82 104.242C370.894 166.558 317.806 165.684 349.88 104.242C381.954 42.8008 328.866 42.8008 360.94 104.242C393.014 165.684 339.926 157.531 372 104.242" stroke="white" stroke-width="6"/>
</g>
<defs>
<clipPath id="clip0_607_1141">
<rect width="342" height="560" fill="white"/>
</clipPath>
</defs>
</svg>
