<svg width="650" height="560" viewBox="0 0 650 560" fill="none" xmlns="http://www.w3.org/2000/svg">
<g clip-path="url(#clip0_457_593)">
<rect width="663" height="560" fill="#0F00FF"/>
<path d="M366.477 71.56C365.73 71.56 365.021 71.168 364.349 70.384C363.714 69.6 363.192 68.5547 362.781 67.248C362.408 65.9413 362.221 64.56 362.221 63.104C362.221 61.312 362.296 59.4827 362.445 57.616C361.885 57.5413 361.605 57.224 361.605 56.664C361.605 56.552 361.642 56.3467 361.717 56.048L362.837 54.088C363.658 48.264 365.301 40.6293 367.765 31.184C369.52 24.8373 371.592 20.432 373.981 17.968C374.765 17.1467 375.512 16.736 376.221 16.736C378.797 16.736 380.085 18.304 380.085 21.44C380.085 25.36 378.349 29.84 374.877 34.88C373.906 36.336 372.562 38.296 370.845 40.76C369.053 43.2987 367.69 45.6133 366.757 47.704C366.57 48.1147 366.309 48.3947 365.973 48.544L365.805 49.608C369.426 44.9787 372.693 42.664 375.605 42.664C376.762 42.664 377.584 43.28 378.069 44.512C378.554 45.7067 378.797 47.1067 378.797 48.712C378.797 51.3253 378.218 54.4613 377.061 58.12C375.941 61.7413 374.56 64.7467 372.917 67.136C370.826 70.0853 368.68 71.56 366.477 71.56ZM369.165 39.416C370.21 37.848 370.92 36.7653 371.293 36.168L372.245 34.768C375.642 29.4667 377.341 25.3787 377.341 22.504C377.341 21.5707 377.285 20.88 377.173 20.432C377.061 19.9467 376.781 19.704 376.333 19.704C375.512 19.704 374.541 20.824 373.421 23.064C371.218 27.432 369.128 33.9467 367.149 42.608L369.165 39.416ZM367.037 68.816C368.418 68.816 369.8 67.6587 371.181 65.344C372.6 63.0293 373.794 60.136 374.765 56.664C375.661 53.3413 376.109 50.9147 376.109 49.384C376.109 47.7413 376.016 46.752 375.829 46.416C375.642 46.0053 375.176 45.8 374.429 45.8C373.085 45.8 371.648 46.584 370.117 48.152C368.624 49.6827 366.944 51.96 365.077 54.984C364.853 57.112 364.741 59.0907 364.741 60.92C364.741 66.184 365.506 68.816 367.037 68.816ZM388.077 71.504C386.136 71.504 384.68 70.7387 383.709 69.208C382.776 67.6773 382.309 65.848 382.309 63.72C382.309 60.3227 382.869 57.0373 383.989 53.864C385.146 50.6533 386.714 48.0027 388.693 45.912C390.597 43.784 392.744 42.72 395.133 42.72C398.568 42.72 400.285 45.3333 400.285 50.56C400.285 53.1733 399.856 55.8427 398.997 58.568C398.138 61.2933 397.018 63.72 395.637 65.848C394.293 67.976 392.893 69.5067 391.437 70.44C390.317 71.1493 389.197 71.504 388.077 71.504ZM388.525 68.984C389.682 68.984 390.97 67.976 392.389 65.96C393.845 63.944 395.058 61.4427 396.029 58.456C397.037 55.4693 397.541 52.9307 397.541 50.84C397.541 48.6747 397.41 47.3307 397.149 46.808C396.925 46.248 396.645 45.856 396.309 45.632C395.973 45.408 395.45 45.296 394.741 45.296C393.957 45.296 393.136 45.5947 392.277 46.192C390.56 47.2747 389.066 49.1413 387.797 51.792C385.818 55.7493 384.829 59.5947 384.829 63.328C384.829 65.8667 385.557 67.6213 387.013 68.592C387.536 68.8533 388.04 68.984 388.525 68.984ZM406.605 71.504C404.664 71.504 403.208 70.7387 402.237 69.208C401.304 67.6773 400.837 65.848 400.837 63.72C400.837 60.3227 401.397 57.0373 402.517 53.864C403.674 50.6533 405.242 48.0027 407.221 45.912C409.125 43.784 411.272 42.72 413.661 42.72C417.096 42.72 418.813 45.3333 418.813 50.56C418.813 53.1733 418.384 55.8427 417.525 58.568C416.666 61.2933 415.546 63.72 414.165 65.848C412.821 67.976 411.421 69.5067 409.965 70.44C408.845 71.1493 407.725 71.504 406.605 71.504ZM407.053 68.984C408.21 68.984 409.498 67.976 410.917 65.96C412.373 63.944 413.586 61.4427 414.557 58.456C415.565 55.4693 416.069 52.9307 416.069 50.84C416.069 48.6747 415.938 47.3307 415.677 46.808C415.453 46.248 415.173 45.856 414.837 45.632C414.501 45.408 413.978 45.296 413.269 45.296C412.485 45.296 411.664 45.5947 410.805 46.192C409.088 47.2747 407.594 49.1413 406.325 51.792C404.346 55.7493 403.357 59.5947 403.357 63.328C403.357 65.8667 404.085 67.6213 405.541 68.592C406.064 68.8533 406.568 68.984 407.053 68.984ZM422.893 93.96C421.101 93.96 419.589 93.344 418.357 92.112C417.162 90.9173 416.565 89.3867 416.565 87.52C416.565 85.8027 416.957 84.16 417.741 82.592C418.562 81.0613 419.738 79.4747 421.269 77.832C422.576 76.4133 424.144 74.9387 425.973 73.408L431.237 69.04C431.498 68.1067 431.722 67.1173 431.909 66.072C432.32 64.4293 432.637 63.0853 432.861 62.04C431.442 66.4827 429.613 69.3947 427.373 70.776C426.664 71.224 425.973 71.448 425.301 71.448C423.994 71.448 422.912 70.9253 422.053 69.88C421.232 68.8347 420.821 67.4533 420.821 65.736C420.821 62.488 421.437 59.0907 422.669 55.544C423.901 51.96 425.544 48.8987 427.597 46.36C429.725 43.784 432.04 42.496 434.541 42.496C435.736 42.496 436.874 42.7947 437.957 43.392C438.181 43.28 438.424 43.224 438.685 43.224C439.32 43.224 439.637 43.5227 439.637 44.12C439.637 44.7547 439.525 45.352 439.301 45.912C438.256 48.6373 436.501 55.7307 434.037 67.192C434.634 66.8187 435.325 66.2773 436.109 65.568C436.296 65.4187 436.632 65.1387 437.117 64.728C437.602 64.28 437.994 63.9627 438.293 63.776C438.592 63.5893 438.853 63.496 439.077 63.496C439.712 63.496 440.029 63.8133 440.029 64.448C440.029 64.9333 439.898 65.3067 439.637 65.568C437.322 67.3227 435.344 68.7787 433.701 69.936L432.805 75.2L432.525 76.6C432.077 78.952 431.685 80.912 431.349 82.48C431.013 84.0853 430.602 85.616 430.117 87.072C429.408 89.1253 428.437 90.7867 427.205 92.056C426.01 93.3253 424.573 93.96 422.893 93.96ZM425.469 68.76C426.216 68.76 427.074 68.256 428.045 67.248C429.016 66.2027 429.949 64.8587 430.845 63.216C431.778 61.536 432.525 59.7813 433.085 57.952C433.944 55.3013 434.672 52.856 435.269 50.616C435.642 49.3093 436.109 47.592 436.669 45.464C436.146 44.9787 435.437 44.736 434.541 44.736C432.936 44.736 431.256 45.8 429.501 47.928C427.784 50.056 426.328 52.744 425.133 55.992C423.976 59.2027 423.397 62.1333 423.397 64.784C423.397 67.4347 424.088 68.76 425.469 68.76ZM422.389 91.16C423.173 91.16 423.882 90.9733 424.517 90.6C425.152 90.264 425.749 89.6667 426.309 88.808C426.869 87.912 427.429 86.6613 427.989 85.056C428.549 83.4507 428.997 81.808 429.333 80.128C429.632 78.8587 429.874 77.7013 430.061 76.656L430.285 75.424C430.322 75.1253 430.378 74.808 430.453 74.472C430.528 74.136 430.584 73.7813 430.621 73.408L430.789 72.064C427.13 75.088 424.293 77.832 422.277 80.296C420.298 82.76 419.309 84.9627 419.309 86.904C419.309 88.9573 419.757 90.264 420.653 90.824C421.026 91.048 421.605 91.16 422.389 91.16ZM444.9 94.352C443.668 94.352 442.586 94.0347 441.652 93.4C440.756 92.7653 440.066 91.9627 439.58 90.992C439.095 90.0587 438.852 89.1253 438.852 88.192C438.852 85.9893 439.431 83.9173 440.588 81.976C441.746 80.072 443.407 78.2053 445.572 76.376C446.394 75.6293 448.279 74.1547 451.228 71.952L453.972 69.88L454.252 68.592L454.644 66.856C454.831 65.96 454.962 65.3627 455.036 65.064L455.372 63.552C454.7 65.6053 453.58 67.4347 452.012 69.04C450.482 70.6453 449.007 71.448 447.588 71.448C446.095 71.448 444.9 70.888 444.004 69.768C443.108 68.6107 442.66 67.0427 442.66 65.064C442.66 61.928 443.556 56.9813 445.348 50.224C446.244 46.864 446.692 45.0533 446.692 44.792L446.58 44.12C446.543 43.8587 446.786 43.5413 447.308 43.168C447.831 42.7947 448.26 42.608 448.596 42.608C449.343 42.608 449.716 42.9813 449.716 43.728C449.716 44.4747 449.026 47.6107 447.644 53.136C446.263 58.6613 445.572 62.4133 445.572 64.392C445.572 66.3333 445.815 67.5467 446.3 68.032C446.748 68.5173 447.308 68.76 447.98 68.76C449.399 68.76 450.911 67.5653 452.516 65.176C453.786 63.3093 454.906 60.808 455.876 57.672C456.884 54.4987 457.818 51.1573 458.676 47.648L458.956 46.528C459.367 44.848 459.722 43.8027 460.02 43.392C460.319 42.944 460.73 42.72 461.252 42.72C461.663 42.72 461.943 42.832 462.092 43.056C462.279 43.2427 462.335 43.448 462.26 43.672C461.7 46.4347 460.786 50.4853 459.516 55.824C458.359 60.6773 457.538 64.5787 457.052 67.528C456.94 67.6027 457.594 67.0053 459.012 65.736C459.759 64.9893 460.319 64.4667 460.692 64.168C461.066 63.8693 461.42 63.72 461.756 63.72C462.391 63.72 462.708 64.0373 462.708 64.672C462.708 65.12 462.559 65.4933 462.26 65.792C460.767 67.136 458.826 68.7413 456.436 70.608C454.57 80.3893 452.89 86.7547 451.396 89.704C450.575 91.3467 449.362 92.6533 447.756 93.624C446.935 94.1093 445.983 94.352 444.9 94.352ZM444.9 91.664C446.207 91.664 447.383 90.824 448.428 89.144C449.138 88.024 449.903 86.232 450.724 83.768L451.452 81.024L452.012 78.84L453.3 73.128L452.348 73.968C451.042 75.088 449.754 76.152 448.484 77.16C443.967 80.8187 441.708 84.3093 441.708 87.632C441.708 89.1627 442.212 90.3387 443.22 91.16C443.594 91.496 444.154 91.664 444.9 91.664ZM488.016 71.504C486.299 71.504 485.44 70.6827 485.44 69.04C485.44 68.6293 485.683 67.5467 486.168 65.792L487.232 62.152L487.568 61.032L488.128 59.24C488.539 57.896 488.8 56.9627 488.912 56.44C485.701 62.376 483.237 66.3707 481.52 68.424C479.803 70.44 478.477 71.448 477.544 71.448C476.648 71.448 476.013 71.1867 475.64 70.664C475.304 70.1413 475.136 69.3947 475.136 68.424C475.136 65.9227 475.435 62.6747 476.032 58.68C473.867 62.8613 471.963 66.0347 470.32 68.2C468.677 70.3653 467.203 71.448 465.896 71.448C464.067 71.448 463.003 70.72 462.704 69.264C462.629 68.592 462.592 67.9947 462.592 67.472C462.592 66.24 462.723 64.9333 462.984 63.552L463.264 61.984C464.048 58.736 464.608 55.936 464.944 53.584C465.616 49.216 466.157 46.0053 466.568 43.952C466.68 43.616 466.885 43.3173 467.184 43.056C467.52 42.7573 467.819 42.608 468.08 42.608C468.677 42.608 469.032 42.9253 469.144 43.56C466.419 57.4107 465.056 65.4373 465.056 67.64C465.056 68.3867 465.317 68.76 465.84 68.76C467.259 68.76 468.92 67.2667 470.824 64.28C473.213 60.4347 475.416 55.6187 477.432 49.832C478.067 47.8533 478.477 46.4533 478.664 45.632C479.037 44.288 479.299 43.504 479.448 43.28C479.56 43.0187 479.915 42.7947 480.512 42.608C481.259 42.608 481.632 43.0747 481.632 44.008C481.632 44.9413 481.296 46.472 480.624 48.6C478.907 56.7387 477.936 61.76 477.712 63.664C477.488 65.3813 477.376 66.576 477.376 67.248C477.376 67.8453 477.432 68.256 477.544 68.48C477.656 68.6667 477.917 68.76 478.328 68.76C479.971 68.76 483.013 64.2427 487.456 55.208C489.397 51.2507 490.667 48.3947 491.264 46.64C491.749 45.184 492.141 44.1573 492.44 43.56C492.739 43 493.131 42.72 493.616 42.72C494.139 42.72 494.475 42.8133 494.624 43C494.773 43.1867 494.848 43.5413 494.848 44.064C494.661 44.8107 494.381 45.744 494.008 46.864L492.832 50.784L491.488 55.32C489.808 60.9947 488.763 64.6533 488.352 66.296L487.96 67.696C487.923 67.696 487.904 67.8453 487.904 68.144C487.904 68.6293 488.203 68.872 488.8 68.872C489.397 68.872 489.92 68.6293 490.368 68.144C490.891 67.696 491.32 67.472 491.656 67.472C492.365 67.472 492.72 67.864 492.72 68.648C492.72 69.3947 492.197 70.0667 491.152 70.664C490.144 71.224 489.099 71.504 488.016 71.504ZM501.718 71.56C500.523 71.56 499.59 71.3733 498.918 71C498.246 70.5893 497.704 69.9733 497.294 69.152C496.51 67.696 496.118 65.9413 496.118 63.888C496.118 60.304 496.659 56.9067 497.742 53.696C498.824 50.448 500.299 47.7227 502.166 45.52C503.958 43.4293 505.918 42.384 508.046 42.384C509.166 42.384 510.043 42.8507 510.678 43.784C511.35 44.68 511.686 45.7813 511.686 47.088C511.686 49.3653 511.088 51.344 509.894 53.024C508.736 54.704 507.168 56.104 505.19 57.224C503.472 58.232 501.382 59.24 498.918 60.248L498.806 64.28C498.806 67.416 499.758 68.984 501.662 68.984C502.52 68.984 503.416 68.7787 504.35 68.368C505.283 67.92 506.254 67.3973 507.262 66.8C507.747 66.5387 508.139 66.408 508.438 66.408C509.072 66.408 509.39 66.744 509.39 67.416C509.39 67.9013 508.923 68.48 507.99 69.152C507.094 69.824 506.03 70.4027 504.798 70.888C503.566 71.336 502.539 71.56 501.718 71.56ZM499.366 57.56C499.702 57.3733 500.448 56.9813 501.606 56.384C502.128 56.16 502.875 55.7867 503.846 55.264C505.6 54.2933 506.907 53.1733 507.766 51.904C508.662 50.6347 509.11 49.0667 509.11 47.2C509.11 45.744 508.494 45.016 507.262 45.016C506.179 45.016 504.91 46.0053 503.454 47.984C501.923 49.9627 500.691 52.5573 499.758 55.768C499.496 56.664 499.366 57.2613 499.366 57.56ZM516.682 71.56C515.935 71.56 515.226 71.168 514.554 70.384C513.919 69.6 513.396 68.5547 512.986 67.248C512.612 65.9413 512.426 64.56 512.426 63.104C512.426 61.312 512.5 59.4827 512.65 57.616C512.09 57.5413 511.81 57.224 511.81 56.664C511.81 56.552 511.847 56.3467 511.922 56.048L513.042 54.088C513.863 48.264 515.506 40.6293 517.97 31.184C519.724 24.8373 521.796 20.432 524.186 17.968C524.97 17.1467 525.716 16.736 526.426 16.736C529.002 16.736 530.29 18.304 530.29 21.44C530.29 25.36 528.554 29.84 525.082 34.88C524.111 36.336 522.767 38.296 521.05 40.76C519.258 43.2987 517.895 45.6133 516.962 47.704C516.775 48.1147 516.514 48.3947 516.178 48.544L516.01 49.608C519.631 44.9787 522.898 42.664 525.81 42.664C526.967 42.664 527.788 43.28 528.274 44.512C528.759 45.7067 529.002 47.1067 529.002 48.712C529.002 51.3253 528.423 54.4613 527.266 58.12C526.146 61.7413 524.764 64.7467 523.122 67.136C521.031 70.0853 518.884 71.56 516.682 71.56ZM519.37 39.416C520.415 37.848 521.124 36.7653 521.498 36.168L522.45 34.768C525.847 29.4667 527.546 25.3787 527.546 22.504C527.546 21.5707 527.49 20.88 527.378 20.432C527.266 19.9467 526.986 19.704 526.538 19.704C525.716 19.704 524.746 20.824 523.626 23.064C521.423 27.432 519.332 33.9467 517.354 42.608L519.37 39.416ZM517.242 68.816C518.623 68.816 520.004 67.6587 521.386 65.344C522.804 63.0293 523.999 60.136 524.97 56.664C525.866 53.3413 526.314 50.9147 526.314 49.384C526.314 47.7413 526.22 46.752 526.034 46.416C525.847 46.0053 525.38 45.8 524.634 45.8C523.29 45.8 521.852 46.584 520.322 48.152C518.828 49.6827 517.148 51.96 515.282 54.984C515.058 57.112 514.946 59.0907 514.946 60.92C514.946 66.184 515.711 68.816 517.242 68.816ZM534.698 71.672C533.354 71.672 532.29 71.3547 531.506 70.72C530.722 70.048 530.087 68.9467 529.602 67.416C529.527 67.304 529.49 67.0613 529.49 66.688C529.49 66.352 529.639 66.0347 529.938 65.736C530.236 65.4 530.572 65.232 530.946 65.232C531.282 65.232 531.599 65.4373 531.898 65.848C531.898 68.1253 532.98 69.264 535.146 69.264C536.751 69.264 538.356 68.4613 539.962 66.856C541.567 65.2133 543.042 63.0667 544.386 60.416C545.58 58.1013 546.458 55.992 547.018 54.088L547.466 52.632C547.876 51.2507 548.306 49.8693 548.754 48.488C549.239 47.0693 549.724 45.856 550.21 44.848C550.844 43.5413 551.479 42.888 552.114 42.888C552.786 42.888 553.122 43.2427 553.122 43.952C553.122 44.5867 552.767 45.912 552.058 47.928C551.274 50.28 550.62 53.08 550.098 56.328C549.575 59.5387 549.314 62.7493 549.314 65.96C549.314 67.7893 549.687 68.816 550.434 69.04L551.106 69.096C551.666 69.096 552.151 68.9653 552.562 68.704C552.674 68.6667 552.935 68.48 553.346 68.144C553.42 68.0693 553.719 67.8267 554.242 67.416C554.764 66.968 555.212 66.744 555.586 66.744C556.258 66.744 556.594 67.0987 556.594 67.808C556.594 68.256 556.258 68.7787 555.586 69.376C554.914 69.9733 554.111 70.4773 553.178 70.888C552.244 71.2987 551.386 71.504 550.602 71.504C548.212 71.504 547.018 68.9093 547.018 63.72C547.018 62.712 547.111 61.3307 547.298 59.576C545.954 63.048 544.087 65.9413 541.698 68.256C539.346 70.5333 537.012 71.672 534.698 71.672ZM565.122 71.56C563.928 71.56 562.994 71.3733 562.322 71C561.65 70.5893 561.109 69.9733 560.698 69.152C559.914 67.696 559.522 65.9413 559.522 63.888C559.522 60.304 560.064 56.9067 561.146 53.696C562.229 50.448 563.704 47.7227 565.57 45.52C567.362 43.4293 569.322 42.384 571.45 42.384C572.57 42.384 573.448 42.8507 574.082 43.784C574.754 44.68 575.09 45.7813 575.09 47.088C575.09 49.3653 574.493 51.344 573.298 53.024C572.141 54.704 570.573 56.104 568.594 57.224C566.877 58.232 564.786 59.24 562.322 60.248L562.21 64.28C562.21 67.416 563.162 68.984 565.066 68.984C565.925 68.984 566.821 68.7787 567.754 68.368C568.688 67.92 569.658 67.3973 570.666 66.8C571.152 66.5387 571.544 66.408 571.842 66.408C572.477 66.408 572.794 66.744 572.794 67.416C572.794 67.9013 572.328 68.48 571.394 69.152C570.498 69.824 569.434 70.4027 568.202 70.888C566.97 71.336 565.944 71.56 565.122 71.56ZM562.77 57.56C563.106 57.3733 563.853 56.9813 565.01 56.384C565.533 56.16 566.28 55.7867 567.25 55.264C569.005 54.2933 570.312 53.1733 571.17 51.904C572.066 50.6347 572.514 49.0667 572.514 47.2C572.514 45.744 571.898 45.016 570.666 45.016C569.584 45.016 568.314 46.0053 566.858 47.984C565.328 49.9627 564.096 52.5573 563.162 55.768C562.901 56.664 562.77 57.2613 562.77 57.56ZM592.854 71.616C591.809 71.616 591.006 71.336 590.446 70.776C589.924 70.216 589.662 69.488 589.662 68.592C589.662 67.6587 589.905 66.0533 590.39 63.776L591.678 57C588.953 59.0533 586.433 60.08 584.118 60.08C582.438 60.08 581.15 59.632 580.254 58.736C580.18 59.1093 580.105 59.4827 580.03 59.856C579.993 60.2293 579.937 60.6027 579.862 60.976C579.713 62.208 579.526 63.4587 579.302 64.728C578.63 69.1707 577.622 71.392 576.278 71.392C575.718 71.392 575.382 71 575.27 70.216C575.606 67.304 576.428 62.7867 577.734 56.664C579.078 50.504 580.03 46.3413 580.59 44.176C580.702 43.8027 580.908 43.4853 581.206 43.224C581.542 42.9627 581.878 42.832 582.214 42.832C582.662 42.832 582.98 43.1493 583.166 43.784C583.166 44.3813 582.83 46.3227 582.158 49.608C581.636 52.1093 581.225 54.256 580.926 56.048C581.748 56.9813 583.036 57.448 584.79 57.448C586.508 57.448 588.393 56.5893 590.446 54.872C591.081 54.312 591.678 53.7147 592.238 53.08L593.078 49.328C593.713 46.6027 594.404 44.7173 595.15 43.672C595.524 43.0747 596.028 42.776 596.662 42.776C597.297 42.776 597.614 43.1307 597.614 43.84V44.12C595.561 51.176 594.273 56.2907 593.75 59.464C593.265 62.1893 592.948 64.336 592.798 65.904C592.686 67.136 592.612 67.808 592.574 67.92L592.518 68.648C592.518 68.872 592.612 68.984 592.798 68.984C592.948 68.984 593.078 68.928 593.19 68.816C593.377 68.704 593.676 68.648 594.086 68.648C594.721 68.648 595.038 68.984 595.038 69.656C595.038 70.9627 594.31 71.616 592.854 71.616ZM614.893 71.56C614.482 71.56 614.034 71.224 613.549 70.552C613.101 69.8427 612.877 69.2267 612.877 68.704V67.752C612.877 66.5947 613.679 63.104 615.285 57.28L616.013 54.2L614.501 57.392C614.015 58.624 613.231 60.36 612.149 62.6C609.386 68.4987 606.437 71.448 603.301 71.448C601.434 71.448 600.165 70.4213 599.493 68.368C599.306 67.696 599.213 66.856 599.213 65.848C599.213 63.7573 599.605 61.088 600.389 57.84C600.837 55.9733 601.21 54.592 601.509 53.696L601.957 52.24C602.367 50.8213 602.778 49.328 603.189 47.76C603.637 46.1547 603.879 44.9413 603.917 44.12C604.029 43.7467 604.234 43.4293 604.533 43.168C604.869 42.9067 605.223 42.776 605.597 42.776C605.97 42.776 606.269 43.2613 606.493 44.232C606.493 45.2027 606.306 46.3973 605.933 47.816C605.559 49.1973 605.186 50.4293 604.813 51.512C604.477 52.5947 604.271 53.2853 604.197 53.584C602.666 58.4 601.901 62.5813 601.901 66.128C601.901 67.248 602.33 68.032 603.189 68.48C603.487 68.6293 603.898 68.704 604.421 68.704C605.466 68.704 606.717 67.6587 608.173 65.568C609.517 63.6267 610.879 61.2 612.261 58.288C613.642 55.376 614.762 52.7253 615.621 50.336C616.517 47.76 617.263 45.8747 617.861 44.68C618.458 43.4853 619.111 42.888 619.821 42.888C620.455 42.888 620.773 43.2053 620.773 43.84C620.773 44.3253 620.474 45.6507 619.877 47.816C619.317 49.6453 618.943 50.952 618.757 51.736C618.57 52.4827 618.346 53.5467 618.085 54.928L616.741 62.544L616.125 65.736C616.087 66.072 615.994 66.576 615.845 67.248C615.845 67.9573 615.957 68.424 616.181 68.648L616.685 69.32C616.797 69.432 616.853 69.6747 616.853 70.048C616.853 70.4213 616.629 70.7573 616.181 71.056C615.77 71.392 615.341 71.56 614.893 71.56ZM627.871 71.56C626.676 71.56 625.743 71.3733 625.071 71C624.399 70.5893 623.857 69.9733 623.447 69.152C622.663 67.696 622.271 65.9413 622.271 63.888C622.271 60.304 622.812 56.9067 623.895 53.696C624.977 50.448 626.452 47.7227 628.319 45.52C630.111 43.4293 632.071 42.384 634.199 42.384C635.319 42.384 636.196 42.8507 636.831 43.784C637.503 44.68 637.839 45.7813 637.839 47.088C637.839 49.3653 637.241 51.344 636.047 53.024C634.889 54.704 633.321 56.104 631.343 57.224C629.625 58.232 627.535 59.24 625.071 60.248L624.959 64.28C624.959 67.416 625.911 68.984 627.815 68.984C628.673 68.984 629.569 68.7787 630.503 68.368C631.436 67.92 632.407 67.3973 633.415 66.8C633.9 66.5387 634.292 66.408 634.591 66.408C635.225 66.408 635.543 66.744 635.543 67.416C635.543 67.9013 635.076 68.48 634.143 69.152C633.247 69.824 632.183 70.4027 630.951 70.888C629.719 71.336 628.692 71.56 627.871 71.56ZM625.519 57.56C625.855 57.3733 626.601 56.9813 627.759 56.384C628.281 56.16 629.028 55.7867 629.999 55.264C631.753 54.2933 633.06 53.1733 633.919 51.904C634.815 50.6347 635.263 49.0667 635.263 47.2C635.263 45.744 634.647 45.016 633.415 45.016C632.332 45.016 631.063 46.0053 629.607 47.984C628.076 49.9627 626.844 52.5573 625.911 55.768C625.649 56.664 625.519 57.2613 625.519 57.56Z" fill="#00EFFF"/>
<path d="M2.86062 344.5C3.22727 340.082 9.32214 331.793 20.0887 321.071C30.8553 310.348 45.6149 297.868 61.8089 285.794C78.0029 273.719 94.6106 262.812 108.753 254.962C122.895 247.112 133.681 242.815 139.24 242.815C144.8 242.815 144.782 247.112 139.19 254.962C133.599 262.812 122.786 273.719 108.626 285.794C94.4667 297.868 77.8526 310.348 61.6641 321.071C45.4756 331.793 30.7332 340.082 19.9925 344.5C7.09279 350.56 -11.7028 361.935 -33.1353 376.654C-54.5677 391.373 -77.2853 408.508 -97.3491 425.086C-117.413 441.665 -133.557 456.643 -142.983 467.422C-152.41 478.201 -154.523 484.102 -148.956 484.102C-143.39 484.102 -130.495 478.201 -112.508 467.422C-94.5212 456.643 -72.5759 441.665 -50.4776 425.086C-28.3794 408.508 -7.52167 391.373 8.47883 376.654C24.4793 361.935 34.6136 350.56 37.1245 344.5C39.6353 338.44 49.7696 327.065 65.7701 312.346C81.7706 297.627 102.628 280.492 124.727 263.914C146.825 247.335 168.77 232.358 186.757 221.578C204.744 210.799 217.639 204.898 223.205 204.898C228.772 204.898 226.658 210.799 217.232 221.578C207.806 232.358 191.662 247.335 171.598 263.914C151.534 280.492 128.817 297.627 107.384 312.346C85.9517 327.065 67.1561 338.44 54.2564 344.5C44.8909 347.892 32.7259 354.249 19.8693 362.47C7.01278 370.69 -5.72534 380.256 -16.1379 389.51C-26.5505 398.764 -33.9814 407.123 -37.1431 413.138C-40.3049 419.153 -38.9982 422.446 -33.4495 422.446C-27.9008 422.446 -18.4598 419.153 -6.76218 413.138C4.93543 407.123 18.1525 398.764 30.599 389.51C43.0455 380.256 53.9371 370.69 61.3868 362.47C68.8364 354.249 72.3746 347.892 71.3883 344.5C70.402 341.108 73.9402 334.751 81.3898 326.53C88.8394 318.31 99.7311 308.744 112.178 299.49C124.624 290.236 137.841 281.877 149.539 275.862C161.236 269.847 170.677 266.554 176.226 266.554C181.775 266.554 183.081 269.847 179.92 275.862C176.758 281.877 169.327 290.236 158.914 299.49C148.502 308.744 135.764 318.31 122.907 326.53C110.051 334.751 97.8857 341.108 88.5202 344.5C79.9582 347.308 69.2947 352.563 58.3763 359.357C47.458 366.15 36.9724 374.053 28.7355 381.698C20.4985 389.343 15.029 396.247 13.274 401.215C11.519 406.184 13.5892 408.904 19.126 408.904C24.6627 408.904 33.3174 406.184 43.5912 401.215C53.865 396.247 65.1109 389.343 75.3814 381.698C85.6518 374.053 94.3 366.15 99.8283 359.357C105.357 352.563 107.417 347.308 105.652 344.5C103.887 341.692 105.948 336.437 111.476 329.643C117.004 322.85 125.652 314.947 135.923 307.302C146.193 299.657 157.439 292.753 167.713 287.785C177.987 282.816 186.642 280.096 192.178 280.096C197.715 280.096 199.785 282.816 198.03 287.785C196.275 292.753 190.806 299.657 182.569 307.302C174.332 314.947 163.846 322.85 152.928 329.643C142.01 336.437 131.346 341.692 122.784 344.5C105.609 353.848 78.7809 371.404 46.9535 394.124C15.1262 416.844 -19.6933 443.295 -51.4662 468.888C-83.239 494.482 -109.961 517.605 -126.998 534.247C-144.036 550.889 -150.313 560 -144.742 560C-139.171 560 -122.103 550.889 -96.4985 534.247C-70.8937 517.605 -38.367 494.482 -4.55942 468.888C29.2481 443.295 62.2041 416.844 88.593 394.124C114.982 371.404 133.139 353.848 139.916 344.5C146.693 335.152 164.85 317.596 191.239 294.876C217.628 272.156 250.584 245.705 284.391 220.112C318.199 194.518 350.726 171.395 376.33 154.753C401.935 138.111 419.003 129 424.574 129C430.145 129 423.867 138.111 406.83 154.753C389.793 171.395 363.071 194.518 331.298 220.112C299.525 245.705 264.706 272.156 232.878 294.876C201.051 317.596 174.223 335.152 157.048 344.5C140.032 353.725 113.503 371.051 82.0621 393.472C50.6216 415.893 16.2525 441.996 -15.0846 467.254C-46.4217 492.511 -72.7502 515.33 -89.504 531.753C-106.258 548.176 -112.38 557.167 -106.809 557.167C-101.239 557.167 -84.326 548.176 -59.0046 531.753C-33.6833 515.33 -1.5503 492.511 31.8215 467.254C65.1932 441.996 97.6989 415.893 123.701 393.472C149.703 371.051 167.562 353.725 174.18 344.5C180.798 335.275 198.656 317.949 224.658 295.528C250.661 273.107 283.166 247.004 316.538 221.746C349.91 196.489 382.043 173.67 407.364 157.247C432.686 140.824 449.598 131.833 455.169 131.833C460.74 131.833 454.617 140.824 437.864 157.247C421.11 173.67 394.781 196.489 363.444 221.746C332.107 247.004 297.738 273.107 266.297 295.528C234.857 317.949 208.328 335.275 191.312 344.5C178.54 350.462 159.985 361.653 138.865 376.133C117.744 390.614 95.3892 407.47 75.6765 423.78C55.9638 440.089 40.1362 454.824 30.9383 465.428C21.7403 476.032 19.7519 481.837 25.318 481.837C30.884 481.837 43.6534 476.032 61.412 465.428C79.1706 454.824 100.799 440.089 122.546 423.78C144.293 407.47 164.788 390.614 180.477 376.133C196.167 361.653 206.06 350.462 208.444 344.5C210.827 338.538 220.721 327.347 236.41 312.867C252.099 298.386 272.594 281.53 294.341 265.22C316.089 248.911 337.717 234.176 355.475 223.572C373.234 212.968 386.003 207.163 391.569 207.163C397.135 207.163 395.147 212.968 385.949 223.572C376.751 234.176 360.923 248.911 341.211 265.22C321.498 281.53 299.143 298.386 278.022 312.867C256.902 327.347 238.347 338.538 225.576 344.5C211.811 351.222 191.392 363.842 167.859 380.173C144.325 396.504 119.162 415.515 96.7319 433.909C74.3019 452.304 56.0199 468.922 45.0561 480.882C34.0923 492.843 31.1381 499.39 36.7059 499.39C42.2737 499.39 56.0122 492.843 75.5392 480.882C95.0662 468.922 119.15 452.304 143.615 433.909C168.079 415.515 191.382 396.504 209.481 380.173C227.58 363.842 239.335 351.222 242.707 344.5C246.08 337.778 257.834 325.158 275.934 308.827C294.033 292.496 317.336 273.485 341.8 255.091C366.265 236.696 390.349 220.078 409.876 208.118C429.403 196.157 443.141 189.61 448.709 189.61C454.277 189.61 451.323 196.157 440.359 208.118C429.395 220.078 411.113 236.696 388.683 255.091C366.253 273.485 341.089 292.496 317.556 308.827C294.023 325.158 273.604 337.778 259.839 344.5C250.907 347.575 239.551 353.335 227.74 360.782C215.929 368.23 204.406 376.895 195.167 385.276C185.929 393.658 179.557 401.229 177.155 406.677C174.753 412.125 176.472 415.108 182.015 415.108C187.558 415.108 196.576 412.125 207.506 406.677C218.435 401.229 230.589 393.658 241.861 385.276C253.134 376.895 262.814 368.23 269.227 360.782C275.639 353.335 278.379 347.575 276.971 344.5C275.564 341.425 278.304 335.665 284.716 328.218C291.128 320.77 300.809 312.105 312.081 303.724C323.353 295.342 335.507 287.771 346.437 282.323C357.367 276.875 366.384 273.892 371.928 273.892C377.471 273.892 379.19 276.875 376.788 282.323C374.386 287.771 368.014 295.342 358.775 303.724C349.537 312.105 338.014 320.77 326.203 328.218C314.391 335.665 303.036 341.425 294.103 344.5C285.849 347.089 275.758 351.933 265.577 358.192C255.397 364.451 245.768 371.731 238.358 378.773C230.948 385.815 226.223 392.175 225.001 396.751C223.779 401.328 226.138 403.833 231.668 403.833C237.198 403.833 245.551 401.328 255.283 396.751C265.014 392.175 275.509 385.815 284.953 378.773C294.396 371.731 302.193 364.451 306.992 358.192C311.792 351.933 313.293 347.089 311.235 344.5C309.177 341.911 310.678 337.067 315.478 330.808C320.278 324.549 328.074 317.269 337.517 310.227C346.961 303.185 357.457 296.825 367.188 292.249C376.919 287.672 385.272 285.167 390.803 285.167C396.333 285.167 398.691 287.672 397.469 292.249C396.247 296.825 391.522 303.185 384.112 310.227C376.702 317.269 367.073 324.549 356.893 330.808C346.713 337.067 336.622 341.911 328.367 344.5C315.756 350.339 297.502 361.3 276.772 375.482C256.041 389.664 234.14 406.173 214.866 422.146C195.592 438.119 180.161 452.55 171.248 462.936C162.336 473.321 160.503 479.007 166.069 479.007C171.635 479.007 184.247 473.321 201.72 462.936C219.193 452.55 240.424 438.119 261.733 422.146C283.041 406.173 303.082 389.664 318.382 375.482C333.682 361.3 343.275 350.339 345.499 344.5C347.722 338.661 357.316 327.7 372.616 313.518C387.916 299.336 407.957 282.827 429.265 266.854C450.574 250.881 471.805 236.45 489.278 226.064C506.751 215.679 519.363 209.993 524.929 209.993C530.495 209.993 528.662 215.679 519.75 226.064C510.837 236.45 495.406 250.881 476.132 266.854C456.858 282.827 434.957 299.336 414.226 313.518C393.495 327.7 375.242 338.661 362.631 344.5C349.731 350.56 330.935 361.935 309.503 376.654C288.071 391.373 265.353 408.508 245.289 425.086C225.226 441.665 209.081 456.643 199.655 467.422C190.229 478.201 188.116 484.102 193.682 484.102C199.248 484.102 212.143 478.201 230.13 467.422C248.117 456.643 270.062 441.665 292.161 425.086C314.259 408.508 335.117 391.373 351.117 376.654C367.118 361.935 377.252 350.56 379.763 344.5C382.274 338.44 392.408 327.065 408.408 312.346C424.409 297.627 445.267 280.492 467.365 263.914C489.463 247.335 511.408 232.358 529.396 221.578C547.383 210.799 560.277 204.898 565.844 204.898C571.41 204.898 569.297 210.799 559.871 221.578C550.445 232.358 534.3 247.335 514.236 263.914C494.173 280.492 471.455 297.627 450.023 312.346C428.59 327.065 409.794 338.44 396.895 344.5C386.512 348.649 372.44 356.432 357.12 366.498C341.799 376.565 326.194 388.282 313.011 399.617C299.828 410.952 289.896 421.192 284.939 428.561C279.981 435.93 280.309 439.965 285.866 439.965C291.423 439.965 301.859 435.93 315.365 428.561C328.871 421.192 344.596 410.952 359.813 399.617C375.031 388.282 388.782 376.565 398.684 366.498C408.586 356.432 414.013 348.649 414.027 344.5C414.04 340.351 419.468 332.568 429.369 322.502C439.271 312.435 453.023 300.718 468.24 289.383C483.458 278.048 499.182 267.808 512.688 260.439C526.194 253.07 536.63 249.035 542.187 249.035C547.744 249.035 548.073 253.07 543.115 260.439C538.157 267.808 528.226 278.048 515.042 289.383C501.859 300.718 486.254 312.435 470.934 322.502C455.613 332.568 441.542 340.351 431.159 344.5C418.355 350.486 399.74 361.723 378.541 376.263C357.343 390.803 334.897 407.729 315.097 424.106C295.296 440.483 279.389 455.278 270.134 465.926C260.879 476.574 258.86 482.404 264.426 482.404C269.992 482.404 282.793 476.574 300.608 465.926C318.424 455.278 340.132 440.483 361.967 424.106C383.802 407.729 404.387 390.803 420.154 376.263C435.921 361.723 445.875 350.486 448.29 344.5C450.706 338.514 460.66 327.277 476.427 312.737C492.194 298.197 512.779 281.271 534.614 264.894C556.449 248.517 578.157 233.722 595.972 223.074C613.788 212.426 626.589 206.596 632.155 206.596C637.721 206.596 635.702 212.426 626.447 223.074C617.192 233.722 601.285 248.517 581.484 264.894C561.684 281.271 539.238 298.197 518.04 312.737C496.841 327.277 478.226 338.514 465.422 344.5C452.972 350.216 435.02 360.947 414.679 374.83C394.338 388.714 372.891 404.875 354.056 420.513C335.222 436.15 320.187 450.276 311.56 460.443C302.933 470.61 301.256 476.176 306.822 476.176C312.387 476.176 324.843 470.61 342.03 460.443C359.217 450.276 380.051 436.15 400.92 420.513C421.789 404.875 441.377 388.714 456.287 374.83C471.198 360.947 480.491 350.216 482.554 344.5C484.618 338.784 493.911 328.053 508.821 314.17C523.731 300.286 543.319 284.125 564.188 268.487C585.057 252.85 605.892 238.724 623.079 228.557C640.266 218.39 652.722 212.824 658.287 212.824C663.852 212.824 662.176 218.39 653.548 228.557C644.921 238.724 629.887 252.85 611.052 268.487C592.218 284.125 570.771 300.286 550.43 314.17C530.089 328.053 512.137 338.784 499.686 344.5C486.594 350.707 467.437 362.359 445.538 377.436C423.638 392.513 400.376 410.065 379.786 427.047C359.196 444.029 342.576 459.371 332.808 470.413C323.04 481.454 320.74 487.499 326.307 487.499C331.873 487.499 344.956 481.454 363.285 470.413C381.615 459.371 404.036 444.029 426.661 427.047C449.285 410.065 470.687 392.513 487.154 377.436C503.621 362.359 514.116 350.707 516.818 344.5C519.52 338.293 530.015 326.641 546.482 311.564C562.95 296.487 584.351 278.935 606.976 261.953C629.6 244.971 652.021 229.629 670.351 218.587C688.681 207.546 701.763 201.501 707.33 201.501C712.896 201.501 710.596 207.546 700.828 218.587C691.06 229.629 674.44 244.971 653.85 261.953C633.26 278.935 609.998 296.487 588.099 311.564C566.199 326.641 547.042 338.293 533.95 344.5C525.627 347.138 515.408 352.073 505.063 358.45C494.718 364.828 484.898 372.247 477.303 379.423C469.709 386.599 464.818 393.079 463.477 397.743C462.137 402.406 464.431 404.959 469.963 404.959C475.494 404.959 483.915 402.406 493.767 397.743C503.62 393.079 514.283 386.599 523.911 379.423C533.539 372.247 541.525 364.828 546.487 358.45C551.449 352.073 553.075 347.138 551.082 344.5C549.089 341.862 550.715 336.927 555.677 330.55C560.639 324.172 568.625 316.753 578.253 309.577C587.881 302.401 598.544 295.921 608.396 291.257C618.249 286.594 626.67 284.041 632.201 284.041C637.733 284.041 640.027 286.594 638.687 291.257C637.346 295.921 632.455 302.401 624.86 309.577C617.266 316.753 607.446 324.172 597.101 330.55C586.756 336.927 576.537 341.862 568.214 344.5C554.77 350.977 534.951 363.136 512.196 378.87C489.44 394.603 465.181 412.919 443.627 430.641C422.073 448.363 404.582 464.374 394.188 475.897C383.793 487.419 381.15 493.728 386.717 493.728C392.285 493.728 405.711 487.419 424.668 475.897C443.625 464.374 466.918 448.363 490.506 430.641C514.095 412.919 536.493 394.603 553.815 378.87C571.138 363.136 582.293 350.977 585.346 344.5C588.399 338.023 599.554 325.864 616.877 310.13C634.199 294.397 656.597 276.081 680.185 258.359C703.774 240.637 727.067 224.626 746.024 213.103C764.981 201.581 778.407 195.272 783.974 195.272C789.542 195.272 786.899 201.581 776.504 213.103C766.11 224.626 748.619 240.637 727.064 258.359C705.51 276.081 681.252 294.397 658.496 310.13C635.74 325.864 615.922 338.023 602.478 344.5C589.258 350.805 569.86 362.641 547.649 377.957C525.438 393.273 501.814 411.103 480.873 428.354C459.932 445.605 442.995 461.19 432.999 472.407C423.004 483.623 420.579 489.764 426.146 489.764C431.713 489.764 444.92 483.623 463.478 472.407C482.036 461.19 504.774 445.605 527.749 428.354C550.724 411.103 572.488 393.273 589.266 377.957C606.045 362.641 616.78 350.805 619.61 344.5C622.44 338.195 633.174 326.359 649.953 311.043C666.731 295.727 688.495 277.897 711.47 260.646C734.446 243.395 757.183 227.81 775.741 216.593C794.299 205.377 807.507 199.236 813.074 199.236C818.64 199.236 816.216 205.377 806.22 216.593C796.224 227.81 779.287 243.395 758.346 260.646C737.406 277.897 713.781 295.727 691.57 311.043C669.359 326.359 649.962 338.195 636.742 344.5C625.515 349.285 609.861 358.265 592.493 369.882C575.125 381.498 557.139 395.02 541.651 408.102C526.164 421.185 514.153 433.003 507.7 441.509C501.247 450.014 500.759 454.67 506.32 454.67C511.881 454.67 523.142 450.014 538.149 441.509C553.157 433.003 570.965 421.185 588.486 408.102C606.008 395.02 622.138 381.498 634.081 369.882C646.023 358.265 653.026 349.285 653.874 344.5C654.721 339.715 661.724 330.735 673.666 319.118C685.609 307.502 701.739 293.98 719.261 280.898C736.782 267.815 754.59 255.997 769.598 247.491C784.605 238.986 795.865 234.33 801.427 234.33C806.988 234.33 806.5 238.986 800.047 247.491C793.594 255.997 781.583 267.815 766.095 280.898C750.608 293.98 732.622 307.502 715.254 319.118C697.886 330.735 682.232 339.715 671.005 344.5C660.362 348.845 645.803 356.996 629.85 367.539C613.898 378.083 597.559 390.354 583.666 402.227C569.772 414.1 559.199 424.825 553.78 432.544C548.362 440.263 548.438 444.488 553.997 444.488C559.556 444.488 570.246 440.263 584.215 432.544C598.184 424.825 614.551 414.1 630.479 402.227C646.407 390.354 660.892 378.083 671.423 367.539C681.954 356.996 687.867 348.845 688.137 344.5" stroke="#00EFFF" stroke-width="8"/>
</g>
<rect x="4" y="4" width="655" height="552" stroke="white" stroke-width="8"/>
<defs>
<clipPath id="clip0_457_593">
<rect width="663" height="560" fill="white"/>
</clipPath>
</defs>
</svg>
