<svg width="40" height="1150" viewBox="0 0 40 1150" fill="none" xmlns="http://www.w3.org/2000/svg">
<g clip-path="url(#clip0_638_2909)">
<path d="M23.0055 1134.63C7.16222 1109.31 7.16222 1126.33 23.0055 1106.26C38.8488 1086.2 35.8055 1102.71 23.0055 1077.9C10.2056 1053.08 10.2056 1070.1 23.0055 1049.53C35.8055 1028.97 47.3523 1047.9 23.0055 1021.17C-1.34124 994.442 -1.34124 1011.46 23.0055 992.807C47.3523 974.153 37.5061 989.539 23.0055 964.443C8.50487 939.347 8.50487 956.366 23.0055 936.079C37.5061 915.793 45.204 934.088 23.0055 907.715C0.807003 881.343 0.807003 898.361 23.0055 879.352C45.204 860.342 36.074 875.846 23.0055 850.988C9.93703 826.13 9.93703 843.148 23.0055 822.624C36.074 802.1 33.9257 818.762 23.0055 794.26C12.0853 769.758 12.0853 786.776 23.0055 765.896C33.9257 745.016 41.3551 763.266 23.0055 737.532C4.65594 711.798 4.65594 728.817 23.0055 709.169C41.3551 689.52 39.8334 706.286 23.0055 680.805C6.17761 655.323 6.17761 672.341 23.0055 652.441C39.8334 632.54 49.6795 651.191 23.0055 624.077C-3.6685 596.963 -3.6685 613.981 23.0055 595.713C49.6795 577.445 34.9999 592.029 23.0055 567.349C11.0112 542.669 11.0112 559.688 23.0055 538.985C34.9999 518.283 41.5341 536.385 23.0055 510.622C4.47692 484.858 4.47692 501.876 23.0055 482.258C41.5341 462.639 35.8055 478.708 23.0055 453.894C10.2056 429.08 10.2056 446.099 23.0055 425.53C35.8055 404.962 48.1578 424.028 23.0055 397.166C-2.14683 370.304 -2.14683 387.323 23.0055 368.802C48.1578 350.282 43.9509 366.603 23.0055 340.439C2.06015 314.274 2.06015 331.293 23.0055 312.075C43.9509 292.857 42.7872 309.682 23.0055 283.711C3.22378 257.74 3.22378 274.758 23.0055 255.347C42.7872 235.936 32.4041 251.233 23.0055 226.983C13.6069 202.734 13.6069 219.752 23.0055 198.619C32.4041 177.487 44.667 196.539 23.0055 170.256C1.34406 143.973 1.34406 160.991 23.0055 141.892C44.667 122.793 44.667 139.811 23.0055 113.528C1.34406 87.2448 1.34406 104.263 23.0055 85.1641C44.667 66.0651 46.9047 83.4545 23.0055 56.8003C-0.893688 30.1461 -0.893688 47.1644 23.0055 28.4364C46.9047 9.70849 41.5341 25.8362 23.0055 0.0726049" stroke="#61FF00" stroke-width="6"/>
</g>
<defs>
<clipPath id="clip0_638_2909">
<rect width="40" height="1150" fill="white"/>
</clipPath>
</defs>
</svg>
