<svg width="272" height="315" viewBox="0 0 272 315" fill="none" xmlns="http://www.w3.org/2000/svg">
<path d="M70.5205 36.2069C70.5205 53.8869 55.7383 68.4138 37.2603 68.4138C18.7822 68.4138 4 53.8869 4 36.2069C4 18.5269 18.7822 4 37.2603 4C55.7383 4 70.5205 18.5269 70.5205 36.2069Z" fill="#61FF00" stroke="#61FF00" stroke-width="8"/>
<path d="M215.178 286.035L185.37 238.061" stroke="#61FF00" stroke-width="8" stroke-linecap="round"/>
<path d="M205.012 249.302C210.286 249.302 214.469 246.819 217.197 242.979C219.839 239.263 221.041 234.425 221.041 229.461C221.041 224.816 220.397 219.718 218.435 215.626C216.382 211.344 212.636 207.811 206.795 207.811C201.429 207.811 196.469 210.819 192.994 214.679C189.486 218.574 186.959 223.905 186.959 229.461C186.959 239.955 194.605 249.302 205.012 249.302Z" stroke="#61FF00" stroke-width="8"/>
<path fill-rule="evenodd" clip-rule="evenodd" d="M264.548 245.302C264.548 279.752 235.608 307.759 199.808 307.759C164.008 307.759 135.068 279.752 135.068 245.302C135.068 231.605 139.643 218.927 147.404 208.622C146.259 207.075 145.282 205.539 144.285 203.97C143.902 203.367 143.516 202.76 143.116 202.146C133.409 214.015 127.616 229.005 127.616 245.302C127.616 283.795 159.938 315 199.808 315C239.678 315 272 283.795 272 245.302C272 206.808 239.678 175.604 199.808 175.604C193.724 175.604 189.616 175.593 183.972 176.961C184.554 176.894 183.077 177.672 183.041 177.866C182.145 178.067 181.75 178.262 181.047 178.608C180.943 178.659 180.832 178.713 180.712 178.772C180.664 178.825 180.548 178.903 180.382 179.013C180.324 179.051 180.26 179.094 180.191 179.141C178.466 180.523 174.978 184.484 173.725 186.918C173.387 187.575 173.131 188.073 172.93 188.464C177.715 186.126 183.629 184.011 188.63 182.845C190.398 182.433 194.205 181.94 202.137 181.94C217.972 181.94 266.132 199.224 264.548 245.302Z" fill="#969696"/>
<path fill-rule="evenodd" clip-rule="evenodd" d="M177.362 197.716C175.595 206.358 176.81 219.313 188.428 236.002C189.59 237.672 189.152 239.936 187.449 241.059C185.746 242.181 183.423 241.738 182.261 240.068C169.695 222.017 167.821 207.091 170.039 196.242C171.138 190.87 173.224 186.592 175.387 183.524C176.465 181.994 177.588 180.73 178.655 179.769C179.618 178.902 181.693 178.253 183.041 177.867C185.016 177.302 186.265 178.14 186.858 180.072C187.437 181.956 187.831 182.834 184.904 184.203C183.174 185.013 182.846 185.04 182.576 185.561C181.965 186.111 181.988 186.222 181.178 187.371C179.563 189.662 178.257 193.344 177.362 197.716Z" fill="#61FF00"/>
<path d="M212.755 289.176C214.547 290.498 217.085 290.163 218.423 288.428C219.761 286.692 219.393 284.214 217.601 282.892L212.755 289.176ZM55.5138 66.0634C69.9606 89.3562 82.2615 111.401 93.7801 132.281C105.283 153.133 116.036 172.879 127.318 191.425C149.92 228.58 174.791 261.17 212.755 289.176L217.601 282.892C180.801 255.746 156.578 224.11 134.273 187.443C123.1 169.077 112.446 149.513 100.904 128.59C89.3767 107.694 76.9935 85.4993 62.4325 62.0225L55.5138 66.0634Z" fill="#61FF00"/>
<path fill-rule="evenodd" clip-rule="evenodd" d="M127.896 122.698C118.653 95.7506 100.023 75.8576 71.7259 50.2379L74.0549 41.6394C102.503 67.3957 125.095 91.6327 134.966 120.408C144.818 149.128 144.828 184.638 135.483 238.216L128.136 237.006C137.421 183.771 137.159 149.699 127.896 122.698Z" fill="#969696"/>
<path d="M176.521 182.304C179.492 177.251 186.529 176.148 188.628 176.048C191.218 175.68 193.065 175.889 193.272 175.991L191.298 182.304C186.133 183.013 182.842 184.971 181.178 187.372L176.521 182.304Z" fill="url(#paint0_linear_457_387)"/>
<path d="M146.461 110.02C152.962 100.069 155.426 94.047 150.026 79.6517C145.232 67.7859 146.247 61.8338 153.321 51.5878C162.22 39.4981 161.604 33.548 156.616 23.524" stroke="#969696" stroke-width="2" stroke-linecap="round"/>
<path d="M178.267 124.132C186.624 115.68 190.239 110.27 187.822 95.0869C185.492 82.5028 187.676 76.8733 196.653 68.2455C207.785 58.1754 208.37 52.2222 205.483 41.4041" stroke="#969696" stroke-width="2" stroke-linecap="round"/>
<path d="M162.395 118.139C169.776 108.822 172.778 103.05 168.713 88.2222C165.019 75.9688 166.573 70.1341 174.551 60.5754C184.515 49.3469 184.444 43.3655 180.39 32.9286" stroke="#969696" stroke-width="2" stroke-linecap="round"/>
<defs>
<linearGradient id="paint0_linear_457_387" x1="182.448" y1="183.203" x2="189.835" y2="179.887" gradientUnits="userSpaceOnUse">
<stop stop-color="#61FF00"/>
<stop offset="1" stop-color="#969696"/>
</linearGradient>
</defs>
</svg>
