<svg width="214" height="236" viewBox="0 0 214 236" fill="none" xmlns="http://www.w3.org/2000/svg">
<path d="M132.684 15.4856C158.938 16.5146 168.816 23.9228 179.756 46.6186" stroke="#969696" stroke-width="2" stroke-linecap="round"/>
<path d="M130.733 26.8977C153.414 25.5632 161.228 31.6063 168.398 51.8083" stroke="#969696" stroke-width="2" stroke-linecap="round"/>
<path d="M130.732 38.1968C147.199 36.7184 152.707 41.024 157.389 55.8274" stroke="#969696" stroke-width="2" stroke-linecap="round"/>
<line x1="31.5" y1="225.385" x2="31.5" y2="42.3848" stroke="#8F00FF" stroke-width="8" stroke-linecap="round"/>
<path d="M125.743 95.7874C154.104 115.668 199.307 49.0007 202.56 95.7874" stroke="#8F00FF" stroke-width="8" stroke-linecap="round"/>
<path d="M125.812 95.8477C82.5592 73.0244 87.4373 -9.25963 40.6077 5.83625C32.8028 9.05907 30.669 16.5552 31.502 42.0928" stroke="#8F00FF" stroke-width="8" stroke-linecap="round"/>
<path d="M202.559 96.7476C202.857 137.813 137.664 198.061 109.566 228.272" stroke="#8F00FF" stroke-width="8" stroke-linecap="round"/>
<path fill-rule="evenodd" clip-rule="evenodd" d="M65.3485 224.581C67.851 225.761 71.5007 226.181 75.0779 226.181C76.7039 226.181 77.6706 226.619 77.8319 227.942C77.9933 229.264 77.4816 230.839 76.0535 230.986C71.1755 230.986 66.6273 230.587 62.9919 228.873C59.3488 227.155 56.523 224.337 54.3346 220.603C50.0365 213.27 47.9582 201.973 46.973 186.887C45.7879 168.743 46.1663 144.399 46.6462 113.524C46.9661 92.9447 47.4599 69.4804 47.437 42.9997C47.4366 42.5678 47.4365 42.3975 47.436 41.7953C47.435 40.7299 48.9378 40.5753 49.9084 40.576C50.8136 40.5767 51.8482 40.8482 52.315 41.4978C52.3155 42.1 52.3158 42.511 52.3163 43.0034C52.3393 69.7561 52.1678 93.3214 51.8466 113.912C51.368 144.581 50.993 168.614 52.168 186.604C53.1521 201.672 55.2111 212.003 58.9083 218.311C60.7175 221.398 62.8538 223.404 65.3485 224.581Z" fill="#969696"/>
<path fill-rule="evenodd" clip-rule="evenodd" d="M56.8672 36.9662C58.4933 37.587 57.8769 48.1448 58.3187 57.5354C58.7763 67.2588 59.0305 79.5296 59.1866 94.0317C59.3409 108.364 59.399 124.811 59.4636 143.09C59.53 161.858 59.6031 182.556 59.7942 204.877C59.8055 206.204 59.6577 207.872 61.0945 207.861C62.5313 207.851 65.0087 206.166 64.9973 204.839C64.8069 182.593 64.7335 161.883 64.667 143.093C64.6021 124.78 64.5437 108.291 64.3897 93.9839C64.2334 79.4687 63.9785 67.1329 63.5171 57.3268C63.058 47.5686 62.443 40.0511 61.42 35.4852L61.2768 35.2001L61.0501 34.8508C59.8123 32.9435 57.6848 31.9477 55.6312 31.7165C53.5848 31.4861 51.3018 31.9754 49.5929 33.4034C48.0083 34.7275 47.5688 36.8627 47.4363 38.1877C47.3332 39.2186 47.4188 40.0183 47.4363 40.8904C47.4419 41.1722 47.4363 41.8835 47.4363 42.0916C47.4363 43.5932 48.2759 44.1938 49.7127 44.1938C51.1496 44.1938 52.3144 44.4941 52.3144 41.7913C52.3144 41.4086 52.3214 40.9401 52.3144 40.5901C52.2984 39.7971 52.2398 39.2331 52.3144 38.488C52.4257 37.3748 53.0428 37.0007 53.0841 36.9662C53.5078 36.6121 53.9404 36.4861 55.0016 36.4861C55.8916 36.4861 56.542 36.6861 56.8672 36.9662Z" fill="#969696"/>
<path fill-rule="evenodd" clip-rule="evenodd" d="M123.534 182.035C121.077 182.432 100.769 182.035 96.867 182.035C95.4449 181.972 96.2165 182.636 95.8914 183.236C95.8913 183.837 96.4206 184.374 97.8427 184.438C102.536 184.647 122.241 185.014 125.81 184.438C129.387 183.86 132.304 182.422 134.386 181.121C138.476 178.567 140.264 174.597 140.873 169.28C141.606 162.886 140.634 154.291 139.401 143.391C138.58 136.125 137.515 127.84 136.889 118.494C136.879 118.342 136.875 118.281 136.861 118.069C136.836 117.693 135.339 117.626 134.375 117.619C133.476 117.612 132.455 117.699 132.007 117.925C132.021 118.138 132.031 118.283 132.043 118.456C132.675 127.898 133.422 136.216 134.245 143.486C135.472 154.314 136.432 162.799 135.706 169.139C135.097 174.449 133.305 178.079 129.787 180.276C128.065 181.351 125.983 181.64 123.534 182.035Z" fill="#969696"/>
<path fill-rule="evenodd" clip-rule="evenodd" d="M127.455 116.148C125.835 116.371 126.529 120.224 126.157 123.648C125.772 127.194 125.609 131.669 125.561 136.959C125.513 142.186 125.577 148.186 125.647 154.853C125.72 161.699 125.801 169.249 125.775 177.39C125.774 177.874 124.609 178.261 123.173 178.253C121.738 178.246 120.576 177.848 120.577 177.364C120.602 169.25 120.522 161.695 120.45 154.842C120.379 148.162 120.315 142.147 120.363 136.929C120.411 131.634 120.574 127.135 120.963 123.559C121.349 120.001 121.908 117.26 122.896 115.597L123.037 115.494L123.261 115.367C124.483 114.674 126.601 114.316 128.651 114.236C130.693 114.157 132.977 114.341 134.695 114.866C136.288 115.353 136.743 116.133 136.885 116.617C136.996 116.993 136.916 117.285 136.905 117.603C136.901 117.705 136.912 117.965 136.914 118.041C136.925 118.589 136.091 118.806 134.655 118.802C133.22 118.799 132.059 118.905 132.039 117.919C132.036 117.78 132.025 117.609 132.03 117.481C132.04 117.192 132.094 116.986 132.014 116.714C131.895 116.308 131.276 116.17 131.234 116.158C130.808 116.027 130.375 115.98 129.315 115.978C128.426 115.976 127.778 116.047 127.455 116.148Z" fill="#969696"/>
<path fill-rule="evenodd" clip-rule="evenodd" d="M98.6975 187.979C96.2265 188.514 78.0803 188.563 74.1047 188.342C72.6807 188.263 72.6167 188.925 72.4784 189.543C72.3401 190.161 73.3307 191.566 74.7547 191.645C79.633 191.645 97.8324 191.822 101.422 191.045C105.019 190.266 107.478 187.928 109.593 186.195C113.748 182.791 115.626 177.514 116.352 170.456C117.225 161.966 116.438 150.562 115.439 136.097C114.773 126.456 113.885 115.463 113.461 103.061C113.454 102.858 113.452 102.779 113.442 102.496C113.425 101.997 111.926 101.914 110.96 101.908C110.059 101.902 109.034 102.021 108.58 102.322C108.59 102.604 108.597 102.797 108.605 103.028C109.033 115.557 109.602 126.596 110.269 136.242C111.263 150.61 112.042 161.869 111.176 170.286C110.451 177.336 108.576 182.16 105.002 185.088C103.253 186.521 101.161 187.446 98.6975 187.979Z" fill="#969696"/>
<path fill-rule="evenodd" clip-rule="evenodd" d="M103.997 100.13C102.371 100.437 102.987 105.657 102.546 110.299C102.088 115.106 101.834 121.172 101.678 128.341C101.523 135.426 101.465 143.557 101.401 152.593C101.334 161.871 101.261 172.103 101.07 183.137C101.059 183.793 99.8848 184.321 98.448 184.316C97.0112 184.31 95.8556 183.774 95.867 183.119C96.0574 172.121 96.1307 161.883 96.1973 152.594C96.2622 143.541 96.3206 135.39 96.4746 128.317C96.6308 121.142 96.8857 115.043 97.3471 110.196C97.8063 105.372 98.4212 101.656 99.4443 99.3984L99.5874 99.2574L99.8142 99.0847C101.052 98.1419 103.179 97.6496 105.233 97.5353C107.279 97.4214 109.562 97.6633 111.271 98.3692C112.856 99.0238 113.295 100.079 113.428 100.734C113.531 101.244 113.445 101.639 113.428 102.07C113.422 102.21 113.428 102.561 113.428 102.664C113.428 103.407 112.588 103.703 111.152 103.703C109.715 103.703 108.55 103.852 108.55 102.516C108.55 102.327 108.543 102.095 108.55 101.922C108.566 101.53 108.624 101.251 108.55 100.883C108.439 100.332 107.821 100.148 107.78 100.13C107.356 99.9555 106.924 99.8931 105.863 99.8931C104.973 99.8931 104.322 99.992 103.997 100.13Z" fill="#969696"/>
<path fill-rule="evenodd" clip-rule="evenodd" d="M72.264 203.904C69.7631 204.761 66.6483 205.097 62.6618 204.796C61.6037 204.716 60.6228 204.576 60.1205 205.159C60.0008 205.298 59.7953 205.76 59.7953 206.06C59.7953 206.361 59.8083 206.281 59.7951 206.36C59.7953 207.862 60.654 208.173 62.0819 208.281C66.7946 208.637 70.9907 208.275 74.6238 207.029C78.2645 205.78 81.0872 203.731 83.2718 201.015C87.5625 195.68 89.6306 187.46 90.6025 176.481C91.7716 163.276 91.3722 145.559 90.8657 123.088C90.5281 108.111 90.0141 91.0334 90.014 71.761C90.014 71.4467 90.014 71.3227 90.014 70.8844C90.014 70.109 88.5115 69.9958 87.5412 69.9958C86.6361 69.9958 85.602 70.1928 85.1359 70.6653C85.1359 71.1036 85.1359 71.4027 85.1359 71.761C85.136 91.2313 85.3279 108.382 85.6669 123.368C86.1719 145.689 86.5676 163.18 85.4085 176.272C84.4377 187.238 82.3881 194.755 78.6973 199.344C76.8912 201.59 74.7571 203.049 72.264 203.904Z" fill="#969696"/>
<path fill-rule="evenodd" clip-rule="evenodd" d="M80.5815 67.3636C78.9555 67.8167 79.5719 75.5212 79.13 82.3741C78.6725 89.4698 78.4182 98.4245 78.2621 109.007C78.1078 119.467 78.0497 131.469 77.9851 144.808C77.9188 158.504 77.8456 173.608 77.6545 189.898C77.6432 190.866 76.4692 191.644 75.0324 191.637C73.5956 191.629 72.4401 190.838 72.4514 189.87C72.6418 173.636 72.7152 158.522 72.7818 144.81C72.8466 131.446 72.905 119.413 73.0591 108.973C73.2153 98.38 73.4702 89.3779 73.9316 82.2219C74.3908 75.1007 75.0057 69.6148 76.0287 66.2828L76.1719 66.0748L76.3987 65.8198C77.6365 64.428 79.7639 63.7013 81.8175 63.5326C83.8639 63.3645 86.1469 63.7215 87.8558 64.7636C89.4405 65.7299 89.8799 67.288 90.0124 68.255C90.1156 69.0073 90.0299 69.5909 90.0124 70.2273C90.0068 70.4329 90.0124 70.952 90.0124 71.1039C90.0124 72.1997 89.1729 72.638 87.736 72.638C86.2992 72.638 85.1344 72.8571 85.1344 70.8848C85.1344 70.6054 85.1273 70.2636 85.1344 70.0082C85.1503 69.4295 85.2089 69.0179 85.1344 68.4741C85.023 67.6618 84.406 67.3888 84.3646 67.3636C83.9409 67.1052 83.5083 67.0132 82.4472 67.0132C81.5571 67.0132 80.9067 67.1592 80.5815 67.3636Z" fill="#969696"/>
<path d="M74.104 228.582C90.6895 228.582 93.9415 228.282 109.226 228.582" stroke="#8F00FF" stroke-width="8" stroke-linecap="round"/>
<path d="M67.6001 225.58C72.153 226.481 84.836 226.181 84.836 226.181V230.971C80.8401 230.98 77.2042 231.139 74.1042 230.986C72.4106 230.902 70.8152 230.703 69.5513 230.385L67.6001 225.58Z" fill="url(#paint0_linear_457_368)"/>
<defs>
<linearGradient id="paint0_linear_457_368" x1="71.856" y1="228.153" x2="77.4623" y2="233.217" gradientUnits="userSpaceOnUse">
<stop stop-color="#969696"/>
<stop offset="1" stop-color="#8F00FF"/>
</linearGradient>
</defs>
</svg>
