<svg width="338" height="585" viewBox="0 0 338 585" fill="none" xmlns="http://www.w3.org/2000/svg">
<g clip-path="url(#clip0_457_576)">
<rect width="338" height="585" fill="#00FF76"/>
<g filter="url(#filter0_dddddd_457_576)">
<path d="M175.764 123.973C175.75 121.764 173.948 119.985 171.739 120C169.529 120.015 167.75 121.818 167.764 124.027L175.764 123.973ZM172.699 272.676L195.541 232.522L149.354 232.831L172.699 272.676ZM167.764 124.027L168.472 236.703L176.472 236.65L175.764 123.973L167.764 124.027Z" fill="#FF0088"/>
</g>
<g filter="url(#filter1_dddddd_457_576)">
<path d="M173.297 273.867L118.949 330.202" stroke="#FF0088" stroke-width="8" stroke-linecap="round"/>
</g>
<g filter="url(#filter2_dddddd_457_576)">
<path d="M173.297 274.27L227.645 217.934" stroke="#FF0088" stroke-width="8" stroke-linecap="round"/>
</g>
<g filter="url(#filter3_dddddd_457_576)">
<path d="M173.297 274.27L118.949 217.934" stroke="#FF0088" stroke-width="8" stroke-linecap="round"/>
</g>
<g filter="url(#filter4_dddddd_457_576)">
<path d="M173.297 273.867L227.645 330.202" stroke="#FF0088" stroke-width="8" stroke-linecap="round"/>
</g>
<g filter="url(#filter5_dddddd_457_576)">
<path d="M177.297 423.088C177.297 425.297 175.506 427.088 173.297 427.088C171.088 427.088 169.297 425.297 169.297 423.088H177.297ZM173.297 274.409L196.391 314.409H150.203L173.297 274.409ZM169.297 423.088V310.409H177.297V423.088H169.297Z" fill="#FF0088"/>
</g>
<g filter="url(#filter6_dddddd_457_576)">
<path d="M42 269.867C39.7909 269.867 38 271.658 38 273.867C38 276.076 39.7909 277.867 42 277.867V269.867ZM165.585 273.867L125.585 250.773V296.961L165.585 273.867ZM42 277.867H129.585V269.867H42V277.867Z" fill="#FF0088"/>
</g>
<g filter="url(#filter7_dddddd_457_576)">
<path d="M304 277.867C306.209 277.867 308 276.076 308 273.867C308 271.658 306.209 269.867 304 269.867V277.867ZM180.415 273.867L220.415 296.961V250.773L180.415 273.867ZM304 269.867H216.415V277.867H304V269.867Z" fill="#FF0088"/>
</g>
<g filter="url(#filter8_dddddd_457_576)">
<rect x="142.646" y="253.756" width="61.2981" height="40.2245" rx="6" fill="black"/>
</g>
<g filter="url(#filter9_dddddd_457_576)">
<path d="M162.799 266.879C167.499 272.133 170.138 281.945 167.923 284.319C165.707 286.692 158.137 282.162 153.438 276.908C148.738 271.654 146.725 265.47 148.941 263.097C151.157 260.723 158.1 261.625 162.799 266.879Z" fill="#FF0088"/>
</g>
<g filter="url(#filter10_dddddd_457_576)">
<path d="M184.312 266.682C179.636 271.962 177.041 281.787 179.267 284.149C181.493 286.511 189.043 281.94 193.718 276.66C198.394 271.381 200.38 265.187 198.153 262.825C195.927 260.464 188.988 261.403 184.312 266.682Z" fill="#FF0088"/>
</g>
<path d="M166.138 55.616C165.093 55.616 164.29 55.336 163.73 54.776C163.207 54.216 162.946 53.488 162.946 52.592C162.946 51.6587 163.189 50.0533 163.674 47.776L164.962 41C162.237 43.0533 159.717 44.08 157.402 44.08C155.722 44.08 154.434 43.632 153.538 42.736C153.463 43.1093 153.389 43.4827 153.314 43.856C153.277 44.2293 153.221 44.6027 153.146 44.976C152.997 46.208 152.81 47.4587 152.586 48.728C151.914 53.1707 150.906 55.392 149.562 55.392C149.002 55.392 148.666 55 148.554 54.216C148.89 51.304 149.711 46.7867 151.018 40.664C152.362 34.504 153.314 30.3413 153.874 28.176C153.986 27.8027 154.191 27.4853 154.49 27.224C154.826 26.9627 155.162 26.832 155.498 26.832C155.946 26.832 156.263 27.1493 156.45 27.784C156.45 28.3813 156.114 30.3227 155.442 33.608C154.919 36.1093 154.509 38.256 154.21 40.048C155.031 40.9813 156.319 41.448 158.074 41.448C159.791 41.448 161.677 40.5893 163.73 38.872C164.365 38.312 164.962 37.7147 165.522 37.08L166.362 33.328C166.997 30.6027 167.687 28.7173 168.434 27.672C168.807 27.0747 169.311 26.776 169.946 26.776C170.581 26.776 170.898 27.1307 170.898 27.84V28.12C168.845 35.176 167.557 40.2907 167.034 43.464C166.549 46.1893 166.231 48.336 166.082 49.904C165.97 51.136 165.895 51.808 165.858 51.92L165.802 52.648C165.802 52.872 165.895 52.984 166.082 52.984C166.231 52.984 166.362 52.928 166.474 52.816C166.661 52.704 166.959 52.648 167.37 52.648C168.005 52.648 168.322 52.984 168.322 53.656C168.322 54.9627 167.594 55.616 166.138 55.616ZM190.136 55.112C189.278 55.112 188.475 54.664 187.728 53.768C187.019 52.8347 186.664 51.8453 186.664 50.8C186.664 48.4853 187.28 44.5653 188.512 39.04C187.579 41.056 186.366 43.128 184.872 45.256C183.416 47.3467 181.979 49.1947 180.56 50.8C179.142 52.4053 178.096 53.4507 177.424 53.936C176.491 54.6453 175.464 55 174.344 55C172.216 55 171.152 53.656 171.152 50.968C171.152 48.3547 172.142 45.1067 174.12 41.224C176.099 37.304 178.451 33.9067 181.176 31.032C183.902 28.1947 186.104 26.776 187.784 26.776C189.502 26.776 190.472 27.5227 190.696 29.016C190.808 29.464 190.864 29.9493 190.864 30.472C191.051 30.36 191.256 30.304 191.48 30.304C192.339 30.304 192.768 30.7147 192.768 31.536V31.76L192.096 34.224C191.574 36.0907 191.032 38.8533 190.472 42.512C189.912 46.1707 189.632 49.2133 189.632 51.64L190.192 51.976C191.088 52.536 191.536 53.096 191.536 53.656C191.536 54.0293 191.406 54.3653 191.144 54.664C190.883 54.9627 190.547 55.112 190.136 55.112ZM174.792 52.088C175.203 52.088 175.539 51.9573 175.8 51.696C179.608 48.448 182.987 43.9493 185.936 38.2C187.616 35.0267 188.531 33.1413 188.68 32.544C188.755 31.872 188.792 31.4613 188.792 31.312C188.792 30.9387 188.699 30.6027 188.512 30.304C188.326 30.0053 188.083 29.856 187.784 29.856C187.411 29.856 186.926 30.024 186.328 30.36C184.835 31.144 183.062 32.8053 181.008 35.344C178.992 37.8827 177.331 40.5707 176.024 43.408C174.643 46.2827 173.952 48.84 173.952 51.08C173.952 51.752 174.232 52.088 174.792 52.088ZM197.821 77.96C196.029 77.96 194.517 77.344 193.285 76.112C192.09 74.9173 191.493 73.3867 191.493 71.52C191.493 69.8027 191.885 68.16 192.669 66.592C193.49 65.0613 194.666 63.4747 196.197 61.832C197.503 60.4133 199.071 58.9387 200.901 57.408L206.165 53.04C206.426 52.1067 206.65 51.1173 206.837 50.072C207.247 48.4293 207.565 47.0853 207.789 46.04C206.37 50.4827 204.541 53.3947 202.301 54.776C201.591 55.224 200.901 55.448 200.229 55.448C198.922 55.448 197.839 54.9253 196.981 53.88C196.159 52.8347 195.749 51.4533 195.749 49.736C195.749 46.488 196.365 43.0907 197.597 39.544C198.829 35.96 200.471 32.8987 202.525 30.36C204.653 27.784 206.967 26.496 209.469 26.496C210.663 26.496 211.802 26.7947 212.885 27.392C213.109 27.28 213.351 27.224 213.613 27.224C214.247 27.224 214.565 27.5227 214.565 28.12C214.565 28.7547 214.453 29.352 214.229 29.912C213.183 32.6373 211.429 39.7307 208.965 51.192C209.562 50.8187 210.253 50.2773 211.037 49.568C211.223 49.4187 211.559 49.1387 212.045 48.728C212.53 48.28 212.922 47.9627 213.221 47.776C213.519 47.5893 213.781 47.496 214.005 47.496C214.639 47.496 214.957 47.8133 214.957 48.448C214.957 48.9333 214.826 49.3067 214.565 49.568C212.25 51.3227 210.271 52.7787 208.629 53.936L207.733 59.2L207.453 60.6C207.005 62.952 206.613 64.912 206.277 66.48C205.941 68.0853 205.53 69.616 205.045 71.072C204.335 73.1253 203.365 74.7867 202.133 76.056C200.938 77.3253 199.501 77.96 197.821 77.96ZM200.397 52.76C201.143 52.76 202.002 52.256 202.973 51.248C203.943 50.2027 204.877 48.8587 205.773 47.216C206.706 45.536 207.453 43.7813 208.013 41.952C208.871 39.3013 209.599 36.856 210.197 34.616C210.57 33.3093 211.037 31.592 211.597 29.464C211.074 28.9787 210.365 28.736 209.469 28.736C207.863 28.736 206.183 29.8 204.429 31.928C202.711 34.056 201.255 36.744 200.061 39.992C198.903 43.2027 198.325 46.1333 198.325 48.784C198.325 51.4347 199.015 52.76 200.397 52.76ZM197.317 75.16C198.101 75.16 198.81 74.9733 199.445 74.6C200.079 74.264 200.677 73.6667 201.237 72.808C201.797 71.912 202.357 70.6613 202.917 69.056C203.477 67.4507 203.925 65.808 204.261 64.128C204.559 62.8587 204.802 61.7013 204.989 60.656L205.213 59.424C205.25 59.1253 205.306 58.808 205.381 58.472C205.455 58.136 205.511 57.7813 205.549 57.408L205.717 56.064C202.058 59.088 199.221 61.832 197.205 64.296C195.226 66.76 194.237 68.9627 194.237 70.904C194.237 72.9573 194.685 74.264 195.581 74.824C195.954 75.048 196.533 75.16 197.317 75.16ZM222.964 55.56C221.769 55.56 220.836 55.3733 220.164 55C219.492 54.5893 218.95 53.9733 218.54 53.152C217.756 51.696 217.364 49.9413 217.364 47.888C217.364 44.304 217.905 40.9067 218.988 37.696C220.07 34.448 221.545 31.7227 223.412 29.52C225.204 27.4293 227.164 26.384 229.292 26.384C230.412 26.384 231.289 26.8507 231.924 27.784C232.596 28.68 232.932 29.7813 232.932 31.088C232.932 33.3653 232.334 35.344 231.14 37.024C229.982 38.704 228.414 40.104 226.436 41.224C224.718 42.232 222.628 43.24 220.164 44.248L220.052 48.28C220.052 51.416 221.004 52.984 222.908 52.984C223.766 52.984 224.662 52.7787 225.596 52.368C226.529 51.92 227.5 51.3973 228.508 50.8C228.993 50.5387 229.385 50.408 229.684 50.408C230.318 50.408 230.636 50.744 230.636 51.416C230.636 51.9013 230.169 52.48 229.236 53.152C228.34 53.824 227.276 54.4027 226.044 54.888C224.812 55.336 223.785 55.56 222.964 55.56ZM220.612 41.56C220.948 41.3733 221.694 40.9813 222.852 40.384C223.374 40.16 224.121 39.7867 225.092 39.264C226.846 38.2933 228.153 37.1733 229.012 35.904C229.908 34.6347 230.356 33.0667 230.356 31.2C230.356 29.744 229.74 29.016 228.508 29.016C227.425 29.016 226.156 30.0053 224.7 31.984C223.169 33.9627 221.937 36.5573 221.004 39.768C220.742 40.664 220.612 41.2613 220.612 41.56ZM235.464 55.728C234.531 55.728 233.672 55.4293 232.888 54.832C232.104 54.2347 231.469 53.4507 230.984 52.48C230.536 51.5093 230.312 50.5387 230.312 49.568C230.424 49.1947 230.629 48.8773 230.928 48.616C231.264 48.3547 231.581 48.224 231.88 48.224C232.179 48.224 232.403 48.3547 232.552 48.616C232.739 48.9147 232.963 49.568 233.224 50.576C233.597 52.1813 234.363 52.984 235.52 52.984C237.013 52.984 238.395 52.2187 239.664 50.688C240.933 49.1573 242.389 46.9733 244.032 44.136L244.872 42.736C246.179 40.608 247.019 39.3573 247.392 38.984C246.944 37.416 246.589 36.24 246.328 35.456C245.021 31.0133 243.528 28.792 241.848 28.792C240.579 28.792 239.496 29.408 238.6 30.64C238.488 30.8267 238.245 30.92 237.872 30.92C237.2 30.92 236.864 30.6027 236.864 29.968C236.864 29.072 237.443 28.2507 238.6 27.504C239.757 26.7573 240.896 26.384 242.016 26.384C243.136 26.384 244.032 26.6453 244.704 27.168C245.376 27.6533 245.88 28.288 246.216 29.072C246.589 29.856 247.019 31.0693 247.504 32.712C247.541 32.8987 247.691 33.4213 247.952 34.28L249.52 39.096C250.416 34.3547 250.995 31.536 251.256 30.64C251.592 29.2587 251.779 28.2693 251.816 27.672C251.928 27.2987 252.133 26.9813 252.432 26.72C252.768 26.4587 253.104 26.328 253.44 26.328C253.888 26.328 254.205 26.6453 254.392 27.28C254.392 28.064 254.28 28.792 254.056 29.464C253.944 29.8 253.683 30.9947 253.272 33.048C253.048 34.5413 252.787 35.9227 252.488 37.192C255.437 33.1973 258.237 30.2293 260.888 28.288C262.419 27.168 263.632 26.608 264.528 26.608C265.088 26.608 265.648 26.832 266.208 27.28C266.768 27.728 267.235 28.2507 267.608 28.848C267.981 29.4453 268.168 29.968 268.168 30.416C268.168 31.0507 268.019 31.536 267.72 31.872C267.459 32.208 267.123 32.376 266.712 32.376C266.376 32.376 266.096 32.2453 265.872 31.984C265.648 31.6853 265.424 31.2933 265.2 30.808C265.125 30.6587 265.013 30.4347 264.864 30.136C264.752 29.8373 264.621 29.6133 264.472 29.464C264.36 29.3147 264.229 29.24 264.08 29.24C263.819 29.24 263.371 29.4267 262.736 29.8C262.139 30.136 260.944 31.2 259.152 32.992C257.397 34.784 256.035 36.24 255.064 37.36C255.176 40.9813 255.717 44.2667 256.688 47.216C257.397 49.4187 258.424 51.0427 259.768 52.088C260.328 52.6107 261.037 52.872 261.896 52.872C263.427 52.872 265.032 51.7707 266.712 49.568C267.011 49.2693 267.384 49.12 267.832 49.12C268.504 49.12 268.84 49.4187 268.84 50.016C268.84 50.6507 268.467 51.416 267.72 52.312C266.973 53.1707 266.077 53.9173 265.032 54.552C263.987 55.1867 263.072 55.504 262.288 55.504C260.123 55.504 258.312 54.496 256.856 52.48C254.952 49.8293 253.627 45.7787 252.88 40.328C252.357 41.112 251.984 41.7467 251.76 42.232V42.288C251.685 42.736 251.536 43.0533 251.312 43.24C250.453 47.7947 249.8 51.3787 249.352 53.992C249.277 54.44 249.072 54.8133 248.736 55.112C248.437 55.4107 248.12 55.56 247.784 55.56C247.224 55.56 246.888 55.168 246.776 54.384L248.848 42.904C248.699 42.7173 248.605 42.512 248.568 42.288L248.288 41.616C247.616 42.5493 246.832 43.744 245.936 45.2C245.301 46.2453 244.536 47.4213 243.64 48.728C241.699 51.4533 239.739 53.5067 237.76 54.888C236.976 55.448 236.211 55.728 235.464 55.728ZM271.835 77.96C270.043 77.96 268.531 77.344 267.299 76.112C266.104 74.9173 265.507 73.3867 265.507 71.52C265.507 69.8027 265.899 68.16 266.683 66.592C267.504 65.0613 268.68 63.4747 270.211 61.832C271.517 60.4133 273.085 58.9387 274.915 57.408L280.179 53.04C280.44 52.1067 280.664 51.1173 280.851 50.072C281.261 48.4293 281.579 47.0853 281.803 46.04C280.384 50.4827 278.555 53.3947 276.315 54.776C275.605 55.224 274.915 55.448 274.243 55.448C272.936 55.448 271.853 54.9253 270.995 53.88C270.173 52.8347 269.763 51.4533 269.763 49.736C269.763 46.488 270.379 43.0907 271.611 39.544C272.843 35.96 274.485 32.8987 276.539 30.36C278.667 27.784 280.981 26.496 283.483 26.496C284.677 26.496 285.816 26.7947 286.899 27.392C287.123 27.28 287.365 27.224 287.627 27.224C288.261 27.224 288.579 27.5227 288.579 28.12C288.579 28.7547 288.467 29.352 288.243 29.912C287.197 32.6373 285.443 39.7307 282.979 51.192C283.576 50.8187 284.267 50.2773 285.051 49.568C285.237 49.4187 285.573 49.1387 286.059 48.728C286.544 48.28 286.936 47.9627 287.235 47.776C287.533 47.5893 287.795 47.496 288.019 47.496C288.653 47.496 288.971 47.8133 288.971 48.448C288.971 48.9333 288.84 49.3067 288.579 49.568C286.264 51.3227 284.285 52.7787 282.643 53.936L281.747 59.2L281.467 60.6C281.019 62.952 280.627 64.912 280.291 66.48C279.955 68.0853 279.544 69.616 279.059 71.072C278.349 73.1253 277.379 74.7867 276.147 76.056C274.952 77.3253 273.515 77.96 271.835 77.96ZM274.411 52.76C275.157 52.76 276.016 52.256 276.987 51.248C277.957 50.2027 278.891 48.8587 279.787 47.216C280.72 45.536 281.467 43.7813 282.027 41.952C282.885 39.3013 283.613 36.856 284.211 34.616C284.584 33.3093 285.051 31.592 285.611 29.464C285.088 28.9787 284.379 28.736 283.483 28.736C281.877 28.736 280.197 29.8 278.443 31.928C276.725 34.056 275.269 36.744 274.075 39.992C272.917 43.2027 272.339 46.1333 272.339 48.784C272.339 51.4347 273.029 52.76 274.411 52.76ZM271.331 75.16C272.115 75.16 272.824 74.9733 273.459 74.6C274.093 74.264 274.691 73.6667 275.251 72.808C275.811 71.912 276.371 70.6613 276.931 69.056C277.491 67.4507 277.939 65.808 278.275 64.128C278.573 62.8587 278.816 61.7013 279.003 60.656L279.227 59.424C279.264 59.1253 279.32 58.808 279.395 58.472C279.469 58.136 279.525 57.7813 279.563 57.408L279.731 56.064C276.072 59.088 273.235 61.832 271.219 64.296C269.24 66.76 268.251 68.9627 268.251 70.904C268.251 72.9573 268.699 74.264 269.595 74.824C269.968 75.048 270.547 75.16 271.331 75.16ZM309.41 55.112C308.551 55.112 307.748 54.664 307.002 53.768C306.292 52.8347 305.938 51.8453 305.938 50.8C305.938 48.4853 306.554 44.5653 307.786 39.04C306.852 41.056 305.639 43.128 304.146 45.256C302.69 47.3467 301.252 49.1947 299.834 50.8C298.415 52.4053 297.37 53.4507 296.698 53.936C295.764 54.6453 294.738 55 293.618 55C291.49 55 290.426 53.656 290.426 50.968C290.426 48.3547 291.415 45.1067 293.394 41.224C295.372 37.304 297.724 33.9067 300.45 31.032C303.175 28.1947 305.378 26.776 307.058 26.776C308.775 26.776 309.746 27.5227 309.97 29.016C310.082 29.464 310.138 29.9493 310.138 30.472C310.324 30.36 310.53 30.304 310.754 30.304C311.612 30.304 312.042 30.7147 312.042 31.536V31.76L311.37 34.224C310.847 36.0907 310.306 38.8533 309.746 42.512C309.186 46.1707 308.906 49.2133 308.906 51.64L309.466 51.976C310.362 52.536 310.81 53.096 310.81 53.656C310.81 54.0293 310.679 54.3653 310.418 54.664C310.156 54.9627 309.82 55.112 309.41 55.112ZM294.066 52.088C294.476 52.088 294.812 51.9573 295.074 51.696C298.882 48.448 302.26 43.9493 305.21 38.2C306.89 35.0267 307.804 33.1413 307.954 32.544C308.028 31.872 308.066 31.4613 308.066 31.312C308.066 30.9387 307.972 30.6027 307.786 30.304C307.599 30.0053 307.356 29.856 307.058 29.856C306.684 29.856 306.199 30.024 305.602 30.36C304.108 31.144 302.335 32.8053 300.282 35.344C298.266 37.8827 296.604 40.5707 295.298 43.408C293.916 46.2827 293.226 48.84 293.226 51.08C293.226 51.752 293.506 52.088 294.066 52.088Z" fill="#F70786"/>
<path d="M-168.011 506.327C-82.716 466.716 -88.8084 466.716 -137.548 506.327C-186.288 545.939 -192.38 433.738 -107.086 506.327C-21.7913 464.848 -27.8838 464.848 -76.6235 506.327C-125.363 547.807 -131.456 414.773 -46.1612 506.327C39.1334 454.01 33.0409 454.01 -15.6988 506.327C-64.4386 558.644 -70.531 401.04 14.7635 506.327C100.058 446.163 93.9656 446.163 45.2259 506.327C-3.51388 566.492 -9.60634 391.23 75.6882 506.327C160.983 440.558 154.89 440.558 106.151 506.327C57.4108 572.097 51.3184 414.119 136.613 506.327C221.908 453.637 215.815 453.637 167.075 506.327C118.336 559.018 112.243 422.62 197.538 506.327C282.832 458.495 276.74 458.495 228 506.327C179.26 554.16 173.168 421.312 258.462 506.327C343.757 457.747 337.664 457.747 288.925 506.327C240.185 554.907 234.092 399.732 319.387 506.327C404.682 445.416 398.589 445.416 349.849 506.327C301.11 567.239 295.017 436.354 380.312 506.327C465.606 466.342 459.514 466.342 410.774 506.327C362.034 546.312 355.942 403.656 441.236 506.327C526.531 447.658 520.439 447.658 471.699 506.327C422.959 564.997 416.867 400.386 502.161 506.327C587.456 445.789 581.363 445.789 532.623 506.327C483.884 566.865 477.791 401.04 563.086 506.327C648.38 446.163 642.288 446.163 593.548 506.327" stroke="#FF0088" stroke-width="8"/>
</g>
<defs>
<filter id="filter0_dddddd_457_576" x="149.354" y="120" width="46.1875" height="152.676" filterUnits="userSpaceOnUse" color-interpolation-filters="sRGB">
<feFlood flood-opacity="0" result="BackgroundImageFix"/>
<feColorMatrix in="SourceAlpha" type="matrix" values="0 0 0 0 0 0 0 0 0 0 0 0 0 0 0 0 0 0 127 0" result="hardAlpha"/>
<feOffset/>
<feColorMatrix type="matrix" values="0 0 0 0 1 0 0 0 0 1 0 0 0 0 1 0 0 0 1 0"/>
<feBlend mode="normal" in2="BackgroundImageFix" result="effect1_dropShadow_457_576"/>
<feColorMatrix in="SourceAlpha" type="matrix" values="0 0 0 0 0 0 0 0 0 0 0 0 0 0 0 0 0 0 127 0" result="hardAlpha"/>
<feOffset/>
<feColorMatrix type="matrix" values="0 0 0 0 1 0 0 0 0 1 0 0 0 0 1 0 0 0 1 0"/>
<feBlend mode="normal" in2="effect1_dropShadow_457_576" result="effect2_dropShadow_457_576"/>
<feColorMatrix in="SourceAlpha" type="matrix" values="0 0 0 0 0 0 0 0 0 0 0 0 0 0 0 0 0 0 127 0" result="hardAlpha"/>
<feOffset/>
<feColorMatrix type="matrix" values="0 0 0 0 1 0 0 0 0 1 0 0 0 0 1 0 0 0 1 0"/>
<feBlend mode="normal" in2="effect2_dropShadow_457_576" result="effect3_dropShadow_457_576"/>
<feColorMatrix in="SourceAlpha" type="matrix" values="0 0 0 0 0 0 0 0 0 0 0 0 0 0 0 0 0 0 127 0" result="hardAlpha"/>
<feOffset/>
<feColorMatrix type="matrix" values="0 0 0 0 1 0 0 0 0 1 0 0 0 0 1 0 0 0 1 0"/>
<feBlend mode="normal" in2="effect3_dropShadow_457_576" result="effect4_dropShadow_457_576"/>
<feColorMatrix in="SourceAlpha" type="matrix" values="0 0 0 0 0 0 0 0 0 0 0 0 0 0 0 0 0 0 127 0" result="hardAlpha"/>
<feOffset/>
<feColorMatrix type="matrix" values="0 0 0 0 1 0 0 0 0 1 0 0 0 0 1 0 0 0 1 0"/>
<feBlend mode="normal" in2="effect4_dropShadow_457_576" result="effect5_dropShadow_457_576"/>
<feColorMatrix in="SourceAlpha" type="matrix" values="0 0 0 0 0 0 0 0 0 0 0 0 0 0 0 0 0 0 127 0" result="hardAlpha"/>
<feOffset/>
<feColorMatrix type="matrix" values="0 0 0 0 1 0 0 0 0 1 0 0 0 0 1 0 0 0 1 0"/>
<feBlend mode="normal" in2="effect5_dropShadow_457_576" result="effect6_dropShadow_457_576"/>
<feBlend mode="normal" in="SourceGraphic" in2="effect6_dropShadow_457_576" result="shape"/>
</filter>
<filter id="filter1_dddddd_457_576" x="115.131" y="269.693" width="61.9834" height="64.6836" filterUnits="userSpaceOnUse" color-interpolation-filters="sRGB">
<feFlood flood-opacity="0" result="BackgroundImageFix"/>
<feColorMatrix in="SourceAlpha" type="matrix" values="0 0 0 0 0 0 0 0 0 0 0 0 0 0 0 0 0 0 127 0" result="hardAlpha"/>
<feOffset/>
<feColorMatrix type="matrix" values="0 0 0 0 1 0 0 0 0 1 0 0 0 0 1 0 0 0 1 0"/>
<feBlend mode="normal" in2="BackgroundImageFix" result="effect1_dropShadow_457_576"/>
<feColorMatrix in="SourceAlpha" type="matrix" values="0 0 0 0 0 0 0 0 0 0 0 0 0 0 0 0 0 0 127 0" result="hardAlpha"/>
<feOffset/>
<feColorMatrix type="matrix" values="0 0 0 0 1 0 0 0 0 1 0 0 0 0 1 0 0 0 1 0"/>
<feBlend mode="normal" in2="effect1_dropShadow_457_576" result="effect2_dropShadow_457_576"/>
<feColorMatrix in="SourceAlpha" type="matrix" values="0 0 0 0 0 0 0 0 0 0 0 0 0 0 0 0 0 0 127 0" result="hardAlpha"/>
<feOffset/>
<feColorMatrix type="matrix" values="0 0 0 0 1 0 0 0 0 1 0 0 0 0 1 0 0 0 1 0"/>
<feBlend mode="normal" in2="effect2_dropShadow_457_576" result="effect3_dropShadow_457_576"/>
<feColorMatrix in="SourceAlpha" type="matrix" values="0 0 0 0 0 0 0 0 0 0 0 0 0 0 0 0 0 0 127 0" result="hardAlpha"/>
<feOffset/>
<feColorMatrix type="matrix" values="0 0 0 0 1 0 0 0 0 1 0 0 0 0 1 0 0 0 1 0"/>
<feBlend mode="normal" in2="effect3_dropShadow_457_576" result="effect4_dropShadow_457_576"/>
<feColorMatrix in="SourceAlpha" type="matrix" values="0 0 0 0 0 0 0 0 0 0 0 0 0 0 0 0 0 0 127 0" result="hardAlpha"/>
<feOffset/>
<feColorMatrix type="matrix" values="0 0 0 0 1 0 0 0 0 1 0 0 0 0 1 0 0 0 1 0"/>
<feBlend mode="normal" in2="effect4_dropShadow_457_576" result="effect5_dropShadow_457_576"/>
<feColorMatrix in="SourceAlpha" type="matrix" values="0 0 0 0 0 0 0 0 0 0 0 0 0 0 0 0 0 0 127 0" result="hardAlpha"/>
<feOffset/>
<feColorMatrix type="matrix" values="0 0 0 0 1 0 0 0 0 1 0 0 0 0 1 0 0 0 1 0"/>
<feBlend mode="normal" in2="effect5_dropShadow_457_576" result="effect6_dropShadow_457_576"/>
<feBlend mode="normal" in="SourceGraphic" in2="effect6_dropShadow_457_576" result="shape"/>
</filter>
<filter id="filter2_dddddd_457_576" x="169.479" y="213.76" width="61.9834" height="64.6836" filterUnits="userSpaceOnUse" color-interpolation-filters="sRGB">
<feFlood flood-opacity="0" result="BackgroundImageFix"/>
<feColorMatrix in="SourceAlpha" type="matrix" values="0 0 0 0 0 0 0 0 0 0 0 0 0 0 0 0 0 0 127 0" result="hardAlpha"/>
<feOffset/>
<feColorMatrix type="matrix" values="0 0 0 0 1 0 0 0 0 1 0 0 0 0 1 0 0 0 1 0"/>
<feBlend mode="normal" in2="BackgroundImageFix" result="effect1_dropShadow_457_576"/>
<feColorMatrix in="SourceAlpha" type="matrix" values="0 0 0 0 0 0 0 0 0 0 0 0 0 0 0 0 0 0 127 0" result="hardAlpha"/>
<feOffset/>
<feColorMatrix type="matrix" values="0 0 0 0 1 0 0 0 0 1 0 0 0 0 1 0 0 0 1 0"/>
<feBlend mode="normal" in2="effect1_dropShadow_457_576" result="effect2_dropShadow_457_576"/>
<feColorMatrix in="SourceAlpha" type="matrix" values="0 0 0 0 0 0 0 0 0 0 0 0 0 0 0 0 0 0 127 0" result="hardAlpha"/>
<feOffset/>
<feColorMatrix type="matrix" values="0 0 0 0 1 0 0 0 0 1 0 0 0 0 1 0 0 0 1 0"/>
<feBlend mode="normal" in2="effect2_dropShadow_457_576" result="effect3_dropShadow_457_576"/>
<feColorMatrix in="SourceAlpha" type="matrix" values="0 0 0 0 0 0 0 0 0 0 0 0 0 0 0 0 0 0 127 0" result="hardAlpha"/>
<feOffset/>
<feColorMatrix type="matrix" values="0 0 0 0 1 0 0 0 0 1 0 0 0 0 1 0 0 0 1 0"/>
<feBlend mode="normal" in2="effect3_dropShadow_457_576" result="effect4_dropShadow_457_576"/>
<feColorMatrix in="SourceAlpha" type="matrix" values="0 0 0 0 0 0 0 0 0 0 0 0 0 0 0 0 0 0 127 0" result="hardAlpha"/>
<feOffset/>
<feColorMatrix type="matrix" values="0 0 0 0 1 0 0 0 0 1 0 0 0 0 1 0 0 0 1 0"/>
<feBlend mode="normal" in2="effect4_dropShadow_457_576" result="effect5_dropShadow_457_576"/>
<feColorMatrix in="SourceAlpha" type="matrix" values="0 0 0 0 0 0 0 0 0 0 0 0 0 0 0 0 0 0 127 0" result="hardAlpha"/>
<feOffset/>
<feColorMatrix type="matrix" values="0 0 0 0 1 0 0 0 0 1 0 0 0 0 1 0 0 0 1 0"/>
<feBlend mode="normal" in2="effect5_dropShadow_457_576" result="effect6_dropShadow_457_576"/>
<feBlend mode="normal" in="SourceGraphic" in2="effect6_dropShadow_457_576" result="shape"/>
</filter>
<filter id="filter3_dddddd_457_576" x="115.131" y="213.76" width="61.9834" height="64.6836" filterUnits="userSpaceOnUse" color-interpolation-filters="sRGB">
<feFlood flood-opacity="0" result="BackgroundImageFix"/>
<feColorMatrix in="SourceAlpha" type="matrix" values="0 0 0 0 0 0 0 0 0 0 0 0 0 0 0 0 0 0 127 0" result="hardAlpha"/>
<feOffset/>
<feColorMatrix type="matrix" values="0 0 0 0 1 0 0 0 0 1 0 0 0 0 1 0 0 0 1 0"/>
<feBlend mode="normal" in2="BackgroundImageFix" result="effect1_dropShadow_457_576"/>
<feColorMatrix in="SourceAlpha" type="matrix" values="0 0 0 0 0 0 0 0 0 0 0 0 0 0 0 0 0 0 127 0" result="hardAlpha"/>
<feOffset/>
<feColorMatrix type="matrix" values="0 0 0 0 1 0 0 0 0 1 0 0 0 0 1 0 0 0 1 0"/>
<feBlend mode="normal" in2="effect1_dropShadow_457_576" result="effect2_dropShadow_457_576"/>
<feColorMatrix in="SourceAlpha" type="matrix" values="0 0 0 0 0 0 0 0 0 0 0 0 0 0 0 0 0 0 127 0" result="hardAlpha"/>
<feOffset/>
<feColorMatrix type="matrix" values="0 0 0 0 1 0 0 0 0 1 0 0 0 0 1 0 0 0 1 0"/>
<feBlend mode="normal" in2="effect2_dropShadow_457_576" result="effect3_dropShadow_457_576"/>
<feColorMatrix in="SourceAlpha" type="matrix" values="0 0 0 0 0 0 0 0 0 0 0 0 0 0 0 0 0 0 127 0" result="hardAlpha"/>
<feOffset/>
<feColorMatrix type="matrix" values="0 0 0 0 1 0 0 0 0 1 0 0 0 0 1 0 0 0 1 0"/>
<feBlend mode="normal" in2="effect3_dropShadow_457_576" result="effect4_dropShadow_457_576"/>
<feColorMatrix in="SourceAlpha" type="matrix" values="0 0 0 0 0 0 0 0 0 0 0 0 0 0 0 0 0 0 127 0" result="hardAlpha"/>
<feOffset/>
<feColorMatrix type="matrix" values="0 0 0 0 1 0 0 0 0 1 0 0 0 0 1 0 0 0 1 0"/>
<feBlend mode="normal" in2="effect4_dropShadow_457_576" result="effect5_dropShadow_457_576"/>
<feColorMatrix in="SourceAlpha" type="matrix" values="0 0 0 0 0 0 0 0 0 0 0 0 0 0 0 0 0 0 127 0" result="hardAlpha"/>
<feOffset/>
<feColorMatrix type="matrix" values="0 0 0 0 1 0 0 0 0 1 0 0 0 0 1 0 0 0 1 0"/>
<feBlend mode="normal" in2="effect5_dropShadow_457_576" result="effect6_dropShadow_457_576"/>
<feBlend mode="normal" in="SourceGraphic" in2="effect6_dropShadow_457_576" result="shape"/>
</filter>
<filter id="filter4_dddddd_457_576" x="169.479" y="269.693" width="61.9834" height="64.6836" filterUnits="userSpaceOnUse" color-interpolation-filters="sRGB">
<feFlood flood-opacity="0" result="BackgroundImageFix"/>
<feColorMatrix in="SourceAlpha" type="matrix" values="0 0 0 0 0 0 0 0 0 0 0 0 0 0 0 0 0 0 127 0" result="hardAlpha"/>
<feOffset/>
<feColorMatrix type="matrix" values="0 0 0 0 1 0 0 0 0 1 0 0 0 0 1 0 0 0 1 0"/>
<feBlend mode="normal" in2="BackgroundImageFix" result="effect1_dropShadow_457_576"/>
<feColorMatrix in="SourceAlpha" type="matrix" values="0 0 0 0 0 0 0 0 0 0 0 0 0 0 0 0 0 0 127 0" result="hardAlpha"/>
<feOffset/>
<feColorMatrix type="matrix" values="0 0 0 0 1 0 0 0 0 1 0 0 0 0 1 0 0 0 1 0"/>
<feBlend mode="normal" in2="effect1_dropShadow_457_576" result="effect2_dropShadow_457_576"/>
<feColorMatrix in="SourceAlpha" type="matrix" values="0 0 0 0 0 0 0 0 0 0 0 0 0 0 0 0 0 0 127 0" result="hardAlpha"/>
<feOffset/>
<feColorMatrix type="matrix" values="0 0 0 0 1 0 0 0 0 1 0 0 0 0 1 0 0 0 1 0"/>
<feBlend mode="normal" in2="effect2_dropShadow_457_576" result="effect3_dropShadow_457_576"/>
<feColorMatrix in="SourceAlpha" type="matrix" values="0 0 0 0 0 0 0 0 0 0 0 0 0 0 0 0 0 0 127 0" result="hardAlpha"/>
<feOffset/>
<feColorMatrix type="matrix" values="0 0 0 0 1 0 0 0 0 1 0 0 0 0 1 0 0 0 1 0"/>
<feBlend mode="normal" in2="effect3_dropShadow_457_576" result="effect4_dropShadow_457_576"/>
<feColorMatrix in="SourceAlpha" type="matrix" values="0 0 0 0 0 0 0 0 0 0 0 0 0 0 0 0 0 0 127 0" result="hardAlpha"/>
<feOffset/>
<feColorMatrix type="matrix" values="0 0 0 0 1 0 0 0 0 1 0 0 0 0 1 0 0 0 1 0"/>
<feBlend mode="normal" in2="effect4_dropShadow_457_576" result="effect5_dropShadow_457_576"/>
<feColorMatrix in="SourceAlpha" type="matrix" values="0 0 0 0 0 0 0 0 0 0 0 0 0 0 0 0 0 0 127 0" result="hardAlpha"/>
<feOffset/>
<feColorMatrix type="matrix" values="0 0 0 0 1 0 0 0 0 1 0 0 0 0 1 0 0 0 1 0"/>
<feBlend mode="normal" in2="effect5_dropShadow_457_576" result="effect6_dropShadow_457_576"/>
<feBlend mode="normal" in="SourceGraphic" in2="effect6_dropShadow_457_576" result="shape"/>
</filter>
<filter id="filter5_dddddd_457_576" x="150.203" y="274.408" width="46.1875" height="152.68" filterUnits="userSpaceOnUse" color-interpolation-filters="sRGB">
<feFlood flood-opacity="0" result="BackgroundImageFix"/>
<feColorMatrix in="SourceAlpha" type="matrix" values="0 0 0 0 0 0 0 0 0 0 0 0 0 0 0 0 0 0 127 0" result="hardAlpha"/>
<feOffset/>
<feColorMatrix type="matrix" values="0 0 0 0 1 0 0 0 0 1 0 0 0 0 1 0 0 0 1 0"/>
<feBlend mode="normal" in2="BackgroundImageFix" result="effect1_dropShadow_457_576"/>
<feColorMatrix in="SourceAlpha" type="matrix" values="0 0 0 0 0 0 0 0 0 0 0 0 0 0 0 0 0 0 127 0" result="hardAlpha"/>
<feOffset/>
<feColorMatrix type="matrix" values="0 0 0 0 1 0 0 0 0 1 0 0 0 0 1 0 0 0 1 0"/>
<feBlend mode="normal" in2="effect1_dropShadow_457_576" result="effect2_dropShadow_457_576"/>
<feColorMatrix in="SourceAlpha" type="matrix" values="0 0 0 0 0 0 0 0 0 0 0 0 0 0 0 0 0 0 127 0" result="hardAlpha"/>
<feOffset/>
<feColorMatrix type="matrix" values="0 0 0 0 1 0 0 0 0 1 0 0 0 0 1 0 0 0 1 0"/>
<feBlend mode="normal" in2="effect2_dropShadow_457_576" result="effect3_dropShadow_457_576"/>
<feColorMatrix in="SourceAlpha" type="matrix" values="0 0 0 0 0 0 0 0 0 0 0 0 0 0 0 0 0 0 127 0" result="hardAlpha"/>
<feOffset/>
<feColorMatrix type="matrix" values="0 0 0 0 1 0 0 0 0 1 0 0 0 0 1 0 0 0 1 0"/>
<feBlend mode="normal" in2="effect3_dropShadow_457_576" result="effect4_dropShadow_457_576"/>
<feColorMatrix in="SourceAlpha" type="matrix" values="0 0 0 0 0 0 0 0 0 0 0 0 0 0 0 0 0 0 127 0" result="hardAlpha"/>
<feOffset/>
<feColorMatrix type="matrix" values="0 0 0 0 1 0 0 0 0 1 0 0 0 0 1 0 0 0 1 0"/>
<feBlend mode="normal" in2="effect4_dropShadow_457_576" result="effect5_dropShadow_457_576"/>
<feColorMatrix in="SourceAlpha" type="matrix" values="0 0 0 0 0 0 0 0 0 0 0 0 0 0 0 0 0 0 127 0" result="hardAlpha"/>
<feOffset/>
<feColorMatrix type="matrix" values="0 0 0 0 1 0 0 0 0 1 0 0 0 0 1 0 0 0 1 0"/>
<feBlend mode="normal" in2="effect5_dropShadow_457_576" result="effect6_dropShadow_457_576"/>
<feBlend mode="normal" in="SourceGraphic" in2="effect6_dropShadow_457_576" result="shape"/>
</filter>
<filter id="filter6_dddddd_457_576" x="38" y="250.773" width="127.585" height="46.1875" filterUnits="userSpaceOnUse" color-interpolation-filters="sRGB">
<feFlood flood-opacity="0" result="BackgroundImageFix"/>
<feColorMatrix in="SourceAlpha" type="matrix" values="0 0 0 0 0 0 0 0 0 0 0 0 0 0 0 0 0 0 127 0" result="hardAlpha"/>
<feOffset/>
<feColorMatrix type="matrix" values="0 0 0 0 1 0 0 0 0 1 0 0 0 0 1 0 0 0 1 0"/>
<feBlend mode="normal" in2="BackgroundImageFix" result="effect1_dropShadow_457_576"/>
<feColorMatrix in="SourceAlpha" type="matrix" values="0 0 0 0 0 0 0 0 0 0 0 0 0 0 0 0 0 0 127 0" result="hardAlpha"/>
<feOffset/>
<feColorMatrix type="matrix" values="0 0 0 0 1 0 0 0 0 1 0 0 0 0 1 0 0 0 1 0"/>
<feBlend mode="normal" in2="effect1_dropShadow_457_576" result="effect2_dropShadow_457_576"/>
<feColorMatrix in="SourceAlpha" type="matrix" values="0 0 0 0 0 0 0 0 0 0 0 0 0 0 0 0 0 0 127 0" result="hardAlpha"/>
<feOffset/>
<feColorMatrix type="matrix" values="0 0 0 0 1 0 0 0 0 1 0 0 0 0 1 0 0 0 1 0"/>
<feBlend mode="normal" in2="effect2_dropShadow_457_576" result="effect3_dropShadow_457_576"/>
<feColorMatrix in="SourceAlpha" type="matrix" values="0 0 0 0 0 0 0 0 0 0 0 0 0 0 0 0 0 0 127 0" result="hardAlpha"/>
<feOffset/>
<feColorMatrix type="matrix" values="0 0 0 0 1 0 0 0 0 1 0 0 0 0 1 0 0 0 1 0"/>
<feBlend mode="normal" in2="effect3_dropShadow_457_576" result="effect4_dropShadow_457_576"/>
<feColorMatrix in="SourceAlpha" type="matrix" values="0 0 0 0 0 0 0 0 0 0 0 0 0 0 0 0 0 0 127 0" result="hardAlpha"/>
<feOffset/>
<feColorMatrix type="matrix" values="0 0 0 0 1 0 0 0 0 1 0 0 0 0 1 0 0 0 1 0"/>
<feBlend mode="normal" in2="effect4_dropShadow_457_576" result="effect5_dropShadow_457_576"/>
<feColorMatrix in="SourceAlpha" type="matrix" values="0 0 0 0 0 0 0 0 0 0 0 0 0 0 0 0 0 0 127 0" result="hardAlpha"/>
<feOffset/>
<feColorMatrix type="matrix" values="0 0 0 0 1 0 0 0 0 1 0 0 0 0 1 0 0 0 1 0"/>
<feBlend mode="normal" in2="effect5_dropShadow_457_576" result="effect6_dropShadow_457_576"/>
<feBlend mode="normal" in="SourceGraphic" in2="effect6_dropShadow_457_576" result="shape"/>
</filter>
<filter id="filter7_dddddd_457_576" x="180.415" y="250.773" width="127.585" height="46.1875" filterUnits="userSpaceOnUse" color-interpolation-filters="sRGB">
<feFlood flood-opacity="0" result="BackgroundImageFix"/>
<feColorMatrix in="SourceAlpha" type="matrix" values="0 0 0 0 0 0 0 0 0 0 0 0 0 0 0 0 0 0 127 0" result="hardAlpha"/>
<feOffset/>
<feColorMatrix type="matrix" values="0 0 0 0 1 0 0 0 0 1 0 0 0 0 1 0 0 0 1 0"/>
<feBlend mode="normal" in2="BackgroundImageFix" result="effect1_dropShadow_457_576"/>
<feColorMatrix in="SourceAlpha" type="matrix" values="0 0 0 0 0 0 0 0 0 0 0 0 0 0 0 0 0 0 127 0" result="hardAlpha"/>
<feOffset/>
<feColorMatrix type="matrix" values="0 0 0 0 1 0 0 0 0 1 0 0 0 0 1 0 0 0 1 0"/>
<feBlend mode="normal" in2="effect1_dropShadow_457_576" result="effect2_dropShadow_457_576"/>
<feColorMatrix in="SourceAlpha" type="matrix" values="0 0 0 0 0 0 0 0 0 0 0 0 0 0 0 0 0 0 127 0" result="hardAlpha"/>
<feOffset/>
<feColorMatrix type="matrix" values="0 0 0 0 1 0 0 0 0 1 0 0 0 0 1 0 0 0 1 0"/>
<feBlend mode="normal" in2="effect2_dropShadow_457_576" result="effect3_dropShadow_457_576"/>
<feColorMatrix in="SourceAlpha" type="matrix" values="0 0 0 0 0 0 0 0 0 0 0 0 0 0 0 0 0 0 127 0" result="hardAlpha"/>
<feOffset/>
<feColorMatrix type="matrix" values="0 0 0 0 1 0 0 0 0 1 0 0 0 0 1 0 0 0 1 0"/>
<feBlend mode="normal" in2="effect3_dropShadow_457_576" result="effect4_dropShadow_457_576"/>
<feColorMatrix in="SourceAlpha" type="matrix" values="0 0 0 0 0 0 0 0 0 0 0 0 0 0 0 0 0 0 127 0" result="hardAlpha"/>
<feOffset/>
<feColorMatrix type="matrix" values="0 0 0 0 1 0 0 0 0 1 0 0 0 0 1 0 0 0 1 0"/>
<feBlend mode="normal" in2="effect4_dropShadow_457_576" result="effect5_dropShadow_457_576"/>
<feColorMatrix in="SourceAlpha" type="matrix" values="0 0 0 0 0 0 0 0 0 0 0 0 0 0 0 0 0 0 127 0" result="hardAlpha"/>
<feOffset/>
<feColorMatrix type="matrix" values="0 0 0 0 1 0 0 0 0 1 0 0 0 0 1 0 0 0 1 0"/>
<feBlend mode="normal" in2="effect5_dropShadow_457_576" result="effect6_dropShadow_457_576"/>
<feBlend mode="normal" in="SourceGraphic" in2="effect6_dropShadow_457_576" result="shape"/>
</filter>
<filter id="filter8_dddddd_457_576" x="142.646" y="253.756" width="61.2979" height="40.2246" filterUnits="userSpaceOnUse" color-interpolation-filters="sRGB">
<feFlood flood-opacity="0" result="BackgroundImageFix"/>
<feColorMatrix in="SourceAlpha" type="matrix" values="0 0 0 0 0 0 0 0 0 0 0 0 0 0 0 0 0 0 127 0" result="hardAlpha"/>
<feOffset/>
<feColorMatrix type="matrix" values="0 0 0 0 0 0 0 0 0 0 0 0 0 0 0 0 0 0 1 0"/>
<feBlend mode="normal" in2="BackgroundImageFix" result="effect1_dropShadow_457_576"/>
<feColorMatrix in="SourceAlpha" type="matrix" values="0 0 0 0 0 0 0 0 0 0 0 0 0 0 0 0 0 0 127 0" result="hardAlpha"/>
<feOffset/>
<feColorMatrix type="matrix" values="0 0 0 0 0 0 0 0 0 0 0 0 0 0 0 0 0 0 1 0"/>
<feBlend mode="normal" in2="effect1_dropShadow_457_576" result="effect2_dropShadow_457_576"/>
<feColorMatrix in="SourceAlpha" type="matrix" values="0 0 0 0 0 0 0 0 0 0 0 0 0 0 0 0 0 0 127 0" result="hardAlpha"/>
<feOffset/>
<feColorMatrix type="matrix" values="0 0 0 0 0 0 0 0 0 0 0 0 0 0 0 0 0 0 1 0"/>
<feBlend mode="normal" in2="effect2_dropShadow_457_576" result="effect3_dropShadow_457_576"/>
<feColorMatrix in="SourceAlpha" type="matrix" values="0 0 0 0 0 0 0 0 0 0 0 0 0 0 0 0 0 0 127 0" result="hardAlpha"/>
<feOffset/>
<feColorMatrix type="matrix" values="0 0 0 0 0 0 0 0 0 0 0 0 0 0 0 0 0 0 1 0"/>
<feBlend mode="normal" in2="effect3_dropShadow_457_576" result="effect4_dropShadow_457_576"/>
<feColorMatrix in="SourceAlpha" type="matrix" values="0 0 0 0 0 0 0 0 0 0 0 0 0 0 0 0 0 0 127 0" result="hardAlpha"/>
<feOffset/>
<feColorMatrix type="matrix" values="0 0 0 0 0 0 0 0 0 0 0 0 0 0 0 0 0 0 1 0"/>
<feBlend mode="normal" in2="effect4_dropShadow_457_576" result="effect5_dropShadow_457_576"/>
<feColorMatrix in="SourceAlpha" type="matrix" values="0 0 0 0 0 0 0 0 0 0 0 0 0 0 0 0 0 0 127 0" result="hardAlpha"/>
<feOffset/>
<feColorMatrix type="matrix" values="0 0 0 0 0 0 0 0 0 0 0 0 0 0 0 0 0 0 1 0"/>
<feBlend mode="normal" in2="effect5_dropShadow_457_576" result="effect6_dropShadow_457_576"/>
<feBlend mode="normal" in="SourceGraphic" in2="effect6_dropShadow_457_576" result="shape"/>
</filter>
<filter id="filter9_dddddd_457_576" x="148.04" y="261.854" width="20.6777" height="23.1133" filterUnits="userSpaceOnUse" color-interpolation-filters="sRGB">
<feFlood flood-opacity="0" result="BackgroundImageFix"/>
<feColorMatrix in="SourceAlpha" type="matrix" values="0 0 0 0 0 0 0 0 0 0 0 0 0 0 0 0 0 0 127 0" result="hardAlpha"/>
<feOffset/>
<feColorMatrix type="matrix" values="0 0 0 0 1 0 0 0 0 0 0 0 0 0 0.533333 0 0 0 1 0"/>
<feBlend mode="normal" in2="BackgroundImageFix" result="effect1_dropShadow_457_576"/>
<feColorMatrix in="SourceAlpha" type="matrix" values="0 0 0 0 0 0 0 0 0 0 0 0 0 0 0 0 0 0 127 0" result="hardAlpha"/>
<feOffset/>
<feColorMatrix type="matrix" values="0 0 0 0 1 0 0 0 0 0 0 0 0 0 0.533333 0 0 0 1 0"/>
<feBlend mode="normal" in2="effect1_dropShadow_457_576" result="effect2_dropShadow_457_576"/>
<feColorMatrix in="SourceAlpha" type="matrix" values="0 0 0 0 0 0 0 0 0 0 0 0 0 0 0 0 0 0 127 0" result="hardAlpha"/>
<feOffset/>
<feColorMatrix type="matrix" values="0 0 0 0 1 0 0 0 0 0 0 0 0 0 0.533333 0 0 0 1 0"/>
<feBlend mode="normal" in2="effect2_dropShadow_457_576" result="effect3_dropShadow_457_576"/>
<feColorMatrix in="SourceAlpha" type="matrix" values="0 0 0 0 0 0 0 0 0 0 0 0 0 0 0 0 0 0 127 0" result="hardAlpha"/>
<feOffset/>
<feColorMatrix type="matrix" values="0 0 0 0 1 0 0 0 0 0 0 0 0 0 0.533333 0 0 0 1 0"/>
<feBlend mode="normal" in2="effect3_dropShadow_457_576" result="effect4_dropShadow_457_576"/>
<feColorMatrix in="SourceAlpha" type="matrix" values="0 0 0 0 0 0 0 0 0 0 0 0 0 0 0 0 0 0 127 0" result="hardAlpha"/>
<feOffset/>
<feColorMatrix type="matrix" values="0 0 0 0 1 0 0 0 0 0 0 0 0 0 0.533333 0 0 0 1 0"/>
<feBlend mode="normal" in2="effect4_dropShadow_457_576" result="effect5_dropShadow_457_576"/>
<feColorMatrix in="SourceAlpha" type="matrix" values="0 0 0 0 0 0 0 0 0 0 0 0 0 0 0 0 0 0 127 0" result="hardAlpha"/>
<feOffset/>
<feColorMatrix type="matrix" values="0 0 0 0 1 0 0 0 0 0 0 0 0 0 0.533333 0 0 0 1 0"/>
<feBlend mode="normal" in2="effect5_dropShadow_457_576" result="effect6_dropShadow_457_576"/>
<feBlend mode="normal" in="SourceGraphic" in2="effect6_dropShadow_457_576" result="shape"/>
</filter>
<filter id="filter10_dddddd_457_576" x="178.458" y="261.602" width="20.6084" height="23.1855" filterUnits="userSpaceOnUse" color-interpolation-filters="sRGB">
<feFlood flood-opacity="0" result="BackgroundImageFix"/>
<feColorMatrix in="SourceAlpha" type="matrix" values="0 0 0 0 0 0 0 0 0 0 0 0 0 0 0 0 0 0 127 0" result="hardAlpha"/>
<feOffset/>
<feColorMatrix type="matrix" values="0 0 0 0 1 0 0 0 0 0 0 0 0 0 0.533333 0 0 0 1 0"/>
<feBlend mode="normal" in2="BackgroundImageFix" result="effect1_dropShadow_457_576"/>
<feColorMatrix in="SourceAlpha" type="matrix" values="0 0 0 0 0 0 0 0 0 0 0 0 0 0 0 0 0 0 127 0" result="hardAlpha"/>
<feOffset/>
<feColorMatrix type="matrix" values="0 0 0 0 1 0 0 0 0 0 0 0 0 0 0.533333 0 0 0 1 0"/>
<feBlend mode="normal" in2="effect1_dropShadow_457_576" result="effect2_dropShadow_457_576"/>
<feColorMatrix in="SourceAlpha" type="matrix" values="0 0 0 0 0 0 0 0 0 0 0 0 0 0 0 0 0 0 127 0" result="hardAlpha"/>
<feOffset/>
<feColorMatrix type="matrix" values="0 0 0 0 1 0 0 0 0 0 0 0 0 0 0.533333 0 0 0 1 0"/>
<feBlend mode="normal" in2="effect2_dropShadow_457_576" result="effect3_dropShadow_457_576"/>
<feColorMatrix in="SourceAlpha" type="matrix" values="0 0 0 0 0 0 0 0 0 0 0 0 0 0 0 0 0 0 127 0" result="hardAlpha"/>
<feOffset/>
<feColorMatrix type="matrix" values="0 0 0 0 1 0 0 0 0 0 0 0 0 0 0.533333 0 0 0 1 0"/>
<feBlend mode="normal" in2="effect3_dropShadow_457_576" result="effect4_dropShadow_457_576"/>
<feColorMatrix in="SourceAlpha" type="matrix" values="0 0 0 0 0 0 0 0 0 0 0 0 0 0 0 0 0 0 127 0" result="hardAlpha"/>
<feOffset/>
<feColorMatrix type="matrix" values="0 0 0 0 1 0 0 0 0 0 0 0 0 0 0.533333 0 0 0 1 0"/>
<feBlend mode="normal" in2="effect4_dropShadow_457_576" result="effect5_dropShadow_457_576"/>
<feColorMatrix in="SourceAlpha" type="matrix" values="0 0 0 0 0 0 0 0 0 0 0 0 0 0 0 0 0 0 127 0" result="hardAlpha"/>
<feOffset/>
<feColorMatrix type="matrix" values="0 0 0 0 1 0 0 0 0 0 0 0 0 0 0.533333 0 0 0 1 0"/>
<feBlend mode="normal" in2="effect5_dropShadow_457_576" result="effect6_dropShadow_457_576"/>
<feBlend mode="normal" in="SourceGraphic" in2="effect6_dropShadow_457_576" result="shape"/>
</filter>
<clipPath id="clip0_457_576">
<rect width="338" height="585" fill="white"/>
</clipPath>
</defs>
</svg>
