<svg width="330" height="577" viewBox="0 0 330 577" fill="none" xmlns="http://www.w3.org/2000/svg">
<g clip-path="url(#clip0_551_858)">
<rect width="330" height="577" fill="#00FF76"/>
<g filter="url(#filter0_dddddd_551_858)">
<path d="M167.764 123.973C167.75 121.764 165.948 119.985 163.739 120C161.53 120.015 159.75 121.818 159.764 124.027L167.764 123.973ZM164.699 272.676L187.541 232.522L141.354 232.831L164.699 272.676ZM159.764 124.027L160.473 236.703L168.473 236.65L167.764 123.973L159.764 124.027Z" fill="#FF0088"/>
</g>
<g filter="url(#filter1_dddddd_551_858)">
<path d="M165.297 273.867L110.949 330.202" stroke="#FF0088" stroke-width="8" stroke-linecap="round"/>
</g>
<g filter="url(#filter2_dddddd_551_858)">
<path d="M165.297 274.27L219.646 217.934" stroke="#FF0088" stroke-width="8" stroke-linecap="round"/>
</g>
<g filter="url(#filter3_dddddd_551_858)">
<path d="M165.297 274.27L110.949 217.934" stroke="#FF0088" stroke-width="8" stroke-linecap="round"/>
</g>
<g filter="url(#filter4_dddddd_551_858)">
<path d="M165.297 273.867L219.646 330.202" stroke="#FF0088" stroke-width="8" stroke-linecap="round"/>
</g>
<g filter="url(#filter5_dddddd_551_858)">
<path d="M169.297 423.088C169.297 425.297 167.507 427.088 165.297 427.088C163.088 427.088 161.297 425.297 161.297 423.088H169.297ZM165.297 274.409L188.391 314.409H142.203L165.297 274.409ZM161.297 423.088V310.409H169.297V423.088H161.297Z" fill="#FF0088"/>
</g>
<g filter="url(#filter6_dddddd_551_858)">
<path d="M34 269.867C31.7909 269.867 30 271.658 30 273.867C30 276.076 31.7909 277.867 34 277.867V269.867ZM157.585 273.867L117.585 250.773V296.961L157.585 273.867ZM34 277.867H121.585V269.867H34V277.867Z" fill="#FF0088"/>
</g>
<g filter="url(#filter7_dddddd_551_858)">
<path d="M296 277.867C298.209 277.867 300 276.076 300 273.867C300 271.658 298.209 269.867 296 269.867V277.867ZM172.415 273.867L212.415 296.961V250.773L172.415 273.867ZM296 269.867H208.415V277.867H296V269.867Z" fill="#FF0088"/>
</g>
<g filter="url(#filter8_dddddd_551_858)">
<rect x="134.646" y="253.756" width="61.2981" height="40.2245" rx="6" fill="black"/>
</g>
<g filter="url(#filter9_dddddd_551_858)">
<path d="M154.799 266.879C159.498 272.133 162.138 281.945 159.922 284.319C157.706 286.692 150.137 282.162 145.437 276.908C140.738 271.654 138.724 265.47 140.94 263.097C143.156 260.723 150.099 261.625 154.799 266.879Z" fill="#FF0088"/>
</g>
<g filter="url(#filter10_dddddd_551_858)">
<path d="M176.312 266.682C171.636 271.962 169.041 281.787 171.267 284.149C173.493 286.511 181.043 281.94 185.718 276.66C190.394 271.381 192.38 265.187 190.153 262.825C187.927 260.464 180.988 261.403 176.312 266.682Z" fill="#FF0088"/>
</g>
<path d="M158.138 55.616C157.093 55.616 156.29 55.336 155.73 54.776C155.207 54.216 154.946 53.488 154.946 52.592C154.946 51.6587 155.189 50.0533 155.674 47.776L156.962 41C154.237 43.0533 151.717 44.08 149.402 44.08C147.722 44.08 146.434 43.632 145.538 42.736C145.463 43.1093 145.389 43.4827 145.314 43.856C145.277 44.2293 145.221 44.6027 145.146 44.976C144.997 46.208 144.81 47.4587 144.586 48.728C143.914 53.1707 142.906 55.392 141.562 55.392C141.002 55.392 140.666 55 140.554 54.216C140.89 51.304 141.711 46.7867 143.018 40.664C144.362 34.504 145.314 30.3413 145.874 28.176C145.986 27.8027 146.191 27.4853 146.49 27.224C146.826 26.9627 147.162 26.832 147.498 26.832C147.946 26.832 148.263 27.1493 148.45 27.784C148.45 28.3813 148.114 30.3227 147.442 33.608C146.919 36.1093 146.509 38.256 146.21 40.048C147.031 40.9813 148.319 41.448 150.074 41.448C151.791 41.448 153.677 40.5893 155.73 38.872C156.365 38.312 156.962 37.7147 157.522 37.08L158.362 33.328C158.997 30.6027 159.687 28.7173 160.434 27.672C160.807 27.0747 161.311 26.776 161.946 26.776C162.581 26.776 162.898 27.1307 162.898 27.84V28.12C160.845 35.176 159.557 40.2907 159.034 43.464C158.549 46.1893 158.231 48.336 158.082 49.904C157.97 51.136 157.895 51.808 157.858 51.92L157.802 52.648C157.802 52.872 157.895 52.984 158.082 52.984C158.231 52.984 158.362 52.928 158.474 52.816C158.661 52.704 158.959 52.648 159.37 52.648C160.005 52.648 160.322 52.984 160.322 53.656C160.322 54.9627 159.594 55.616 158.138 55.616ZM182.136 55.112C181.278 55.112 180.475 54.664 179.728 53.768C179.019 52.8347 178.664 51.8453 178.664 50.8C178.664 48.4853 179.28 44.5653 180.512 39.04C179.579 41.056 178.366 43.128 176.872 45.256C175.416 47.3467 173.979 49.1947 172.56 50.8C171.142 52.4053 170.096 53.4507 169.424 53.936C168.491 54.6453 167.464 55 166.344 55C164.216 55 163.152 53.656 163.152 50.968C163.152 48.3547 164.142 45.1067 166.12 41.224C168.099 37.304 170.451 33.9067 173.176 31.032C175.902 28.1947 178.104 26.776 179.784 26.776C181.502 26.776 182.472 27.5227 182.696 29.016C182.808 29.464 182.864 29.9493 182.864 30.472C183.051 30.36 183.256 30.304 183.48 30.304C184.339 30.304 184.768 30.7147 184.768 31.536V31.76L184.096 34.224C183.574 36.0907 183.032 38.8533 182.472 42.512C181.912 46.1707 181.632 49.2133 181.632 51.64L182.192 51.976C183.088 52.536 183.536 53.096 183.536 53.656C183.536 54.0293 183.406 54.3653 183.144 54.664C182.883 54.9627 182.547 55.112 182.136 55.112ZM166.792 52.088C167.203 52.088 167.539 51.9573 167.8 51.696C171.608 48.448 174.987 43.9493 177.936 38.2C179.616 35.0267 180.531 33.1413 180.68 32.544C180.755 31.872 180.792 31.4613 180.792 31.312C180.792 30.9387 180.699 30.6027 180.512 30.304C180.326 30.0053 180.083 29.856 179.784 29.856C179.411 29.856 178.926 30.024 178.328 30.36C176.835 31.144 175.062 32.8053 173.008 35.344C170.992 37.8827 169.331 40.5707 168.024 43.408C166.643 46.2827 165.952 48.84 165.952 51.08C165.952 51.752 166.232 52.088 166.792 52.088ZM189.821 77.96C188.029 77.96 186.517 77.344 185.285 76.112C184.09 74.9173 183.493 73.3867 183.493 71.52C183.493 69.8027 183.885 68.16 184.669 66.592C185.49 65.0613 186.666 63.4747 188.197 61.832C189.503 60.4133 191.071 58.9387 192.901 57.408L198.165 53.04C198.426 52.1067 198.65 51.1173 198.837 50.072C199.247 48.4293 199.565 47.0853 199.789 46.04C198.37 50.4827 196.541 53.3947 194.301 54.776C193.591 55.224 192.901 55.448 192.229 55.448C190.922 55.448 189.839 54.9253 188.981 53.88C188.159 52.8347 187.749 51.4533 187.749 49.736C187.749 46.488 188.365 43.0907 189.597 39.544C190.829 35.96 192.471 32.8987 194.525 30.36C196.653 27.784 198.967 26.496 201.469 26.496C202.663 26.496 203.802 26.7947 204.885 27.392C205.109 27.28 205.351 27.224 205.613 27.224C206.247 27.224 206.565 27.5227 206.565 28.12C206.565 28.7547 206.453 29.352 206.229 29.912C205.183 32.6373 203.429 39.7307 200.965 51.192C201.562 50.8187 202.253 50.2773 203.037 49.568C203.223 49.4187 203.559 49.1387 204.045 48.728C204.53 48.28 204.922 47.9627 205.221 47.776C205.519 47.5893 205.781 47.496 206.005 47.496C206.639 47.496 206.957 47.8133 206.957 48.448C206.957 48.9333 206.826 49.3067 206.565 49.568C204.25 51.3227 202.271 52.7787 200.629 53.936L199.733 59.2L199.453 60.6C199.005 62.952 198.613 64.912 198.277 66.48C197.941 68.0853 197.53 69.616 197.045 71.072C196.335 73.1253 195.365 74.7867 194.133 76.056C192.938 77.3253 191.501 77.96 189.821 77.96ZM192.397 52.76C193.143 52.76 194.002 52.256 194.973 51.248C195.943 50.2027 196.877 48.8587 197.773 47.216C198.706 45.536 199.453 43.7813 200.013 41.952C200.871 39.3013 201.599 36.856 202.197 34.616C202.57 33.3093 203.037 31.592 203.597 29.464C203.074 28.9787 202.365 28.736 201.469 28.736C199.863 28.736 198.183 29.8 196.429 31.928C194.711 34.056 193.255 36.744 192.061 39.992C190.903 43.2027 190.325 46.1333 190.325 48.784C190.325 51.4347 191.015 52.76 192.397 52.76ZM189.317 75.16C190.101 75.16 190.81 74.9733 191.445 74.6C192.079 74.264 192.677 73.6667 193.237 72.808C193.797 71.912 194.357 70.6613 194.917 69.056C195.477 67.4507 195.925 65.808 196.261 64.128C196.559 62.8587 196.802 61.7013 196.989 60.656L197.213 59.424C197.25 59.1253 197.306 58.808 197.381 58.472C197.455 58.136 197.511 57.7813 197.549 57.408L197.717 56.064C194.058 59.088 191.221 61.832 189.205 64.296C187.226 66.76 186.237 68.9627 186.237 70.904C186.237 72.9573 186.685 74.264 187.581 74.824C187.954 75.048 188.533 75.16 189.317 75.16ZM214.964 55.56C213.769 55.56 212.836 55.3733 212.164 55C211.492 54.5893 210.95 53.9733 210.54 53.152C209.756 51.696 209.364 49.9413 209.364 47.888C209.364 44.304 209.905 40.9067 210.988 37.696C212.07 34.448 213.545 31.7227 215.412 29.52C217.204 27.4293 219.164 26.384 221.292 26.384C222.412 26.384 223.289 26.8507 223.924 27.784C224.596 28.68 224.932 29.7813 224.932 31.088C224.932 33.3653 224.334 35.344 223.14 37.024C221.982 38.704 220.414 40.104 218.436 41.224C216.718 42.232 214.628 43.24 212.164 44.248L212.052 48.28C212.052 51.416 213.004 52.984 214.908 52.984C215.766 52.984 216.662 52.7787 217.596 52.368C218.529 51.92 219.5 51.3973 220.508 50.8C220.993 50.5387 221.385 50.408 221.684 50.408C222.318 50.408 222.636 50.744 222.636 51.416C222.636 51.9013 222.169 52.48 221.236 53.152C220.34 53.824 219.276 54.4027 218.044 54.888C216.812 55.336 215.785 55.56 214.964 55.56ZM212.612 41.56C212.948 41.3733 213.694 40.9813 214.852 40.384C215.374 40.16 216.121 39.7867 217.092 39.264C218.846 38.2933 220.153 37.1733 221.012 35.904C221.908 34.6347 222.356 33.0667 222.356 31.2C222.356 29.744 221.74 29.016 220.508 29.016C219.425 29.016 218.156 30.0053 216.7 31.984C215.169 33.9627 213.937 36.5573 213.004 39.768C212.742 40.664 212.612 41.2613 212.612 41.56ZM227.464 55.728C226.531 55.728 225.672 55.4293 224.888 54.832C224.104 54.2347 223.469 53.4507 222.984 52.48C222.536 51.5093 222.312 50.5387 222.312 49.568C222.424 49.1947 222.629 48.8773 222.928 48.616C223.264 48.3547 223.581 48.224 223.88 48.224C224.179 48.224 224.403 48.3547 224.552 48.616C224.739 48.9147 224.963 49.568 225.224 50.576C225.597 52.1813 226.363 52.984 227.52 52.984C229.013 52.984 230.395 52.2187 231.664 50.688C232.933 49.1573 234.389 46.9733 236.032 44.136L236.872 42.736C238.179 40.608 239.019 39.3573 239.392 38.984C238.944 37.416 238.589 36.24 238.328 35.456C237.021 31.0133 235.528 28.792 233.848 28.792C232.579 28.792 231.496 29.408 230.6 30.64C230.488 30.8267 230.245 30.92 229.872 30.92C229.2 30.92 228.864 30.6027 228.864 29.968C228.864 29.072 229.443 28.2507 230.6 27.504C231.757 26.7573 232.896 26.384 234.016 26.384C235.136 26.384 236.032 26.6453 236.704 27.168C237.376 27.6533 237.88 28.288 238.216 29.072C238.589 29.856 239.019 31.0693 239.504 32.712C239.541 32.8987 239.691 33.4213 239.952 34.28L241.52 39.096C242.416 34.3547 242.995 31.536 243.256 30.64C243.592 29.2587 243.779 28.2693 243.816 27.672C243.928 27.2987 244.133 26.9813 244.432 26.72C244.768 26.4587 245.104 26.328 245.44 26.328C245.888 26.328 246.205 26.6453 246.392 27.28C246.392 28.064 246.28 28.792 246.056 29.464C245.944 29.8 245.683 30.9947 245.272 33.048C245.048 34.5413 244.787 35.9227 244.488 37.192C247.437 33.1973 250.237 30.2293 252.888 28.288C254.419 27.168 255.632 26.608 256.528 26.608C257.088 26.608 257.648 26.832 258.208 27.28C258.768 27.728 259.235 28.2507 259.608 28.848C259.981 29.4453 260.168 29.968 260.168 30.416C260.168 31.0507 260.019 31.536 259.72 31.872C259.459 32.208 259.123 32.376 258.712 32.376C258.376 32.376 258.096 32.2453 257.872 31.984C257.648 31.6853 257.424 31.2933 257.2 30.808C257.125 30.6587 257.013 30.4347 256.864 30.136C256.752 29.8373 256.621 29.6133 256.472 29.464C256.36 29.3147 256.229 29.24 256.08 29.24C255.819 29.24 255.371 29.4267 254.736 29.8C254.139 30.136 252.944 31.2 251.152 32.992C249.397 34.784 248.035 36.24 247.064 37.36C247.176 40.9813 247.717 44.2667 248.688 47.216C249.397 49.4187 250.424 51.0427 251.768 52.088C252.328 52.6107 253.037 52.872 253.896 52.872C255.427 52.872 257.032 51.7707 258.712 49.568C259.011 49.2693 259.384 49.12 259.832 49.12C260.504 49.12 260.84 49.4187 260.84 50.016C260.84 50.6507 260.467 51.416 259.72 52.312C258.973 53.1707 258.077 53.9173 257.032 54.552C255.987 55.1867 255.072 55.504 254.288 55.504C252.123 55.504 250.312 54.496 248.856 52.48C246.952 49.8293 245.627 45.7787 244.88 40.328C244.357 41.112 243.984 41.7467 243.76 42.232V42.288C243.685 42.736 243.536 43.0533 243.312 43.24C242.453 47.7947 241.8 51.3787 241.352 53.992C241.277 54.44 241.072 54.8133 240.736 55.112C240.437 55.4107 240.12 55.56 239.784 55.56C239.224 55.56 238.888 55.168 238.776 54.384L240.848 42.904C240.699 42.7173 240.605 42.512 240.568 42.288L240.288 41.616C239.616 42.5493 238.832 43.744 237.936 45.2C237.301 46.2453 236.536 47.4213 235.64 48.728C233.699 51.4533 231.739 53.5067 229.76 54.888C228.976 55.448 228.211 55.728 227.464 55.728ZM263.835 77.96C262.043 77.96 260.531 77.344 259.299 76.112C258.104 74.9173 257.507 73.3867 257.507 71.52C257.507 69.8027 257.899 68.16 258.683 66.592C259.504 65.0613 260.68 63.4747 262.211 61.832C263.517 60.4133 265.085 58.9387 266.915 57.408L272.179 53.04C272.44 52.1067 272.664 51.1173 272.851 50.072C273.261 48.4293 273.579 47.0853 273.803 46.04C272.384 50.4827 270.555 53.3947 268.315 54.776C267.605 55.224 266.915 55.448 266.243 55.448C264.936 55.448 263.853 54.9253 262.995 53.88C262.173 52.8347 261.763 51.4533 261.763 49.736C261.763 46.488 262.379 43.0907 263.611 39.544C264.843 35.96 266.485 32.8987 268.539 30.36C270.667 27.784 272.981 26.496 275.483 26.496C276.677 26.496 277.816 26.7947 278.899 27.392C279.123 27.28 279.365 27.224 279.627 27.224C280.261 27.224 280.579 27.5227 280.579 28.12C280.579 28.7547 280.467 29.352 280.243 29.912C279.197 32.6373 277.443 39.7307 274.979 51.192C275.576 50.8187 276.267 50.2773 277.051 49.568C277.237 49.4187 277.573 49.1387 278.059 48.728C278.544 48.28 278.936 47.9627 279.235 47.776C279.533 47.5893 279.795 47.496 280.019 47.496C280.653 47.496 280.971 47.8133 280.971 48.448C280.971 48.9333 280.84 49.3067 280.579 49.568C278.264 51.3227 276.285 52.7787 274.643 53.936L273.747 59.2L273.467 60.6C273.019 62.952 272.627 64.912 272.291 66.48C271.955 68.0853 271.544 69.616 271.059 71.072C270.349 73.1253 269.379 74.7867 268.147 76.056C266.952 77.3253 265.515 77.96 263.835 77.96ZM266.411 52.76C267.157 52.76 268.016 52.256 268.987 51.248C269.957 50.2027 270.891 48.8587 271.787 47.216C272.72 45.536 273.467 43.7813 274.027 41.952C274.885 39.3013 275.613 36.856 276.211 34.616C276.584 33.3093 277.051 31.592 277.611 29.464C277.088 28.9787 276.379 28.736 275.483 28.736C273.877 28.736 272.197 29.8 270.443 31.928C268.725 34.056 267.269 36.744 266.075 39.992C264.917 43.2027 264.339 46.1333 264.339 48.784C264.339 51.4347 265.029 52.76 266.411 52.76ZM263.331 75.16C264.115 75.16 264.824 74.9733 265.459 74.6C266.093 74.264 266.691 73.6667 267.251 72.808C267.811 71.912 268.371 70.6613 268.931 69.056C269.491 67.4507 269.939 65.808 270.275 64.128C270.573 62.8587 270.816 61.7013 271.003 60.656L271.227 59.424C271.264 59.1253 271.32 58.808 271.395 58.472C271.469 58.136 271.525 57.7813 271.563 57.408L271.731 56.064C268.072 59.088 265.235 61.832 263.219 64.296C261.24 66.76 260.251 68.9627 260.251 70.904C260.251 72.9573 260.699 74.264 261.595 74.824C261.968 75.048 262.547 75.16 263.331 75.16ZM301.41 55.112C300.551 55.112 299.748 54.664 299.002 53.768C298.292 52.8347 297.938 51.8453 297.938 50.8C297.938 48.4853 298.554 44.5653 299.786 39.04C298.852 41.056 297.639 43.128 296.146 45.256C294.69 47.3467 293.252 49.1947 291.834 50.8C290.415 52.4053 289.37 53.4507 288.698 53.936C287.764 54.6453 286.738 55 285.618 55C283.49 55 282.426 53.656 282.426 50.968C282.426 48.3547 283.415 45.1067 285.394 41.224C287.372 37.304 289.724 33.9067 292.45 31.032C295.175 28.1947 297.378 26.776 299.058 26.776C300.775 26.776 301.746 27.5227 301.97 29.016C302.082 29.464 302.138 29.9493 302.138 30.472C302.324 30.36 302.53 30.304 302.754 30.304C303.612 30.304 304.042 30.7147 304.042 31.536V31.76L303.37 34.224C302.847 36.0907 302.306 38.8533 301.746 42.512C301.186 46.1707 300.906 49.2133 300.906 51.64L301.466 51.976C302.362 52.536 302.81 53.096 302.81 53.656C302.81 54.0293 302.679 54.3653 302.418 54.664C302.156 54.9627 301.82 55.112 301.41 55.112ZM286.066 52.088C286.476 52.088 286.812 51.9573 287.074 51.696C290.882 48.448 294.26 43.9493 297.21 38.2C298.89 35.0267 299.804 33.1413 299.954 32.544C300.028 31.872 300.066 31.4613 300.066 31.312C300.066 30.9387 299.972 30.6027 299.786 30.304C299.599 30.0053 299.356 29.856 299.058 29.856C298.684 29.856 298.199 30.024 297.602 30.36C296.108 31.144 294.335 32.8053 292.282 35.344C290.266 37.8827 288.604 40.5707 287.298 43.408C285.916 46.2827 285.226 48.84 285.226 51.08C285.226 51.752 285.506 52.088 286.066 52.088Z" fill="#F70786"/>
<path d="M-176.011 506.327C-90.716 466.716 -96.8084 466.716 -145.548 506.327C-194.288 545.939 -200.38 433.738 -115.086 506.327C-29.7913 464.848 -35.8838 464.848 -84.6235 506.327C-133.363 547.807 -139.456 414.773 -54.1612 506.327C31.1334 454.01 25.0409 454.01 -23.6988 506.327C-72.4386 558.644 -78.531 401.04 6.76353 506.327C92.0581 446.163 85.9656 446.163 37.2259 506.327C-11.5139 566.492 -17.6063 391.23 67.6882 506.327C152.983 440.558 146.89 440.558 98.1506 506.327C49.4108 572.097 43.3184 414.119 128.613 506.327C213.908 453.637 207.815 453.637 159.075 506.327C110.336 559.018 104.243 422.62 189.538 506.327C274.832 458.495 268.74 458.495 220 506.327C171.26 554.16 165.168 421.312 250.462 506.327C335.757 457.747 329.664 457.747 280.925 506.327C232.185 554.907 226.092 399.732 311.387 506.327C396.682 445.416 390.589 445.416 341.849 506.327C293.11 567.239 287.017 436.354 372.312 506.327C457.606 466.342 451.514 466.342 402.774 506.327C354.034 546.312 347.942 403.656 433.236 506.327C518.531 447.658 512.439 447.658 463.699 506.327C414.959 564.997 408.867 400.386 494.161 506.327C579.456 445.789 573.363 445.789 524.623 506.327C475.884 566.865 469.791 401.04 555.086 506.327C640.38 446.163 634.288 446.163 585.548 506.327" stroke="#FF0088" stroke-width="8"/>
</g>
<rect x="4" y="4" width="322" height="569" stroke="white" stroke-width="8"/>
<defs>
<filter id="filter0_dddddd_551_858" x="141.354" y="120" width="46.187" height="152.676" filterUnits="userSpaceOnUse" color-interpolation-filters="sRGB">
<feFlood flood-opacity="0" result="BackgroundImageFix"/>
<feColorMatrix in="SourceAlpha" type="matrix" values="0 0 0 0 0 0 0 0 0 0 0 0 0 0 0 0 0 0 127 0" result="hardAlpha"/>
<feOffset/>
<feColorMatrix type="matrix" values="0 0 0 0 1 0 0 0 0 1 0 0 0 0 1 0 0 0 1 0"/>
<feBlend mode="normal" in2="BackgroundImageFix" result="effect1_dropShadow_551_858"/>
<feColorMatrix in="SourceAlpha" type="matrix" values="0 0 0 0 0 0 0 0 0 0 0 0 0 0 0 0 0 0 127 0" result="hardAlpha"/>
<feOffset/>
<feColorMatrix type="matrix" values="0 0 0 0 1 0 0 0 0 1 0 0 0 0 1 0 0 0 1 0"/>
<feBlend mode="normal" in2="effect1_dropShadow_551_858" result="effect2_dropShadow_551_858"/>
<feColorMatrix in="SourceAlpha" type="matrix" values="0 0 0 0 0 0 0 0 0 0 0 0 0 0 0 0 0 0 127 0" result="hardAlpha"/>
<feOffset/>
<feColorMatrix type="matrix" values="0 0 0 0 1 0 0 0 0 1 0 0 0 0 1 0 0 0 1 0"/>
<feBlend mode="normal" in2="effect2_dropShadow_551_858" result="effect3_dropShadow_551_858"/>
<feColorMatrix in="SourceAlpha" type="matrix" values="0 0 0 0 0 0 0 0 0 0 0 0 0 0 0 0 0 0 127 0" result="hardAlpha"/>
<feOffset/>
<feColorMatrix type="matrix" values="0 0 0 0 1 0 0 0 0 1 0 0 0 0 1 0 0 0 1 0"/>
<feBlend mode="normal" in2="effect3_dropShadow_551_858" result="effect4_dropShadow_551_858"/>
<feColorMatrix in="SourceAlpha" type="matrix" values="0 0 0 0 0 0 0 0 0 0 0 0 0 0 0 0 0 0 127 0" result="hardAlpha"/>
<feOffset/>
<feColorMatrix type="matrix" values="0 0 0 0 1 0 0 0 0 1 0 0 0 0 1 0 0 0 1 0"/>
<feBlend mode="normal" in2="effect4_dropShadow_551_858" result="effect5_dropShadow_551_858"/>
<feColorMatrix in="SourceAlpha" type="matrix" values="0 0 0 0 0 0 0 0 0 0 0 0 0 0 0 0 0 0 127 0" result="hardAlpha"/>
<feOffset/>
<feColorMatrix type="matrix" values="0 0 0 0 1 0 0 0 0 1 0 0 0 0 1 0 0 0 1 0"/>
<feBlend mode="normal" in2="effect5_dropShadow_551_858" result="effect6_dropShadow_551_858"/>
<feBlend mode="normal" in="SourceGraphic" in2="effect6_dropShadow_551_858" result="shape"/>
</filter>
<filter id="filter1_dddddd_551_858" x="107.131" y="269.693" width="61.9839" height="64.6836" filterUnits="userSpaceOnUse" color-interpolation-filters="sRGB">
<feFlood flood-opacity="0" result="BackgroundImageFix"/>
<feColorMatrix in="SourceAlpha" type="matrix" values="0 0 0 0 0 0 0 0 0 0 0 0 0 0 0 0 0 0 127 0" result="hardAlpha"/>
<feOffset/>
<feColorMatrix type="matrix" values="0 0 0 0 1 0 0 0 0 1 0 0 0 0 1 0 0 0 1 0"/>
<feBlend mode="normal" in2="BackgroundImageFix" result="effect1_dropShadow_551_858"/>
<feColorMatrix in="SourceAlpha" type="matrix" values="0 0 0 0 0 0 0 0 0 0 0 0 0 0 0 0 0 0 127 0" result="hardAlpha"/>
<feOffset/>
<feColorMatrix type="matrix" values="0 0 0 0 1 0 0 0 0 1 0 0 0 0 1 0 0 0 1 0"/>
<feBlend mode="normal" in2="effect1_dropShadow_551_858" result="effect2_dropShadow_551_858"/>
<feColorMatrix in="SourceAlpha" type="matrix" values="0 0 0 0 0 0 0 0 0 0 0 0 0 0 0 0 0 0 127 0" result="hardAlpha"/>
<feOffset/>
<feColorMatrix type="matrix" values="0 0 0 0 1 0 0 0 0 1 0 0 0 0 1 0 0 0 1 0"/>
<feBlend mode="normal" in2="effect2_dropShadow_551_858" result="effect3_dropShadow_551_858"/>
<feColorMatrix in="SourceAlpha" type="matrix" values="0 0 0 0 0 0 0 0 0 0 0 0 0 0 0 0 0 0 127 0" result="hardAlpha"/>
<feOffset/>
<feColorMatrix type="matrix" values="0 0 0 0 1 0 0 0 0 1 0 0 0 0 1 0 0 0 1 0"/>
<feBlend mode="normal" in2="effect3_dropShadow_551_858" result="effect4_dropShadow_551_858"/>
<feColorMatrix in="SourceAlpha" type="matrix" values="0 0 0 0 0 0 0 0 0 0 0 0 0 0 0 0 0 0 127 0" result="hardAlpha"/>
<feOffset/>
<feColorMatrix type="matrix" values="0 0 0 0 1 0 0 0 0 1 0 0 0 0 1 0 0 0 1 0"/>
<feBlend mode="normal" in2="effect4_dropShadow_551_858" result="effect5_dropShadow_551_858"/>
<feColorMatrix in="SourceAlpha" type="matrix" values="0 0 0 0 0 0 0 0 0 0 0 0 0 0 0 0 0 0 127 0" result="hardAlpha"/>
<feOffset/>
<feColorMatrix type="matrix" values="0 0 0 0 1 0 0 0 0 1 0 0 0 0 1 0 0 0 1 0"/>
<feBlend mode="normal" in2="effect5_dropShadow_551_858" result="effect6_dropShadow_551_858"/>
<feBlend mode="normal" in="SourceGraphic" in2="effect6_dropShadow_551_858" result="shape"/>
</filter>
<filter id="filter2_dddddd_551_858" x="161.479" y="213.76" width="61.9839" height="64.6836" filterUnits="userSpaceOnUse" color-interpolation-filters="sRGB">
<feFlood flood-opacity="0" result="BackgroundImageFix"/>
<feColorMatrix in="SourceAlpha" type="matrix" values="0 0 0 0 0 0 0 0 0 0 0 0 0 0 0 0 0 0 127 0" result="hardAlpha"/>
<feOffset/>
<feColorMatrix type="matrix" values="0 0 0 0 1 0 0 0 0 1 0 0 0 0 1 0 0 0 1 0"/>
<feBlend mode="normal" in2="BackgroundImageFix" result="effect1_dropShadow_551_858"/>
<feColorMatrix in="SourceAlpha" type="matrix" values="0 0 0 0 0 0 0 0 0 0 0 0 0 0 0 0 0 0 127 0" result="hardAlpha"/>
<feOffset/>
<feColorMatrix type="matrix" values="0 0 0 0 1 0 0 0 0 1 0 0 0 0 1 0 0 0 1 0"/>
<feBlend mode="normal" in2="effect1_dropShadow_551_858" result="effect2_dropShadow_551_858"/>
<feColorMatrix in="SourceAlpha" type="matrix" values="0 0 0 0 0 0 0 0 0 0 0 0 0 0 0 0 0 0 127 0" result="hardAlpha"/>
<feOffset/>
<feColorMatrix type="matrix" values="0 0 0 0 1 0 0 0 0 1 0 0 0 0 1 0 0 0 1 0"/>
<feBlend mode="normal" in2="effect2_dropShadow_551_858" result="effect3_dropShadow_551_858"/>
<feColorMatrix in="SourceAlpha" type="matrix" values="0 0 0 0 0 0 0 0 0 0 0 0 0 0 0 0 0 0 127 0" result="hardAlpha"/>
<feOffset/>
<feColorMatrix type="matrix" values="0 0 0 0 1 0 0 0 0 1 0 0 0 0 1 0 0 0 1 0"/>
<feBlend mode="normal" in2="effect3_dropShadow_551_858" result="effect4_dropShadow_551_858"/>
<feColorMatrix in="SourceAlpha" type="matrix" values="0 0 0 0 0 0 0 0 0 0 0 0 0 0 0 0 0 0 127 0" result="hardAlpha"/>
<feOffset/>
<feColorMatrix type="matrix" values="0 0 0 0 1 0 0 0 0 1 0 0 0 0 1 0 0 0 1 0"/>
<feBlend mode="normal" in2="effect4_dropShadow_551_858" result="effect5_dropShadow_551_858"/>
<feColorMatrix in="SourceAlpha" type="matrix" values="0 0 0 0 0 0 0 0 0 0 0 0 0 0 0 0 0 0 127 0" result="hardAlpha"/>
<feOffset/>
<feColorMatrix type="matrix" values="0 0 0 0 1 0 0 0 0 1 0 0 0 0 1 0 0 0 1 0"/>
<feBlend mode="normal" in2="effect5_dropShadow_551_858" result="effect6_dropShadow_551_858"/>
<feBlend mode="normal" in="SourceGraphic" in2="effect6_dropShadow_551_858" result="shape"/>
</filter>
<filter id="filter3_dddddd_551_858" x="107.131" y="213.76" width="61.9839" height="64.6836" filterUnits="userSpaceOnUse" color-interpolation-filters="sRGB">
<feFlood flood-opacity="0" result="BackgroundImageFix"/>
<feColorMatrix in="SourceAlpha" type="matrix" values="0 0 0 0 0 0 0 0 0 0 0 0 0 0 0 0 0 0 127 0" result="hardAlpha"/>
<feOffset/>
<feColorMatrix type="matrix" values="0 0 0 0 1 0 0 0 0 1 0 0 0 0 1 0 0 0 1 0"/>
<feBlend mode="normal" in2="BackgroundImageFix" result="effect1_dropShadow_551_858"/>
<feColorMatrix in="SourceAlpha" type="matrix" values="0 0 0 0 0 0 0 0 0 0 0 0 0 0 0 0 0 0 127 0" result="hardAlpha"/>
<feOffset/>
<feColorMatrix type="matrix" values="0 0 0 0 1 0 0 0 0 1 0 0 0 0 1 0 0 0 1 0"/>
<feBlend mode="normal" in2="effect1_dropShadow_551_858" result="effect2_dropShadow_551_858"/>
<feColorMatrix in="SourceAlpha" type="matrix" values="0 0 0 0 0 0 0 0 0 0 0 0 0 0 0 0 0 0 127 0" result="hardAlpha"/>
<feOffset/>
<feColorMatrix type="matrix" values="0 0 0 0 1 0 0 0 0 1 0 0 0 0 1 0 0 0 1 0"/>
<feBlend mode="normal" in2="effect2_dropShadow_551_858" result="effect3_dropShadow_551_858"/>
<feColorMatrix in="SourceAlpha" type="matrix" values="0 0 0 0 0 0 0 0 0 0 0 0 0 0 0 0 0 0 127 0" result="hardAlpha"/>
<feOffset/>
<feColorMatrix type="matrix" values="0 0 0 0 1 0 0 0 0 1 0 0 0 0 1 0 0 0 1 0"/>
<feBlend mode="normal" in2="effect3_dropShadow_551_858" result="effect4_dropShadow_551_858"/>
<feColorMatrix in="SourceAlpha" type="matrix" values="0 0 0 0 0 0 0 0 0 0 0 0 0 0 0 0 0 0 127 0" result="hardAlpha"/>
<feOffset/>
<feColorMatrix type="matrix" values="0 0 0 0 1 0 0 0 0 1 0 0 0 0 1 0 0 0 1 0"/>
<feBlend mode="normal" in2="effect4_dropShadow_551_858" result="effect5_dropShadow_551_858"/>
<feColorMatrix in="SourceAlpha" type="matrix" values="0 0 0 0 0 0 0 0 0 0 0 0 0 0 0 0 0 0 127 0" result="hardAlpha"/>
<feOffset/>
<feColorMatrix type="matrix" values="0 0 0 0 1 0 0 0 0 1 0 0 0 0 1 0 0 0 1 0"/>
<feBlend mode="normal" in2="effect5_dropShadow_551_858" result="effect6_dropShadow_551_858"/>
<feBlend mode="normal" in="SourceGraphic" in2="effect6_dropShadow_551_858" result="shape"/>
</filter>
<filter id="filter4_dddddd_551_858" x="161.479" y="269.693" width="61.9839" height="64.6836" filterUnits="userSpaceOnUse" color-interpolation-filters="sRGB">
<feFlood flood-opacity="0" result="BackgroundImageFix"/>
<feColorMatrix in="SourceAlpha" type="matrix" values="0 0 0 0 0 0 0 0 0 0 0 0 0 0 0 0 0 0 127 0" result="hardAlpha"/>
<feOffset/>
<feColorMatrix type="matrix" values="0 0 0 0 1 0 0 0 0 1 0 0 0 0 1 0 0 0 1 0"/>
<feBlend mode="normal" in2="BackgroundImageFix" result="effect1_dropShadow_551_858"/>
<feColorMatrix in="SourceAlpha" type="matrix" values="0 0 0 0 0 0 0 0 0 0 0 0 0 0 0 0 0 0 127 0" result="hardAlpha"/>
<feOffset/>
<feColorMatrix type="matrix" values="0 0 0 0 1 0 0 0 0 1 0 0 0 0 1 0 0 0 1 0"/>
<feBlend mode="normal" in2="effect1_dropShadow_551_858" result="effect2_dropShadow_551_858"/>
<feColorMatrix in="SourceAlpha" type="matrix" values="0 0 0 0 0 0 0 0 0 0 0 0 0 0 0 0 0 0 127 0" result="hardAlpha"/>
<feOffset/>
<feColorMatrix type="matrix" values="0 0 0 0 1 0 0 0 0 1 0 0 0 0 1 0 0 0 1 0"/>
<feBlend mode="normal" in2="effect2_dropShadow_551_858" result="effect3_dropShadow_551_858"/>
<feColorMatrix in="SourceAlpha" type="matrix" values="0 0 0 0 0 0 0 0 0 0 0 0 0 0 0 0 0 0 127 0" result="hardAlpha"/>
<feOffset/>
<feColorMatrix type="matrix" values="0 0 0 0 1 0 0 0 0 1 0 0 0 0 1 0 0 0 1 0"/>
<feBlend mode="normal" in2="effect3_dropShadow_551_858" result="effect4_dropShadow_551_858"/>
<feColorMatrix in="SourceAlpha" type="matrix" values="0 0 0 0 0 0 0 0 0 0 0 0 0 0 0 0 0 0 127 0" result="hardAlpha"/>
<feOffset/>
<feColorMatrix type="matrix" values="0 0 0 0 1 0 0 0 0 1 0 0 0 0 1 0 0 0 1 0"/>
<feBlend mode="normal" in2="effect4_dropShadow_551_858" result="effect5_dropShadow_551_858"/>
<feColorMatrix in="SourceAlpha" type="matrix" values="0 0 0 0 0 0 0 0 0 0 0 0 0 0 0 0 0 0 127 0" result="hardAlpha"/>
<feOffset/>
<feColorMatrix type="matrix" values="0 0 0 0 1 0 0 0 0 1 0 0 0 0 1 0 0 0 1 0"/>
<feBlend mode="normal" in2="effect5_dropShadow_551_858" result="effect6_dropShadow_551_858"/>
<feBlend mode="normal" in="SourceGraphic" in2="effect6_dropShadow_551_858" result="shape"/>
</filter>
<filter id="filter5_dddddd_551_858" x="142.203" y="274.408" width="46.1885" height="152.68" filterUnits="userSpaceOnUse" color-interpolation-filters="sRGB">
<feFlood flood-opacity="0" result="BackgroundImageFix"/>
<feColorMatrix in="SourceAlpha" type="matrix" values="0 0 0 0 0 0 0 0 0 0 0 0 0 0 0 0 0 0 127 0" result="hardAlpha"/>
<feOffset/>
<feColorMatrix type="matrix" values="0 0 0 0 1 0 0 0 0 1 0 0 0 0 1 0 0 0 1 0"/>
<feBlend mode="normal" in2="BackgroundImageFix" result="effect1_dropShadow_551_858"/>
<feColorMatrix in="SourceAlpha" type="matrix" values="0 0 0 0 0 0 0 0 0 0 0 0 0 0 0 0 0 0 127 0" result="hardAlpha"/>
<feOffset/>
<feColorMatrix type="matrix" values="0 0 0 0 1 0 0 0 0 1 0 0 0 0 1 0 0 0 1 0"/>
<feBlend mode="normal" in2="effect1_dropShadow_551_858" result="effect2_dropShadow_551_858"/>
<feColorMatrix in="SourceAlpha" type="matrix" values="0 0 0 0 0 0 0 0 0 0 0 0 0 0 0 0 0 0 127 0" result="hardAlpha"/>
<feOffset/>
<feColorMatrix type="matrix" values="0 0 0 0 1 0 0 0 0 1 0 0 0 0 1 0 0 0 1 0"/>
<feBlend mode="normal" in2="effect2_dropShadow_551_858" result="effect3_dropShadow_551_858"/>
<feColorMatrix in="SourceAlpha" type="matrix" values="0 0 0 0 0 0 0 0 0 0 0 0 0 0 0 0 0 0 127 0" result="hardAlpha"/>
<feOffset/>
<feColorMatrix type="matrix" values="0 0 0 0 1 0 0 0 0 1 0 0 0 0 1 0 0 0 1 0"/>
<feBlend mode="normal" in2="effect3_dropShadow_551_858" result="effect4_dropShadow_551_858"/>
<feColorMatrix in="SourceAlpha" type="matrix" values="0 0 0 0 0 0 0 0 0 0 0 0 0 0 0 0 0 0 127 0" result="hardAlpha"/>
<feOffset/>
<feColorMatrix type="matrix" values="0 0 0 0 1 0 0 0 0 1 0 0 0 0 1 0 0 0 1 0"/>
<feBlend mode="normal" in2="effect4_dropShadow_551_858" result="effect5_dropShadow_551_858"/>
<feColorMatrix in="SourceAlpha" type="matrix" values="0 0 0 0 0 0 0 0 0 0 0 0 0 0 0 0 0 0 127 0" result="hardAlpha"/>
<feOffset/>
<feColorMatrix type="matrix" values="0 0 0 0 1 0 0 0 0 1 0 0 0 0 1 0 0 0 1 0"/>
<feBlend mode="normal" in2="effect5_dropShadow_551_858" result="effect6_dropShadow_551_858"/>
<feBlend mode="normal" in="SourceGraphic" in2="effect6_dropShadow_551_858" result="shape"/>
</filter>
<filter id="filter6_dddddd_551_858" x="30" y="250.773" width="127.585" height="46.1875" filterUnits="userSpaceOnUse" color-interpolation-filters="sRGB">
<feFlood flood-opacity="0" result="BackgroundImageFix"/>
<feColorMatrix in="SourceAlpha" type="matrix" values="0 0 0 0 0 0 0 0 0 0 0 0 0 0 0 0 0 0 127 0" result="hardAlpha"/>
<feOffset/>
<feColorMatrix type="matrix" values="0 0 0 0 1 0 0 0 0 1 0 0 0 0 1 0 0 0 1 0"/>
<feBlend mode="normal" in2="BackgroundImageFix" result="effect1_dropShadow_551_858"/>
<feColorMatrix in="SourceAlpha" type="matrix" values="0 0 0 0 0 0 0 0 0 0 0 0 0 0 0 0 0 0 127 0" result="hardAlpha"/>
<feOffset/>
<feColorMatrix type="matrix" values="0 0 0 0 1 0 0 0 0 1 0 0 0 0 1 0 0 0 1 0"/>
<feBlend mode="normal" in2="effect1_dropShadow_551_858" result="effect2_dropShadow_551_858"/>
<feColorMatrix in="SourceAlpha" type="matrix" values="0 0 0 0 0 0 0 0 0 0 0 0 0 0 0 0 0 0 127 0" result="hardAlpha"/>
<feOffset/>
<feColorMatrix type="matrix" values="0 0 0 0 1 0 0 0 0 1 0 0 0 0 1 0 0 0 1 0"/>
<feBlend mode="normal" in2="effect2_dropShadow_551_858" result="effect3_dropShadow_551_858"/>
<feColorMatrix in="SourceAlpha" type="matrix" values="0 0 0 0 0 0 0 0 0 0 0 0 0 0 0 0 0 0 127 0" result="hardAlpha"/>
<feOffset/>
<feColorMatrix type="matrix" values="0 0 0 0 1 0 0 0 0 1 0 0 0 0 1 0 0 0 1 0"/>
<feBlend mode="normal" in2="effect3_dropShadow_551_858" result="effect4_dropShadow_551_858"/>
<feColorMatrix in="SourceAlpha" type="matrix" values="0 0 0 0 0 0 0 0 0 0 0 0 0 0 0 0 0 0 127 0" result="hardAlpha"/>
<feOffset/>
<feColorMatrix type="matrix" values="0 0 0 0 1 0 0 0 0 1 0 0 0 0 1 0 0 0 1 0"/>
<feBlend mode="normal" in2="effect4_dropShadow_551_858" result="effect5_dropShadow_551_858"/>
<feColorMatrix in="SourceAlpha" type="matrix" values="0 0 0 0 0 0 0 0 0 0 0 0 0 0 0 0 0 0 127 0" result="hardAlpha"/>
<feOffset/>
<feColorMatrix type="matrix" values="0 0 0 0 1 0 0 0 0 1 0 0 0 0 1 0 0 0 1 0"/>
<feBlend mode="normal" in2="effect5_dropShadow_551_858" result="effect6_dropShadow_551_858"/>
<feBlend mode="normal" in="SourceGraphic" in2="effect6_dropShadow_551_858" result="shape"/>
</filter>
<filter id="filter7_dddddd_551_858" x="172.415" y="250.773" width="127.585" height="46.1875" filterUnits="userSpaceOnUse" color-interpolation-filters="sRGB">
<feFlood flood-opacity="0" result="BackgroundImageFix"/>
<feColorMatrix in="SourceAlpha" type="matrix" values="0 0 0 0 0 0 0 0 0 0 0 0 0 0 0 0 0 0 127 0" result="hardAlpha"/>
<feOffset/>
<feColorMatrix type="matrix" values="0 0 0 0 1 0 0 0 0 1 0 0 0 0 1 0 0 0 1 0"/>
<feBlend mode="normal" in2="BackgroundImageFix" result="effect1_dropShadow_551_858"/>
<feColorMatrix in="SourceAlpha" type="matrix" values="0 0 0 0 0 0 0 0 0 0 0 0 0 0 0 0 0 0 127 0" result="hardAlpha"/>
<feOffset/>
<feColorMatrix type="matrix" values="0 0 0 0 1 0 0 0 0 1 0 0 0 0 1 0 0 0 1 0"/>
<feBlend mode="normal" in2="effect1_dropShadow_551_858" result="effect2_dropShadow_551_858"/>
<feColorMatrix in="SourceAlpha" type="matrix" values="0 0 0 0 0 0 0 0 0 0 0 0 0 0 0 0 0 0 127 0" result="hardAlpha"/>
<feOffset/>
<feColorMatrix type="matrix" values="0 0 0 0 1 0 0 0 0 1 0 0 0 0 1 0 0 0 1 0"/>
<feBlend mode="normal" in2="effect2_dropShadow_551_858" result="effect3_dropShadow_551_858"/>
<feColorMatrix in="SourceAlpha" type="matrix" values="0 0 0 0 0 0 0 0 0 0 0 0 0 0 0 0 0 0 127 0" result="hardAlpha"/>
<feOffset/>
<feColorMatrix type="matrix" values="0 0 0 0 1 0 0 0 0 1 0 0 0 0 1 0 0 0 1 0"/>
<feBlend mode="normal" in2="effect3_dropShadow_551_858" result="effect4_dropShadow_551_858"/>
<feColorMatrix in="SourceAlpha" type="matrix" values="0 0 0 0 0 0 0 0 0 0 0 0 0 0 0 0 0 0 127 0" result="hardAlpha"/>
<feOffset/>
<feColorMatrix type="matrix" values="0 0 0 0 1 0 0 0 0 1 0 0 0 0 1 0 0 0 1 0"/>
<feBlend mode="normal" in2="effect4_dropShadow_551_858" result="effect5_dropShadow_551_858"/>
<feColorMatrix in="SourceAlpha" type="matrix" values="0 0 0 0 0 0 0 0 0 0 0 0 0 0 0 0 0 0 127 0" result="hardAlpha"/>
<feOffset/>
<feColorMatrix type="matrix" values="0 0 0 0 1 0 0 0 0 1 0 0 0 0 1 0 0 0 1 0"/>
<feBlend mode="normal" in2="effect5_dropShadow_551_858" result="effect6_dropShadow_551_858"/>
<feBlend mode="normal" in="SourceGraphic" in2="effect6_dropShadow_551_858" result="shape"/>
</filter>
<filter id="filter8_dddddd_551_858" x="134.646" y="253.756" width="61.2983" height="40.2246" filterUnits="userSpaceOnUse" color-interpolation-filters="sRGB">
<feFlood flood-opacity="0" result="BackgroundImageFix"/>
<feColorMatrix in="SourceAlpha" type="matrix" values="0 0 0 0 0 0 0 0 0 0 0 0 0 0 0 0 0 0 127 0" result="hardAlpha"/>
<feOffset/>
<feColorMatrix type="matrix" values="0 0 0 0 0 0 0 0 0 0 0 0 0 0 0 0 0 0 1 0"/>
<feBlend mode="normal" in2="BackgroundImageFix" result="effect1_dropShadow_551_858"/>
<feColorMatrix in="SourceAlpha" type="matrix" values="0 0 0 0 0 0 0 0 0 0 0 0 0 0 0 0 0 0 127 0" result="hardAlpha"/>
<feOffset/>
<feColorMatrix type="matrix" values="0 0 0 0 0 0 0 0 0 0 0 0 0 0 0 0 0 0 1 0"/>
<feBlend mode="normal" in2="effect1_dropShadow_551_858" result="effect2_dropShadow_551_858"/>
<feColorMatrix in="SourceAlpha" type="matrix" values="0 0 0 0 0 0 0 0 0 0 0 0 0 0 0 0 0 0 127 0" result="hardAlpha"/>
<feOffset/>
<feColorMatrix type="matrix" values="0 0 0 0 0 0 0 0 0 0 0 0 0 0 0 0 0 0 1 0"/>
<feBlend mode="normal" in2="effect2_dropShadow_551_858" result="effect3_dropShadow_551_858"/>
<feColorMatrix in="SourceAlpha" type="matrix" values="0 0 0 0 0 0 0 0 0 0 0 0 0 0 0 0 0 0 127 0" result="hardAlpha"/>
<feOffset/>
<feColorMatrix type="matrix" values="0 0 0 0 0 0 0 0 0 0 0 0 0 0 0 0 0 0 1 0"/>
<feBlend mode="normal" in2="effect3_dropShadow_551_858" result="effect4_dropShadow_551_858"/>
<feColorMatrix in="SourceAlpha" type="matrix" values="0 0 0 0 0 0 0 0 0 0 0 0 0 0 0 0 0 0 127 0" result="hardAlpha"/>
<feOffset/>
<feColorMatrix type="matrix" values="0 0 0 0 0 0 0 0 0 0 0 0 0 0 0 0 0 0 1 0"/>
<feBlend mode="normal" in2="effect4_dropShadow_551_858" result="effect5_dropShadow_551_858"/>
<feColorMatrix in="SourceAlpha" type="matrix" values="0 0 0 0 0 0 0 0 0 0 0 0 0 0 0 0 0 0 127 0" result="hardAlpha"/>
<feOffset/>
<feColorMatrix type="matrix" values="0 0 0 0 0 0 0 0 0 0 0 0 0 0 0 0 0 0 1 0"/>
<feBlend mode="normal" in2="effect5_dropShadow_551_858" result="effect6_dropShadow_551_858"/>
<feBlend mode="normal" in="SourceGraphic" in2="effect6_dropShadow_551_858" result="shape"/>
</filter>
<filter id="filter9_dddddd_551_858" x="140.04" y="261.854" width="20.6777" height="23.1133" filterUnits="userSpaceOnUse" color-interpolation-filters="sRGB">
<feFlood flood-opacity="0" result="BackgroundImageFix"/>
<feColorMatrix in="SourceAlpha" type="matrix" values="0 0 0 0 0 0 0 0 0 0 0 0 0 0 0 0 0 0 127 0" result="hardAlpha"/>
<feOffset/>
<feColorMatrix type="matrix" values="0 0 0 0 1 0 0 0 0 0 0 0 0 0 0.533333 0 0 0 1 0"/>
<feBlend mode="normal" in2="BackgroundImageFix" result="effect1_dropShadow_551_858"/>
<feColorMatrix in="SourceAlpha" type="matrix" values="0 0 0 0 0 0 0 0 0 0 0 0 0 0 0 0 0 0 127 0" result="hardAlpha"/>
<feOffset/>
<feColorMatrix type="matrix" values="0 0 0 0 1 0 0 0 0 0 0 0 0 0 0.533333 0 0 0 1 0"/>
<feBlend mode="normal" in2="effect1_dropShadow_551_858" result="effect2_dropShadow_551_858"/>
<feColorMatrix in="SourceAlpha" type="matrix" values="0 0 0 0 0 0 0 0 0 0 0 0 0 0 0 0 0 0 127 0" result="hardAlpha"/>
<feOffset/>
<feColorMatrix type="matrix" values="0 0 0 0 1 0 0 0 0 0 0 0 0 0 0.533333 0 0 0 1 0"/>
<feBlend mode="normal" in2="effect2_dropShadow_551_858" result="effect3_dropShadow_551_858"/>
<feColorMatrix in="SourceAlpha" type="matrix" values="0 0 0 0 0 0 0 0 0 0 0 0 0 0 0 0 0 0 127 0" result="hardAlpha"/>
<feOffset/>
<feColorMatrix type="matrix" values="0 0 0 0 1 0 0 0 0 0 0 0 0 0 0.533333 0 0 0 1 0"/>
<feBlend mode="normal" in2="effect3_dropShadow_551_858" result="effect4_dropShadow_551_858"/>
<feColorMatrix in="SourceAlpha" type="matrix" values="0 0 0 0 0 0 0 0 0 0 0 0 0 0 0 0 0 0 127 0" result="hardAlpha"/>
<feOffset/>
<feColorMatrix type="matrix" values="0 0 0 0 1 0 0 0 0 0 0 0 0 0 0.533333 0 0 0 1 0"/>
<feBlend mode="normal" in2="effect4_dropShadow_551_858" result="effect5_dropShadow_551_858"/>
<feColorMatrix in="SourceAlpha" type="matrix" values="0 0 0 0 0 0 0 0 0 0 0 0 0 0 0 0 0 0 127 0" result="hardAlpha"/>
<feOffset/>
<feColorMatrix type="matrix" values="0 0 0 0 1 0 0 0 0 0 0 0 0 0 0.533333 0 0 0 1 0"/>
<feBlend mode="normal" in2="effect5_dropShadow_551_858" result="effect6_dropShadow_551_858"/>
<feBlend mode="normal" in="SourceGraphic" in2="effect6_dropShadow_551_858" result="shape"/>
</filter>
<filter id="filter10_dddddd_551_858" x="170.458" y="261.602" width="20.6079" height="23.1855" filterUnits="userSpaceOnUse" color-interpolation-filters="sRGB">
<feFlood flood-opacity="0" result="BackgroundImageFix"/>
<feColorMatrix in="SourceAlpha" type="matrix" values="0 0 0 0 0 0 0 0 0 0 0 0 0 0 0 0 0 0 127 0" result="hardAlpha"/>
<feOffset/>
<feColorMatrix type="matrix" values="0 0 0 0 1 0 0 0 0 0 0 0 0 0 0.533333 0 0 0 1 0"/>
<feBlend mode="normal" in2="BackgroundImageFix" result="effect1_dropShadow_551_858"/>
<feColorMatrix in="SourceAlpha" type="matrix" values="0 0 0 0 0 0 0 0 0 0 0 0 0 0 0 0 0 0 127 0" result="hardAlpha"/>
<feOffset/>
<feColorMatrix type="matrix" values="0 0 0 0 1 0 0 0 0 0 0 0 0 0 0.533333 0 0 0 1 0"/>
<feBlend mode="normal" in2="effect1_dropShadow_551_858" result="effect2_dropShadow_551_858"/>
<feColorMatrix in="SourceAlpha" type="matrix" values="0 0 0 0 0 0 0 0 0 0 0 0 0 0 0 0 0 0 127 0" result="hardAlpha"/>
<feOffset/>
<feColorMatrix type="matrix" values="0 0 0 0 1 0 0 0 0 0 0 0 0 0 0.533333 0 0 0 1 0"/>
<feBlend mode="normal" in2="effect2_dropShadow_551_858" result="effect3_dropShadow_551_858"/>
<feColorMatrix in="SourceAlpha" type="matrix" values="0 0 0 0 0 0 0 0 0 0 0 0 0 0 0 0 0 0 127 0" result="hardAlpha"/>
<feOffset/>
<feColorMatrix type="matrix" values="0 0 0 0 1 0 0 0 0 0 0 0 0 0 0.533333 0 0 0 1 0"/>
<feBlend mode="normal" in2="effect3_dropShadow_551_858" result="effect4_dropShadow_551_858"/>
<feColorMatrix in="SourceAlpha" type="matrix" values="0 0 0 0 0 0 0 0 0 0 0 0 0 0 0 0 0 0 127 0" result="hardAlpha"/>
<feOffset/>
<feColorMatrix type="matrix" values="0 0 0 0 1 0 0 0 0 0 0 0 0 0 0.533333 0 0 0 1 0"/>
<feBlend mode="normal" in2="effect4_dropShadow_551_858" result="effect5_dropShadow_551_858"/>
<feColorMatrix in="SourceAlpha" type="matrix" values="0 0 0 0 0 0 0 0 0 0 0 0 0 0 0 0 0 0 127 0" result="hardAlpha"/>
<feOffset/>
<feColorMatrix type="matrix" values="0 0 0 0 1 0 0 0 0 0 0 0 0 0 0.533333 0 0 0 1 0"/>
<feBlend mode="normal" in2="effect5_dropShadow_551_858" result="effect6_dropShadow_551_858"/>
<feBlend mode="normal" in="SourceGraphic" in2="effect6_dropShadow_551_858" result="shape"/>
</filter>
<clipPath id="clip0_551_858">
<rect width="330" height="577" fill="white"/>
</clipPath>
</defs>
</svg>
