<svg width="2620" height="560" viewBox="0 0 2620 560" fill="none" xmlns="http://www.w3.org/2000/svg">
<path d="M142.012 141.673L135.911 122.614L166.606 133.977L170.425 135.391L170.643 131.324L174.725 55.0551L223.29 126.616L224.737 128.748L227.063 127.64L342.133 72.8052L283.621 168.02L281.997 170.662L284.692 172.197L337.332 202.178L280.657 198.792L275.907 198.508L277.699 202.916L308.398 278.449L239.9 235.593L236.521 233.479L235.425 237.311L230.027 256.165L210.847 236.065L208.286 233.381L206.197 236.448L170.647 288.64V232.944V228.122L166.321 230.252L94.0077 265.872L146.06 200.54L148.293 197.737L145.14 196.032L51.8549 145.588H139.154H143.265L142.012 141.673Z" stroke="white" stroke-width="6"/>
<path d="M163.898 151.979L160.142 140.332L180.172 147.692L183.984 149.092L184.203 145.037L186.952 94.0576L219.865 142.192L221.31 144.305L223.624 143.211L302.361 105.971L262.539 170.287L260.895 172.941L263.613 174.478L297.506 193.636L261.234 191.485L256.473 191.203L258.28 195.617L278.967 246.133L232.796 217.463L229.43 215.372L228.331 219.18L224.933 230.962L212.406 217.932L209.853 215.278L207.77 218.314L184.207 252.648V216.364V211.558L179.889 213.669L132.266 236.951L166.609 194.169L168.868 191.355L165.688 189.648L102.806 155.9H161.043H165.162L163.898 151.979Z" stroke="white" stroke-width="6"/>
<path d="M194.715 165.627C200.454 170.94 203.677 180.862 200.971 183.262C198.265 185.662 189.022 181.081 183.283 175.768C177.545 170.455 175.086 164.203 177.792 161.802C180.498 159.402 188.976 160.315 194.715 165.627Z" fill="white"/>
<path d="M223.27 165.43C217.56 170.768 214.391 180.704 217.109 183.092C219.828 185.48 229.047 180.858 234.756 175.519C240.466 170.181 242.891 163.918 240.172 161.529C237.453 159.141 228.98 160.091 223.27 165.43Z" fill="white"/>
<path d="M2345.01 357.673L2338.91 338.614L2369.61 349.977L2373.43 351.391L2373.64 347.324L2377.73 271.055L2426.29 342.616L2427.74 344.748L2430.06 343.64L2545.13 288.805L2486.62 384.02L2485 386.662L2487.69 388.197L2540.33 418.178L2483.66 414.792L2478.91 414.508L2480.7 418.916L2511.4 494.449L2442.9 451.593L2439.52 449.479L2438.42 453.311L2433.03 472.165L2413.85 452.065L2411.29 449.381L2409.2 452.448L2373.65 504.64V448.944V444.122L2369.32 446.252L2297.01 481.872L2349.06 416.54L2351.29 413.737L2348.14 412.032L2254.85 361.588H2342.15H2346.26L2345.01 357.673Z" stroke="white" stroke-width="6"/>
<path d="M2366.9 367.979L2363.14 356.332L2383.17 363.692L2386.98 365.092L2387.2 361.037L2389.95 310.058L2422.87 358.192L2424.31 360.305L2426.62 359.211L2505.36 321.971L2465.54 386.287L2463.89 388.941L2466.61 390.478L2500.51 409.636L2464.23 407.485L2459.47 407.203L2461.28 411.617L2481.97 462.133L2435.8 433.463L2432.43 431.372L2431.33 435.18L2427.93 446.962L2415.41 433.932L2412.85 431.278L2410.77 434.314L2387.21 468.648V432.364V427.558L2382.89 429.669L2335.27 452.951L2369.61 410.169L2371.87 407.355L2368.69 405.648L2305.81 371.9H2364.04H2368.16L2366.9 367.979Z" stroke="white" stroke-width="6"/>
<path d="M2397.71 381.627C2403.45 386.94 2406.68 396.862 2403.97 399.262C2401.27 401.662 2392.02 397.081 2386.28 391.768C2380.54 386.455 2378.09 380.203 2380.79 377.802C2383.5 375.402 2391.98 376.315 2397.71 381.627Z" fill="white"/>
<path d="M2426.27 381.43C2420.56 386.768 2417.39 396.704 2420.11 399.092C2422.83 401.48 2432.05 396.858 2437.76 391.519C2443.47 386.181 2445.89 379.918 2443.17 377.529C2440.45 375.141 2431.98 376.091 2426.27 381.43Z" fill="white"/>
<path d="M2102.07 351.821L2097.92 338.846L2118.78 346.567L2121.32 347.509L2121.47 344.798L2124.24 293.037L2157.19 341.593L2158.16 343.014L2159.71 342.275L2237.76 305.082L2198.06 369.675L2196.98 371.437L2198.77 372.46L2234.55 392.839L2196.02 390.536L2192.86 390.347L2194.05 393.286L2214.89 444.545L2168.4 415.461L2166.15 414.052L2165.42 416.607L2161.74 429.433L2148.71 415.776L2147 413.987L2145.61 416.031L2121.47 451.474V413.639V410.425L2118.59 411.845L2069.47 436.038L2104.82 391.668L2106.31 389.799L2104.21 388.663L2040.9 354.43H2100.17H2102.91L2102.07 351.821Z" stroke="white" stroke-width="4"/>
<path d="M2116.9 358.802L2114.34 350.849L2127.97 355.857L2130.51 356.791L2130.65 354.088L2132.52 319.458L2154.87 352.144L2155.83 353.553L2157.38 352.823L2210.81 327.55L2183.78 371.211L2182.68 372.981L2184.5 374.005L2207.58 387.052L2182.87 385.587L2179.69 385.398L2180.9 388.341L2194.95 422.654L2163.59 403.18L2161.34 401.786L2160.61 404.324L2158.29 412.359L2149.77 403.493L2148.07 401.723L2146.68 403.747L2130.66 427.091V402.408V399.204L2127.78 400.611L2095.39 416.446L2118.74 387.353L2120.25 385.476L2118.13 384.338L2075.42 361.416H2115H2117.74L2116.9 358.802Z" stroke="white" stroke-width="4"/>
<path d="M2137.81 368.038C2141.69 371.637 2143.88 378.358 2142.05 379.984C2140.21 381.609 2133.95 378.506 2130.06 374.907C2126.18 371.308 2124.51 367.073 2126.34 365.447C2128.18 363.821 2133.92 364.439 2137.81 368.038Z" fill="white"/>
<path d="M2157.15 367.902C2153.28 371.519 2151.13 378.249 2152.98 379.867C2154.82 381.485 2161.06 378.354 2164.93 374.737C2168.8 371.121 2170.44 366.878 2168.6 365.26C2166.76 363.642 2161.02 364.286 2157.15 367.902Z" fill="white"/>
<path d="M2372.07 155.821L2367.92 142.846L2388.78 150.567L2391.32 151.509L2391.47 148.798L2394.24 97.0368L2427.19 145.593L2428.16 147.014L2429.71 146.275L2507.76 109.082L2468.06 173.675L2466.98 175.437L2468.77 176.46L2504.55 196.839L2466.02 194.536L2462.86 194.347L2464.05 197.286L2484.89 248.545L2438.4 219.461L2436.15 218.052L2435.42 220.607L2431.74 233.433L2418.71 219.776L2417 217.987L2415.61 220.031L2391.47 255.474V217.639V214.425L2388.59 215.845L2339.47 240.038L2374.82 195.668L2376.31 193.799L2374.21 192.663L2310.9 158.43H2370.17H2372.91L2372.07 155.821Z" stroke="white" stroke-width="4"/>
<path d="M2386.9 162.802L2384.34 154.849L2397.97 159.857L2400.51 160.791L2400.65 158.088L2402.52 123.458L2424.87 156.144L2425.83 157.553L2427.38 156.823L2480.81 131.55L2453.78 175.211L2452.68 176.981L2454.5 178.005L2477.58 191.052L2452.87 189.587L2449.69 189.398L2450.9 192.341L2464.95 226.654L2433.59 207.18L2431.34 205.786L2430.61 208.324L2428.29 216.359L2419.77 207.493L2418.07 205.723L2416.68 207.747L2400.66 231.091V206.408V203.204L2397.78 204.611L2365.39 220.446L2388.74 191.353L2390.25 189.476L2388.13 188.338L2345.42 165.416H2385H2387.74L2386.9 162.802Z" stroke="white" stroke-width="4"/>
<path d="M2407.81 172.038C2411.69 175.637 2413.88 182.358 2412.05 183.984C2410.21 185.609 2403.95 182.506 2400.06 178.907C2396.18 175.308 2394.51 171.073 2396.34 169.447C2398.18 167.821 2403.92 168.439 2407.81 172.038Z" fill="white"/>
<path d="M2427.15 171.902C2423.28 175.519 2421.13 182.249 2422.98 183.867C2424.82 185.485 2431.06 182.354 2434.93 178.737C2438.8 175.121 2440.44 170.878 2438.6 169.26C2436.76 167.642 2431.02 168.286 2427.15 171.902Z" fill="white"/>
<path d="M2107.01 141.673L2100.91 122.614L2131.61 133.977L2135.43 135.391L2135.64 131.324L2139.73 55.0551L2188.29 126.616L2189.74 128.748L2192.06 127.64L2307.13 72.8052L2248.62 168.02L2247 170.662L2249.69 172.197L2302.33 202.178L2245.66 198.792L2240.91 198.508L2242.7 202.916L2273.4 278.449L2204.9 235.593L2201.52 233.479L2200.42 237.311L2195.03 256.165L2175.85 236.065L2173.29 233.381L2171.2 236.448L2135.65 288.64V232.944V228.122L2131.32 230.252L2059.01 265.872L2111.06 200.54L2113.29 197.737L2110.14 196.032L2016.85 145.588H2104.15H2108.26L2107.01 141.673Z" stroke="white" stroke-width="6"/>
<path d="M2128.9 151.979L2125.14 140.332L2145.17 147.692L2148.98 149.092L2149.2 145.037L2151.95 94.0576L2184.87 142.192L2186.31 144.305L2188.62 143.211L2267.36 105.971L2227.54 170.287L2225.89 172.941L2228.61 174.478L2262.51 193.636L2226.23 191.485L2221.47 191.203L2223.28 195.617L2243.97 246.133L2197.8 217.463L2194.43 215.372L2193.33 219.18L2189.93 230.962L2177.41 217.932L2174.85 215.278L2172.77 218.314L2149.21 252.648V216.364V211.558L2144.89 213.669L2097.27 236.951L2131.61 194.169L2133.87 191.355L2130.69 189.648L2067.81 155.9H2126.04H2130.16L2128.9 151.979Z" stroke="white" stroke-width="6"/>
<path d="M2159.71 165.627C2165.45 170.94 2168.68 180.862 2165.97 183.262C2163.27 185.662 2154.02 181.081 2148.28 175.768C2142.54 170.455 2140.09 164.203 2142.79 161.802C2145.5 159.402 2153.98 160.315 2159.71 165.627Z" fill="white"/>
<path d="M2188.27 165.43C2182.56 170.768 2179.39 180.704 2182.11 183.092C2184.83 185.48 2194.05 180.858 2199.76 175.519C2205.47 170.181 2207.89 163.918 2205.17 161.529C2202.45 159.141 2193.98 160.091 2188.27 165.43Z" fill="white"/>
<path d="M1690.01 357.673L1683.91 338.614L1714.61 349.977L1718.43 351.391L1718.64 347.324L1722.73 271.055L1771.29 342.616L1772.74 344.748L1775.06 343.64L1890.13 288.805L1831.62 384.02L1830 386.662L1832.69 388.197L1885.33 418.178L1828.66 414.792L1823.91 414.508L1825.7 418.916L1856.4 494.449L1787.9 451.593L1784.52 449.479L1783.42 453.311L1778.03 472.165L1758.85 452.065L1756.29 449.381L1754.2 452.448L1718.65 504.64V448.944V444.122L1714.32 446.252L1642.01 481.872L1694.06 416.54L1696.29 413.737L1693.14 412.032L1599.85 361.588H1687.15H1691.26L1690.01 357.673Z" stroke="white" stroke-width="6"/>
<path d="M1711.9 367.979L1708.14 356.332L1728.17 363.692L1731.98 365.092L1732.2 361.037L1734.95 310.058L1767.87 358.192L1769.31 360.305L1771.62 359.211L1850.36 321.971L1810.54 386.287L1808.89 388.941L1811.61 390.478L1845.51 409.636L1809.23 407.485L1804.47 407.203L1806.28 411.617L1826.97 462.133L1780.8 433.463L1777.43 431.372L1776.33 435.18L1772.93 446.962L1760.41 433.932L1757.85 431.278L1755.77 434.314L1732.21 468.648V432.364V427.558L1727.89 429.669L1680.27 452.951L1714.61 410.169L1716.87 407.355L1713.69 405.648L1650.81 371.9H1709.04H1713.16L1711.9 367.979Z" stroke="white" stroke-width="6"/>
<path d="M1742.71 381.627C1748.45 386.94 1751.68 396.862 1748.97 399.262C1746.27 401.662 1737.02 397.081 1731.28 391.768C1725.54 386.455 1723.09 380.203 1725.79 377.802C1728.5 375.402 1736.98 376.315 1742.71 381.627Z" fill="white"/>
<path d="M1771.27 381.43C1765.56 386.768 1762.39 396.704 1765.11 399.092C1767.83 401.48 1777.05 396.858 1782.76 391.519C1788.47 386.181 1790.89 379.918 1788.17 377.529C1785.45 375.141 1776.98 376.091 1771.27 381.43Z" fill="white"/>
<path d="M1447.07 351.821L1442.92 338.846L1463.78 346.567L1466.32 347.509L1466.47 344.798L1469.24 293.037L1502.19 341.593L1503.16 343.014L1504.71 342.275L1582.76 305.082L1543.06 369.675L1541.98 371.437L1543.77 372.46L1579.55 392.839L1541.02 390.536L1537.86 390.347L1539.05 393.286L1559.89 444.545L1513.4 415.461L1511.15 414.052L1510.42 416.607L1506.74 429.433L1493.71 415.776L1492 413.987L1490.61 416.031L1466.47 451.474V413.639V410.425L1463.59 411.845L1414.47 436.038L1449.82 391.668L1451.31 389.799L1449.21 388.663L1385.9 354.43H1445.17H1447.91L1447.07 351.821Z" stroke="white" stroke-width="4"/>
<path d="M1461.9 358.802L1459.34 350.849L1472.97 355.857L1475.51 356.791L1475.65 354.088L1477.52 319.458L1499.87 352.144L1500.83 353.553L1502.38 352.823L1555.81 327.55L1528.78 371.211L1527.68 372.981L1529.5 374.005L1552.58 387.052L1527.87 385.587L1524.69 385.398L1525.9 388.341L1539.95 422.654L1508.59 403.18L1506.34 401.786L1505.61 404.324L1503.29 412.359L1494.77 403.493L1493.07 401.723L1491.68 403.747L1475.66 427.091V402.408V399.204L1472.78 400.611L1440.39 416.446L1463.74 387.353L1465.25 385.476L1463.13 384.338L1420.42 361.416H1460H1462.74L1461.9 358.802Z" stroke="white" stroke-width="4"/>
<path d="M1482.81 368.038C1486.69 371.637 1488.88 378.358 1487.05 379.984C1485.21 381.609 1478.95 378.506 1475.06 374.907C1471.18 371.308 1469.51 367.073 1471.34 365.447C1473.18 363.821 1478.92 364.439 1482.81 368.038Z" fill="white"/>
<path d="M1502.15 367.902C1498.28 371.519 1496.13 378.249 1497.98 379.867C1499.82 381.485 1506.06 378.354 1509.93 374.737C1513.8 371.121 1515.44 366.878 1513.6 365.26C1511.76 363.642 1506.02 364.286 1502.15 367.902Z" fill="white"/>
<path d="M1452.01 141.673L1445.91 122.614L1476.61 133.977L1480.43 135.391L1480.64 131.324L1484.73 55.0551L1533.29 126.616L1534.74 128.748L1537.06 127.64L1652.13 72.8052L1593.62 168.02L1592 170.662L1594.69 172.197L1647.33 202.178L1590.66 198.792L1585.91 198.508L1587.7 202.916L1618.4 278.449L1549.9 235.593L1546.52 233.479L1545.42 237.311L1540.03 256.165L1520.85 236.065L1518.29 233.381L1516.2 236.448L1480.65 288.64V232.944V228.122L1476.32 230.252L1404.01 265.872L1456.06 200.54L1458.29 197.737L1455.14 196.032L1361.85 145.588H1449.15H1453.26L1452.01 141.673Z" stroke="white" stroke-width="6"/>
<path d="M1473.9 151.979L1470.14 140.332L1490.17 147.692L1493.98 149.092L1494.2 145.037L1496.95 94.0576L1529.87 142.192L1531.31 144.305L1533.62 143.211L1612.36 105.971L1572.54 170.287L1570.89 172.941L1573.61 174.478L1607.51 193.636L1571.23 191.485L1566.47 191.203L1568.28 195.617L1588.97 246.133L1542.8 217.463L1539.43 215.372L1538.33 219.18L1534.93 230.962L1522.41 217.932L1519.85 215.278L1517.77 218.314L1494.21 252.648V216.364V211.558L1489.89 213.669L1442.27 236.951L1476.61 194.169L1478.87 191.355L1475.69 189.648L1412.81 155.9H1471.04H1475.16L1473.9 151.979Z" stroke="white" stroke-width="6"/>
<path d="M1504.71 165.627C1510.45 170.94 1513.68 180.862 1510.97 183.262C1508.27 185.662 1499.02 181.081 1493.28 175.768C1487.54 170.455 1485.09 164.203 1487.79 161.802C1490.5 159.402 1498.98 160.315 1504.71 165.627Z" fill="white"/>
<path d="M1533.27 165.43C1527.56 170.768 1524.39 180.704 1527.11 183.092C1529.83 185.48 1539.05 180.858 1544.76 175.519C1550.47 170.181 1552.89 163.918 1550.17 161.529C1547.45 159.141 1538.98 160.091 1533.27 165.43Z" fill="white"/>
<path d="M1035.01 357.673L1028.91 338.614L1059.61 349.977L1063.43 351.391L1063.64 347.324L1067.73 271.055L1116.29 342.616L1117.74 344.748L1120.06 343.64L1235.13 288.805L1176.62 384.02L1175 386.662L1177.69 388.197L1230.33 418.178L1173.66 414.792L1168.91 414.508L1170.7 418.916L1201.4 494.449L1132.9 451.593L1129.52 449.479L1128.42 453.311L1123.03 472.165L1103.85 452.065L1101.29 449.381L1099.2 452.448L1063.65 504.64V448.944V444.122L1059.32 446.252L987.008 481.872L1039.06 416.54L1041.29 413.737L1038.14 412.032L944.855 361.588H1032.15H1036.26L1035.01 357.673Z" stroke="white" stroke-width="6"/>
<path d="M1056.9 367.979L1053.14 356.332L1073.17 363.692L1076.98 365.092L1077.2 361.037L1079.95 310.058L1112.87 358.192L1114.31 360.305L1116.62 359.211L1195.36 321.971L1155.54 386.287L1153.89 388.941L1156.61 390.478L1190.51 409.636L1154.23 407.485L1149.47 407.203L1151.28 411.617L1171.97 462.133L1125.8 433.463L1122.43 431.372L1121.33 435.18L1117.93 446.962L1105.41 433.932L1102.85 431.278L1100.77 434.314L1077.21 468.648V432.364V427.558L1072.89 429.669L1025.27 452.951L1059.61 410.169L1061.87 407.355L1058.69 405.648L995.806 371.9H1054.04H1058.16L1056.9 367.979Z" stroke="white" stroke-width="6"/>
<path d="M1087.71 381.627C1093.45 386.94 1096.68 396.862 1093.97 399.262C1091.27 401.662 1082.02 397.081 1076.28 391.768C1070.54 386.455 1068.09 380.203 1070.79 377.802C1073.5 375.402 1081.98 376.315 1087.71 381.627Z" fill="white"/>
<path d="M1116.27 381.43C1110.56 386.768 1107.39 396.704 1110.11 399.092C1112.83 401.48 1122.05 396.858 1127.76 391.519C1133.47 386.181 1135.89 379.918 1133.17 377.529C1130.45 375.141 1121.98 376.091 1116.27 381.43Z" fill="white"/>
<path d="M797.012 141.673L790.911 122.614L821.606 133.977L825.425 135.391L825.643 131.324L829.725 55.0551L878.29 126.616L879.737 128.748L882.063 127.64L997.133 72.8052L938.621 168.02L936.997 170.662L939.692 172.197L992.332 202.178L935.657 198.792L930.907 198.508L932.699 202.916L963.398 278.449L894.9 235.593L891.521 233.479L890.425 237.311L885.027 256.165L865.847 236.065L863.286 233.381L861.197 236.448L825.647 288.64V232.944V228.122L821.321 230.252L749.008 265.872L801.06 200.54L803.293 197.737L800.14 196.032L706.855 145.588H794.154H798.265L797.012 141.673Z" stroke="white" stroke-width="6"/>
<path d="M818.898 151.979L815.142 140.332L835.172 147.692L838.984 149.092L839.203 145.037L841.952 94.0576L874.865 142.192L876.31 144.305L878.624 143.211L957.361 105.971L917.539 170.287L915.895 172.941L918.613 174.478L952.506 193.636L916.234 191.485L911.473 191.203L913.28 195.617L933.967 246.133L887.796 217.463L884.43 215.372L883.331 219.18L879.933 230.962L867.406 217.932L864.853 215.278L862.77 218.314L839.207 252.648V216.364V211.558L834.889 213.669L787.266 236.951L821.609 194.169L823.868 191.355L820.688 189.648L757.806 155.9H816.043H820.162L818.898 151.979Z" stroke="white" stroke-width="6"/>
<path d="M849.715 165.627C855.454 170.94 858.677 180.862 855.971 183.262C853.265 185.662 844.022 181.081 838.283 175.768C832.545 170.455 830.086 164.203 832.792 161.802C835.498 159.402 843.976 160.315 849.715 165.627Z" fill="white"/>
<path d="M878.27 165.43C872.56 170.768 869.391 180.704 872.109 183.092C874.828 185.48 884.047 180.858 889.756 175.519C895.466 170.181 897.891 163.918 895.172 161.529C892.453 159.141 883.98 160.091 878.27 165.43Z" fill="white"/>
</svg>
