<svg width="174" height="173" viewBox="0 0 174 173" fill="none" xmlns="http://www.w3.org/2000/svg">
<path d="M119.452 86.5589C119.442 104.433 104.841 118.958 86.7988 118.958C68.7562 118.958 54.1719 104.433 54.1817 86.5589C54.1915 68.6843 68.7918 54.1602 86.8344 54.1602C104.877 54.1602 119.461 68.6843 119.452 86.5589Z" stroke="white" stroke-width="6"/>
<path d="M140.735 26.3268C141.798 25.1092 143.629 24.9797 144.863 26.0229L145.806 26.8201C147.061 27.8815 147.239 29.7635 146.189 31.0299C132.19 47.9187 114.99 65.2746 118.175 69.4124C114.839 64.5726 112.755 62.4551 108.244 59.1037C114.601 59.4188 126.726 42.3721 140.735 26.3268Z" fill="white"/>
<path d="M34.8068 26.327C33.7452 25.1101 31.9148 24.9811 30.6801 26.0239L29.7347 26.8223C28.4781 27.8836 28.2982 29.7653 29.3466 31.0315C43.1272 47.6745 60.0678 64.7494 56.8705 68.8727C60.2249 64.0495 62.3139 61.935 66.8258 58.5797C60.5065 58.9361 48.5967 42.1347 34.8068 26.327Z" fill="white"/>
<path d="M6.6567 82.4441C5.04029 82.4574 3.73703 83.7631 3.70988 85.3793L3.69129 86.4858C3.66367 88.1302 4.96373 89.4908 6.60803 89.5208C28.1797 89.9139 51.5623 88.4966 52.5666 93.5137C51.1378 87.932 51.6328 84.7032 52.0736 79.1972C48.1803 84.1336 27.6629 82.2708 6.6567 82.4441Z" fill="white"/>
<path d="M145.967 139.939C147.067 141.122 147.021 142.974 145.876 144.115L145.039 144.948C143.874 146.109 142 146.108 140.85 144.933C125.843 129.605 111.606 112.152 107.267 114.94C112.309 112.064 113.487 108.896 117.192 104.716C116.269 111.001 131.691 124.579 145.967 139.939Z" fill="white"/>
<path d="M28.8898 141.193C27.7884 142.376 27.8321 144.228 28.9762 145.369L29.812 146.202C30.9762 147.363 32.8499 147.362 34.0013 146.187C49.0253 130.859 63.2811 113.406 67.617 116.194C62.5786 113.318 61.4036 110.15 57.7035 105.97C58.6195 112.255 43.1828 125.833 28.8898 141.193Z" fill="white"/>
<path d="M80.0919 81.7206C82.9311 84.6499 84.5237 90.1203 83.1836 91.4438C81.8434 92.7672 77.269 90.2413 74.4298 87.3119C71.5907 84.3825 70.3755 80.9349 71.7157 79.6115C73.0558 78.2881 77.2527 78.7912 80.0919 81.7206Z" fill="white"/>
<path d="M94.2235 81.612C91.3954 84.5555 89.8234 90.0337 91.1685 91.3505C92.5137 92.6673 97.0785 90.1187 99.9066 87.1753C102.735 84.2318 103.937 80.7782 102.592 79.4615C101.247 78.1447 97.0516 78.6686 94.2235 81.612Z" fill="white"/>
<path d="M1.59487 83.3271C0.39809 84.4731 0.356754 86.3722 1.50254 87.5688L20.1743 107.069C21.3201 108.266 23.2191 108.307 24.4159 107.161C25.6127 106.015 25.654 104.116 24.5082 102.919L7.91111 85.5855L25.2468 68.9855C26.4436 67.8395 26.4849 65.9404 25.3391 64.7438C24.1933 63.5472 22.2943 63.5061 21.0975 64.6521L1.59487 83.3271ZM29.7723 83.0573L3.73479 82.4945L3.60422 88.4931L29.6417 89.056L29.7723 83.0573Z" fill="white"/>
<path d="M91.042 7.27966C91.014 5.66296 89.696 4.3721 88.0791 4.36115L87.0382 4.35409C85.3935 4.34295 84.045 5.65681 84.0305 7.30149C83.8385 28.9417 85.4584 52.3832 80.4963 53.4414C86.0133 51.9519 89.2168 52.4156 94.676 52.8019C89.7489 48.947 91.4071 28.3472 91.042 7.27966Z" fill="white"/>
<path d="M90.1562 1.10379C88.999 -0.0815718 87.0997 -0.104052 85.9139 1.05358L66.5912 19.9182C65.4055 21.0758 65.3824 22.9752 66.5396 24.1606C67.6968 25.3459 69.5962 25.3684 70.7819 24.2108L87.9577 7.44221L104.72 24.6125C105.878 25.7978 107.777 25.8203 108.963 24.6627C110.149 23.5051 110.172 21.6057 109.014 20.4203L90.1562 1.10379ZM90.6892 29.5218L91.009 3.23536L85.0095 3.16435L84.6897 29.4508L90.6892 29.5218Z" fill="white"/>
<path d="M90.9558 167.071C90.9262 168.688 89.6067 169.979 87.9894 169.99L86.9495 169.997C85.3047 170.009 83.9577 168.695 83.9448 167.05C83.7742 145.233 85.4218 121.59 80.459 120.523C85.9744 122.024 89.1784 121.557 94.638 121.168C89.7051 125.055 91.3445 145.83 90.9558 167.071Z" fill="white"/>
<path d="M90.0645 172.105C88.9059 173.291 87.0066 173.313 85.8221 172.155L66.5202 153.291C65.3357 152.133 65.3147 150.234 66.4732 149.048C67.6317 147.863 69.5311 147.841 70.7156 148.998L87.8729 165.767L104.655 148.597C105.813 147.411 107.712 147.389 108.897 148.546C110.081 149.704 110.102 151.603 108.944 152.789L90.0645 172.105ZM90.6287 143.687L90.9196 169.974L84.92 170.045L84.6291 143.758L90.6287 143.687Z" fill="white"/>
<path d="M166.028 82.6101C167.644 82.6236 168.946 83.9292 168.971 85.5451L168.988 86.6533C169.014 88.2976 167.713 89.6582 166.068 89.6881C144.64 90.0778 121.422 88.6601 120.419 93.6761C121.844 88.094 121.356 84.8648 120.923 79.3581C124.785 84.2941 145.163 82.4357 166.028 82.6101Z" fill="white"/>
<path d="M172.166 83.4775C173.361 84.6235 173.401 86.5226 172.254 87.7192L153.56 107.219C152.413 108.416 150.514 108.457 149.319 107.311C148.123 106.165 148.084 104.266 149.231 103.069L165.847 85.7359L148.53 69.1359C147.334 67.9899 147.295 66.0908 148.442 64.8942C149.589 63.6976 151.488 63.6565 152.684 64.8025L172.166 83.4775ZM143.989 83.2077L170.027 82.6449L170.151 88.6435L144.113 89.2064L143.989 83.2077Z" fill="white"/>
</svg>
