<svg width="195" height="195" viewBox="0 0 195 195" fill="none" xmlns="http://www.w3.org/2000/svg">
<path d="M68.2704 48.1376C67.4819 45.5652 66.4664 42.6676 65.2331 39.4496C67.6268 42.3316 69.8403 44.8071 71.8857 46.8705C74.7645 49.7746 77.4413 51.9984 79.9365 53.3715C82.418 54.7371 85.1108 55.4686 87.749 54.6702C90.4046 53.8666 92.2003 51.7586 93.4327 49.2701C94.6663 46.7789 95.5358 43.5222 96.1718 39.6646C96.2818 38.9972 96.3858 38.3058 96.4838 37.5906C96.7476 38.4648 97.0211 39.3061 97.3041 40.1142C98.6879 44.0656 100.344 47.3542 102.309 49.826C104.282 52.3072 106.687 54.1086 109.544 54.7302C115.361 55.9956 120.923 52.0863 125.808 45.7865C126.89 44.3914 127.978 42.8316 129.069 41.1074C128.749 43.3767 128.526 45.49 128.399 47.4449C128.126 51.6409 128.285 55.2539 128.96 58.1717C129.628 61.0568 130.892 63.637 133.143 65.2072C135.491 66.8442 138.283 66.9568 141.025 66.1858C143.371 65.5262 145.876 64.1785 148.506 62.2933C147.19 64.933 146.253 67.2966 145.786 69.3602C145.243 71.7554 145.194 74.3817 146.725 76.4737C148.288 78.6102 150.814 79.272 153.201 79.3549C155.635 79.4393 158.595 78.9578 161.962 78.0946C162.267 78.0165 162.576 77.9349 162.891 77.8497C162.525 78.1448 162.169 78.4378 161.824 78.7285C159.005 81.1046 156.768 83.4362 155.275 85.7499C153.777 88.0716 152.899 90.5828 153.194 93.1888C153.492 95.83 154.931 98.0329 156.993 99.8324C159.023 101.605 161.79 103.111 165.128 104.444C165.166 104.459 165.204 104.474 165.242 104.489C165.199 104.491 165.156 104.493 165.113 104.496C161.548 104.69 158.495 105.099 156.101 105.851C153.776 106.581 151.493 107.817 150.357 110.097C149.172 112.475 149.698 115.02 150.765 117.238C151.837 119.468 153.694 121.901 156.14 124.545C157.849 126.393 159.92 128.422 162.35 130.646C159.497 129.442 156.916 128.434 154.609 127.633C151.134 126.426 148.118 125.629 145.658 125.39C143.366 125.167 140.671 125.338 138.841 127.184C136.885 129.157 136.985 131.895 137.528 134.116C138.098 136.448 139.379 139.218 141.186 142.368C141.98 143.751 142.897 145.244 143.937 146.848C141.439 144.68 139.176 142.736 137.155 141.048C133.871 138.305 131.075 136.107 128.799 134.626C127.662 133.887 126.564 133.266 125.533 132.85C124.559 132.456 123.31 132.104 122.008 132.312C120.457 132.56 119.292 133.525 118.66 134.844C118.121 135.969 118.015 137.239 118.04 138.363C118.091 140.647 118.74 143.746 119.791 147.552C120.403 149.767 121.178 152.311 122.109 155.199C120.493 152.832 118.993 150.799 117.596 149.088C115.101 146.03 112.742 143.749 110.448 142.492C108.009 141.155 105.305 140.835 102.847 142.391C100.722 143.736 99.3659 146.159 98.3874 148.702C97.3693 151.347 96.5537 154.687 95.8397 158.52C95.5858 159.882 95.3416 161.326 95.104 162.844C94.7738 160.983 94.4207 159.229 94.0444 157.588C93.1409 153.649 92.0804 150.259 90.8272 147.592C89.6139 145.01 88.027 142.684 85.8307 141.447C83.3151 140.031 80.6198 140.363 78.2416 141.888C76.0514 143.292 74.0172 145.744 72.0616 148.928C70.8742 150.862 69.6524 153.172 68.395 155.874C68.8218 151.663 69.0809 148.083 69.165 145.091C69.2766 141.125 69.0934 137.921 68.4552 135.582C67.8358 133.312 66.4235 130.75 63.3661 130.419C62.0683 130.279 60.8502 130.619 59.8256 131.076C58.7871 131.539 57.749 132.211 56.7282 132.99C54.9764 134.328 53.0216 136.18 50.8849 138.4C52.433 135.275 53.5853 132.53 54.2128 130.228C54.8186 128.006 55.1764 125.375 53.9509 123.257C52.4967 120.743 49.7646 120.325 47.5205 120.52C45.2249 120.719 42.403 121.6 39.1461 122.951C38.8356 123.08 38.5189 123.214 38.1961 123.353C38.8595 122.773 39.4968 122.208 40.1073 121.658C43.1815 118.887 45.6879 116.396 47.4446 114.181C49.1025 112.091 50.5342 109.717 50.5342 107.257C50.5342 105.9 50.0972 104.627 49.2326 103.551C48.4116 102.529 47.3135 101.816 46.1622 101.298C44.6348 100.611 42.7121 100.137 40.4577 99.811C41.1135 99.5602 41.72 99.2976 42.2743 99.0211C44.2939 98.0137 46.4821 96.3857 46.841 93.6789C47.1875 91.066 45.6187 88.8544 44.0152 87.2159C42.293 85.4562 39.7712 83.5906 36.6221 81.5748C36.4128 81.4409 36.2001 81.3058 35.9839 81.1697C36.7522 81.3578 37.4925 81.5297 38.205 81.6849C41.9668 82.5047 45.1859 82.9172 47.7475 82.7243C50.2677 82.5346 52.9192 81.6788 54.2924 79.166C55.5615 76.8435 55.1572 74.0821 54.353 71.6076C53.5073 69.0057 51.9553 65.9308 49.8636 62.4179C48.6567 60.3912 47.2397 58.169 45.6225 55.7474C47.9971 57.6609 50.1646 59.3046 52.1282 60.6769C55.3778 62.948 58.2365 64.5967 60.656 65.4489C62.9186 66.2458 65.7903 66.6796 68.0116 64.8419C70.1283 63.0907 70.4359 60.2366 70.3042 57.8216C70.1615 55.2068 69.4372 51.9438 68.2704 48.1376Z" stroke="white" stroke-width="6"/>
<path d="M91.9063 86.2433C94.9759 89.1996 96.7001 94.7202 95.2527 96.0558C93.8054 97.3914 88.861 94.8423 85.7914 91.886C82.7218 88.9298 81.4067 85.4505 82.854 84.1149C84.3014 82.7793 88.8367 83.287 91.9063 86.2433Z" fill="white"/>
<path d="M107.18 86.1314C104.126 89.1018 102.431 94.6304 103.885 95.9593C105.339 97.2882 110.27 94.7162 113.324 91.7457C116.379 88.7752 117.676 85.2899 116.221 83.961C114.767 82.6322 110.234 83.1609 107.18 86.1314Z" fill="white"/>
</svg>
