<svg width="160" height="157" viewBox="0 0 160 157" fill="none" xmlns="http://www.w3.org/2000/svg">
<path d="M60.7173 35.9538C60.7173 47.3121 51.7104 56.4154 40.7273 56.4154C29.7443 56.4154 20.7373 47.3121 20.7373 35.9538C20.7373 24.5954 29.7443 15.4922 40.7273 15.4922C51.7104 15.4922 60.7173 24.5954 60.7173 35.9538Z" stroke="white" stroke-width="6"/>
<path d="M42.98 61.1882C42.98 72.5465 33.9731 81.6498 22.99 81.6498C12.007 81.6498 3 72.5465 3 61.1882C3 49.8298 12.007 40.7266 22.99 40.7266C33.9731 40.7266 42.98 49.8298 42.98 61.1882Z" stroke="white" stroke-width="6"/>
<path d="M42.98 92.2096C42.98 103.568 33.9731 112.671 22.99 112.671C12.007 112.671 3 103.568 3 92.2096C3 80.8513 12.007 71.748 22.99 71.748C33.9731 71.748 42.98 80.8513 42.98 92.2096Z" stroke="white" stroke-width="6"/>
<path d="M61.4244 117.36C61.4244 128.718 52.4174 137.822 41.4343 137.822C30.4513 137.822 21.4443 128.718 21.4443 117.36C21.4443 106.002 30.4513 96.8984 41.4343 96.8984C52.4174 96.8984 61.4244 106.002 61.4244 117.36Z" stroke="white" stroke-width="6"/>
<path d="M84.899 133.29C84.899 144.648 75.892 153.751 64.909 153.751C53.9259 153.751 44.9189 144.648 44.9189 133.29C44.9189 121.931 53.9259 112.828 64.909 112.828C75.892 112.828 84.899 121.931 84.899 133.29Z" stroke="white" stroke-width="6"/>
<path d="M114.243 133.29C114.243 144.648 105.236 153.751 94.2527 153.751C83.2697 153.751 74.2627 144.648 74.2627 133.29C74.2627 121.931 83.2697 112.828 94.2527 112.828C105.236 112.828 114.243 121.931 114.243 133.29Z" stroke="white" stroke-width="6"/>
<path d="M141.071 119.876C141.071 131.234 132.064 140.337 121.081 140.337C110.098 140.337 101.091 131.234 101.091 119.876C101.091 108.517 110.098 99.4141 121.081 99.4141C132.064 99.4141 141.071 108.517 141.071 119.876Z" stroke="white" stroke-width="6"/>
<path d="M157 63.7038C157 75.0621 147.993 84.1654 137.01 84.1654C126.026 84.1654 117.02 75.0621 117.02 63.7038C117.02 52.3454 126.026 43.2422 137.01 43.2422C147.993 43.2422 157 52.3454 157 63.7038Z" stroke="white" stroke-width="6"/>
<path d="M157 93.8854C157 105.244 147.993 114.347 137.01 114.347C126.026 114.347 117.02 105.244 117.02 93.8854C117.02 82.5271 126.026 73.4238 137.01 73.4238C147.993 73.4238 157 82.5271 157 93.8854Z" stroke="white" stroke-width="6"/>
<path d="M143.585 36.0378C143.585 47.3961 134.579 56.4994 123.595 56.4994C112.612 56.4994 103.605 47.3961 103.605 36.0378C103.605 24.6794 112.612 15.5762 123.595 15.5762C134.579 15.5762 143.585 24.6794 143.585 36.0378Z" stroke="white" stroke-width="6"/>
<path d="M89.0914 23.4616C89.0914 34.82 80.0844 43.9232 69.1013 43.9232C58.1183 43.9232 49.1113 34.82 49.1113 23.4616C49.1113 12.1033 58.1183 3 69.1013 3C80.0844 3 89.0914 12.1033 89.0914 23.4616Z" stroke="white" stroke-width="6"/>
<path d="M118.434 23.4616C118.434 34.82 109.427 43.9232 98.4441 43.9232C87.4611 43.9232 78.4541 34.82 78.4541 23.4616C78.4541 12.1033 87.4611 3 98.4441 3C109.427 3 118.434 12.1033 118.434 23.4616Z" stroke="white" stroke-width="6"/>
<path d="M73.4739 68.5541C76.0398 71.2291 77.481 76.2245 76.2712 77.433C75.0614 78.6415 70.9285 76.335 68.3627 73.66C65.7968 70.9849 64.6975 67.8367 65.9073 66.6282C67.1172 65.4197 70.9081 65.8791 73.4739 68.5541Z" fill="white"/>
<path d="M86.2407 68.4526C83.6878 71.1405 82.2707 76.143 83.4863 77.3455C84.7019 78.5479 88.8236 76.2206 91.3765 73.5328C93.9295 70.8449 95.0136 67.6912 93.798 66.4888C92.5824 65.2864 88.7937 65.7648 86.2407 68.4526Z" fill="white"/>
</svg>
