<svg width="651" height="560" viewBox="0 0 651 560" fill="none" xmlns="http://www.w3.org/2000/svg">
<path d="M197.177 273.378C198.649 280.469 195.82 290.138 192.542 290.816C189.264 291.494 184.799 283.333 183.327 276.243C181.856 269.152 183.321 262.855 186.599 262.177C189.877 261.499 195.706 266.288 197.177 273.378Z" fill="white"/>
<path d="M218.533 286.822C211.471 288.477 203.878 295.111 204.643 298.365C205.408 301.619 214.703 302.223 221.765 300.568C228.826 298.914 233.931 294.935 233.166 291.681C232.4 288.428 225.594 285.168 218.533 286.822Z" fill="white"/>
<line x1="3" y1="-3" x2="299.797" y2="-3" transform="matrix(0.821352 0.570421 -0.597777 0.801663 47.6211 210.564)" stroke="white" stroke-width="6" stroke-linecap="round"/>
<line x1="3" y1="-3" x2="243.962" y2="-3" transform="matrix(-0.635562 0.77205 -0.79359 -0.608453 227.823 150)" stroke="white" stroke-width="6" stroke-linecap="round"/>
<line x1="3" y1="-3" x2="72.3056" y2="-3" transform="matrix(-0.830846 -0.556503 0.583858 -0.811856 331 304.066)" stroke="white" stroke-width="6" stroke-linecap="round"/>
<line x1="3" y1="-3" x2="243.962" y2="-3" transform="matrix(-0.635562 0.77205 -0.79359 -0.608453 311.501 203.836)" stroke="white" stroke-width="6" stroke-linecap="round"/>
<line x1="3" y1="-3" x2="110.635" y2="-3" transform="matrix(-0.613629 0.789594 -0.810071 -0.586332 180.107 320.479)" stroke="white" stroke-width="6" stroke-linecap="round"/>
<line x1="3" y1="-3" x2="177.323" y2="-3" transform="matrix(-0.651308 0.758813 -0.781093 -0.624415 262.689 161.215)" stroke="white" stroke-width="6" stroke-linecap="round"/>
<line x1="3" y1="-3" x2="230.951" y2="-3" transform="matrix(0.824613 0.565697 -0.593057 0.80516 119.676 201.59)" stroke="white" stroke-width="6" stroke-linecap="round"/>
<line x1="3" y1="-3" x2="299.797" y2="-3" transform="matrix(0.821352 0.570421 -0.597777 0.801663 36 226.266)" stroke="white" stroke-width="6" stroke-linecap="round"/>
</svg>
