<svg width="108" height="191" viewBox="0 0 108 191" fill="none" xmlns="http://www.w3.org/2000/svg">
<path d="M55.3385 4.97977C20.7202 104.902 -31.4574 187.91 48.2278 187.178" stroke="white" stroke-width="6" stroke-linecap="round"/>
<path d="M66.1874 37.1751C100.806 137.097 131.285 187.911 48.6271 187.204" stroke="white" stroke-width="6" stroke-linecap="round"/>
<path d="M65.3537 37.1767C13.786 136.099 6.93279 167.423 80.3757 154.984" stroke="white" stroke-width="6" stroke-linecap="round"/>
<path d="M55.3384 4.98047C31.1356 27.6639 5.26374 48.8839 36.9777 53.2742" stroke="white" stroke-width="6" stroke-linecap="round"/>
<path d="M53.7511 125.368C57.9426 129.122 60.2969 136.133 58.3206 137.829C56.3443 139.526 49.5929 136.288 45.4014 132.534C41.2099 128.78 39.4141 124.361 41.3904 122.665C43.3668 120.969 49.5596 121.614 53.7511 125.368Z" fill="white"/>
<path d="M74.6074 125.226C70.437 128.998 68.122 136.019 70.1078 137.707C72.0936 139.394 78.8268 136.128 82.9972 132.356C87.1676 128.583 88.9385 124.157 86.9527 122.47C84.9669 120.782 78.7778 121.454 74.6074 125.226Z" fill="white"/>
</svg>
