<svg width="272" height="626" viewBox="0 0 272 626" fill="none" xmlns="http://www.w3.org/2000/svg">
<path d="M168.684 15.4856C194.938 16.5146 204.816 23.9228 215.756 46.6186" stroke="#969696" stroke-width="2" stroke-linecap="round"/>
<path d="M166.733 26.8977C189.414 25.5632 197.228 31.6063 204.398 51.8083" stroke="#969696" stroke-width="2" stroke-linecap="round"/>
<path d="M166.732 38.1968C183.199 36.7184 188.707 41.024 193.389 55.8274" stroke="#969696" stroke-width="2" stroke-linecap="round"/>
<line x1="66.1055" y1="226.385" x2="66.1055" y2="43.9904" stroke="#8F00FF" stroke-width="8" stroke-linecap="round"/>
<path d="M161.743 95.7874C190.104 115.668 235.307 49.0007 238.56 95.7874" stroke="#8F00FF" stroke-width="8" stroke-linecap="round"/>
<path d="M161.812 95.8477C118.559 73.0244 123.437 -9.25963 76.6077 5.83625C68.8028 9.05907 66.669 16.5552 67.502 42.0928" stroke="#8F00FF" stroke-width="8" stroke-linecap="round"/>
<path d="M238.558 96.7476C238.857 137.813 173.663 198.061 145.565 228.272" stroke="#8F00FF" stroke-width="8" stroke-linecap="round"/>
<path fill-rule="evenodd" clip-rule="evenodd" d="M101.349 224.581C103.851 225.761 107.501 226.181 111.078 226.181C112.704 226.181 113.671 226.619 113.832 227.942C113.994 229.264 113.482 230.839 112.054 230.986C107.176 230.986 102.628 230.587 98.9924 228.873C95.3493 227.155 92.5235 224.337 90.3351 220.603C86.037 213.27 83.9587 201.973 82.9735 186.887C81.7884 168.743 82.1668 144.399 82.6467 113.524C82.9665 92.9447 83.4603 69.4804 83.4375 42.9997C83.4371 42.5678 83.437 42.3975 83.4365 41.7953C83.4355 40.7299 84.9383 40.5753 85.9089 40.576C86.8141 40.5767 87.8487 40.8482 88.3154 41.4978C88.316 42.1 88.3163 42.511 88.3167 43.0034C88.3398 69.7561 88.1683 93.3214 87.8471 113.912C87.3685 144.581 86.9935 168.614 88.1685 186.604C89.1526 201.672 91.2116 212.003 94.9088 218.311C96.718 221.398 98.8543 223.404 101.349 224.581Z" fill="#969696"/>
<path fill-rule="evenodd" clip-rule="evenodd" d="M92.8672 36.9662C94.4933 37.587 93.8769 48.1448 94.3187 57.5354C94.7763 67.2588 95.0305 79.5296 95.1866 94.0317C95.3409 108.364 95.3991 124.811 95.4636 143.09C95.53 161.858 95.6031 182.556 95.7942 204.877C95.8055 206.204 95.6577 207.872 97.0945 207.861C98.5313 207.851 101.009 206.166 100.997 204.839C100.807 182.593 100.734 161.883 100.667 143.093C100.602 124.78 100.544 108.291 100.39 93.9839C100.233 79.4687 99.9785 67.1329 99.5171 57.3268C99.058 47.5686 98.443 40.0511 97.42 35.4852L97.2768 35.2001L97.0501 34.8508C95.8123 32.9435 93.6848 31.9477 91.6312 31.7165C89.5848 31.4861 87.3018 31.9754 85.5929 33.4034C84.0083 34.7275 83.5688 36.8627 83.4363 38.1877C83.3332 39.2186 83.4188 40.0183 83.4363 40.8904C83.4419 41.1722 83.4363 41.8835 83.4363 42.0916C83.4363 43.5932 84.2759 44.1938 85.7127 44.1938C87.1496 44.1938 88.3144 44.4941 88.3144 41.7913C88.3144 41.4086 88.3214 40.9401 88.3144 40.5901C88.2984 39.7971 88.2398 39.2331 88.3144 38.488C88.4257 37.3748 89.0428 37.0007 89.0841 36.9662C89.5078 36.6121 89.9404 36.4861 91.0016 36.4861C91.8916 36.4861 92.542 36.6861 92.8672 36.9662Z" fill="#969696"/>
<path fill-rule="evenodd" clip-rule="evenodd" d="M159.534 182.035C157.078 182.432 136.77 182.035 132.867 182.035C131.445 181.972 132.217 182.636 131.892 183.236C131.892 183.837 132.421 184.374 133.843 184.438C138.537 184.647 158.242 185.014 161.811 184.438C165.387 183.86 168.304 182.422 170.387 181.121C174.476 178.567 176.264 174.597 176.873 169.28C177.606 162.886 176.634 154.291 175.402 143.391C174.58 136.125 173.515 127.84 172.89 118.494C172.88 118.342 172.876 118.281 172.861 118.069C172.836 117.693 171.34 117.626 170.376 117.619C169.476 117.612 168.455 117.699 168.008 117.925C168.022 118.138 168.032 118.283 168.043 118.456C168.675 127.898 169.423 136.216 170.246 143.486C171.472 154.314 172.433 162.799 171.706 169.139C171.098 174.449 169.305 178.079 165.787 180.276C164.066 181.351 161.983 181.64 159.534 182.035Z" fill="#969696"/>
<path fill-rule="evenodd" clip-rule="evenodd" d="M163.455 116.148C161.836 116.371 162.529 120.224 162.158 123.648C161.773 127.194 161.61 131.669 161.561 136.959C161.513 142.186 161.577 148.186 161.648 154.853C161.721 161.699 161.801 169.249 161.776 177.39C161.774 177.874 160.609 178.261 159.174 178.253C157.738 178.246 156.576 177.848 156.578 177.364C156.603 169.25 156.523 161.695 156.45 154.842C156.379 148.162 156.315 142.147 156.363 136.929C156.412 131.634 156.575 127.135 156.963 123.559C157.35 120.001 157.908 117.26 158.896 115.597L159.037 115.494L159.261 115.367C160.483 114.674 162.601 114.316 164.651 114.236C166.694 114.157 168.978 114.341 170.696 114.866C172.288 115.353 172.743 116.133 172.886 116.617C172.996 116.993 172.917 117.285 172.906 117.603C172.902 117.705 172.913 117.965 172.914 118.041C172.926 118.589 172.091 118.806 170.656 118.802C169.221 118.799 168.059 118.905 168.039 117.919C168.036 117.78 168.026 117.609 168.03 117.481C168.04 117.192 168.095 116.986 168.015 116.714C167.895 116.308 167.276 116.17 167.234 116.158C166.809 116.027 166.376 115.98 165.315 115.978C164.426 115.976 163.778 116.047 163.455 116.148Z" fill="#969696"/>
<path fill-rule="evenodd" clip-rule="evenodd" d="M134.697 187.979C132.226 188.514 114.08 188.563 110.104 188.342C108.68 188.263 108.616 188.925 108.478 189.543C108.34 190.161 109.33 191.566 110.754 191.645C115.633 191.645 133.832 191.822 137.421 191.045C141.019 190.266 143.478 187.928 145.593 186.195C149.747 182.791 151.625 177.514 152.351 170.456C153.225 161.966 152.437 150.562 151.438 136.097C150.772 126.456 149.885 115.463 149.461 103.061C149.454 102.858 149.451 102.779 149.441 102.496C149.424 101.997 147.926 101.914 146.96 101.908C146.059 101.902 145.034 102.021 144.58 102.322C144.59 102.604 144.596 102.797 144.604 103.028C145.033 115.557 145.601 126.596 146.268 136.242C147.262 150.61 148.041 161.869 147.176 170.286C146.45 177.336 144.575 182.16 141.002 185.088C139.253 186.521 137.16 187.446 134.697 187.979Z" fill="#969696"/>
<path fill-rule="evenodd" clip-rule="evenodd" d="M139.997 100.13C138.371 100.437 138.987 105.657 138.546 110.299C138.088 115.106 137.834 121.172 137.678 128.341C137.523 135.426 137.465 143.557 137.401 152.593C137.334 161.871 137.261 172.103 137.07 183.137C137.059 183.793 135.885 184.321 134.448 184.316C133.011 184.31 131.856 183.774 131.867 183.119C132.057 172.121 132.131 161.883 132.197 152.594C132.262 143.541 132.321 135.39 132.475 128.317C132.631 121.142 132.886 115.043 133.347 110.196C133.806 105.372 134.421 101.656 135.444 99.3984L135.587 99.2574L135.814 99.0847C137.052 98.1419 139.179 97.6496 141.233 97.5353C143.279 97.4214 145.562 97.6633 147.271 98.3692C148.856 99.0238 149.295 100.079 149.428 100.734C149.531 101.244 149.445 101.639 149.428 102.07C149.422 102.21 149.428 102.561 149.428 102.664C149.428 103.407 148.588 103.703 147.152 103.703C145.715 103.703 144.55 103.852 144.55 102.516C144.55 102.327 144.543 102.095 144.55 101.922C144.566 101.53 144.624 101.251 144.55 100.883C144.439 100.332 143.821 100.148 143.78 100.13C143.356 99.9555 142.924 99.8931 141.863 99.8931C140.973 99.8931 140.322 99.992 139.997 100.13Z" fill="#969696"/>
<path fill-rule="evenodd" clip-rule="evenodd" d="M108.264 203.904C105.763 204.761 102.648 205.097 98.6613 204.796C97.6033 204.716 96.6223 204.576 96.12 205.159C96.0003 205.298 95.7948 205.76 95.7948 206.06C95.7948 206.361 95.8078 206.281 95.7946 206.36C95.7948 207.862 96.6535 208.173 98.0814 208.281C102.794 208.637 106.99 208.275 110.623 207.029C114.264 205.78 117.087 203.731 119.271 201.015C123.562 195.68 125.63 187.46 126.602 176.481C127.771 163.276 127.372 145.559 126.865 123.088C126.528 108.111 126.014 91.0334 126.014 71.761C126.014 71.4467 126.014 71.3227 126.014 70.8844C126.014 70.109 124.511 69.9958 123.541 69.9958C122.636 69.9958 121.602 70.1928 121.135 70.6653C121.135 71.1036 121.135 71.4027 121.135 71.761C121.136 91.2313 121.327 108.382 121.666 123.368C122.171 145.689 122.567 163.18 121.408 176.272C120.437 187.238 118.388 194.755 114.697 199.344C112.891 201.59 110.757 203.049 108.264 203.904Z" fill="#969696"/>
<path fill-rule="evenodd" clip-rule="evenodd" d="M116.581 67.3636C114.955 67.8167 115.571 75.5212 115.13 82.3741C114.672 89.4698 114.418 98.4245 114.262 109.007C114.107 119.467 114.049 131.469 113.985 144.808C113.918 158.504 113.845 173.608 113.654 189.898C113.643 190.866 112.469 191.644 111.032 191.637C109.595 191.629 108.44 190.838 108.451 189.87C108.641 173.636 108.715 158.522 108.781 144.81C108.846 131.446 108.905 119.413 109.059 108.973C109.215 98.38 109.47 89.3779 109.931 82.2219C110.39 75.1007 111.005 69.6148 112.028 66.2828L112.171 66.0748L112.398 65.8198C113.636 64.428 115.763 63.7013 117.817 63.5326C119.863 63.3645 122.146 63.7215 123.855 64.7636C125.44 65.7299 125.879 67.288 126.012 68.255C126.115 69.0073 126.029 69.5909 126.012 70.2273C126.006 70.4329 126.012 70.952 126.012 71.1039C126.012 72.1997 125.172 72.638 123.736 72.638C122.299 72.638 121.134 72.8571 121.134 70.8848C121.134 70.6054 121.127 70.2636 121.134 70.0082C121.15 69.4295 121.208 69.0179 121.134 68.4741C121.023 67.6618 120.405 67.3888 120.364 67.3636C119.94 67.1052 119.508 67.0132 118.447 67.0132C117.557 67.0132 116.906 67.1592 116.581 67.3636Z" fill="#969696"/>
<path d="M110.104 228.582C126.689 228.582 129.941 228.282 145.226 228.582" stroke="#8F00FF" stroke-width="8" stroke-linecap="round"/>
<path d="M103.601 225.58C108.153 226.481 120.836 226.181 120.836 226.181V230.971C116.841 230.98 113.205 231.139 110.105 230.986C108.411 230.902 106.816 230.703 105.552 230.385L103.601 225.58Z" fill="url(#paint0_linear_467_701)"/>
<path d="M70.5205 347.207C70.5205 364.887 55.7383 379.414 37.2603 379.414C18.7822 379.414 4 364.887 4 347.207C4 329.527 18.7822 315 37.2603 315C55.7383 315 70.5205 329.527 70.5205 347.207Z" fill="#61FF00" stroke="#61FF00" stroke-width="8"/>
<path d="M215.178 597.035L185.37 549.061" stroke="#61FF00" stroke-width="8" stroke-linecap="round"/>
<path d="M205.012 560.302C210.286 560.302 214.469 557.819 217.197 553.979C219.839 550.263 221.041 545.425 221.041 540.461C221.041 535.816 220.397 530.718 218.435 526.626C216.382 522.344 212.636 518.811 206.795 518.811C201.429 518.811 196.469 521.819 192.994 525.679C189.486 529.574 186.959 534.905 186.959 540.461C186.959 550.955 194.605 560.302 205.012 560.302Z" stroke="#61FF00" stroke-width="8"/>
<path fill-rule="evenodd" clip-rule="evenodd" d="M264.548 556.302C264.548 590.752 235.608 618.759 199.808 618.759C164.008 618.759 135.068 590.752 135.068 556.302C135.068 542.605 139.643 529.927 147.404 519.622C146.259 518.075 145.282 516.539 144.285 514.97C143.902 514.367 143.516 513.76 143.116 513.146C133.409 525.015 127.616 540.005 127.616 556.302C127.616 594.795 159.938 626 199.808 626C239.678 626 272 594.795 272 556.302C272 517.808 239.678 486.604 199.808 486.604C193.724 486.604 189.616 486.593 183.972 487.961C184.554 487.894 183.077 488.672 183.041 488.866C182.145 489.067 181.75 489.262 181.047 489.608C180.943 489.659 180.832 489.713 180.712 489.772C180.664 489.825 180.548 489.903 180.382 490.013C180.324 490.051 180.26 490.094 180.191 490.141C178.466 491.523 174.978 495.484 173.725 497.918C173.387 498.575 173.131 499.073 172.93 499.464C177.715 497.126 183.629 495.011 188.63 493.845C190.398 493.433 194.205 492.94 202.137 492.94C217.972 492.94 266.132 510.224 264.548 556.302Z" fill="#969696"/>
<path fill-rule="evenodd" clip-rule="evenodd" d="M177.362 508.716C175.595 517.358 176.81 530.313 188.428 547.002C189.59 548.672 189.152 550.936 187.449 552.059C185.746 553.181 183.423 552.738 182.261 551.068C169.695 533.017 167.821 518.091 170.039 507.242C171.138 501.87 173.224 497.592 175.387 494.524C176.465 492.994 177.588 491.73 178.655 490.769C179.618 489.902 181.693 489.253 183.041 488.867C185.016 488.302 186.265 489.14 186.858 491.072C187.437 492.956 187.831 493.834 184.904 495.203C183.174 496.013 182.846 496.04 182.576 496.561C181.965 497.111 181.988 497.222 181.178 498.371C179.563 500.662 178.257 504.344 177.362 508.716Z" fill="#61FF00"/>
<path d="M212.756 600.176C214.548 601.498 217.085 601.163 218.423 599.428C219.761 597.692 219.393 595.214 217.601 593.892L212.756 600.176ZM55.5143 377.063C69.9611 400.356 82.262 422.401 93.7806 443.281C105.284 464.133 116.037 483.879 127.318 502.425C149.921 539.58 174.792 572.17 212.756 600.176L217.601 593.892C180.802 566.746 156.579 535.11 134.273 498.443C123.101 480.077 112.447 460.513 100.904 439.59C89.3772 418.694 76.994 396.499 62.433 373.022L55.5143 377.063Z" fill="#61FF00"/>
<path fill-rule="evenodd" clip-rule="evenodd" d="M127.897 433.698C118.653 406.751 100.024 386.858 71.7264 361.238L74.0554 352.639C102.504 378.396 125.096 402.633 134.966 431.408C144.819 460.128 144.828 495.638 135.484 549.216L128.137 548.006C137.421 494.771 137.159 460.699 127.897 433.698Z" fill="#969696"/>
<path d="M176.521 493.304C179.492 488.251 186.529 487.148 188.628 487.048C191.218 486.68 193.065 486.889 193.272 486.991L191.298 493.304C186.133 494.013 182.842 495.971 181.178 498.372L176.521 493.304Z" fill="url(#paint1_linear_467_701)"/>
<path d="M146.461 421.02C152.962 411.069 155.426 405.047 150.026 390.652C145.232 378.786 146.247 372.834 153.321 362.588C162.22 350.498 161.604 344.548 156.616 334.524" stroke="#969696" stroke-width="2" stroke-linecap="round"/>
<path d="M178.267 435.132C186.624 426.68 190.239 421.27 187.822 406.087C185.492 393.503 187.676 387.873 196.653 379.246C207.785 369.175 208.37 363.222 205.483 352.404" stroke="#969696" stroke-width="2" stroke-linecap="round"/>
<path d="M162.395 429.139C169.776 419.822 172.778 414.05 168.713 399.222C165.019 386.969 166.573 381.134 174.551 371.575C184.515 360.347 184.444 354.366 180.39 343.929" stroke="#969696" stroke-width="2" stroke-linecap="round"/>
<defs>
<linearGradient id="paint0_linear_467_701" x1="107.857" y1="228.153" x2="113.463" y2="233.217" gradientUnits="userSpaceOnUse">
<stop stop-color="#969696"/>
<stop offset="1" stop-color="#8F00FF"/>
</linearGradient>
<linearGradient id="paint1_linear_467_701" x1="182.448" y1="494.203" x2="189.835" y2="490.887" gradientUnits="userSpaceOnUse">
<stop stop-color="#61FF00"/>
<stop offset="1" stop-color="#969696"/>
</linearGradient>
</defs>
</svg>
