<svg width="362" height="640" viewBox="0 0 362 640" fill="none" xmlns="http://www.w3.org/2000/svg">
<path d="M95.5106 224.241C93.3732 223.936 91.4012 225.504 91.1061 227.744C90.811 229.983 92.3045 232.045 94.442 232.35L95.5106 224.241ZM158.877 328.191C188.472 326.339 210.827 320.947 224.836 313.177C231.838 309.292 237.114 304.616 239.961 299.119C242.912 293.42 243.041 287.233 240.409 281.153C237.859 275.263 232.807 269.638 225.68 264.352C218.512 259.036 208.988 253.871 197.099 249.001C173.318 239.26 139.676 230.536 95.5106 224.241L94.442 232.35C138.242 238.593 171.229 247.197 194.24 256.623C205.747 261.336 214.659 266.215 221.156 271.034C227.694 275.883 231.534 280.485 233.291 284.544C234.966 288.414 234.818 291.899 233.094 295.228C231.266 298.758 227.47 302.463 221.189 305.946C208.632 312.911 187.582 318.198 158.427 320.022L158.877 328.191Z" fill="#969696"/>
<path d="M69.1969 179.657C127.959 179.785 147.227 162.665 196.369 129.6" stroke="#969696" stroke-width="8" stroke-linecap="round"/>
<path d="M195.461 130.074C226.525 112.733 220.203 89.5912 229.59 54.8538" stroke="#969696" stroke-width="8" stroke-linecap="round"/>
<path d="M229.718 55.1758C229.321 46.3388 284.19 111.548 283.855 154.898" stroke="#969696" stroke-width="8" stroke-linecap="round"/>
<path d="M283.672 155.299C260.311 146.645 248.973 141.176 231.912 129.937" stroke="#969696" stroke-width="8" stroke-linecap="round"/>
<ellipse cx="11.1537" cy="11.6267" rx="11.1537" ry="11.6267" transform="matrix(0.936613 0.350364 -0.33639 0.941723 88.5942 162.916)" fill="#BF0C00"/>
<ellipse cx="11.1537" cy="11.6267" rx="11.1537" ry="11.6267" transform="matrix(0.936613 0.350364 -0.33639 0.941723 149.079 141.684)" fill="#BF0C00"/>
<ellipse cx="11.1537" cy="11.6267" rx="11.1537" ry="11.6267" transform="matrix(0.936613 0.350364 -0.33639 0.941723 120.362 155.768)" fill="#BF0C00"/>
<path d="M71.0332 181.135C91.2383 212.795 185.012 191.191 186.181 139.014" stroke="#969696" stroke-width="8" stroke-linecap="round"/>
<ellipse cx="29.7432" cy="31.0046" rx="29.7432" ry="31.0046" transform="matrix(0.936613 0.350364 -0.33639 0.941723 123.255 276.834)" fill="#BF0C00"/>
<path d="M68.3687 179.761C20.9345 184.359 40.1912 220.938 95.5525 228.408" stroke="#969696" stroke-width="8" stroke-linecap="round"/>
<path d="M279.393 68.8613L333.06 23.0945" stroke="#969696" stroke-width="2" stroke-linecap="round"/>
<path d="M292.394 87.1914L361 73.7131" stroke="#969696" stroke-width="2" stroke-linecap="round"/>
<path d="M287.121 76.7832L351.664 49.428" stroke="#969696" stroke-width="2" stroke-linecap="round"/>
<path d="M205.162 605.767C30.457 508.891 335.591 367.09 310.542 581.717" stroke="#969696" stroke-width="8" stroke-linecap="round"/>
<path d="M310.551 581.599C307.372 593.628 294.008 590.261 291.039 575.349C285.196 546.008 295.849 505.814 260.551 492.209C213.13 473.93 116.22 531.83 219.904 596.033" stroke="#969696" stroke-width="8" stroke-linecap="round"/>
<path d="M219.909 596.032C245.364 608.705 237.323 623.874 215.162 625.856C211.592 626.175 207.17 617.882 203.044 617.679C198.697 617.466 191.459 626.726 186.71 625.857C182.242 625.038 181.334 613.854 176.699 612.386C172.493 611.055 167.215 612.386 161.946 613.35" stroke="#969696" stroke-width="8" stroke-linecap="round"/>
<ellipse cx="305.644" cy="506.176" rx="15.807" ry="14.4302" fill="#00EFFF"/>
<ellipse cx="318.192" cy="549.272" rx="15.807" ry="14.4302" fill="#00EFFF"/>
<ellipse cx="261.716" cy="469.979" rx="15.807" ry="14.4302" fill="#00EFFF"/>
<ellipse cx="206.283" cy="473.223" rx="15.807" ry="14.4302" fill="#00EFFF"/>
<ellipse cx="165.495" cy="502.004" rx="15.807" ry="14.4302" fill="#00EFFF"/>
<ellipse cx="149.807" cy="540.932" rx="15.807" ry="14.4302" fill="#00EFFF"/>
<ellipse cx="163.405" cy="579.858" rx="15.807" ry="14.4302" fill="#00EFFF"/>
<path d="M242.765 448.006L248.616 433.273L236.647 420.918L248.616 408.177L241.341 393.178" stroke="#969696" stroke-width="2" stroke-linecap="round"/>
<path d="M278.204 451.085L291.665 442.712L289.38 425.663L306.578 422.527L309.639 406.141" stroke="#969696" stroke-width="2" stroke-linecap="round"/>
<path d="M262.056 449.217L271.382 436.399L262.856 421.459L277.614 412.088L274.292 395.753" stroke="#969696" stroke-width="2" stroke-linecap="round"/>
</svg>
