<svg width="400" height="344" viewBox="0 0 400 344" fill="none" xmlns="http://www.w3.org/2000/svg">
<g clip-path="url(#clip0_667_2970)">
<rect width="400" height="344" fill="#170191"/>
<path d="M-31.435 274.747C-63.1335 224.198 31.9619 224.198 0.26345 274.747C-31.435 325.296 63.6604 337.077 31.9619 274.747C0.263447 212.418 95.3589 212.418 63.6604 274.747C31.9619 337.077 127.057 301.949 95.3589 274.747C63.6604 247.545 158.756 247.545 127.057 274.747C95.3589 301.949 190.454 303.449 158.756 274.747C127.057 246.046 222.153 246.046 190.454 274.747C158.756 303.449 253.851 331.508 222.153 274.747C190.454 217.987 285.55 217.987 253.851 274.747C222.153 331.508 317.248 301.949 285.55 274.747C253.851 247.545 348.947 247.545 317.248 274.747C285.55 301.949 380.645 324.225 348.947 274.747C317.248 225.269 407.202 220.273 390.92 274.747C381.424 323.373 429.658 324.585 422.619 274.747C415.58 224.909 462.704 229.545 461.992 272.596" stroke="#FFD700" stroke-width="6"/>
<g filter="url(#filter0_dddddd_667_2970)">
<path d="M173.852 104.221C173.313 102.464 172.655 100.537 171.882 98.4415C173.503 100.337 175.027 102.008 176.459 103.452C179.011 106.027 181.402 108.017 183.648 109.253C185.88 110.482 188.36 111.172 190.817 110.428C193.292 109.68 194.938 107.722 196.049 105.48C197.161 103.235 197.935 100.32 198.499 96.8997C198.517 96.7899 198.535 96.6794 198.553 96.5682C198.641 96.8344 198.731 97.0969 198.821 97.3556C200.051 100.867 201.529 103.81 203.297 106.033C205.073 108.267 207.261 109.917 209.886 110.488C215.237 111.653 220.273 108.043 224.599 102.463C225.28 101.584 225.964 100.633 226.649 99.608C226.472 101.044 226.342 102.405 226.259 103.69C226.017 107.413 226.156 110.641 226.763 113.263C227.362 115.853 228.509 118.228 230.597 119.684C232.782 121.208 235.365 121.298 237.853 120.599C239.643 120.095 241.523 119.153 243.472 117.865C242.602 119.737 241.967 121.449 241.619 122.986C241.132 125.137 241.066 127.582 242.507 129.552C243.981 131.566 246.345 132.165 248.497 132.24C250.523 132.31 252.933 131.946 255.634 131.29C253.253 133.324 251.343 135.335 250.045 137.345C248.696 139.437 247.882 141.735 248.154 144.143C248.429 146.586 249.761 148.606 251.627 150.235C253.188 151.598 255.219 152.777 257.619 153.828C255.045 154.025 252.797 154.374 250.964 154.95C248.879 155.605 246.75 156.736 245.684 158.877C244.568 161.116 245.078 163.487 246.042 165.492C247.011 167.507 248.678 169.685 250.847 172.03C252.014 173.292 253.371 174.648 254.916 176.105C253.096 175.364 251.413 174.723 249.868 174.186C246.79 173.117 244.096 172.403 241.882 172.188C239.838 171.989 237.314 172.126 235.58 173.874C233.72 175.75 233.841 178.329 234.329 180.326C234.844 182.433 235.995 184.913 237.596 187.703C237.957 188.332 238.347 188.987 238.765 189.667C237.255 188.365 235.854 187.17 234.566 186.094C231.665 183.67 229.182 181.718 227.153 180.399C226.141 179.74 225.15 179.179 224.21 178.799C223.328 178.442 222.153 178.104 220.911 178.303C219.419 178.542 218.297 179.473 217.693 180.733C217.182 181.8 217.089 182.987 217.111 184C217.157 186.064 217.741 188.837 218.67 192.2C219.051 193.577 219.502 195.098 220.023 196.767C219.085 195.456 218.192 194.282 217.343 193.24C215.131 190.53 213.013 188.473 210.928 187.33C208.697 186.108 206.167 185.791 203.859 187.252C201.884 188.503 200.653 190.733 199.782 192.995C198.871 195.361 198.146 198.334 197.515 201.726C197.403 202.324 197.294 202.94 197.186 203.572C197.004 202.644 196.814 201.749 196.617 200.89C195.816 197.399 194.873 194.379 193.751 191.992C192.67 189.691 191.229 187.556 189.194 186.41C186.839 185.084 184.319 185.406 182.131 186.81C180.131 188.092 178.301 190.31 176.565 193.138C175.781 194.413 174.982 195.872 174.166 197.518C174.431 194.632 174.596 192.113 174.657 189.943C174.756 186.434 174.596 183.561 174.018 181.444C173.459 179.397 172.145 176.945 169.223 176.629C167.994 176.496 166.854 176.819 165.917 177.237C164.966 177.661 164.025 178.272 163.112 178.969C161.961 179.848 160.717 180.971 159.387 182.285C160.308 180.285 161.012 178.481 161.442 176.902C161.98 174.929 162.335 172.48 161.176 170.478C159.789 168.08 157.194 167.711 155.164 167.887C153.347 168.045 151.188 168.671 148.75 169.622C148.795 169.582 148.839 169.542 148.883 169.503C151.602 167.052 153.833 164.837 155.402 162.858C156.873 161.004 158.206 158.826 158.206 156.526C158.206 155.249 157.794 154.047 156.98 153.034C156.209 152.074 155.187 151.415 154.139 150.944C153.04 150.45 151.724 150.08 150.225 149.803C150.394 149.726 150.559 149.648 150.719 149.568C152.527 148.666 154.601 147.155 154.942 144.583C155.271 142.105 153.78 140.046 152.35 138.584C151.015 137.221 149.158 135.797 146.887 134.288C146.889 134.288 146.892 134.289 146.894 134.289C150.226 135.015 153.108 135.388 155.421 135.214C157.693 135.043 160.185 134.264 161.482 131.89C162.675 129.707 162.278 127.147 161.561 124.939C160.802 122.605 159.416 119.863 157.565 116.754C156.808 115.484 155.959 114.127 155.019 112.682C156.461 113.807 157.808 114.808 159.062 115.684C161.94 117.695 164.495 119.173 166.676 119.941C168.701 120.654 171.4 121.091 173.511 119.344C175.519 117.684 175.78 115.007 175.662 112.856C175.534 110.505 174.885 107.592 173.852 104.221Z" stroke="#FFD700" stroke-width="6"/>
</g>
<g filter="url(#filter1_dddddd_667_2970)">
<path d="M194.386 137.971C197.097 140.581 198.619 145.456 197.341 146.635C196.063 147.814 191.697 145.563 188.987 142.953C186.277 140.343 185.115 137.271 186.393 136.091C187.671 134.912 191.676 135.36 194.386 137.971Z" fill="#FFD700"/>
</g>
<g filter="url(#filter2_dddddd_667_2970)">
<path d="M207.873 137.872C205.177 140.495 203.68 145.376 204.964 146.55C206.248 147.723 210.602 145.452 213.299 142.829C215.995 140.206 217.141 137.129 215.857 135.955C214.572 134.782 210.57 135.249 207.873 137.872Z" fill="#FFD700"/>
</g>
<path d="M305.064 48.76C304.704 48.76 304.5 48.52 304.452 48.04C305.172 45.304 305.796 42.568 306.324 39.832L307.404 34.18L308.484 28.528L308.772 27.016C309.732 22.024 310.38 18.688 310.716 17.008V16.216C310.716 15.976 310.824 15.748 311.04 15.532C311.256 15.316 311.508 15.208 311.796 15.208C312.06 15.208 312.264 15.316 312.408 15.532C312.552 15.724 312.624 15.94 312.624 16.18C312.624 16.516 312.564 16.864 312.444 17.224L312.3 17.692C312.252 17.884 312.228 18.016 312.228 18.088L311.724 20.68C313.452 17.392 315.3 15.748 317.268 15.748C318.3 15.748 319.044 16.06 319.5 16.684C319.98 17.284 320.22 18.196 320.22 19.42C320.22 21.724 319.896 24.016 319.248 26.296C318.6 28.576 317.664 30.496 316.44 32.056C315.192 33.664 313.704 34.468 311.976 34.468C311.304 34.468 310.764 34.324 310.356 34.036C309.972 33.772 309.66 33.304 309.42 32.632L308.988 34.756C308.412 37.396 307.992 39.388 307.728 40.732C307.152 43.66 306.6 46.096 306.072 48.04C305.856 48.52 305.52 48.76 305.064 48.76ZM312.228 32.776C313.476 32.776 314.64 31.984 315.72 30.4C317.064 28.36 317.952 25.684 318.384 22.372C318.504 21.34 318.564 20.452 318.564 19.708C318.564 18.148 318.18 17.368 317.412 17.368C316.644 17.368 315.768 17.92 314.784 19.024C313.44 20.536 312.336 22.36 311.472 24.496C310.608 26.608 310.176 28.444 310.176 30.004C310.176 31.852 310.86 32.776 312.228 32.776ZM332.027 34.072C331.475 34.072 330.959 33.784 330.479 33.208C330.023 32.608 329.795 31.972 329.795 31.3C329.795 29.812 330.191 27.292 330.983 23.74C330.383 25.036 329.603 26.368 328.643 27.736C327.707 29.08 326.783 30.268 325.871 31.3C324.959 32.332 324.287 33.004 323.855 33.316C323.255 33.772 322.595 34 321.875 34C320.507 34 319.823 33.136 319.823 31.408C319.823 29.728 320.459 27.64 321.731 25.144C323.003 22.624 324.515 20.44 326.267 18.592C328.019 16.768 329.435 15.856 330.515 15.856C331.619 15.856 332.243 16.336 332.387 17.296C332.459 17.584 332.495 17.896 332.495 18.232C332.615 18.16 332.747 18.124 332.891 18.124C333.443 18.124 333.719 18.388 333.719 18.916V19.06L333.287 20.644C332.951 21.844 332.603 23.62 332.243 25.972C331.883 28.324 331.703 30.28 331.703 31.84L332.063 32.056C332.639 32.416 332.927 32.776 332.927 33.136C332.927 33.376 332.843 33.592 332.675 33.784C332.507 33.976 332.291 34.072 332.027 34.072ZM322.163 32.128C322.427 32.128 322.643 32.044 322.811 31.876C325.259 29.788 327.431 26.896 329.327 23.2C330.407 21.16 330.995 19.948 331.091 19.564C331.139 19.132 331.163 18.868 331.163 18.772C331.163 18.532 331.103 18.316 330.983 18.124C330.863 17.932 330.707 17.836 330.515 17.836C330.275 17.836 329.963 17.944 329.579 18.16C328.619 18.664 327.479 19.732 326.159 21.364C324.863 22.996 323.795 24.724 322.955 26.548C322.067 28.396 321.623 30.04 321.623 31.48C321.623 31.912 321.803 32.128 322.163 32.128ZM336.967 48.76C335.815 48.76 334.843 48.364 334.051 47.572C333.283 46.804 332.899 45.82 332.899 44.62C332.899 43.516 333.151 42.46 333.655 41.452C334.183 40.468 334.939 39.448 335.923 38.392C336.763 37.48 337.771 36.532 338.947 35.548L342.331 32.74C342.499 32.14 342.643 31.504 342.763 30.832C343.027 29.776 343.231 28.912 343.375 28.24C342.463 31.096 341.287 32.968 339.847 33.856C339.391 34.144 338.947 34.288 338.515 34.288C337.675 34.288 336.979 33.952 336.427 33.28C335.899 32.608 335.635 31.72 335.635 30.616C335.635 28.528 336.031 26.344 336.823 24.064C337.615 21.76 338.671 19.792 339.991 18.16C341.359 16.504 342.847 15.676 344.455 15.676C345.223 15.676 345.955 15.868 346.651 16.252C346.795 16.18 346.951 16.144 347.119 16.144C347.527 16.144 347.731 16.336 347.731 16.72C347.731 17.128 347.659 17.512 347.515 17.872C346.843 19.624 345.715 24.184 344.131 31.552C344.515 31.312 344.959 30.964 345.463 30.508C345.583 30.412 345.799 30.232 346.111 29.968C346.423 29.68 346.675 29.476 346.867 29.356C347.059 29.236 347.227 29.176 347.371 29.176C347.779 29.176 347.983 29.38 347.983 29.788C347.983 30.1 347.899 30.34 347.731 30.508C346.243 31.636 344.971 32.572 343.915 33.316L343.339 36.7L343.159 37.6C342.871 39.112 342.619 40.372 342.403 41.38C342.187 42.412 341.923 43.396 341.611 44.332C341.155 45.652 340.531 46.72 339.739 47.536C338.971 48.352 338.047 48.76 336.967 48.76ZM338.623 32.56C339.103 32.56 339.655 32.236 340.279 31.588C340.903 30.916 341.503 30.052 342.079 28.996C342.679 27.916 343.159 26.788 343.519 25.612C344.071 23.908 344.539 22.336 344.923 20.896C345.163 20.056 345.463 18.952 345.823 17.584C345.487 17.272 345.031 17.116 344.455 17.116C343.423 17.116 342.343 17.8 341.215 19.168C340.111 20.536 339.175 22.264 338.407 24.352C337.663 26.416 337.291 28.3 337.291 30.004C337.291 31.708 337.735 32.56 338.623 32.56ZM336.643 46.96C337.147 46.96 337.603 46.84 338.011 46.6C338.419 46.384 338.803 46 339.163 45.448C339.523 44.872 339.883 44.068 340.243 43.036C340.603 42.004 340.891 40.948 341.107 39.868C341.299 39.052 341.455 38.308 341.575 37.636L341.719 36.844C341.743 36.652 341.779 36.448 341.827 36.232C341.875 36.016 341.911 35.788 341.935 35.548L342.043 34.684C339.691 36.628 337.867 38.392 336.571 39.976C335.299 41.56 334.663 42.976 334.663 44.224C334.663 45.544 334.951 46.384 335.527 46.744C335.767 46.888 336.139 46.96 336.643 46.96ZM353.13 34.324C351.882 34.324 350.946 33.832 350.322 32.848C349.722 31.864 349.422 30.688 349.422 29.32C349.422 27.136 349.782 25.024 350.502 22.984C351.246 20.92 352.254 19.216 353.526 17.872C354.75 16.504 356.13 15.82 357.666 15.82C359.874 15.82 360.978 17.5 360.978 20.86C360.978 22.54 360.702 24.256 360.15 26.008C359.598 27.76 358.878 29.32 357.99 30.688C357.126 32.056 356.226 33.04 355.29 33.64C354.57 34.096 353.85 34.324 353.13 34.324ZM353.418 32.704C354.162 32.704 354.99 32.056 355.902 30.76C356.838 29.464 357.618 27.856 358.242 25.936C358.89 24.016 359.214 22.384 359.214 21.04C359.214 19.648 359.13 18.784 358.962 18.448C358.818 18.088 358.638 17.836 358.422 17.692C358.206 17.548 357.87 17.476 357.414 17.476C356.91 17.476 356.382 17.668 355.83 18.052C354.726 18.748 353.766 19.948 352.95 21.652C351.678 24.196 351.042 26.668 351.042 29.068C351.042 30.7 351.51 31.828 352.446 32.452C352.782 32.62 353.106 32.704 353.418 32.704ZM365.041 34.432C363.889 34.432 362.977 34.012 362.305 33.172C361.657 32.308 361.333 31.276 361.333 30.076C361.333 27.964 361.717 25.78 362.485 23.524C363.277 21.268 364.309 19.384 365.581 17.872C366.853 16.36 368.197 15.604 369.613 15.604C370.645 15.604 371.317 15.976 371.629 16.72C371.701 16.84 371.761 16.972 371.809 17.116C371.857 17.236 371.905 17.356 371.953 17.476C372.073 17.812 372.193 18.004 372.313 18.052C372.409 18.292 372.457 18.472 372.457 18.592C372.457 18.808 372.349 19.012 372.133 19.204C371.941 19.396 371.725 19.492 371.485 19.492C370.981 19.492 370.657 19.12 370.513 18.376C370.369 17.632 369.973 17.26 369.325 17.26C368.461 17.26 367.549 17.932 366.589 19.276C365.629 20.596 364.801 22.276 364.105 24.316C363.433 26.236 363.097 27.952 363.097 29.464C363.097 31.6 363.877 32.668 365.437 32.668C366.229 32.668 366.961 32.296 367.633 31.552C367.705 31.456 367.837 31.3 368.029 31.084C368.221 30.844 368.401 30.676 368.569 30.58C368.737 30.46 368.893 30.4 369.037 30.4C369.493 30.4 369.721 30.604 369.721 31.012C369.721 31.492 369.493 32.008 369.037 32.56C368.581 33.088 367.993 33.532 367.273 33.892C366.553 34.252 365.809 34.432 365.041 34.432ZM372.272 17.872C371.984 17.872 371.732 17.788 371.516 17.62C371.324 17.452 371.228 17.272 371.228 17.08C371.228 16.912 371.312 16.768 371.48 16.648C373.496 15.784 376.016 15.352 379.04 15.352C380.336 15.352 381.404 15.4 382.244 15.496C383.06 15.616 383.768 15.7 384.368 15.748C384.872 15.82 385.172 15.904 385.268 16C385.364 16.12 385.412 16.288 385.412 16.504C385.412 16.72 385.292 16.936 385.052 17.152C384.812 17.344 384.512 17.44 384.152 17.44C383.744 17.44 383.06 17.332 382.1 17.116C381.092 16.924 380.132 16.828 379.22 16.828C376.772 16.828 374.552 17.164 372.56 17.836L372.416 17.872H372.272ZM374.144 34.54C373.736 34.54 373.532 34.3 373.532 33.82C373.532 33.58 373.616 33.352 373.784 33.136C374 32.56 374.216 31.78 374.432 30.796C374.72 29.572 374.912 28.816 375.008 28.528L375.368 26.692L375.764 24.388C376.172 22.036 376.556 20.344 376.916 19.312C377.3 18.28 377.816 17.764 378.464 17.764C378.704 17.764 378.896 17.92 379.04 18.232L379.508 19.456C379.508 19.96 379.328 20.344 378.968 20.608C378.872 20.68 378.752 20.716 378.608 20.716C378.464 20.716 378.332 20.644 378.212 20.5C377.66 22.54 377.324 24.028 377.204 24.964C376.964 26.524 376.76 27.724 376.592 28.564C376.496 28.828 376.388 29.212 376.268 29.716L375.944 30.904C375.32 33.328 374.72 34.54 374.144 34.54ZM385.654 34.54C383.59 34.54 382.558 33.136 382.558 30.328C382.558 29.296 382.714 28.036 383.026 26.548L383.674 23.452L385.078 16.612C385.174 16.42 385.33 16.264 385.546 16.144C385.762 16 385.966 15.928 386.158 15.928C386.326 15.928 386.494 16.036 386.662 16.252C386.83 16.468 386.914 16.696 386.914 16.936L385.762 21.436L384.646 26.152C384.262 27.88 384.07 29.2 384.07 30.112C384.07 31.12 384.214 31.84 384.502 32.272C384.79 32.68 385.258 32.884 385.906 32.884C386.914 32.884 387.742 32.548 388.39 31.876C389.038 31.204 389.506 30.316 389.794 29.212C390.058 28.156 390.19 27.232 390.19 26.44C390.19 24.376 389.686 23.344 388.678 23.344C388.03 23.344 387.442 23.86 386.914 24.892C386.626 25.468 386.374 25.888 386.158 26.152C385.966 26.344 385.798 26.44 385.654 26.44C385.222 26.44 385.006 26.236 385.006 25.828C385.006 25.588 385.246 25.096 385.726 24.352C386.23 23.584 386.638 23.02 386.95 22.66C387.622 21.988 388.246 21.652 388.822 21.652C389.782 21.652 390.514 22.108 391.018 23.02C391.522 23.932 391.774 25.048 391.774 26.368C391.774 27.88 391.498 29.26 390.946 30.508C390.418 31.756 389.686 32.74 388.75 33.46C387.814 34.18 386.782 34.54 385.654 34.54Z" fill="#FFD700"/>
</g>
<defs>
<filter id="filter0_dddddd_667_2970" x="-163.669" y="-210.669" width="727.338" height="717.601" filterUnits="userSpaceOnUse" color-interpolation-filters="sRGB">
<feFlood flood-opacity="0" result="BackgroundImageFix"/>
<feColorMatrix in="SourceAlpha" type="matrix" values="0 0 0 0 0 0 0 0 0 0 0 0 0 0 0 0 0 0 127 0" result="hardAlpha"/>
<feOffset/>
<feGaussianBlur stdDeviation="3.31749"/>
<feColorMatrix type="matrix" values="0 0 0 0 1 0 0 0 0 0.847059 0 0 0 0 0 0 0 0 1 0"/>
<feBlend mode="normal" in2="BackgroundImageFix" result="effect1_dropShadow_667_2970"/>
<feColorMatrix in="SourceAlpha" type="matrix" values="0 0 0 0 0 0 0 0 0 0 0 0 0 0 0 0 0 0 127 0" result="hardAlpha"/>
<feOffset/>
<feGaussianBlur stdDeviation="6.63497"/>
<feColorMatrix type="matrix" values="0 0 0 0 1 0 0 0 0 0.847059 0 0 0 0 0 0 0 0 1 0"/>
<feBlend mode="normal" in2="effect1_dropShadow_667_2970" result="effect2_dropShadow_667_2970"/>
<feColorMatrix in="SourceAlpha" type="matrix" values="0 0 0 0 0 0 0 0 0 0 0 0 0 0 0 0 0 0 127 0" result="hardAlpha"/>
<feOffset/>
<feGaussianBlur stdDeviation="23.2224"/>
<feColorMatrix type="matrix" values="0 0 0 0 1 0 0 0 0 0.847059 0 0 0 0 0 0 0 0 1 0"/>
<feBlend mode="normal" in2="effect2_dropShadow_667_2970" result="effect3_dropShadow_667_2970"/>
<feColorMatrix in="SourceAlpha" type="matrix" values="0 0 0 0 0 0 0 0 0 0 0 0 0 0 0 0 0 0 127 0" result="hardAlpha"/>
<feOffset/>
<feGaussianBlur stdDeviation="46.4448"/>
<feColorMatrix type="matrix" values="0 0 0 0 1 0 0 0 0 0.847059 0 0 0 0 0 0 0 0 1 0"/>
<feBlend mode="normal" in2="effect3_dropShadow_667_2970" result="effect4_dropShadow_667_2970"/>
<feColorMatrix in="SourceAlpha" type="matrix" values="0 0 0 0 0 0 0 0 0 0 0 0 0 0 0 0 0 0 127 0" result="hardAlpha"/>
<feOffset/>
<feGaussianBlur stdDeviation="79.6197"/>
<feColorMatrix type="matrix" values="0 0 0 0 1 0 0 0 0 0.847059 0 0 0 0 0 0 0 0 1 0"/>
<feBlend mode="normal" in2="effect4_dropShadow_667_2970" result="effect5_dropShadow_667_2970"/>
<feColorMatrix in="SourceAlpha" type="matrix" values="0 0 0 0 0 0 0 0 0 0 0 0 0 0 0 0 0 0 127 0" result="hardAlpha"/>
<feOffset/>
<feGaussianBlur stdDeviation="139.334"/>
<feColorMatrix type="matrix" values="0 0 0 0 1 0 0 0 0 0.847059 0 0 0 0 0 0 0 0 1 0"/>
<feBlend mode="normal" in2="effect5_dropShadow_667_2970" result="effect6_dropShadow_667_2970"/>
<feBlend mode="normal" in="SourceGraphic" in2="effect6_dropShadow_667_2970" result="shape"/>
</filter>
<filter id="filter1_dddddd_667_2970" x="160.958" y="110.559" width="61.7576" height="61.3137" filterUnits="userSpaceOnUse" color-interpolation-filters="sRGB">
<feFlood flood-opacity="0" result="BackgroundImageFix"/>
<feColorMatrix in="SourceAlpha" type="matrix" values="0 0 0 0 0 0 0 0 0 0 0 0 0 0 0 0 0 0 127 0" result="hardAlpha"/>
<feOffset/>
<feGaussianBlur stdDeviation="0.296615"/>
<feColorMatrix type="matrix" values="0 0 0 0 1 0 0 0 0 0.847059 0 0 0 0 0 0 0 0 1 0"/>
<feBlend mode="normal" in2="BackgroundImageFix" result="effect1_dropShadow_667_2970"/>
<feColorMatrix in="SourceAlpha" type="matrix" values="0 0 0 0 0 0 0 0 0 0 0 0 0 0 0 0 0 0 127 0" result="hardAlpha"/>
<feOffset/>
<feGaussianBlur stdDeviation="0.59323"/>
<feColorMatrix type="matrix" values="0 0 0 0 1 0 0 0 0 0.847059 0 0 0 0 0 0 0 0 1 0"/>
<feBlend mode="normal" in2="effect1_dropShadow_667_2970" result="effect2_dropShadow_667_2970"/>
<feColorMatrix in="SourceAlpha" type="matrix" values="0 0 0 0 0 0 0 0 0 0 0 0 0 0 0 0 0 0 127 0" result="hardAlpha"/>
<feOffset/>
<feGaussianBlur stdDeviation="2.0763"/>
<feColorMatrix type="matrix" values="0 0 0 0 1 0 0 0 0 0.847059 0 0 0 0 0 0 0 0 1 0"/>
<feBlend mode="normal" in2="effect2_dropShadow_667_2970" result="effect3_dropShadow_667_2970"/>
<feColorMatrix in="SourceAlpha" type="matrix" values="0 0 0 0 0 0 0 0 0 0 0 0 0 0 0 0 0 0 127 0" result="hardAlpha"/>
<feOffset/>
<feGaussianBlur stdDeviation="4.15261"/>
<feColorMatrix type="matrix" values="0 0 0 0 1 0 0 0 0 0.847059 0 0 0 0 0 0 0 0 1 0"/>
<feBlend mode="normal" in2="effect3_dropShadow_667_2970" result="effect4_dropShadow_667_2970"/>
<feColorMatrix in="SourceAlpha" type="matrix" values="0 0 0 0 0 0 0 0 0 0 0 0 0 0 0 0 0 0 127 0" result="hardAlpha"/>
<feOffset/>
<feGaussianBlur stdDeviation="7.11875"/>
<feColorMatrix type="matrix" values="0 0 0 0 1 0 0 0 0 0.847059 0 0 0 0 0 0 0 0 1 0"/>
<feBlend mode="normal" in2="effect4_dropShadow_667_2970" result="effect5_dropShadow_667_2970"/>
<feColorMatrix in="SourceAlpha" type="matrix" values="0 0 0 0 0 0 0 0 0 0 0 0 0 0 0 0 0 0 127 0" result="hardAlpha"/>
<feOffset/>
<feGaussianBlur stdDeviation="12.4578"/>
<feColorMatrix type="matrix" values="0 0 0 0 1 0 0 0 0 0.847059 0 0 0 0 0 0 0 0 1 0"/>
<feBlend mode="normal" in2="effect5_dropShadow_667_2970" result="effect6_dropShadow_667_2970"/>
<feBlend mode="normal" in="SourceGraphic" in2="effect6_dropShadow_667_2970" result="shape"/>
</filter>
<filter id="filter2_dddddd_667_2970" x="179.589" y="110.439" width="61.7026" height="61.3364" filterUnits="userSpaceOnUse" color-interpolation-filters="sRGB">
<feFlood flood-opacity="0" result="BackgroundImageFix"/>
<feColorMatrix in="SourceAlpha" type="matrix" values="0 0 0 0 0 0 0 0 0 0 0 0 0 0 0 0 0 0 127 0" result="hardAlpha"/>
<feOffset/>
<feGaussianBlur stdDeviation="0.296529"/>
<feColorMatrix type="matrix" values="0 0 0 0 1 0 0 0 0 0.847059 0 0 0 0 0 0 0 0 1 0"/>
<feBlend mode="normal" in2="BackgroundImageFix" result="effect1_dropShadow_667_2970"/>
<feColorMatrix in="SourceAlpha" type="matrix" values="0 0 0 0 0 0 0 0 0 0 0 0 0 0 0 0 0 0 127 0" result="hardAlpha"/>
<feOffset/>
<feGaussianBlur stdDeviation="0.593058"/>
<feColorMatrix type="matrix" values="0 0 0 0 1 0 0 0 0 0.847059 0 0 0 0 0 0 0 0 1 0"/>
<feBlend mode="normal" in2="effect1_dropShadow_667_2970" result="effect2_dropShadow_667_2970"/>
<feColorMatrix in="SourceAlpha" type="matrix" values="0 0 0 0 0 0 0 0 0 0 0 0 0 0 0 0 0 0 127 0" result="hardAlpha"/>
<feOffset/>
<feGaussianBlur stdDeviation="2.0757"/>
<feColorMatrix type="matrix" values="0 0 0 0 1 0 0 0 0 0.847059 0 0 0 0 0 0 0 0 1 0"/>
<feBlend mode="normal" in2="effect2_dropShadow_667_2970" result="effect3_dropShadow_667_2970"/>
<feColorMatrix in="SourceAlpha" type="matrix" values="0 0 0 0 0 0 0 0 0 0 0 0 0 0 0 0 0 0 127 0" result="hardAlpha"/>
<feOffset/>
<feGaussianBlur stdDeviation="4.1514"/>
<feColorMatrix type="matrix" values="0 0 0 0 1 0 0 0 0 0.847059 0 0 0 0 0 0 0 0 1 0"/>
<feBlend mode="normal" in2="effect3_dropShadow_667_2970" result="effect4_dropShadow_667_2970"/>
<feColorMatrix in="SourceAlpha" type="matrix" values="0 0 0 0 0 0 0 0 0 0 0 0 0 0 0 0 0 0 127 0" result="hardAlpha"/>
<feOffset/>
<feGaussianBlur stdDeviation="7.11669"/>
<feColorMatrix type="matrix" values="0 0 0 0 1 0 0 0 0 0.847059 0 0 0 0 0 0 0 0 1 0"/>
<feBlend mode="normal" in2="effect4_dropShadow_667_2970" result="effect5_dropShadow_667_2970"/>
<feColorMatrix in="SourceAlpha" type="matrix" values="0 0 0 0 0 0 0 0 0 0 0 0 0 0 0 0 0 0 127 0" result="hardAlpha"/>
<feOffset/>
<feGaussianBlur stdDeviation="12.4542"/>
<feColorMatrix type="matrix" values="0 0 0 0 1 0 0 0 0 0.847059 0 0 0 0 0 0 0 0 1 0"/>
<feBlend mode="normal" in2="effect5_dropShadow_667_2970" result="effect6_dropShadow_667_2970"/>
<feBlend mode="normal" in="SourceGraphic" in2="effect6_dropShadow_667_2970" result="shape"/>
</filter>
<clipPath id="clip0_667_2970">
<rect width="400" height="344" fill="white"/>
</clipPath>
</defs>
</svg>
