<svg width="2436" height="210" viewBox="0 0 2436 210" fill="none" xmlns="http://www.w3.org/2000/svg">
<path d="M17.8392 109.873C-48.9823 -4.61051 151.482 -4.61051 84.6606 109.873C17.8392 224.356 218.303 251.036 151.482 109.873C84.6606 -31.2909 285.125 -31.2909 218.304 109.873C151.482 251.036 351.946 171.48 285.125 109.873C218.303 48.2652 418.768 48.2652 351.946 109.873C285.125 171.48 485.589 174.876 418.768 109.873C351.946 44.8695 552.411 44.8695 485.589 109.873C418.768 174.876 619.232 238.424 552.411 109.873C485.589 -18.6784 686.054 -18.6784 619.232 109.873C552.411 238.424 752.875 171.48 686.054 109.873C619.232 48.2652 819.697 48.2652 752.875 109.873C686.054 171.48 886.518 221.931 819.696 109.873C752.875 -2.18501 942.5 -13.5 908.179 109.873C888.161 220 989.839 222.745 975 109.873C960.161 -3 1059.5 7.5 1058 105" stroke="white" stroke-width="8"/>
<path d="M1378.5 93.0004C1418 33.5004 1460.5 34.0004 1460.5 111.873C1460.5 217.5 1568.07 223.88 1520.52 111.873C1460.5 -29.5 1676.32 -29.2905 1609.5 111.873C1542.68 253.037 1749.95 173.481 1683.13 111.873C1616.3 50.2657 1816.77 50.2657 1749.95 111.873C1683.13 173.481 1883.59 176.876 1816.77 111.873C1749.95 46.87 1950.41 46.87 1883.59 111.873C1816.77 176.876 2017.23 240.424 1950.41 111.873C1883.59 -16.6779 2084.05 -16.6779 2017.23 111.873C1950.41 240.424 2150.87 173.481 2084.05 111.873C2017.23 50.2657 2217.7 50.2657 2150.88 111.873C2084.05 173.481 2284.52 223.931 2217.7 111.873C2150.87 -0.18457 2351.34 -0.18457 2284.52 111.873C2217.7 223.931 2418.16 210.833 2351.34 111.873C2284.52 12.9131 2484.98 12.9131 2418.16 111.873" stroke="white" stroke-width="8"/>
<path d="M1055.63 78H1060.39V105H1055.63V78ZM1077.59 78H1082.35V105H1077.59V78ZM1058.19 89.304H1079.86V93.48H1058.19V89.304ZM1089.77 96.216C1089.91 97.296 1090.36 98.244 1091.12 99.06C1091.87 99.876 1092.88 100.506 1094.12 100.95C1095.38 101.394 1096.82 101.616 1098.44 101.616C1100.04 101.616 1101.43 101.448 1102.62 101.112C1103.81 100.764 1104.72 100.272 1105.36 99.636C1106 99 1106.33 98.256 1106.33 97.404C1106.33 96.684 1106.15 96.096 1105.79 95.64C1105.44 95.184 1104.86 94.818 1104.04 94.542C1103.24 94.254 1102.12 94.02 1100.68 93.84L1094.84 93.084C1092.65 92.796 1090.87 92.346 1089.5 91.734C1088.14 91.122 1087.14 90.318 1086.49 89.322C1085.84 88.314 1085.52 87.072 1085.52 85.596C1085.52 83.964 1086.02 82.542 1087.01 81.33C1088.01 80.106 1089.42 79.164 1091.24 78.504C1093.08 77.832 1095.22 77.496 1097.65 77.496C1100.05 77.496 1102.19 77.856 1104.08 78.576C1105.97 79.296 1107.47 80.31 1108.58 81.618C1109.68 82.914 1110.29 84.408 1110.4 86.1H1105.57C1105.45 85.152 1105.05 84.324 1104.37 83.616C1103.68 82.908 1102.75 82.362 1101.58 81.978C1100.41 81.582 1099.07 81.384 1097.54 81.384C1096.08 81.384 1094.8 81.546 1093.69 81.87C1092.6 82.194 1091.75 82.662 1091.15 83.274C1090.57 83.886 1090.27 84.6 1090.27 85.416C1090.27 86.076 1090.44 86.622 1090.78 87.054C1091.11 87.474 1091.66 87.828 1092.41 88.116C1093.18 88.392 1094.22 88.62 1095.53 88.8L1101.43 89.628C1103.89 89.964 1105.81 90.42 1107.19 90.996C1108.58 91.56 1109.58 92.31 1110.18 93.246C1110.78 94.182 1111.08 95.4 1111.08 96.9C1111.08 98.616 1110.55 100.128 1109.5 101.436C1108.44 102.732 1106.95 103.734 1105.03 104.442C1103.11 105.15 1100.89 105.504 1098.37 105.504C1095.8 105.504 1093.52 105.12 1091.51 104.352C1089.52 103.572 1087.95 102.48 1086.8 101.076C1085.66 99.672 1085.04 98.052 1084.94 96.216H1089.77ZM1135.26 89.52V93.48H1116.4V89.52H1135.26ZM1119.53 91.5L1117.62 103.56L1115.35 100.896H1136.31V105H1112.76L1114.92 91.5L1112.76 78H1136.13V82.104H1115.35L1117.62 79.44L1119.53 91.5ZM1151.58 93.408C1151.58 95.004 1151.9 96.396 1152.55 97.584C1153.2 98.76 1154.13 99.666 1155.34 100.302C1156.57 100.938 1158.01 101.256 1159.68 101.256C1161.36 101.256 1162.81 100.938 1164.02 100.302C1165.23 99.666 1166.16 98.76 1166.81 97.584C1167.46 96.396 1167.78 95.004 1167.78 93.408V78H1172.53V93.588C1172.53 95.94 1171.99 98.016 1170.91 99.816C1169.84 101.616 1168.34 103.014 1166.39 104.01C1164.45 105.006 1162.21 105.504 1159.68 105.504C1157.15 105.504 1154.91 105.006 1152.97 104.01C1151.02 103.014 1149.51 101.616 1148.43 99.816C1147.36 98.016 1146.83 95.94 1146.83 93.588V78H1151.58V93.408ZM1201.45 102.12L1199.51 102.336V78H1204.12V105H1198.07L1179.13 80.664L1181.04 80.448V105H1176.43V78H1182.62L1201.45 102.12ZM1208.35 78H1213.1V105H1208.35V78ZM1231.45 102.984H1229.22L1240.85 78H1245.92L1232.89 105H1227.6L1214.57 78H1219.68L1231.45 102.984ZM1268.95 89.52V93.48H1250.09V89.52H1268.95ZM1253.22 91.5L1251.31 103.56L1249.05 100.896H1270V105H1246.45L1248.61 91.5L1246.45 78H1269.82V82.104H1249.05L1251.31 79.44L1253.22 91.5ZM1287.44 90.168C1288.49 90.168 1289.39 90.006 1290.16 89.682C1290.94 89.358 1291.54 88.89 1291.96 88.278C1292.38 87.666 1292.59 86.952 1292.59 86.136C1292.59 85.308 1292.38 84.594 1291.96 83.994C1291.55 83.382 1290.96 82.914 1290.18 82.59C1289.41 82.266 1288.5 82.104 1287.44 82.104H1275.78L1277.9 79.44V105H1273.15V78H1287.88C1289.75 78 1291.4 78.342 1292.84 79.026C1294.3 79.698 1295.42 80.652 1296.21 81.888C1297.01 83.112 1297.42 84.528 1297.42 86.136C1297.42 87.72 1297.01 89.124 1296.21 90.348C1295.42 91.56 1294.3 92.508 1292.84 93.192C1291.4 93.864 1289.75 94.2 1287.88 94.2H1276.46V90.168H1287.44ZM1281.79 92.364H1287.37L1298.1 105H1292.41L1281.79 92.364ZM1303.7 96.216C1303.84 97.296 1304.29 98.244 1305.05 99.06C1305.81 99.876 1306.81 100.506 1308.06 100.95C1309.32 101.394 1310.76 101.616 1312.38 101.616C1313.97 101.616 1315.36 101.448 1316.55 101.112C1317.74 100.764 1318.65 100.272 1319.29 99.636C1319.94 99 1320.26 98.256 1320.26 97.404C1320.26 96.684 1320.08 96.096 1319.72 95.64C1319.37 95.184 1318.79 94.818 1317.97 94.542C1317.17 94.254 1316.05 94.02 1314.61 93.84L1308.78 93.084C1306.58 92.796 1304.8 92.346 1303.43 91.734C1302.07 91.122 1301.07 90.318 1300.42 89.322C1299.78 88.314 1299.45 87.072 1299.45 85.596C1299.45 83.964 1299.95 82.542 1300.95 81.33C1301.94 80.106 1303.35 79.164 1305.18 78.504C1307.01 77.832 1309.15 77.496 1311.58 77.496C1313.98 77.496 1316.13 77.856 1318.01 78.576C1319.91 79.296 1321.41 80.31 1322.51 81.618C1323.61 82.914 1324.22 84.408 1324.33 86.1H1319.5C1319.38 85.152 1318.98 84.324 1318.3 83.616C1317.61 82.908 1316.68 82.362 1315.51 81.978C1314.34 81.582 1313 81.384 1311.48 81.384C1310.01 81.384 1308.73 81.546 1307.62 81.87C1306.53 82.194 1305.69 82.662 1305.09 83.274C1304.5 83.886 1304.2 84.6 1304.2 85.416C1304.2 86.076 1304.37 86.622 1304.71 87.054C1305.04 87.474 1305.59 87.828 1306.35 88.116C1307.11 88.392 1308.15 88.62 1309.46 88.8L1315.36 89.628C1317.82 89.964 1319.74 90.42 1321.12 90.996C1322.52 91.56 1323.51 92.31 1324.11 93.246C1324.71 94.182 1325.01 95.4 1325.01 96.9C1325.01 98.616 1324.48 100.128 1323.43 101.436C1322.37 102.732 1320.88 103.734 1318.96 104.442C1317.04 105.15 1314.82 105.504 1312.3 105.504C1309.74 105.504 1307.45 105.12 1305.45 104.352C1303.45 103.572 1301.88 102.48 1300.73 101.076C1299.59 99.672 1298.97 98.052 1298.88 96.216H1303.7ZM1327.63 78H1332.38V105H1327.63V78ZM1345.34 80.196H1350.09V105H1345.34V80.196ZM1334.18 78H1361.25V82.176H1334.18V78ZM1373.35 105V92.112H1378.1V105H1373.35ZM1360.61 78H1365.97L1376.99 91.824H1374.43L1385.45 78H1390.81L1377.24 95.028L1374.21 95.064L1360.61 78ZM1153.12 137.308C1152.87 139.516 1152.1 141.466 1150.8 143.158C1149.5 144.85 1147.79 146.164 1145.65 147.1C1143.52 148.036 1141.11 148.504 1138.43 148.504C1135.43 148.504 1132.78 147.922 1130.48 146.758C1128.19 145.582 1126.4 143.938 1125.13 141.826C1123.87 139.702 1123.24 137.26 1123.24 134.5C1123.24 131.74 1123.87 129.304 1125.13 127.192C1126.4 125.068 1128.19 123.424 1130.48 122.26C1132.78 121.084 1135.43 120.496 1138.43 120.496C1141.11 120.496 1143.52 120.964 1145.65 121.9C1147.79 122.836 1149.5 124.15 1150.8 125.842C1152.1 127.534 1152.87 129.484 1153.12 131.692H1148.33C1148.07 130.264 1147.5 129.028 1146.62 127.984C1145.75 126.94 1144.61 126.142 1143.2 125.59C1141.8 125.026 1140.2 124.744 1138.4 124.744C1136.3 124.744 1134.47 125.14 1132.91 125.932C1131.36 126.724 1130.17 127.858 1129.33 129.334C1128.49 130.798 1128.07 132.52 1128.07 134.5C1128.07 136.48 1128.49 138.208 1129.33 139.684C1130.17 141.148 1131.36 142.276 1132.91 143.068C1134.47 143.86 1136.3 144.256 1138.4 144.256C1140.21 144.256 1141.81 143.98 1143.2 143.428C1144.61 142.876 1145.75 142.078 1146.62 141.034C1147.5 139.99 1148.07 138.748 1148.33 137.308H1153.12ZM1169.97 133.168C1171.02 133.168 1171.92 133.006 1172.69 132.682C1173.47 132.358 1174.07 131.89 1174.49 131.278C1174.91 130.666 1175.12 129.952 1175.12 129.136C1175.12 128.308 1174.91 127.594 1174.49 126.994C1174.08 126.382 1173.49 125.914 1172.71 125.59C1171.94 125.266 1171.03 125.104 1169.97 125.104H1158.31L1160.43 122.44V148H1155.68V121H1170.41C1172.28 121 1173.93 121.342 1175.37 122.026C1176.83 122.698 1177.95 123.652 1178.74 124.888C1179.54 126.112 1179.95 127.528 1179.95 129.136C1179.95 130.72 1179.54 132.124 1178.74 133.348C1177.95 134.56 1176.83 135.508 1175.37 136.192C1173.93 136.864 1172.28 137.2 1170.41 137.2H1158.99V133.168H1169.97ZM1164.32 135.364H1169.9L1180.63 148H1174.94L1164.32 135.364ZM1204.63 132.52V136.48H1185.76V132.52H1204.63ZM1188.89 134.5L1186.99 146.56L1184.72 143.896H1205.67V148H1182.13L1184.29 134.5L1182.13 121H1205.49V125.104H1184.72L1186.99 122.44L1188.89 134.5ZM1211.9 141.808V137.884H1230.76V141.808H1211.9ZM1224.42 121L1237.38 148H1232.31L1220.54 122.8H1222.37L1210.6 148H1205.52L1218.48 121H1224.42ZM1242.88 123.196H1247.63V148H1242.88V123.196ZM1231.72 121H1258.79V125.176H1231.72V121ZM1260.6 121H1265.35V148H1260.6V121ZM1283.7 145.984H1281.47L1293.1 121H1298.17L1285.14 148H1279.85L1266.82 121H1271.93L1283.7 145.984ZM1321.2 132.52V136.48H1302.34V132.52H1321.2ZM1305.47 134.5L1303.56 146.56L1301.3 143.896H1322.25V148H1298.7L1300.86 134.5L1298.7 121H1322.07V125.104H1301.3L1303.56 122.44L1305.47 134.5ZM1102.98 164H1107.73V191H1102.98V164ZM1136.99 188.12L1135.04 188.336V164H1139.65V191H1133.6L1114.67 166.664L1116.58 166.448V191H1111.97V164H1118.16L1136.99 188.12ZM1156.09 164C1159.12 164 1161.81 164.564 1164.15 165.692C1166.49 166.82 1168.3 168.404 1169.59 170.444C1170.88 172.484 1171.53 174.836 1171.53 177.5C1171.53 180.164 1170.88 182.516 1169.59 184.556C1168.3 186.596 1166.49 188.18 1164.15 189.308C1161.81 190.436 1159.12 191 1156.09 191H1143.88V164H1156.09ZM1148.64 189.344L1146.01 186.824H1156.41C1158.45 186.824 1160.25 186.44 1161.81 185.672C1163.37 184.892 1164.58 183.8 1165.43 182.396C1166.28 180.98 1166.71 179.348 1166.71 177.5C1166.71 175.652 1166.28 174.026 1165.43 172.622C1164.58 171.206 1163.37 170.114 1161.81 169.346C1160.25 168.566 1158.45 168.176 1156.41 168.176H1146.01L1148.64 165.656V189.344ZM1178.75 179.408C1178.75 181.004 1179.07 182.396 1179.72 183.584C1180.37 184.76 1181.3 185.666 1182.51 186.302C1183.73 186.938 1185.18 187.256 1186.85 187.256C1188.53 187.256 1189.97 186.938 1191.19 186.302C1192.4 185.666 1193.33 184.76 1193.98 183.584C1194.62 182.396 1194.95 181.004 1194.95 179.408V164H1199.7V179.588C1199.7 181.94 1199.16 184.016 1198.08 185.816C1197.01 187.616 1195.51 189.014 1193.56 190.01C1191.62 191.006 1189.38 191.504 1186.85 191.504C1184.32 191.504 1182.08 191.006 1180.13 190.01C1178.19 189.014 1176.68 187.616 1175.6 185.816C1174.53 184.016 1174 181.94 1174 179.588V164H1178.75V179.408ZM1206.77 182.216C1206.91 183.296 1207.36 184.244 1208.12 185.06C1208.87 185.876 1209.88 186.506 1211.12 186.95C1212.38 187.394 1213.82 187.616 1215.44 187.616C1217.04 187.616 1218.43 187.448 1219.62 187.112C1220.81 186.764 1221.72 186.272 1222.36 185.636C1223 185 1223.33 184.256 1223.33 183.404C1223.33 182.684 1223.15 182.096 1222.79 181.64C1222.44 181.184 1221.86 180.818 1221.04 180.542C1220.24 180.254 1219.12 180.02 1217.68 179.84L1211.84 179.084C1209.65 178.796 1207.87 178.346 1206.5 177.734C1205.14 177.122 1204.14 176.318 1203.49 175.322C1202.84 174.314 1202.52 173.072 1202.52 171.596C1202.52 169.964 1203.02 168.542 1204.01 167.33C1205.01 166.106 1206.42 165.164 1208.24 164.504C1210.08 163.832 1212.22 163.496 1214.65 163.496C1217.05 163.496 1219.19 163.856 1221.08 164.576C1222.97 165.296 1224.47 166.31 1225.58 167.618C1226.68 168.914 1227.29 170.408 1227.4 172.1H1222.57C1222.45 171.152 1222.05 170.324 1221.37 169.616C1220.68 168.908 1219.75 168.362 1218.58 167.978C1217.41 167.582 1216.07 167.384 1214.54 167.384C1213.08 167.384 1211.8 167.546 1210.69 167.87C1209.6 168.194 1208.75 168.662 1208.15 169.274C1207.57 169.886 1207.27 170.6 1207.27 171.416C1207.27 172.076 1207.44 172.622 1207.78 173.054C1208.11 173.474 1208.66 173.828 1209.41 174.116C1210.18 174.392 1211.22 174.62 1212.53 174.8L1218.43 175.628C1220.89 175.964 1222.81 176.42 1224.19 176.996C1225.58 177.56 1226.58 178.31 1227.18 179.246C1227.78 180.182 1228.08 181.4 1228.08 182.9C1228.08 184.616 1227.55 186.128 1226.5 187.436C1225.44 188.732 1223.95 189.734 1222.03 190.442C1220.11 191.15 1217.89 191.504 1215.37 191.504C1212.8 191.504 1210.52 191.12 1208.51 190.352C1206.52 189.572 1204.95 188.48 1203.8 187.076C1202.66 185.672 1202.04 184.052 1201.94 182.216H1206.77ZM1238.32 166.196H1243.07V191H1238.32V166.196ZM1227.16 164H1254.23V168.176H1227.16V164ZM1270.33 176.168C1271.37 176.168 1272.28 176.006 1273.05 175.682C1273.83 175.358 1274.43 174.89 1274.85 174.278C1275.27 173.666 1275.48 172.952 1275.48 172.136C1275.48 171.308 1275.27 170.594 1274.85 169.994C1274.44 169.382 1273.85 168.914 1273.07 168.59C1272.3 168.266 1271.39 168.104 1270.33 168.104H1258.67L1260.79 165.44V191H1256.04V164H1270.76C1272.63 164 1274.29 164.342 1275.73 165.026C1277.18 165.698 1278.3 166.652 1279.1 167.888C1279.9 169.112 1280.3 170.528 1280.3 172.136C1280.3 173.72 1279.9 175.124 1279.1 176.348C1278.3 177.56 1277.18 178.508 1275.73 179.192C1274.29 179.864 1272.63 180.2 1270.76 180.2H1259.35V176.168H1270.33ZM1264.68 178.364H1270.26L1280.99 191H1275.3L1264.68 178.364ZM1283.42 164H1288.17V191H1283.42V164ZM1313.98 175.52V179.48H1295.11V175.52H1313.98ZM1298.24 177.5L1296.34 189.56L1294.07 186.896H1315.02V191H1291.48L1293.64 177.5L1291.48 164H1314.84V168.104H1294.07L1296.34 165.44L1298.24 177.5ZM1321.34 182.216C1321.49 183.296 1321.94 184.244 1322.69 185.06C1323.45 185.876 1324.45 186.506 1325.7 186.95C1326.96 187.394 1328.4 187.616 1330.02 187.616C1331.61 187.616 1333.01 187.448 1334.19 187.112C1335.38 186.764 1336.29 186.272 1336.93 185.636C1337.58 185 1337.9 184.256 1337.9 183.404C1337.9 182.684 1337.72 182.096 1337.36 181.64C1337.01 181.184 1336.43 180.818 1335.62 180.542C1334.81 180.254 1333.69 180.02 1332.25 179.84L1326.42 179.084C1324.22 178.796 1322.44 178.346 1321.07 177.734C1319.72 177.122 1318.71 176.318 1318.07 175.322C1317.42 174.314 1317.09 173.072 1317.09 171.596C1317.09 169.964 1317.59 168.542 1318.59 167.33C1319.58 166.106 1320.99 165.164 1322.82 164.504C1324.65 163.832 1326.79 163.496 1329.23 163.496C1331.63 163.496 1333.77 163.856 1335.65 164.576C1337.55 165.296 1339.05 166.31 1340.15 167.618C1341.26 168.914 1341.86 170.408 1341.97 172.1H1337.15C1337.03 171.152 1336.62 170.324 1335.94 169.616C1335.26 168.908 1334.33 168.362 1333.15 167.978C1331.99 167.582 1330.64 167.384 1329.12 167.384C1327.65 167.384 1326.37 167.546 1325.27 167.87C1324.17 168.194 1323.33 168.662 1322.73 169.274C1322.14 169.886 1321.85 170.6 1321.85 171.416C1321.85 172.076 1322.01 172.622 1322.35 173.054C1322.69 173.474 1323.23 173.828 1323.99 174.116C1324.76 174.392 1325.79 174.62 1327.1 174.8L1333.01 175.628C1335.47 175.964 1337.39 176.42 1338.77 176.996C1340.16 177.56 1341.15 178.31 1341.75 179.246C1342.35 180.182 1342.65 181.4 1342.65 182.9C1342.65 184.616 1342.13 186.128 1341.07 187.436C1340.01 188.732 1338.53 189.734 1336.61 190.442C1334.69 191.15 1332.47 191.504 1329.95 191.504C1327.38 191.504 1325.09 191.12 1323.09 190.352C1321.1 189.572 1319.52 188.48 1318.37 187.076C1317.23 185.672 1316.61 184.052 1316.52 182.216H1321.34Z" fill="#00EFFF"/>
</svg>
