<svg width="1278" height="280" viewBox="0 0 1278 280" fill="none" xmlns="http://www.w3.org/2000/svg">
<g clip-path="url(#clip0_617_1330)">
<path d="M442.839 155.873C376.018 41.3895 576.482 41.3895 509.661 155.873C442.839 270.356 643.304 297.036 576.482 155.873C509.661 14.7091 710.125 14.7091 643.304 155.873C576.482 297.036 776.946 217.48 710.125 155.873C643.304 94.2652 843.768 94.2652 776.946 155.873C710.125 217.48 910.589 220.876 843.768 155.873C776.946 90.8696 977.411 90.8696 910.589 155.873C843.768 220.876 1044.23 284.424 977.411 155.873C910.589 27.3216 1111.05 27.3216 1044.23 155.873C977.411 284.424 1177.88 217.48 1111.05 155.873C1044.23 94.2652 1244.7 94.2652 1177.88 155.873C1111.05 217.48 1311.52 267.931 1244.7 155.873C1177.88 43.815 1378.34 43.815 1311.52 155.873C1244.7 267.931 1445.16 254.833 1378.34 155.873C1311.52 56.9127 1511.98 56.9127 1445.16 155.873" stroke="white" stroke-width="8"/>
</g>
<defs>
<clipPath id="clip0_617_1330">
<rect width="1278" height="280" fill="white"/>
</clipPath>
</defs>
</svg>
