<svg width="1280" height="560" viewBox="0 0 1280 560" fill="none" xmlns="http://www.w3.org/2000/svg">
<g clip-path="url(#clip0_457_492)">
<rect width="1301" height="560" transform="translate(-9)" fill="#0028FF" fill-opacity="0.52"/>
<path d="M-13.6291 403.693C-97.5033 269.94 154.119 269.94 70.2451 403.693C-13.6291 537.446 237.993 568.617 154.119 403.693C70.2451 238.769 321.868 238.769 237.993 403.693C154.119 568.617 405.742 475.67 321.868 403.693C237.993 331.716 489.616 331.716 405.742 403.693C321.868 475.67 573.49 479.637 489.616 403.693C405.742 327.749 657.364 327.749 573.49 403.693C489.616 479.637 741.239 553.881 657.364 403.693C573.49 253.504 825.113 253.504 741.238 403.693C657.364 553.881 908.987 475.67 825.113 403.693C741.238 331.716 992.861 331.716 908.987 403.693C825.113 475.67 1076.74 534.612 992.861 403.693C908.987 272.774 1147 259.554 1103.92 403.693C1078.8 532.356 1206.42 535.564 1187.8 403.693C1169.17 271.822 1293.86 284.089 1291.98 398" stroke="#FFD700" stroke-width="8"/>
<g filter="url(#filter0_dddddd_457_492)">
<path d="M405.14 202.545C406.849 204.393 408.92 206.422 411.35 208.647C408.497 207.442 405.916 206.434 403.609 205.633C400.134 204.426 397.118 203.629 394.658 203.39C392.366 203.167 389.671 203.338 387.841 205.184C385.885 207.157 385.985 209.895 386.528 212.116C387.098 214.448 388.379 217.218 390.186 220.368C390.98 221.751 391.897 223.244 392.937 224.848C390.439 222.68 388.176 220.736 386.155 219.048C382.871 216.305 380.075 214.107 377.799 212.626C376.662 211.887 375.564 211.266 374.533 210.85C373.559 210.456 372.31 210.104 371.008 210.312C369.457 210.56 368.292 211.525 367.66 212.844C367.121 213.969 367.015 215.239 367.04 216.363C367.091 218.647 367.74 221.746 368.791 225.552C369.403 227.767 370.178 230.311 371.109 233.199C369.493 230.832 367.993 228.799 366.596 227.088C364.101 224.03 361.742 221.749 359.448 220.492C357.009 219.155 354.305 218.835 351.847 220.391C349.722 221.736 348.366 224.159 347.387 226.702C346.369 229.347 345.554 232.687 344.84 236.52C344.586 237.882 344.342 239.326 344.104 240.844C343.774 238.983 343.421 237.229 343.044 235.588C342.141 231.649 341.08 228.259 339.827 225.592C338.614 223.01 337.027 220.684 334.831 219.447C332.315 218.031 329.62 218.363 327.242 219.888C325.051 221.292 323.017 223.744 321.062 226.928C319.874 228.862 318.652 231.172 317.395 233.874C317.822 229.663 318.081 226.083 318.165 223.091C318.277 219.125 318.093 215.921 317.455 213.582C316.836 211.312 315.424 208.75 312.366 208.419C311.068 208.279 309.85 208.619 308.826 209.076C307.787 209.539 306.749 210.211 305.728 210.99C303.976 212.328 302.022 214.18 299.885 216.4C301.433 213.275 302.585 210.53 303.213 208.228C303.819 206.006 304.176 203.375 302.951 201.257C301.497 198.743 298.765 198.325 296.52 198.52C294.225 198.719 291.403 199.6 288.146 200.951C287.836 201.08 287.519 201.214 287.196 201.353C287.86 200.773 288.497 200.208 289.107 199.658C292.181 196.887 294.688 194.396 296.445 192.181C298.102 190.091 299.534 187.717 299.534 185.257C299.534 183.9 299.097 182.627 298.233 181.551C297.412 180.529 296.313 179.816 295.162 179.298C293.635 178.611 291.712 178.137 289.458 177.811C290.114 177.56 290.72 177.298 291.274 177.021C293.294 176.014 295.482 174.386 295.841 171.679C296.187 169.066 294.619 166.854 293.015 165.216C291.293 163.456 288.771 161.591 285.622 159.575C285.413 159.441 285.2 159.306 284.984 159.17C285.752 159.358 286.493 159.53 287.205 159.685C290.967 160.505 294.186 160.917 296.748 160.724C299.268 160.535 301.919 159.679 303.292 157.166C304.562 154.843 304.157 152.082 303.353 149.608C302.507 147.006 300.955 143.931 298.864 140.418C297.657 138.391 296.24 136.169 294.623 133.747C296.997 135.661 299.165 137.305 301.128 138.677C304.378 140.948 307.236 142.597 309.656 143.449C311.919 144.246 314.79 144.68 317.012 142.842C319.128 141.091 319.436 138.237 319.304 135.822C319.162 133.207 318.437 129.944 317.27 126.138C316.482 123.565 315.466 120.668 314.233 117.45C316.627 120.332 318.84 122.807 320.886 124.87C323.764 127.775 326.441 129.998 328.936 131.372C331.418 132.737 334.111 133.469 336.749 132.67C339.405 131.867 341.2 129.759 342.433 127.27C343.666 124.779 344.536 121.522 345.172 117.665C345.282 116.997 345.386 116.306 345.484 115.591C345.748 116.465 346.021 117.306 346.304 118.114C347.688 122.066 349.344 125.354 351.309 127.826C353.282 130.307 355.687 132.109 358.544 132.73C364.361 133.996 369.923 130.086 374.808 123.787C375.89 122.391 376.978 120.832 378.069 119.107C377.749 121.377 377.526 123.49 377.399 125.445C377.126 129.641 377.285 133.254 377.96 136.172C378.628 139.057 379.891 141.637 382.143 143.207C384.491 144.844 387.283 144.957 390.025 144.186C392.371 143.526 394.876 142.179 397.506 140.293C396.19 142.933 395.253 145.297 394.786 147.36C394.243 149.755 394.194 152.382 395.725 154.474C397.288 156.61 399.814 157.272 402.201 157.355C404.635 157.439 407.595 156.958 410.962 156.095C411.267 156.017 411.576 155.935 411.891 155.85C411.525 156.145 411.169 156.438 410.824 156.729C408.005 159.105 405.768 161.436 404.275 163.75C402.777 166.072 401.899 168.583 402.194 171.189C402.492 173.83 403.931 176.033 405.993 177.832C408.023 179.605 410.79 181.111 414.128 182.444C414.166 182.459 414.204 182.474 414.242 182.489C414.199 182.491 414.156 182.493 414.113 182.496C410.548 182.69 407.495 183.099 405.101 183.851C402.776 184.581 400.493 185.817 399.357 188.097C398.172 190.475 398.698 193.02 399.765 195.238C400.837 197.468 402.694 199.901 405.14 202.545Z" stroke="#FFD700" stroke-width="6"/>
</g>
<g filter="url(#filter1_dddddd_457_492)">
<path d="M340.906 164.243C343.976 167.2 345.7 172.72 344.253 174.056C342.805 175.391 337.861 172.842 334.791 169.886C331.722 166.93 330.407 163.45 331.854 162.115C333.301 160.779 337.837 161.287 340.906 164.243Z" fill="#FFD700"/>
</g>
<g filter="url(#filter2_dddddd_457_492)">
<path d="M356.18 164.131C353.126 167.102 351.431 172.63 352.885 173.959C354.339 175.288 359.27 172.716 362.324 169.746C365.379 166.775 366.676 163.29 365.221 161.961C363.767 160.632 359.234 161.161 356.18 164.131Z" fill="#FFD700"/>
</g>
<g filter="url(#filter3_dddddd_457_492)">
<path d="M169.14 202.545C170.849 204.393 172.92 206.422 175.35 208.647C172.497 207.442 169.916 206.434 167.609 205.633C164.134 204.426 161.118 203.629 158.658 203.39C156.366 203.167 153.671 203.338 151.841 205.184C149.885 207.157 149.985 209.895 150.528 212.116C151.098 214.448 152.379 217.218 154.186 220.368C154.98 221.751 155.897 223.244 156.937 224.848C154.439 222.68 152.176 220.736 150.155 219.048C146.871 216.305 144.075 214.107 141.799 212.626C140.662 211.887 139.564 211.266 138.533 210.85C137.559 210.456 136.31 210.104 135.008 210.312C133.457 210.56 132.292 211.525 131.66 212.844C131.121 213.969 131.015 215.239 131.04 216.363C131.091 218.647 131.74 221.746 132.791 225.552C133.403 227.767 134.178 230.311 135.109 233.199C133.493 230.832 131.993 228.799 130.596 227.088C128.101 224.03 125.742 221.749 123.448 220.492C121.009 219.155 118.305 218.835 115.847 220.391C113.722 221.736 112.366 224.159 111.387 226.702C110.369 229.347 109.554 232.687 108.84 236.52C108.586 237.882 108.342 239.326 108.104 240.844C107.774 238.983 107.421 237.229 107.044 235.588C106.141 231.649 105.08 228.259 103.827 225.592C102.614 223.01 101.027 220.684 98.8307 219.447C96.3151 218.031 93.6198 218.363 91.2416 219.888C89.0514 221.292 87.0172 223.744 85.0616 226.928C83.8742 228.862 82.6524 231.172 81.395 233.874C81.8218 229.663 82.0809 226.083 82.165 223.091C82.2766 219.125 82.0934 215.921 81.4552 213.582C80.8358 211.312 79.4235 208.75 76.3661 208.419C75.0683 208.279 73.8502 208.619 72.8256 209.076C71.7871 209.539 70.749 210.211 69.7282 210.99C67.9764 212.328 66.0216 214.18 63.8849 216.4C65.433 213.275 66.5853 210.53 67.2128 208.228C67.8186 206.006 68.1764 203.375 66.9509 201.257C65.4967 198.743 62.7646 198.325 60.5205 198.52C58.2249 198.719 55.403 199.6 52.1461 200.951C51.8356 201.08 51.5189 201.214 51.1961 201.353C51.8595 200.773 52.4968 200.208 53.1073 199.658C56.1815 196.887 58.6879 194.396 60.4446 192.181C62.1025 190.091 63.5342 187.717 63.5342 185.257C63.5342 183.9 63.0972 182.627 62.2326 181.551C61.4116 180.529 60.3135 179.816 59.1622 179.298C57.6348 178.611 55.7121 178.137 53.4576 177.811C54.1135 177.56 54.72 177.298 55.2743 177.021C57.2939 176.014 59.4821 174.386 59.841 171.679C60.1875 169.066 58.6187 166.854 57.0152 165.216C55.293 163.456 52.7712 161.591 49.6221 159.575C49.4128 159.441 49.2001 159.306 48.9839 159.17C49.7522 159.358 50.4925 159.53 51.205 159.685C54.9668 160.505 58.1859 160.917 60.7475 160.724C63.2677 160.535 65.9192 159.679 67.2924 157.166C68.5615 154.843 68.1572 152.082 67.353 149.608C66.5073 147.006 64.9553 143.931 62.8636 140.418C61.6567 138.391 60.2397 136.169 58.6225 133.747C60.9971 135.661 63.1646 137.305 65.1282 138.677C68.3778 140.948 71.2364 142.597 73.656 143.449C75.9186 144.246 78.7903 144.68 81.0116 142.842C83.1283 141.091 83.4359 138.237 83.3042 135.822C83.1615 133.207 82.4372 129.944 81.2704 126.138C80.4819 123.565 79.4664 120.668 78.2331 117.45C80.6268 120.332 82.8403 122.807 84.8857 124.87C87.7645 127.775 90.4413 129.998 92.9365 131.372C95.418 132.737 98.1107 133.469 100.749 132.67C103.405 131.867 105.2 129.759 106.433 127.27C107.666 124.779 108.536 121.522 109.172 117.665C109.282 116.997 109.386 116.306 109.484 115.591C109.748 116.465 110.021 117.306 110.304 118.114C111.688 122.066 113.344 125.354 115.309 127.826C117.282 130.307 119.687 132.109 122.544 132.73C128.361 133.996 133.923 130.086 138.808 123.787C139.89 122.391 140.978 120.832 142.069 119.107C141.749 121.377 141.526 123.49 141.399 125.445C141.126 129.641 141.285 133.254 141.96 136.172C142.628 139.057 143.891 141.637 146.143 143.207C148.491 144.844 151.283 144.957 154.025 144.186C156.371 143.526 158.876 142.179 161.506 140.293C160.19 142.933 159.253 145.297 158.786 147.36C158.243 149.755 158.194 152.382 159.725 154.474C161.288 156.61 163.814 157.272 166.201 157.355C168.635 157.439 171.595 156.958 174.962 156.095C175.267 156.017 175.576 155.935 175.891 155.85C175.525 156.145 175.169 156.438 174.824 156.729C172.005 159.105 169.768 161.436 168.275 163.75C166.777 166.072 165.899 168.583 166.194 171.189C166.492 173.83 167.931 176.033 169.993 177.832C172.023 179.605 174.79 181.111 178.128 182.444C178.166 182.459 178.204 182.474 178.242 182.489C178.199 182.491 178.156 182.493 178.113 182.496C174.548 182.69 171.495 183.099 169.101 183.851C166.776 184.581 164.493 185.817 163.357 188.097C162.172 190.475 162.698 193.02 163.765 195.238C164.837 197.468 166.694 199.901 169.14 202.545Z" stroke="#FFD700" stroke-width="6"/>
</g>
<g filter="url(#filter4_dddddd_457_492)">
<path d="M104.906 164.243C107.976 167.2 109.7 172.72 108.253 174.056C106.805 175.391 101.861 172.842 98.7914 169.886C95.7218 166.93 94.4067 163.45 95.854 162.115C97.3014 160.779 101.837 161.287 104.906 164.243Z" fill="#FFD700"/>
</g>
<g filter="url(#filter5_dddddd_457_492)">
<path d="M120.18 164.131C117.126 167.102 115.431 172.63 116.885 173.959C118.339 175.288 123.27 172.716 126.324 169.746C129.379 166.775 130.676 163.29 129.221 161.961C127.767 160.632 123.234 161.161 120.18 164.131Z" fill="#FFD700"/>
</g>
<g filter="url(#filter6_dddddd_457_492)">
<path d="M641.14 202.545C642.849 204.393 644.92 206.422 647.35 208.647C644.497 207.442 641.916 206.434 639.609 205.633C636.134 204.426 633.118 203.629 630.658 203.39C628.366 203.167 625.671 203.338 623.841 205.184C621.885 207.157 621.985 209.895 622.528 212.116C623.098 214.448 624.379 217.218 626.186 220.368C626.98 221.751 627.897 223.244 628.937 224.848C626.439 222.68 624.176 220.736 622.155 219.048C618.871 216.305 616.075 214.107 613.799 212.626C612.662 211.887 611.564 211.266 610.533 210.85C609.559 210.456 608.31 210.104 607.008 210.312C605.457 210.56 604.292 211.525 603.66 212.844C603.121 213.969 603.015 215.239 603.04 216.363C603.091 218.647 603.74 221.746 604.791 225.552C605.403 227.767 606.178 230.311 607.109 233.199C605.493 230.832 603.993 228.799 602.596 227.088C600.101 224.03 597.742 221.749 595.448 220.492C593.009 219.155 590.305 218.835 587.847 220.391C585.722 221.736 584.366 224.159 583.387 226.702C582.369 229.347 581.554 232.687 580.84 236.52C580.586 237.882 580.342 239.326 580.104 240.844C579.774 238.983 579.421 237.229 579.044 235.588C578.141 231.649 577.08 228.259 575.827 225.592C574.614 223.01 573.027 220.684 570.831 219.447C568.315 218.031 565.62 218.363 563.242 219.888C561.051 221.292 559.017 223.744 557.062 226.928C555.874 228.862 554.652 231.172 553.395 233.874C553.822 229.663 554.081 226.083 554.165 223.091C554.277 219.125 554.093 215.921 553.455 213.582C552.836 211.312 551.424 208.75 548.366 208.419C547.068 208.279 545.85 208.619 544.826 209.076C543.787 209.539 542.749 210.211 541.728 210.99C539.976 212.328 538.022 214.18 535.885 216.4C537.433 213.275 538.585 210.53 539.213 208.228C539.819 206.006 540.176 203.375 538.951 201.257C537.497 198.743 534.765 198.325 532.52 198.52C530.225 198.719 527.403 199.6 524.146 200.951C523.836 201.08 523.519 201.214 523.196 201.353C523.86 200.773 524.497 200.208 525.107 199.658C528.181 196.887 530.688 194.396 532.445 192.181C534.102 190.091 535.534 187.717 535.534 185.257C535.534 183.9 535.097 182.627 534.233 181.551C533.412 180.529 532.313 179.816 531.162 179.298C529.635 178.611 527.712 178.137 525.458 177.811C526.114 177.56 526.72 177.298 527.274 177.021C529.294 176.014 531.482 174.386 531.841 171.679C532.187 169.066 530.619 166.854 529.015 165.216C527.293 163.456 524.771 161.591 521.622 159.575C521.413 159.441 521.2 159.306 520.984 159.17C521.752 159.358 522.493 159.53 523.205 159.685C526.967 160.505 530.186 160.917 532.748 160.724C535.268 160.535 537.919 159.679 539.292 157.166C540.562 154.843 540.157 152.082 539.353 149.608C538.507 147.006 536.955 143.931 534.864 140.418C533.657 138.391 532.24 136.169 530.623 133.747C532.997 135.661 535.165 137.305 537.128 138.677C540.378 140.948 543.236 142.597 545.656 143.449C547.919 144.246 550.79 144.68 553.012 142.842C555.128 141.091 555.436 138.237 555.304 135.822C555.162 133.207 554.437 129.944 553.27 126.138C552.482 123.565 551.466 120.668 550.233 117.45C552.627 120.332 554.84 122.807 556.886 124.87C559.764 127.775 562.441 129.998 564.936 131.372C567.418 132.737 570.111 133.469 572.749 132.67C575.405 131.867 577.2 129.759 578.433 127.27C579.666 124.779 580.536 121.522 581.172 117.665C581.282 116.997 581.386 116.306 581.484 115.591C581.748 116.465 582.021 117.306 582.304 118.114C583.688 122.066 585.344 125.354 587.309 127.826C589.282 130.307 591.687 132.109 594.544 132.73C600.361 133.996 605.923 130.086 610.808 123.787C611.89 122.391 612.978 120.832 614.069 119.107C613.749 121.377 613.526 123.49 613.399 125.445C613.126 129.641 613.285 133.254 613.96 136.172C614.628 139.057 615.891 141.637 618.143 143.207C620.491 144.844 623.283 144.957 626.025 144.186C628.371 143.526 630.876 142.179 633.506 140.293C632.19 142.933 631.253 145.297 630.786 147.36C630.243 149.755 630.194 152.382 631.725 154.474C633.288 156.61 635.814 157.272 638.201 157.355C640.635 157.439 643.595 156.958 646.962 156.095C647.267 156.017 647.576 155.935 647.891 155.85C647.525 156.145 647.169 156.438 646.824 156.729C644.005 159.105 641.768 161.436 640.275 163.75C638.777 166.072 637.899 168.583 638.194 171.189C638.492 173.83 639.931 176.033 641.993 177.832C644.023 179.605 646.79 181.111 650.128 182.444C650.166 182.459 650.204 182.474 650.242 182.489C650.199 182.491 650.156 182.493 650.113 182.496C646.548 182.69 643.495 183.099 641.101 183.851C638.776 184.581 636.493 185.817 635.357 188.097C634.172 190.475 634.698 193.02 635.765 195.238C636.837 197.468 638.694 199.901 641.14 202.545Z" stroke="#FFD700" stroke-width="6"/>
</g>
<g filter="url(#filter7_dddddd_457_492)">
<path d="M576.906 164.243C579.976 167.2 581.7 172.72 580.253 174.056C578.805 175.391 573.861 172.842 570.791 169.886C567.722 166.93 566.407 163.45 567.854 162.115C569.301 160.779 573.837 161.287 576.906 164.243Z" fill="#FFD700"/>
</g>
<g filter="url(#filter8_dddddd_457_492)">
<path d="M592.18 164.131C589.126 167.102 587.431 172.63 588.885 173.959C590.339 175.288 595.27 172.716 598.324 169.746C601.379 166.775 602.676 163.29 601.221 161.961C599.767 160.632 595.234 161.161 592.18 164.131Z" fill="#FFD700"/>
</g>
</g>
<defs>
<filter id="filter0_dddddd_457_492" x="-0.870895" y="-166.871" width="696.269" height="685.242" filterUnits="userSpaceOnUse" color-interpolation-filters="sRGB">
<feFlood flood-opacity="0" result="BackgroundImageFix"/>
<feColorMatrix in="SourceAlpha" type="matrix" values="0 0 0 0 0 0 0 0 0 0 0 0 0 0 0 0 0 0 127 0" result="hardAlpha"/>
<feOffset/>
<feGaussianBlur stdDeviation="2.99846"/>
<feColorMatrix type="matrix" values="0 0 0 0 1 0 0 0 0 0.847059 0 0 0 0 0 0 0 0 1 0"/>
<feBlend mode="normal" in2="BackgroundImageFix" result="effect1_dropShadow_457_492"/>
<feColorMatrix in="SourceAlpha" type="matrix" values="0 0 0 0 0 0 0 0 0 0 0 0 0 0 0 0 0 0 127 0" result="hardAlpha"/>
<feOffset/>
<feGaussianBlur stdDeviation="5.99693"/>
<feColorMatrix type="matrix" values="0 0 0 0 1 0 0 0 0 0.847059 0 0 0 0 0 0 0 0 1 0"/>
<feBlend mode="normal" in2="effect1_dropShadow_457_492" result="effect2_dropShadow_457_492"/>
<feColorMatrix in="SourceAlpha" type="matrix" values="0 0 0 0 0 0 0 0 0 0 0 0 0 0 0 0 0 0 127 0" result="hardAlpha"/>
<feOffset/>
<feGaussianBlur stdDeviation="20.9892"/>
<feColorMatrix type="matrix" values="0 0 0 0 1 0 0 0 0 0.847059 0 0 0 0 0 0 0 0 1 0"/>
<feBlend mode="normal" in2="effect2_dropShadow_457_492" result="effect3_dropShadow_457_492"/>
<feColorMatrix in="SourceAlpha" type="matrix" values="0 0 0 0 0 0 0 0 0 0 0 0 0 0 0 0 0 0 127 0" result="hardAlpha"/>
<feOffset/>
<feGaussianBlur stdDeviation="41.9785"/>
<feColorMatrix type="matrix" values="0 0 0 0 1 0 0 0 0 0.847059 0 0 0 0 0 0 0 0 1 0"/>
<feBlend mode="normal" in2="effect3_dropShadow_457_492" result="effect4_dropShadow_457_492"/>
<feColorMatrix in="SourceAlpha" type="matrix" values="0 0 0 0 0 0 0 0 0 0 0 0 0 0 0 0 0 0 127 0" result="hardAlpha"/>
<feOffset/>
<feGaussianBlur stdDeviation="71.9631"/>
<feColorMatrix type="matrix" values="0 0 0 0 1 0 0 0 0 0.847059 0 0 0 0 0 0 0 0 1 0"/>
<feBlend mode="normal" in2="effect4_dropShadow_457_492" result="effect5_dropShadow_457_492"/>
<feColorMatrix in="SourceAlpha" type="matrix" values="0 0 0 0 0 0 0 0 0 0 0 0 0 0 0 0 0 0 127 0" result="hardAlpha"/>
<feOffset/>
<feGaussianBlur stdDeviation="125.935"/>
<feColorMatrix type="matrix" values="0 0 0 0 1 0 0 0 0 0.847059 0 0 0 0 0 0 0 0 1 0"/>
<feBlend mode="normal" in2="effect5_dropShadow_457_492" result="effect6_dropShadow_457_492"/>
<feBlend mode="normal" in="SourceGraphic" in2="effect6_dropShadow_457_492" result="shape"/>
</filter>
<filter id="filter1_dddddd_457_492" x="308.746" y="138.896" width="58.5461" height="58.0432" filterUnits="userSpaceOnUse" color-interpolation-filters="sRGB">
<feFlood flood-opacity="0" result="BackgroundImageFix"/>
<feColorMatrix in="SourceAlpha" type="matrix" values="0 0 0 0 0 0 0 0 0 0 0 0 0 0 0 0 0 0 127 0" result="hardAlpha"/>
<feOffset/>
<feGaussianBlur stdDeviation="0.268091"/>
<feColorMatrix type="matrix" values="0 0 0 0 1 0 0 0 0 0.847059 0 0 0 0 0 0 0 0 1 0"/>
<feBlend mode="normal" in2="BackgroundImageFix" result="effect1_dropShadow_457_492"/>
<feColorMatrix in="SourceAlpha" type="matrix" values="0 0 0 0 0 0 0 0 0 0 0 0 0 0 0 0 0 0 127 0" result="hardAlpha"/>
<feOffset/>
<feGaussianBlur stdDeviation="0.536182"/>
<feColorMatrix type="matrix" values="0 0 0 0 1 0 0 0 0 0.847059 0 0 0 0 0 0 0 0 1 0"/>
<feBlend mode="normal" in2="effect1_dropShadow_457_492" result="effect2_dropShadow_457_492"/>
<feColorMatrix in="SourceAlpha" type="matrix" values="0 0 0 0 0 0 0 0 0 0 0 0 0 0 0 0 0 0 127 0" result="hardAlpha"/>
<feOffset/>
<feGaussianBlur stdDeviation="1.87664"/>
<feColorMatrix type="matrix" values="0 0 0 0 1 0 0 0 0 0.847059 0 0 0 0 0 0 0 0 1 0"/>
<feBlend mode="normal" in2="effect2_dropShadow_457_492" result="effect3_dropShadow_457_492"/>
<feColorMatrix in="SourceAlpha" type="matrix" values="0 0 0 0 0 0 0 0 0 0 0 0 0 0 0 0 0 0 127 0" result="hardAlpha"/>
<feOffset/>
<feGaussianBlur stdDeviation="3.75327"/>
<feColorMatrix type="matrix" values="0 0 0 0 1 0 0 0 0 0.847059 0 0 0 0 0 0 0 0 1 0"/>
<feBlend mode="normal" in2="effect3_dropShadow_457_492" result="effect4_dropShadow_457_492"/>
<feColorMatrix in="SourceAlpha" type="matrix" values="0 0 0 0 0 0 0 0 0 0 0 0 0 0 0 0 0 0 127 0" result="hardAlpha"/>
<feOffset/>
<feGaussianBlur stdDeviation="6.43418"/>
<feColorMatrix type="matrix" values="0 0 0 0 1 0 0 0 0 0.847059 0 0 0 0 0 0 0 0 1 0"/>
<feBlend mode="normal" in2="effect4_dropShadow_457_492" result="effect5_dropShadow_457_492"/>
<feColorMatrix in="SourceAlpha" type="matrix" values="0 0 0 0 0 0 0 0 0 0 0 0 0 0 0 0 0 0 127 0" result="hardAlpha"/>
<feOffset/>
<feGaussianBlur stdDeviation="11.2598"/>
<feColorMatrix type="matrix" values="0 0 0 0 1 0 0 0 0 0.847059 0 0 0 0 0 0 0 0 1 0"/>
<feBlend mode="normal" in2="effect5_dropShadow_457_492" result="effect6_dropShadow_457_492"/>
<feBlend mode="normal" in="SourceGraphic" in2="effect6_dropShadow_457_492" result="shape"/>
</filter>
<filter id="filter2_dddddd_457_492" x="329.843" y="138.76" width="58.4872" height="58.0712" filterUnits="userSpaceOnUse" color-interpolation-filters="sRGB">
<feFlood flood-opacity="0" result="BackgroundImageFix"/>
<feColorMatrix in="SourceAlpha" type="matrix" values="0 0 0 0 0 0 0 0 0 0 0 0 0 0 0 0 0 0 127 0" result="hardAlpha"/>
<feOffset/>
<feGaussianBlur stdDeviation="0.268013"/>
<feColorMatrix type="matrix" values="0 0 0 0 1 0 0 0 0 0.847059 0 0 0 0 0 0 0 0 1 0"/>
<feBlend mode="normal" in2="BackgroundImageFix" result="effect1_dropShadow_457_492"/>
<feColorMatrix in="SourceAlpha" type="matrix" values="0 0 0 0 0 0 0 0 0 0 0 0 0 0 0 0 0 0 127 0" result="hardAlpha"/>
<feOffset/>
<feGaussianBlur stdDeviation="0.536027"/>
<feColorMatrix type="matrix" values="0 0 0 0 1 0 0 0 0 0.847059 0 0 0 0 0 0 0 0 1 0"/>
<feBlend mode="normal" in2="effect1_dropShadow_457_492" result="effect2_dropShadow_457_492"/>
<feColorMatrix in="SourceAlpha" type="matrix" values="0 0 0 0 0 0 0 0 0 0 0 0 0 0 0 0 0 0 127 0" result="hardAlpha"/>
<feOffset/>
<feGaussianBlur stdDeviation="1.87609"/>
<feColorMatrix type="matrix" values="0 0 0 0 1 0 0 0 0 0.847059 0 0 0 0 0 0 0 0 1 0"/>
<feBlend mode="normal" in2="effect2_dropShadow_457_492" result="effect3_dropShadow_457_492"/>
<feColorMatrix in="SourceAlpha" type="matrix" values="0 0 0 0 0 0 0 0 0 0 0 0 0 0 0 0 0 0 127 0" result="hardAlpha"/>
<feOffset/>
<feGaussianBlur stdDeviation="3.75219"/>
<feColorMatrix type="matrix" values="0 0 0 0 1 0 0 0 0 0.847059 0 0 0 0 0 0 0 0 1 0"/>
<feBlend mode="normal" in2="effect3_dropShadow_457_492" result="effect4_dropShadow_457_492"/>
<feColorMatrix in="SourceAlpha" type="matrix" values="0 0 0 0 0 0 0 0 0 0 0 0 0 0 0 0 0 0 127 0" result="hardAlpha"/>
<feOffset/>
<feGaussianBlur stdDeviation="6.43232"/>
<feColorMatrix type="matrix" values="0 0 0 0 1 0 0 0 0 0.847059 0 0 0 0 0 0 0 0 1 0"/>
<feBlend mode="normal" in2="effect4_dropShadow_457_492" result="effect5_dropShadow_457_492"/>
<feColorMatrix in="SourceAlpha" type="matrix" values="0 0 0 0 0 0 0 0 0 0 0 0 0 0 0 0 0 0 127 0" result="hardAlpha"/>
<feOffset/>
<feGaussianBlur stdDeviation="11.2566"/>
<feColorMatrix type="matrix" values="0 0 0 0 1 0 0 0 0 0.847059 0 0 0 0 0 0 0 0 1 0"/>
<feBlend mode="normal" in2="effect5_dropShadow_457_492" result="effect6_dropShadow_457_492"/>
<feBlend mode="normal" in="SourceGraphic" in2="effect6_dropShadow_457_492" result="shape"/>
</filter>
<filter id="filter3_dddddd_457_492" x="-177.097" y="-107.097" width="576.72" height="565.693" filterUnits="userSpaceOnUse" color-interpolation-filters="sRGB">
<feFlood flood-opacity="0" result="BackgroundImageFix"/>
<feColorMatrix in="SourceAlpha" type="matrix" values="0 0 0 0 0 0 0 0 0 0 0 0 0 0 0 0 0 0 127 0" result="hardAlpha"/>
<feOffset/>
<feGaussianBlur stdDeviation="2.28686"/>
<feColorMatrix type="matrix" values="0 0 0 0 1 0 0 0 0 0.847059 0 0 0 0 0 0 0 0 1 0"/>
<feBlend mode="normal" in2="BackgroundImageFix" result="effect1_dropShadow_457_492"/>
<feColorMatrix in="SourceAlpha" type="matrix" values="0 0 0 0 0 0 0 0 0 0 0 0 0 0 0 0 0 0 127 0" result="hardAlpha"/>
<feOffset/>
<feGaussianBlur stdDeviation="4.57373"/>
<feColorMatrix type="matrix" values="0 0 0 0 1 0 0 0 0 0.847059 0 0 0 0 0 0 0 0 1 0"/>
<feBlend mode="normal" in2="effect1_dropShadow_457_492" result="effect2_dropShadow_457_492"/>
<feColorMatrix in="SourceAlpha" type="matrix" values="0 0 0 0 0 0 0 0 0 0 0 0 0 0 0 0 0 0 127 0" result="hardAlpha"/>
<feOffset/>
<feGaussianBlur stdDeviation="16.008"/>
<feColorMatrix type="matrix" values="0 0 0 0 1 0 0 0 0 0.847059 0 0 0 0 0 0 0 0 1 0"/>
<feBlend mode="normal" in2="effect2_dropShadow_457_492" result="effect3_dropShadow_457_492"/>
<feColorMatrix in="SourceAlpha" type="matrix" values="0 0 0 0 0 0 0 0 0 0 0 0 0 0 0 0 0 0 127 0" result="hardAlpha"/>
<feOffset/>
<feGaussianBlur stdDeviation="32.0161"/>
<feColorMatrix type="matrix" values="0 0 0 0 1 0 0 0 0 0.847059 0 0 0 0 0 0 0 0 1 0"/>
<feBlend mode="normal" in2="effect3_dropShadow_457_492" result="effect4_dropShadow_457_492"/>
<feColorMatrix in="SourceAlpha" type="matrix" values="0 0 0 0 0 0 0 0 0 0 0 0 0 0 0 0 0 0 127 0" result="hardAlpha"/>
<feOffset/>
<feGaussianBlur stdDeviation="54.8847"/>
<feColorMatrix type="matrix" values="0 0 0 0 1 0 0 0 0 0.847059 0 0 0 0 0 0 0 0 1 0"/>
<feBlend mode="normal" in2="effect4_dropShadow_457_492" result="effect5_dropShadow_457_492"/>
<feColorMatrix in="SourceAlpha" type="matrix" values="0 0 0 0 0 0 0 0 0 0 0 0 0 0 0 0 0 0 127 0" result="hardAlpha"/>
<feOffset/>
<feGaussianBlur stdDeviation="96.0483"/>
<feColorMatrix type="matrix" values="0 0 0 0 1 0 0 0 0 0.847059 0 0 0 0 0 0 0 0 1 0"/>
<feBlend mode="normal" in2="effect5_dropShadow_457_492" result="effect6_dropShadow_457_492"/>
<feBlend mode="normal" in="SourceGraphic" in2="effect6_dropShadow_457_492" result="shape"/>
</filter>
<filter id="filter4_dddddd_457_492" x="78.0904" y="144.241" width="47.8573" height="47.3544" filterUnits="userSpaceOnUse" color-interpolation-filters="sRGB">
<feFlood flood-opacity="0" result="BackgroundImageFix"/>
<feColorMatrix in="SourceAlpha" type="matrix" values="0 0 0 0 0 0 0 0 0 0 0 0 0 0 0 0 0 0 127 0" result="hardAlpha"/>
<feOffset/>
<feGaussianBlur stdDeviation="0.204467"/>
<feColorMatrix type="matrix" values="0 0 0 0 1 0 0 0 0 0.847059 0 0 0 0 0 0 0 0 1 0"/>
<feBlend mode="normal" in2="BackgroundImageFix" result="effect1_dropShadow_457_492"/>
<feColorMatrix in="SourceAlpha" type="matrix" values="0 0 0 0 0 0 0 0 0 0 0 0 0 0 0 0 0 0 127 0" result="hardAlpha"/>
<feOffset/>
<feGaussianBlur stdDeviation="0.408935"/>
<feColorMatrix type="matrix" values="0 0 0 0 1 0 0 0 0 0.847059 0 0 0 0 0 0 0 0 1 0"/>
<feBlend mode="normal" in2="effect1_dropShadow_457_492" result="effect2_dropShadow_457_492"/>
<feColorMatrix in="SourceAlpha" type="matrix" values="0 0 0 0 0 0 0 0 0 0 0 0 0 0 0 0 0 0 127 0" result="hardAlpha"/>
<feOffset/>
<feGaussianBlur stdDeviation="1.43127"/>
<feColorMatrix type="matrix" values="0 0 0 0 1 0 0 0 0 0.847059 0 0 0 0 0 0 0 0 1 0"/>
<feBlend mode="normal" in2="effect2_dropShadow_457_492" result="effect3_dropShadow_457_492"/>
<feColorMatrix in="SourceAlpha" type="matrix" values="0 0 0 0 0 0 0 0 0 0 0 0 0 0 0 0 0 0 127 0" result="hardAlpha"/>
<feOffset/>
<feGaussianBlur stdDeviation="2.86254"/>
<feColorMatrix type="matrix" values="0 0 0 0 1 0 0 0 0 0.847059 0 0 0 0 0 0 0 0 1 0"/>
<feBlend mode="normal" in2="effect3_dropShadow_457_492" result="effect4_dropShadow_457_492"/>
<feColorMatrix in="SourceAlpha" type="matrix" values="0 0 0 0 0 0 0 0 0 0 0 0 0 0 0 0 0 0 127 0" result="hardAlpha"/>
<feOffset/>
<feGaussianBlur stdDeviation="4.90722"/>
<feColorMatrix type="matrix" values="0 0 0 0 1 0 0 0 0 0.847059 0 0 0 0 0 0 0 0 1 0"/>
<feBlend mode="normal" in2="effect4_dropShadow_457_492" result="effect5_dropShadow_457_492"/>
<feColorMatrix in="SourceAlpha" type="matrix" values="0 0 0 0 0 0 0 0 0 0 0 0 0 0 0 0 0 0 127 0" result="hardAlpha"/>
<feOffset/>
<feGaussianBlur stdDeviation="8.58763"/>
<feColorMatrix type="matrix" values="0 0 0 0 1 0 0 0 0 0.847059 0 0 0 0 0 0 0 0 1 0"/>
<feBlend mode="normal" in2="effect5_dropShadow_457_492" result="effect6_dropShadow_457_492"/>
<feBlend mode="normal" in="SourceGraphic" in2="effect6_dropShadow_457_492" result="shape"/>
</filter>
<filter id="filter5_dddddd_457_492" x="99.1862" y="144.103" width="47.8015" height="47.3855" filterUnits="userSpaceOnUse" color-interpolation-filters="sRGB">
<feFlood flood-opacity="0" result="BackgroundImageFix"/>
<feColorMatrix in="SourceAlpha" type="matrix" values="0 0 0 0 0 0 0 0 0 0 0 0 0 0 0 0 0 0 127 0" result="hardAlpha"/>
<feOffset/>
<feGaussianBlur stdDeviation="0.204408"/>
<feColorMatrix type="matrix" values="0 0 0 0 1 0 0 0 0 0.847059 0 0 0 0 0 0 0 0 1 0"/>
<feBlend mode="normal" in2="BackgroundImageFix" result="effect1_dropShadow_457_492"/>
<feColorMatrix in="SourceAlpha" type="matrix" values="0 0 0 0 0 0 0 0 0 0 0 0 0 0 0 0 0 0 127 0" result="hardAlpha"/>
<feOffset/>
<feGaussianBlur stdDeviation="0.408816"/>
<feColorMatrix type="matrix" values="0 0 0 0 1 0 0 0 0 0.847059 0 0 0 0 0 0 0 0 1 0"/>
<feBlend mode="normal" in2="effect1_dropShadow_457_492" result="effect2_dropShadow_457_492"/>
<feColorMatrix in="SourceAlpha" type="matrix" values="0 0 0 0 0 0 0 0 0 0 0 0 0 0 0 0 0 0 127 0" result="hardAlpha"/>
<feOffset/>
<feGaussianBlur stdDeviation="1.43086"/>
<feColorMatrix type="matrix" values="0 0 0 0 1 0 0 0 0 0.847059 0 0 0 0 0 0 0 0 1 0"/>
<feBlend mode="normal" in2="effect2_dropShadow_457_492" result="effect3_dropShadow_457_492"/>
<feColorMatrix in="SourceAlpha" type="matrix" values="0 0 0 0 0 0 0 0 0 0 0 0 0 0 0 0 0 0 127 0" result="hardAlpha"/>
<feOffset/>
<feGaussianBlur stdDeviation="2.86171"/>
<feColorMatrix type="matrix" values="0 0 0 0 1 0 0 0 0 0.847059 0 0 0 0 0 0 0 0 1 0"/>
<feBlend mode="normal" in2="effect3_dropShadow_457_492" result="effect4_dropShadow_457_492"/>
<feColorMatrix in="SourceAlpha" type="matrix" values="0 0 0 0 0 0 0 0 0 0 0 0 0 0 0 0 0 0 127 0" result="hardAlpha"/>
<feOffset/>
<feGaussianBlur stdDeviation="4.90579"/>
<feColorMatrix type="matrix" values="0 0 0 0 1 0 0 0 0 0.847059 0 0 0 0 0 0 0 0 1 0"/>
<feBlend mode="normal" in2="effect4_dropShadow_457_492" result="effect5_dropShadow_457_492"/>
<feColorMatrix in="SourceAlpha" type="matrix" values="0 0 0 0 0 0 0 0 0 0 0 0 0 0 0 0 0 0 127 0" result="hardAlpha"/>
<feOffset/>
<feGaussianBlur stdDeviation="8.58514"/>
<feColorMatrix type="matrix" values="0 0 0 0 1 0 0 0 0 0.847059 0 0 0 0 0 0 0 0 1 0"/>
<feBlend mode="normal" in2="effect5_dropShadow_457_492" result="effect6_dropShadow_457_492"/>
<feBlend mode="normal" in="SourceGraphic" in2="effect6_dropShadow_457_492" result="shape"/>
</filter>
<filter id="filter6_dddddd_457_492" x="208.331" y="-193.669" width="749.865" height="738.838" filterUnits="userSpaceOnUse" color-interpolation-filters="sRGB">
<feFlood flood-opacity="0" result="BackgroundImageFix"/>
<feColorMatrix in="SourceAlpha" type="matrix" values="0 0 0 0 0 0 0 0 0 0 0 0 0 0 0 0 0 0 127 0" result="hardAlpha"/>
<feOffset/>
<feGaussianBlur stdDeviation="3.31749"/>
<feColorMatrix type="matrix" values="0 0 0 0 1 0 0 0 0 0.847059 0 0 0 0 0 0 0 0 1 0"/>
<feBlend mode="normal" in2="BackgroundImageFix" result="effect1_dropShadow_457_492"/>
<feColorMatrix in="SourceAlpha" type="matrix" values="0 0 0 0 0 0 0 0 0 0 0 0 0 0 0 0 0 0 127 0" result="hardAlpha"/>
<feOffset/>
<feGaussianBlur stdDeviation="6.63497"/>
<feColorMatrix type="matrix" values="0 0 0 0 1 0 0 0 0 0.847059 0 0 0 0 0 0 0 0 1 0"/>
<feBlend mode="normal" in2="effect1_dropShadow_457_492" result="effect2_dropShadow_457_492"/>
<feColorMatrix in="SourceAlpha" type="matrix" values="0 0 0 0 0 0 0 0 0 0 0 0 0 0 0 0 0 0 127 0" result="hardAlpha"/>
<feOffset/>
<feGaussianBlur stdDeviation="23.2224"/>
<feColorMatrix type="matrix" values="0 0 0 0 1 0 0 0 0 0.847059 0 0 0 0 0 0 0 0 1 0"/>
<feBlend mode="normal" in2="effect2_dropShadow_457_492" result="effect3_dropShadow_457_492"/>
<feColorMatrix in="SourceAlpha" type="matrix" values="0 0 0 0 0 0 0 0 0 0 0 0 0 0 0 0 0 0 127 0" result="hardAlpha"/>
<feOffset/>
<feGaussianBlur stdDeviation="46.4448"/>
<feColorMatrix type="matrix" values="0 0 0 0 1 0 0 0 0 0.847059 0 0 0 0 0 0 0 0 1 0"/>
<feBlend mode="normal" in2="effect3_dropShadow_457_492" result="effect4_dropShadow_457_492"/>
<feColorMatrix in="SourceAlpha" type="matrix" values="0 0 0 0 0 0 0 0 0 0 0 0 0 0 0 0 0 0 127 0" result="hardAlpha"/>
<feOffset/>
<feGaussianBlur stdDeviation="79.6197"/>
<feColorMatrix type="matrix" values="0 0 0 0 1 0 0 0 0 0.847059 0 0 0 0 0 0 0 0 1 0"/>
<feBlend mode="normal" in2="effect4_dropShadow_457_492" result="effect5_dropShadow_457_492"/>
<feColorMatrix in="SourceAlpha" type="matrix" values="0 0 0 0 0 0 0 0 0 0 0 0 0 0 0 0 0 0 127 0" result="hardAlpha"/>
<feOffset/>
<feGaussianBlur stdDeviation="139.334"/>
<feColorMatrix type="matrix" values="0 0 0 0 1 0 0 0 0 0.847059 0 0 0 0 0 0 0 0 1 0"/>
<feBlend mode="normal" in2="effect5_dropShadow_457_492" result="effect6_dropShadow_457_492"/>
<feBlend mode="normal" in="SourceGraphic" in2="effect6_dropShadow_457_492" result="shape"/>
</filter>
<filter id="filter7_dddddd_457_492" x="542.35" y="136.5" width="63.3381" height="62.8352" filterUnits="userSpaceOnUse" color-interpolation-filters="sRGB">
<feFlood flood-opacity="0" result="BackgroundImageFix"/>
<feColorMatrix in="SourceAlpha" type="matrix" values="0 0 0 0 0 0 0 0 0 0 0 0 0 0 0 0 0 0 127 0" result="hardAlpha"/>
<feOffset/>
<feGaussianBlur stdDeviation="0.296615"/>
<feColorMatrix type="matrix" values="0 0 0 0 1 0 0 0 0 0.847059 0 0 0 0 0 0 0 0 1 0"/>
<feBlend mode="normal" in2="BackgroundImageFix" result="effect1_dropShadow_457_492"/>
<feColorMatrix in="SourceAlpha" type="matrix" values="0 0 0 0 0 0 0 0 0 0 0 0 0 0 0 0 0 0 127 0" result="hardAlpha"/>
<feOffset/>
<feGaussianBlur stdDeviation="0.59323"/>
<feColorMatrix type="matrix" values="0 0 0 0 1 0 0 0 0 0.847059 0 0 0 0 0 0 0 0 1 0"/>
<feBlend mode="normal" in2="effect1_dropShadow_457_492" result="effect2_dropShadow_457_492"/>
<feColorMatrix in="SourceAlpha" type="matrix" values="0 0 0 0 0 0 0 0 0 0 0 0 0 0 0 0 0 0 127 0" result="hardAlpha"/>
<feOffset/>
<feGaussianBlur stdDeviation="2.0763"/>
<feColorMatrix type="matrix" values="0 0 0 0 1 0 0 0 0 0.847059 0 0 0 0 0 0 0 0 1 0"/>
<feBlend mode="normal" in2="effect2_dropShadow_457_492" result="effect3_dropShadow_457_492"/>
<feColorMatrix in="SourceAlpha" type="matrix" values="0 0 0 0 0 0 0 0 0 0 0 0 0 0 0 0 0 0 127 0" result="hardAlpha"/>
<feOffset/>
<feGaussianBlur stdDeviation="4.15261"/>
<feColorMatrix type="matrix" values="0 0 0 0 1 0 0 0 0 0.847059 0 0 0 0 0 0 0 0 1 0"/>
<feBlend mode="normal" in2="effect3_dropShadow_457_492" result="effect4_dropShadow_457_492"/>
<feColorMatrix in="SourceAlpha" type="matrix" values="0 0 0 0 0 0 0 0 0 0 0 0 0 0 0 0 0 0 127 0" result="hardAlpha"/>
<feOffset/>
<feGaussianBlur stdDeviation="7.11875"/>
<feColorMatrix type="matrix" values="0 0 0 0 1 0 0 0 0 0.847059 0 0 0 0 0 0 0 0 1 0"/>
<feBlend mode="normal" in2="effect4_dropShadow_457_492" result="effect5_dropShadow_457_492"/>
<feColorMatrix in="SourceAlpha" type="matrix" values="0 0 0 0 0 0 0 0 0 0 0 0 0 0 0 0 0 0 127 0" result="hardAlpha"/>
<feOffset/>
<feGaussianBlur stdDeviation="12.4578"/>
<feColorMatrix type="matrix" values="0 0 0 0 1 0 0 0 0 0.847059 0 0 0 0 0 0 0 0 1 0"/>
<feBlend mode="normal" in2="effect5_dropShadow_457_492" result="effect6_dropShadow_457_492"/>
<feBlend mode="normal" in="SourceGraphic" in2="effect6_dropShadow_457_492" result="shape"/>
</filter>
<filter id="filter8_dddddd_457_492" x="563.448" y="136.365" width="63.2778" height="62.8618" filterUnits="userSpaceOnUse" color-interpolation-filters="sRGB">
<feFlood flood-opacity="0" result="BackgroundImageFix"/>
<feColorMatrix in="SourceAlpha" type="matrix" values="0 0 0 0 0 0 0 0 0 0 0 0 0 0 0 0 0 0 127 0" result="hardAlpha"/>
<feOffset/>
<feGaussianBlur stdDeviation="0.296529"/>
<feColorMatrix type="matrix" values="0 0 0 0 1 0 0 0 0 0.847059 0 0 0 0 0 0 0 0 1 0"/>
<feBlend mode="normal" in2="BackgroundImageFix" result="effect1_dropShadow_457_492"/>
<feColorMatrix in="SourceAlpha" type="matrix" values="0 0 0 0 0 0 0 0 0 0 0 0 0 0 0 0 0 0 127 0" result="hardAlpha"/>
<feOffset/>
<feGaussianBlur stdDeviation="0.593058"/>
<feColorMatrix type="matrix" values="0 0 0 0 1 0 0 0 0 0.847059 0 0 0 0 0 0 0 0 1 0"/>
<feBlend mode="normal" in2="effect1_dropShadow_457_492" result="effect2_dropShadow_457_492"/>
<feColorMatrix in="SourceAlpha" type="matrix" values="0 0 0 0 0 0 0 0 0 0 0 0 0 0 0 0 0 0 127 0" result="hardAlpha"/>
<feOffset/>
<feGaussianBlur stdDeviation="2.0757"/>
<feColorMatrix type="matrix" values="0 0 0 0 1 0 0 0 0 0.847059 0 0 0 0 0 0 0 0 1 0"/>
<feBlend mode="normal" in2="effect2_dropShadow_457_492" result="effect3_dropShadow_457_492"/>
<feColorMatrix in="SourceAlpha" type="matrix" values="0 0 0 0 0 0 0 0 0 0 0 0 0 0 0 0 0 0 127 0" result="hardAlpha"/>
<feOffset/>
<feGaussianBlur stdDeviation="4.1514"/>
<feColorMatrix type="matrix" values="0 0 0 0 1 0 0 0 0 0.847059 0 0 0 0 0 0 0 0 1 0"/>
<feBlend mode="normal" in2="effect3_dropShadow_457_492" result="effect4_dropShadow_457_492"/>
<feColorMatrix in="SourceAlpha" type="matrix" values="0 0 0 0 0 0 0 0 0 0 0 0 0 0 0 0 0 0 127 0" result="hardAlpha"/>
<feOffset/>
<feGaussianBlur stdDeviation="7.11669"/>
<feColorMatrix type="matrix" values="0 0 0 0 1 0 0 0 0 0.847059 0 0 0 0 0 0 0 0 1 0"/>
<feBlend mode="normal" in2="effect4_dropShadow_457_492" result="effect5_dropShadow_457_492"/>
<feColorMatrix in="SourceAlpha" type="matrix" values="0 0 0 0 0 0 0 0 0 0 0 0 0 0 0 0 0 0 127 0" result="hardAlpha"/>
<feOffset/>
<feGaussianBlur stdDeviation="12.4542"/>
<feColorMatrix type="matrix" values="0 0 0 0 1 0 0 0 0 0.847059 0 0 0 0 0 0 0 0 1 0"/>
<feBlend mode="normal" in2="effect5_dropShadow_457_492" result="effect6_dropShadow_457_492"/>
<feBlend mode="normal" in="SourceGraphic" in2="effect6_dropShadow_457_492" result="shape"/>
</filter>
<clipPath id="clip0_457_492">
<rect width="1301" height="560" fill="white" transform="translate(-9)"/>
</clipPath>
</defs>
</svg>
