<svg width="40" height="1150" viewBox="0 0 40 1150" fill="none" xmlns="http://www.w3.org/2000/svg">
<g clip-path="url(#clip0_638_2906)">
<path d="M20.7378 1170.68C-2.91261 1152.75 -2.91261 1134.06 20.7378 1123.97C44.3882 1113.88 33.7074 1093.43 20.7378 1077.26C7.76823 1061.1 7.76823 1042.42 20.7378 1030.55C33.7074 1018.69 39.3021 1000.94 20.7378 983.845C2.17351 966.754 2.17351 948.07 20.7378 937.135C39.3021 926.201 40.3194 907.686 20.7378 890.426C1.15628 873.166 1.15628 854.482 20.7378 843.716C40.3194 832.95 34.8518 813.36 20.7378 797.006C6.62385 780.653 6.62385 761.969 20.7378 750.297C34.8518 738.624 35.1061 719.982 20.7378 703.587C6.36955 687.191 6.36955 668.507 20.7378 656.877C35.1061 645.247 38.5392 627.132 20.7378 610.168C2.93642 593.203 2.93642 574.519 20.7378 563.458C38.5392 552.397 37.1405 533.481 20.7378 516.748C4.3351 500.015 4.3351 481.331 20.7378 470.039C37.1405 458.746 36.8862 440.02 20.7378 423.329C4.58941 406.638 4.58941 387.954 20.7378 376.619C36.8862 365.284 41.0823 347.296 20.7378 329.91C0.393366 312.523 0.393366 293.839 20.7378 283.2C41.0823 272.561 37.3948 253.265 20.7378 236.49C4.0808 219.715 4.0808 201.031 20.7378 189.781C37.3948 178.53 43.371 160.837 20.7378 143.071C-1.89539 125.305 -1.89539 106.621 20.7378 96.3612C43.371 86.1015 44.1339 67.5441 20.7378 49.6515C-2.6583 31.7589 -2.6583 13.0751 20.7378 2.94185" stroke="#FFF490" stroke-width="6"/>
</g>
<defs>
<clipPath id="clip0_638_2906">
<rect width="40" height="1150" fill="white"/>
</clipPath>
</defs>
</svg>
