<svg width="40" height="1150" viewBox="0 0 40 1150" fill="none" xmlns="http://www.w3.org/2000/svg">
<g clip-path="url(#clip0_638_2900)">
<path d="M40.2669 993.871C-19.4994 1333.9 -19.4994 1297.45 40.2669 884.514C-3.59931 1227.18 -3.59931 1190.73 40.2669 775.156C5.30926 1119.3 5.30926 1082.85 40.2669 665.799C3.39222 1009.63 3.39222 973.175 40.2669 556.442C-10.2525 898.008 -10.2525 861.555 40.2669 447.084C-52.089 781.713 -52.089 745.26 40.2669 337.727C-1.34398 680.77 -1.34398 644.318 40.2669 228.37C-30.5505 566.57 -30.5505 530.117 40.2669 119.013C12.6391 464.374 12.6391 427.922 40.2669 9.65511C-14.0866 350.585 -14.0866 314.133 40.2669 -99.7022" stroke="#FF8A00" stroke-width="4"/>
</g>
<defs>
<clipPath id="clip0_638_2900">
<rect width="40" height="1150" fill="white"/>
</clipPath>
</defs>
</svg>
