<svg width="642" height="560" viewBox="0 0 642 560" fill="none" xmlns="http://www.w3.org/2000/svg">
<g clip-path="url(#clip0_457_534)">
<rect width="651" height="560" transform="translate(-9)" fill="#70FF00"/>
<path d="M524.728 61.616C520.36 61.616 517.093 60.1973 514.928 57.36C512.8 54.5227 511.736 50.6027 511.736 45.6C511.736 40.8587 512.035 36.7707 512.632 33.336C513.267 29.9013 514.667 26.9147 516.832 24.376C519.035 21.8 522.32 20.232 526.688 19.672L534.528 18.664L534.808 26L528.704 26.448C524.037 26.784 520.677 28.1093 518.624 30.424C516.608 32.7013 515.619 36.024 515.656 40.392H516.104C516.328 39.4213 516.813 38.32 517.56 37.088C518.307 35.856 519.371 34.7733 520.752 33.84C522.171 32.8693 523.888 32.384 525.904 32.384C529.637 32.384 532.549 33.6347 534.64 36.136C536.731 38.6373 537.776 42.2027 537.776 46.832C537.776 51.4613 536.6 55.0827 534.248 57.696C531.933 60.3093 528.76 61.616 524.728 61.616ZM524.728 57.92C526.557 57.92 527.845 57.08 528.592 55.4C529.376 53.72 529.768 50.864 529.768 46.832C529.768 44.144 529.6 42.0347 529.264 40.504C528.928 38.936 528.405 37.816 527.696 37.144C526.987 36.4347 525.997 36.08 524.728 36.08C522.973 36.08 521.704 36.9013 520.92 38.544C520.136 40.1867 519.744 42.6507 519.744 45.936C519.744 50.304 520.117 53.4027 520.864 55.232C521.611 57.024 522.899 57.92 524.728 57.92ZM554.149 61.616C549.967 61.616 546.738 60.3467 544.461 57.808C542.221 55.2693 541.101 51.6667 541.101 47C541.101 42.3333 542.221 38.7307 544.461 36.192C546.738 33.6533 549.967 32.384 554.149 32.384C558.367 32.384 561.597 33.6533 563.837 36.192C566.114 38.7307 567.253 42.3333 567.253 47C567.253 51.6293 566.077 55.232 563.725 57.808C561.41 60.3467 558.218 61.616 554.149 61.616ZM554.149 57.92C555.381 57.92 556.351 57.5653 557.061 56.856C557.807 56.1467 558.349 55.008 558.685 53.44C559.021 51.872 559.189 49.7253 559.189 47C559.189 44.2747 559.021 42.128 558.685 40.56C558.349 38.992 557.826 37.872 557.117 37.2C556.407 36.4907 555.418 36.136 554.149 36.136C552.879 36.136 551.89 36.4907 551.181 37.2C550.471 37.872 549.949 38.992 549.613 40.56C549.277 42.128 549.109 44.256 549.109 46.944C549.109 49.6693 549.277 51.8347 549.613 53.44C549.949 55.008 550.471 56.1467 551.181 56.856C551.927 57.5653 552.917 57.92 554.149 57.92ZM570.858 61.616C570.41 61.616 569.925 61.56 569.402 61.448L569.682 56.968C569.832 57.0053 570.056 57.024 570.354 57.024C572.669 57.024 574.312 54.9707 575.282 50.864C576.29 46.72 576.794 40.7653 576.794 33H593.482V61H586.034V37.088H580.994C580.808 44.5547 579.893 50.5093 578.25 54.952C576.608 59.3947 574.144 61.616 570.858 61.616ZM600.258 33H607.706V42.632H610.338C618.589 42.632 622.714 45.5813 622.714 51.48C622.714 54.728 621.688 57.136 619.634 58.704C617.618 60.2347 614.52 61 610.338 61H600.258V33ZM610.002 57.64C611.57 57.64 612.746 57.2107 613.53 56.352C614.352 55.456 614.762 53.832 614.762 51.48C614.762 49.352 614.333 47.896 613.474 47.112C612.616 46.328 611.458 45.936 610.002 45.936H607.706V57.64H610.002Z" fill="#8F00FF"/>
<path d="M27.7891 190.934C43.8174 100.179 49.6832 100.229 45.3865 191.084C42.3781 235.796 48.244 235.846 62.984 191.235C78.6177 146.631 84.4835 146.681 80.5815 191.385C76.1948 246.207 82.0606 246.257 98.1789 191.536C113.899 136.811 119.765 136.861 115.776 191.686M115.776 191.686C111.352 257.236 117.218 257.286 133.374 191.837C149.186 126.384 155.051 126.434 150.971 191.987C147.041 253.29 -38.0678 251.708 -22.4063 190.505C-6.63069 129.303 190.21 130.986 186.166 192.288C180.795 289.207 186.661 289.257 203.763 192.439C219.844 95.6113 225.709 95.6614 221.361 192.589C218.158 246.611 224.024 246.661 238.958 192.739C254.671 138.825 260.537 138.875 256.556 192.89C250.935 286.77 256.8 286.82 274.153 193.04C290.207 99.2494 296.073 99.2996 291.751 193.191C288.35 253.284 100.645 251.679 115.776 191.686ZM115.776 191.686C131.542 131.699 330.979 133.404 326.945 193.492C321.396 293.648 327.262 293.698 344.543 193.642C360.651 93.5764 366.517 93.6266 362.14 193.793C359.112 242.351 364.978 242.401 379.738 193.943C395.404 145.494 401.27 145.544 397.335 194.094C393.926 230.907 399.792 230.957 414.933 194.244C430.499 157.535 436.365 157.585 432.53 194.395M432.53 194.395C429.334 219.874 435.2 219.924 450.127 194.545C465.597 169.171 285.074 128.465 281.336 153.939C271.854 253.455 464.108 294.261 485.322 194.846C501.425 95.3875 507.291 95.4377 502.92 194.997C498.347 302.246 504.213 302.297 520.517 195.147C536.686 87.9967 542.551 88.0468 538.115 195.298C533.94 292.024 539.806 292.074 555.712 195.448C571.79 98.8233 577.656 98.8735 573.309 195.599C570.332 241.12 576.197 241.17 590.907 195.749C606.547 150.336 612.413 150.386 608.504 195.9C602.35 288.966 414.645 287.36 432.53 194.395ZM432.53 194.395C448.577 101.413 648.015 103.119 643.699 196.201C640.233 258.317 646.099 258.368 661.296 196.351C677.079 134.339 682.945 134.39 678.894 196.501C673.029 307.789 678.895 307.839 696.491 196.652C712.694 85.4531 718.56 85.5033 714.089 196.802C711.609 226.336 717.475 226.386 731.686 196.953" stroke="#8F00FF" stroke-width="8"/>
<path d="M26.7891 372.934C42.8174 282.179 48.6832 282.229 44.3865 373.084C41.3781 417.796 47.244 417.846 61.984 373.235C77.6177 328.631 83.4835 328.681 79.5815 373.385C75.1948 428.207 81.0606 428.257 97.1789 373.536C112.899 318.811 118.765 318.861 114.776 373.686M114.776 373.686C110.352 439.236 116.218 439.286 132.374 373.837C148.186 308.384 154.051 308.434 149.971 373.987C146.041 435.29 -39.0678 433.708 -23.4063 372.505C-7.63069 311.303 189.21 312.986 185.166 374.288C179.795 471.207 185.661 471.257 202.763 374.439C218.844 277.611 224.709 277.661 220.361 374.589C217.158 428.611 223.024 428.661 237.958 374.739C253.671 320.825 259.537 320.875 255.556 374.89C249.935 468.77 255.8 468.82 273.153 375.04C289.207 281.249 295.073 281.3 290.751 375.191C287.35 435.284 99.6445 433.679 114.776 373.686ZM114.776 373.686C130.542 313.699 329.979 315.404 325.945 375.492C320.396 475.648 326.262 475.698 343.543 375.642C359.651 275.576 365.517 275.627 361.14 375.793C358.112 424.351 363.978 424.401 378.738 375.943C394.404 327.494 400.27 327.544 396.335 376.094C392.926 412.907 398.792 412.957 413.933 376.244C429.499 339.535 435.365 339.585 431.53 376.395M431.53 376.395C428.334 401.874 434.2 401.924 449.127 376.545C464.597 351.171 284.074 310.465 280.336 335.939C270.854 435.455 463.108 476.261 484.322 376.846C500.425 277.388 506.291 277.438 501.92 376.997C497.347 484.246 503.213 484.297 519.517 377.147C535.686 269.997 541.551 270.047 537.115 377.298C532.94 474.024 538.806 474.074 554.712 377.448C570.79 280.823 576.656 280.873 572.309 377.599C569.332 423.12 575.197 423.17 589.907 377.749C605.547 332.336 611.413 332.386 607.504 377.9C601.35 470.966 413.645 469.36 431.53 376.395ZM431.53 376.395C447.577 283.413 647.015 285.119 642.699 378.201C639.233 440.317 645.099 440.368 660.296 378.351C676.079 316.339 681.945 316.39 677.894 378.501C672.029 489.789 677.895 489.839 695.491 378.652C711.694 267.453 717.56 267.503 713.089 378.802C710.609 408.336 716.475 408.386 730.686 378.953" stroke="#8F00FF" stroke-width="8"/>
</g>
<defs>
<clipPath id="clip0_457_534">
<rect width="651" height="560" fill="white" transform="translate(-9)"/>
</clipPath>
</defs>
</svg>
