<svg width="640" height="560" viewBox="0 0 640 560" fill="none" xmlns="http://www.w3.org/2000/svg">
<g clip-path="url(#clip0_457_560)">
<rect x="-12" width="652" height="560" fill="#8F9AFF"/>
<path d="M443.031 0C489.656 9.6 489.656 22.4 443.031 32C396.406 41.6 417.463 54.4 443.031 64C468.6 73.6 468.6 86.4 443.031 96C417.463 105.6 406.433 118.4 443.031 128C479.629 137.6 479.629 150.4 443.031 160C406.433 169.6 404.428 182.4 443.031 192C481.635 201.6 481.635 214.4 443.031 224C404.428 233.6 415.206 246.4 443.031 256C470.856 265.6 470.856 278.4 443.031 288C415.206 297.6 414.705 310.4 443.031 320C471.357 329.6 471.357 342.4 443.031 352C414.705 361.6 407.937 374.4 443.031 384C478.125 393.6 478.125 406.4 443.031 416C407.937 425.6 410.694 438.4 443.031 448C475.368 457.6 475.368 470.4 443.031 480C410.694 489.6 411.196 502.4 443.031 512C474.867 521.6 474.867 534.4 443.031 544C411.196 553.6 402.924 566.4 443.031 576C483.139 585.6 483.139 598.4 443.031 608C402.924 617.6 410.193 630.4 443.031 640C475.869 649.6 475.869 662.4 443.031 672C410.193 681.6 398.411 694.4 443.031 704C487.651 713.6 487.651 726.4 443.031 736C398.411 745.6 396.907 758.4 443.031 768C489.155 777.6 489.155 790.4 443.031 800" stroke="#FFF490" stroke-width="10"/>
<path d="M220.031 -78C266.656 -68.4 266.656 -55.6 220.031 -46C173.406 -36.4 194.463 -23.6 220.031 -14C245.6 -4.4 245.6 8.4 220.031 18C194.463 27.6 183.433 40.4 220.031 50C256.629 59.6 256.629 72.4 220.031 82C183.433 91.6 181.428 104.4 220.031 114C258.635 123.6 258.635 136.4 220.031 146C181.428 155.6 192.206 168.4 220.031 178C247.856 187.6 247.856 200.4 220.031 210C192.206 219.6 191.705 232.4 220.031 242C248.357 251.6 248.357 264.4 220.031 274C191.705 283.6 184.937 296.4 220.031 306C255.125 315.6 255.125 328.4 220.031 338C184.937 347.6 187.694 360.4 220.031 370C252.368 379.6 252.368 392.4 220.031 402C187.694 411.6 188.196 424.4 220.031 434C251.867 443.6 251.867 456.4 220.031 466C188.196 475.6 179.924 488.4 220.031 498C260.139 507.6 260.139 520.4 220.031 530C179.924 539.6 187.193 552.4 220.031 562C252.869 571.6 252.869 584.4 220.031 594C187.193 603.6 175.411 616.4 220.031 626C264.651 635.6 264.651 648.4 220.031 658C175.411 667.6 173.907 680.4 220.031 690C266.155 699.6 266.155 712.4 220.031 722" stroke="#FFF490" stroke-width="10"/>
<path d="M331.538 -71C377.487 -61.4 377.487 -48.6 331.538 -39C285.589 -29.4 306.34 -16.6 331.538 -7C356.736 2.6 356.736 15.4 331.538 25C306.34 34.6 295.47 47.4 331.538 57C367.606 66.6 367.606 79.4 331.538 89C295.47 98.6 293.494 111.4 331.538 121C369.582 130.6 369.582 143.4 331.538 153C293.494 162.6 304.117 175.4 331.538 185C358.959 194.6 358.959 207.4 331.538 217C304.117 226.6 303.622 239.4 331.538 249C359.453 258.6 359.453 271.4 331.538 281C303.622 290.6 296.952 303.4 331.538 313C366.124 322.6 366.124 335.4 331.538 345C296.952 354.6 299.67 367.4 331.538 377C363.406 386.6 363.406 399.4 331.538 409C299.67 418.6 300.164 431.4 331.538 441C362.912 450.6 362.912 463.4 331.538 473C300.164 482.6 292.012 495.4 331.538 505C371.064 514.6 371.064 527.4 331.538 537C292.012 546.6 299.176 559.4 331.538 569C363.9 578.6 363.9 591.4 331.538 601C299.176 610.6 287.565 623.4 331.538 633C375.511 642.6 375.511 655.4 331.538 665C287.565 674.6 286.083 687.4 331.538 697C376.993 706.6 376.993 719.4 331.538 729" stroke="#FFF490" stroke-width="10"/>
<circle cx="-42.1422" cy="272.857" r="196" transform="rotate(88.0002 -42.1422 272.857)" stroke="#FFF490" stroke-width="8"/>
<circle cx="-43.1296" cy="273.919" r="98.5641" transform="rotate(88.0002 -43.1296 273.919)" stroke="#FFF490" stroke-width="8"/>
<g filter="url(#filter0_dddddd_457_560)">
<path d="M143.317 313.089C141.662 315.482 138.468 317.244 133.334 317.938C128.215 318.631 121.593 318.189 113.842 316.557C98.3681 313.299 79.0718 305.44 59.7148 293.676C40.3579 281.911 24.8286 268.604 15.3389 256.69C10.5857 250.723 7.45187 245.235 6.0365 240.571C4.61674 235.893 5.0276 232.44 6.68268 230.046C8.33776 227.652 11.532 225.891 16.6663 225.196C21.7847 224.504 28.4075 224.946 36.158 226.578C51.632 229.836 70.9284 237.694 90.2853 249.459C109.642 261.224 125.171 274.531 134.661 286.445C139.414 292.412 142.548 297.9 143.964 302.564C145.383 307.242 144.973 310.695 143.317 313.089Z" stroke="#FFF490" stroke-width="6"/>
</g>
<g filter="url(#filter1_dddddd_457_560)">
<path d="M121.987 333.821C119.43 335.517 115.717 336.023 110.695 334.888C105.676 333.754 99.7127 331.047 93.1725 326.845C80.1118 318.454 65.3156 304.465 52.0026 286.825C38.6896 269.186 29.5421 251.449 25.447 237.11C23.3964 229.929 22.6577 223.756 23.1866 218.941C23.7157 214.123 25.46 211.008 28.0164 209.312C30.5728 207.616 34.2867 207.11 39.3084 208.245C44.3272 209.379 50.2905 212.086 56.8307 216.288C69.8914 224.68 84.6876 238.668 98.0006 256.308C111.314 273.947 120.461 291.684 124.556 306.024C126.607 313.204 127.345 319.377 126.817 324.192C126.288 329.01 124.543 332.125 121.987 333.821Z" stroke="#FFF490" stroke-width="6"/>
</g>
<g filter="url(#filter2_dddddd_457_560)">
<path d="M-0.296063 300.67C-1.44117 298.066 -1.18452 294.618 1.1291 290.255C3.4328 285.91 7.58883 281.048 13.4311 275.994C25.0942 265.903 42.9679 255.482 64.3018 247.236C85.6358 238.99 106.15 234.574 122.009 234.026C129.953 233.752 136.556 234.455 141.456 236.015C146.377 237.583 149.151 239.859 150.296 242.463C151.441 245.068 151.185 248.515 148.871 252.879C146.567 257.224 142.411 262.086 136.569 267.14C124.906 277.23 107.032 287.652 85.6982 295.898C64.3642 304.144 43.8501 308.56 27.9911 309.108C20.0472 309.382 13.4444 308.679 8.54405 307.119C3.62264 305.551 0.849048 303.275 -0.296063 300.67Z" stroke="#FFF490" stroke-width="6"/>
</g>
<g filter="url(#filter3_dddddd_457_560)">
<path d="M9.78477 317.246C7.95444 314.949 7.30323 311.521 8.38754 306.768C9.46897 302.028 12.206 296.359 16.5244 290.111C25.1466 277.636 39.6955 263.393 58.1734 250.45C76.6512 237.508 95.3445 228.466 110.549 224.253C118.165 222.142 124.739 221.289 129.894 221.661C135.062 222.034 138.383 223.592 140.214 225.889C142.044 228.186 142.695 231.614 141.611 236.366C140.529 241.106 137.792 246.775 133.474 253.024C124.852 265.499 110.303 279.742 91.8251 292.684C73.3472 305.627 54.654 314.668 39.4492 318.882C31.8338 320.993 25.2593 321.846 20.1047 321.474C14.9365 321.101 11.6151 319.543 9.78477 317.246Z" stroke="#FFF490" stroke-width="6"/>
</g>
<g filter="url(#filter4_dddddd_457_560)">
<path d="M68.2727 265.026C70.9317 267.573 72.4253 272.329 71.1715 273.479C69.9178 274.63 65.6348 272.434 62.9757 269.887C60.3167 267.34 59.1775 264.343 60.4312 263.192C61.685 262.041 65.6136 262.479 68.2727 265.026Z" fill="#FFF490"/>
</g>
<g filter="url(#filter5_dddddd_457_560)">
<path d="M81.5035 264.928C78.8578 267.487 77.3892 272.25 78.649 273.395C79.9087 274.54 84.1802 272.324 86.8258 269.765C89.4715 267.205 90.595 264.203 89.3352 263.058C88.0754 261.913 84.1491 262.369 81.5035 264.928Z" fill="#FFF490"/>
</g>
<path d="M556.648 148.534C556.648 147.302 556.965 146.219 557.6 145.286C558.235 144.39 559.037 143.699 560.008 143.214C560.941 142.729 561.875 142.486 562.808 142.486C565.011 142.486 567.083 143.065 569.024 144.222C570.928 145.379 572.795 147.041 574.624 149.206C575.371 150.027 576.845 151.913 579.048 154.862L581.12 157.606L582.408 157.886L584.144 158.278C585.04 158.465 585.637 158.595 585.936 158.67L587.448 159.006C585.395 158.334 583.565 157.214 581.96 155.646C580.355 154.115 579.552 152.641 579.552 151.222C579.552 149.729 580.112 148.534 581.232 147.638C582.389 146.742 583.957 146.294 585.936 146.294C589.072 146.294 594.019 147.19 600.776 148.982C604.136 149.878 605.947 150.326 606.208 150.326L606.88 150.214C607.141 150.177 607.459 150.419 607.832 150.942C608.205 151.465 608.392 151.894 608.392 152.23C608.392 152.977 608.019 153.35 607.272 153.35C606.525 153.35 603.389 152.659 597.864 151.278C592.339 149.897 588.587 149.206 586.608 149.206C584.667 149.206 583.453 149.449 582.968 149.934C582.483 150.382 582.24 150.942 582.24 151.614C582.24 153.033 583.435 154.545 585.824 156.15C587.691 157.419 590.192 158.539 593.328 159.51C596.501 160.518 599.843 161.451 603.352 162.31L604.472 162.59C606.152 163.001 607.197 163.355 607.608 163.654C608.056 163.953 608.28 164.363 608.28 164.886C608.28 165.297 608.168 165.577 607.944 165.726C607.757 165.913 607.552 165.969 607.328 165.894C604.565 165.334 600.515 164.419 595.176 163.15C590.323 161.993 586.421 161.171 583.472 160.686C583.397 160.574 583.995 161.227 585.264 162.646C586.011 163.393 586.533 163.953 586.832 164.326C587.131 164.699 587.28 165.054 587.28 165.39C587.28 166.025 586.963 166.342 586.328 166.342C585.88 166.342 585.507 166.193 585.208 165.894C583.864 164.401 582.259 162.459 580.392 160.07C570.611 158.203 564.245 156.523 561.296 155.03C559.653 154.209 558.347 152.995 557.376 151.39C556.891 150.569 556.648 149.617 556.648 148.534ZM559.336 148.534C559.336 149.841 560.176 151.017 561.856 152.062C562.976 152.771 564.768 153.537 567.232 154.358L569.976 155.086L572.16 155.646L577.872 156.934L577.032 155.982C575.912 154.675 574.848 153.387 573.84 152.118C570.181 147.601 566.691 145.342 563.368 145.342C561.837 145.342 560.661 145.846 559.84 146.854C559.504 147.227 559.336 147.787 559.336 148.534ZM579.552 188.962C579.552 188.364 579.944 188.028 580.728 187.954C584.013 188.327 587.429 189.148 590.976 190.418C594.411 191.612 598.293 192.676 602.624 193.61L599.992 191.482L597.416 189.354C594.355 187.002 592.003 184.818 590.36 182.802C590.136 182.466 590.024 182.092 590.024 181.682C590.024 181.271 590.211 180.916 590.584 180.618C590.957 180.319 591.555 180.039 592.376 179.778C593.235 179.554 594.299 179.33 595.568 179.106L600.272 178.266L601.504 177.986C594.635 174.999 589.781 172.964 586.944 171.882C586.608 171.77 586.272 171.639 585.936 171.49C585.637 171.378 585.32 171.266 584.984 171.154L583.136 170.482C582.912 170.407 582.725 170.37 582.576 170.37C582.277 170.295 582.053 170.22 581.904 170.146C581.792 170.295 581.568 170.37 581.232 170.37C580.933 170.37 580.635 170.183 580.336 169.81C580.037 169.474 579.888 169.1 579.888 168.69C579.888 168.055 580.243 167.738 580.952 167.738C583.976 167.738 592.712 171.098 607.16 177.818C607.832 178.266 608.168 178.714 608.168 179.162C608.168 180.02 607.72 180.45 606.824 180.45C606.451 180.45 605.928 180.338 605.256 180.114C604.584 180.114 603.744 180.244 602.736 180.506C601.952 180.655 600.477 180.898 598.312 181.234C596.707 181.42 594.989 181.775 593.16 182.298L596.016 184.93C600.384 188.887 603.24 191.276 604.584 192.098C607.235 193.666 608.56 194.916 608.56 195.85C608.56 196.484 608.243 196.895 607.608 197.082C603.576 196.671 598.928 195.607 593.664 193.89C588.288 192.135 584.107 191.015 581.12 190.53C580.672 190.418 580.299 190.194 580 189.858C579.701 189.559 579.552 189.26 579.552 188.962ZM579.44 213.308C579.44 212.897 579.776 212.449 580.448 211.964C581.157 211.516 581.773 211.292 582.296 211.292H583.248C584.405 211.292 587.896 212.094 593.72 213.7L596.8 214.428L593.608 212.916C592.376 212.43 590.64 211.646 588.4 210.564C582.501 207.801 579.552 204.852 579.552 201.716C579.552 199.849 580.579 198.58 582.632 197.908C583.304 197.721 584.144 197.628 585.152 197.628C587.243 197.628 589.912 198.02 593.16 198.804C595.027 199.252 596.408 199.625 597.304 199.924L598.76 200.372C600.179 200.782 601.672 201.193 603.24 201.604C604.845 202.052 606.059 202.294 606.88 202.332C607.253 202.444 607.571 202.649 607.832 202.948C608.093 203.284 608.224 203.638 608.224 204.012C608.224 204.385 607.739 204.684 606.768 204.908C605.797 204.908 604.603 204.721 603.184 204.348C601.803 203.974 600.571 203.601 599.488 203.228C598.405 202.892 597.715 202.686 597.416 202.612C592.6 201.081 588.419 200.316 584.872 200.316C583.752 200.316 582.968 200.745 582.52 201.604C582.371 201.902 582.296 202.313 582.296 202.836C582.296 203.881 583.341 205.132 585.432 206.588C587.373 207.932 589.8 209.294 592.712 210.676C595.624 212.057 598.275 213.177 600.664 214.036C603.24 214.932 605.125 215.678 606.32 216.276C607.515 216.873 608.112 217.526 608.112 218.236C608.112 218.87 607.795 219.188 607.16 219.188C606.675 219.188 605.349 218.889 603.184 218.292C601.355 217.732 600.048 217.358 599.264 217.172C598.517 216.985 597.453 216.761 596.072 216.5L588.456 215.156L585.264 214.54C584.928 214.502 584.424 214.409 583.752 214.26C583.043 214.26 582.576 214.372 582.352 214.596L581.68 215.1C581.568 215.212 581.325 215.268 580.952 215.268C580.579 215.268 580.243 215.044 579.944 214.596C579.608 214.185 579.44 213.756 579.44 213.308ZM557.04 217.382C557.04 216.822 557.413 216.504 558.16 216.43C562.416 217.55 566.672 218.52 570.928 219.342L579.72 221.022L588.512 222.702L590.864 223.15C598.629 224.643 603.819 225.651 606.432 226.174H607.664C608.037 226.174 608.392 226.342 608.728 226.678C609.064 227.014 609.232 227.406 609.232 227.854C609.232 228.264 609.064 228.582 608.728 228.806C608.429 229.03 608.093 229.142 607.72 229.142C607.197 229.142 606.656 229.048 606.096 228.862L605.368 228.638C605.069 228.563 604.864 228.526 604.752 228.526L600.72 227.742C605.835 230.43 608.392 233.304 608.392 236.366C608.392 237.971 607.907 239.128 606.936 239.838C606.003 240.584 604.584 240.958 602.68 240.958C599.096 240.958 595.531 240.454 591.984 239.446C588.437 238.438 585.451 236.982 583.024 235.078C580.523 233.136 579.272 230.822 579.272 228.134C579.272 227.088 579.496 226.248 579.944 225.614C580.355 225.016 581.083 224.531 582.128 224.158L578.824 223.486C574.717 222.59 571.619 221.936 569.528 221.526C564.973 220.63 561.184 219.771 558.16 218.95C557.413 218.614 557.04 218.091 557.04 217.382ZM581.904 228.526C581.904 230.467 583.136 232.278 585.6 233.958C588.773 236.048 592.936 237.43 598.088 238.102C599.693 238.288 601.075 238.382 602.232 238.382C604.659 238.382 605.872 237.784 605.872 236.59C605.872 235.395 605.013 234.032 603.296 232.502C600.944 230.411 598.107 228.694 594.784 227.35C591.499 226.006 588.643 225.334 586.216 225.334C583.341 225.334 581.904 226.398 581.904 228.526ZM579.496 246.892C579.496 244.95 580.261 243.494 581.792 242.524C583.323 241.59 585.152 241.124 587.28 241.124C590.677 241.124 593.963 241.684 597.136 242.804C600.347 243.961 602.997 245.529 605.088 247.508C607.216 249.412 608.28 251.558 608.28 253.948C608.28 257.382 605.667 259.1 600.44 259.1C597.827 259.1 595.157 258.67 592.432 257.812C589.707 256.953 587.28 255.833 585.152 254.452C583.024 253.108 581.493 251.708 580.56 250.252C579.851 249.132 579.496 248.012 579.496 246.892ZM582.016 247.34C582.016 248.497 583.024 249.785 585.04 251.204C587.056 252.66 589.557 253.873 592.544 254.844C595.531 255.852 598.069 256.356 600.16 256.356C602.325 256.356 603.669 256.225 604.192 255.964C604.752 255.74 605.144 255.46 605.368 255.124C605.592 254.788 605.704 254.265 605.704 253.556C605.704 252.772 605.405 251.95 604.808 251.092C603.725 249.374 601.859 247.881 599.208 246.612C595.251 244.633 591.405 243.644 587.672 243.644C585.133 243.644 583.379 244.372 582.408 245.828C582.147 246.35 582.016 246.854 582.016 247.34ZM605.088 260.492C605.088 260.044 605.219 259.652 605.48 259.316C605.741 259.017 606.021 258.868 606.32 258.868C606.581 258.868 606.805 258.999 606.992 259.26C608.336 262.396 609.008 266.316 609.008 271.02C609.008 273.036 608.933 274.697 608.784 276.004C608.597 277.273 608.467 278.375 608.392 279.308C608.28 280.092 608.149 280.559 608 280.708C607.813 280.857 607.552 280.932 607.216 280.932C606.88 280.932 606.544 280.745 606.208 280.372C605.909 279.999 605.76 279.532 605.76 278.972C605.76 278.337 605.928 277.273 606.264 275.78C606.563 274.212 606.712 272.719 606.712 271.3C606.712 267.492 606.189 264.039 605.144 260.94L605.088 260.716V260.492ZM579.16 263.404C579.16 262.769 579.533 262.452 580.28 262.452C580.653 262.452 581.008 262.583 581.344 262.844C582.24 263.18 583.453 263.516 584.984 263.852C586.888 264.3 588.064 264.599 588.512 264.748L591.368 265.308L594.952 265.924C598.611 266.559 601.243 267.156 602.848 267.716C604.453 268.313 605.256 269.116 605.256 270.124C605.256 270.497 605.013 270.796 604.528 271.02L602.624 271.748C601.84 271.748 601.243 271.468 600.832 270.908C600.72 270.759 600.664 270.572 600.664 270.348C600.664 270.124 600.776 269.919 601 269.732C597.827 268.873 595.512 268.351 594.056 268.164C591.629 267.791 589.763 267.473 588.456 267.212C588.045 267.063 587.448 266.895 586.664 266.708L584.816 266.204C581.045 265.233 579.16 264.3 579.16 263.404ZM579.44 281.587C579.44 280.841 579.832 280.131 580.616 279.459C581.4 278.825 582.445 278.302 583.752 277.891C585.059 277.518 586.44 277.331 587.896 277.331C589.688 277.331 591.517 277.406 593.384 277.555C593.459 276.995 593.776 276.715 594.336 276.715C594.448 276.715 594.653 276.753 594.952 276.827L596.912 277.947C602.736 278.769 610.371 280.411 619.816 282.875C626.163 284.63 630.568 286.702 633.032 289.091C633.853 289.875 634.264 290.622 634.264 291.331C634.264 293.907 632.696 295.195 629.56 295.195C625.64 295.195 621.16 293.459 616.12 289.987C614.664 289.017 612.704 287.673 610.24 285.955C607.701 284.163 605.387 282.801 603.296 281.867C602.885 281.681 602.605 281.419 602.456 281.083L601.392 280.915C606.021 284.537 608.336 287.803 608.336 290.715C608.336 291.873 607.72 292.694 606.488 293.179C605.293 293.665 603.893 293.907 602.288 293.907C599.675 293.907 596.539 293.329 592.88 292.171C589.259 291.051 586.253 289.67 583.864 288.027C580.915 285.937 579.44 283.79 579.44 281.587ZM611.584 284.275C613.152 285.321 614.235 286.03 614.832 286.403L616.232 287.355C621.533 290.753 625.621 292.451 628.496 292.451C629.429 292.451 630.12 292.395 630.568 292.283C631.053 292.171 631.296 291.891 631.296 291.443C631.296 290.622 630.176 289.651 627.936 288.531C623.568 286.329 617.053 284.238 608.392 282.259L611.584 284.275ZM582.184 282.147C582.184 283.529 583.341 284.91 585.656 286.291C587.971 287.71 590.864 288.905 594.336 289.875C597.659 290.771 600.085 291.219 601.616 291.219C603.259 291.219 604.248 291.126 604.584 290.939C604.995 290.753 605.2 290.286 605.2 289.539C605.2 288.195 604.416 286.758 602.848 285.227C601.317 283.734 599.04 282.054 596.016 280.187C593.888 279.963 591.909 279.851 590.08 279.851C584.816 279.851 582.184 280.617 582.184 282.147ZM579.496 303.187C579.496 301.246 580.261 299.79 581.792 298.819C583.323 297.886 585.152 297.419 587.28 297.419C590.677 297.419 593.963 297.979 597.136 299.099C600.347 300.256 602.997 301.824 605.088 303.803C607.216 305.707 608.28 307.854 608.28 310.243C608.28 313.678 605.667 315.395 600.44 315.395C597.827 315.395 595.157 314.966 592.432 314.107C589.707 313.248 587.28 312.128 585.152 310.747C583.024 309.403 581.493 308.003 580.56 306.547C579.851 305.427 579.496 304.307 579.496 303.187ZM582.016 303.635C582.016 304.792 583.024 306.08 585.04 307.499C587.056 308.955 589.557 310.168 592.544 311.139C595.531 312.147 598.069 312.651 600.16 312.651C602.325 312.651 603.669 312.52 604.192 312.259C604.752 312.035 605.144 311.755 605.368 311.419C605.592 311.083 605.704 310.56 605.704 309.851C605.704 309.067 605.405 308.246 604.808 307.387C603.725 305.67 601.859 304.176 599.208 302.907C595.251 300.928 591.405 299.939 587.672 299.939C585.133 299.939 583.379 300.667 582.408 302.123C582.147 302.646 582.016 303.15 582.016 303.635ZM557.04 312.811C557.04 312.251 557.413 311.934 558.16 311.859C562.416 312.979 566.672 313.95 570.928 314.771L579.72 316.451L588.512 318.131L590.864 318.579C598.629 320.073 603.819 321.081 606.432 321.603H607.664C608.037 321.603 608.392 321.771 608.728 322.107C609.064 322.443 609.232 322.835 609.232 323.283C609.232 323.694 609.064 324.011 608.728 324.235C608.429 324.459 608.093 324.571 607.72 324.571C607.197 324.571 606.656 324.478 606.096 324.291L605.368 324.067C605.069 323.993 604.864 323.955 604.752 323.955L600.72 323.171C605.835 325.859 608.392 328.734 608.392 331.795C608.392 333.401 607.907 334.558 606.936 335.267C606.003 336.014 604.584 336.387 602.68 336.387C599.096 336.387 595.531 335.883 591.984 334.875C588.437 333.867 585.451 332.411 583.024 330.507C580.523 328.566 579.272 326.251 579.272 323.563C579.272 322.518 579.496 321.678 579.944 321.043C580.355 320.446 581.083 319.961 582.128 319.587L578.824 318.915C574.717 318.019 571.619 317.366 569.528 316.955C564.973 316.059 561.184 315.201 558.16 314.379C557.413 314.043 557.04 313.521 557.04 312.811ZM581.904 323.955C581.904 325.897 583.136 327.707 585.6 329.387C588.773 331.478 592.936 332.859 598.088 333.531C599.693 333.718 601.075 333.811 602.232 333.811C604.659 333.811 605.872 333.214 605.872 332.019C605.872 330.825 605.013 329.462 603.296 327.931C600.944 325.841 598.107 324.123 594.784 322.779C591.499 321.435 588.643 320.763 586.216 320.763C583.341 320.763 581.904 321.827 581.904 323.955ZM579.44 342.321C579.44 341.127 579.627 340.193 580 339.521C580.411 338.849 581.027 338.308 581.848 337.897C583.304 337.113 585.059 336.721 587.112 336.721C590.696 336.721 594.093 337.263 597.304 338.345C600.552 339.428 603.277 340.903 605.48 342.769C607.571 344.561 608.616 346.521 608.616 348.649C608.616 349.769 608.149 350.647 607.216 351.281C606.32 351.953 605.219 352.289 603.912 352.289C601.635 352.289 599.656 351.692 597.976 350.497C596.296 349.34 594.896 347.772 593.776 345.793C592.768 344.076 591.76 341.985 590.752 339.521L586.72 339.409C583.584 339.409 582.016 340.361 582.016 342.265C582.016 343.124 582.221 344.02 582.632 344.953C583.08 345.887 583.603 346.857 584.2 347.865C584.461 348.351 584.592 348.743 584.592 349.041C584.592 349.676 584.256 349.993 583.584 349.993C583.099 349.993 582.52 349.527 581.848 348.593C581.176 347.697 580.597 346.633 580.112 345.401C579.664 344.169 579.44 343.143 579.44 342.321ZM593.44 339.969C593.627 340.305 594.019 341.052 594.616 342.209C594.84 342.732 595.213 343.479 595.736 344.449C596.707 346.204 597.827 347.511 599.096 348.369C600.365 349.265 601.933 349.713 603.8 349.713C605.256 349.713 605.984 349.097 605.984 347.865C605.984 346.783 604.995 345.513 603.016 344.057C601.037 342.527 598.443 341.295 595.232 340.361C594.336 340.1 593.739 339.969 593.44 339.969ZM579.384 370.054C579.384 369.008 579.664 368.206 580.224 367.646C580.784 367.123 581.512 366.862 582.408 366.862C583.341 366.862 584.947 367.104 587.224 367.59L594 368.878C591.947 366.152 590.92 363.632 590.92 361.318C590.92 359.638 591.368 358.35 592.264 357.454C591.891 357.379 591.517 357.304 591.144 357.23C590.771 357.192 590.397 357.136 590.024 357.062C588.792 356.912 587.541 356.726 586.272 356.502C581.829 355.83 579.608 354.822 579.608 353.478C579.608 352.918 580 352.582 580.784 352.47C583.696 352.806 588.213 353.627 594.336 354.934C600.496 356.278 604.659 357.23 606.824 357.79C607.197 357.902 607.515 358.107 607.776 358.406C608.037 358.742 608.168 359.078 608.168 359.414C608.168 359.862 607.851 360.179 607.216 360.366C606.619 360.366 604.677 360.03 601.392 359.358C598.891 358.835 596.744 358.424 594.952 358.126C594.019 358.947 593.552 360.235 593.552 361.99C593.552 363.707 594.411 365.592 596.128 367.646C596.688 368.28 597.285 368.878 597.92 369.438L601.672 370.278C604.397 370.912 606.283 371.603 607.328 372.35C607.925 372.723 608.224 373.227 608.224 373.862C608.224 374.496 607.869 374.814 607.16 374.814H606.88C599.824 372.76 594.709 371.472 591.536 370.95C588.811 370.464 586.664 370.147 585.096 369.998C583.864 369.886 583.192 369.811 583.08 369.774L582.352 369.718C582.128 369.718 582.016 369.811 582.016 369.998C582.016 370.147 582.072 370.278 582.184 370.39C582.296 370.576 582.352 370.875 582.352 371.286C582.352 371.92 582.016 372.238 581.344 372.238C580.037 372.238 579.384 371.51 579.384 370.054ZM579.44 392.092C579.44 391.681 579.776 391.233 580.448 390.748C581.157 390.3 581.773 390.076 582.296 390.076H583.248C584.405 390.076 587.896 390.879 593.72 392.484L596.8 393.212L593.608 391.7C592.376 391.215 590.64 390.431 588.4 389.348C582.501 386.585 579.552 383.636 579.552 380.5C579.552 378.633 580.579 377.364 582.632 376.692C583.304 376.505 584.144 376.412 585.152 376.412C587.243 376.412 589.912 376.804 593.16 377.588C595.027 378.036 596.408 378.409 597.304 378.708L598.76 379.156C600.179 379.567 601.672 379.977 603.24 380.388C604.845 380.836 606.059 381.079 606.88 381.116C607.253 381.228 607.571 381.433 607.832 381.732C608.093 382.068 608.224 382.423 608.224 382.796C608.224 383.169 607.739 383.468 606.768 383.692C605.797 383.692 604.603 383.505 603.184 383.132C601.803 382.759 600.571 382.385 599.488 382.012C598.405 381.676 597.715 381.471 597.416 381.396C592.6 379.865 588.419 379.1 584.872 379.1C583.752 379.1 582.968 379.529 582.52 380.388C582.371 380.687 582.296 381.097 582.296 381.62C582.296 382.665 583.341 383.916 585.432 385.372C587.373 386.716 589.8 388.079 592.712 389.46C595.624 390.841 598.275 391.961 600.664 392.82C603.24 393.716 605.125 394.463 606.32 395.06C607.515 395.657 608.112 396.311 608.112 397.02C608.112 397.655 607.795 397.972 607.16 397.972C606.675 397.972 605.349 397.673 603.184 397.076C601.355 396.516 600.048 396.143 599.264 395.956C598.517 395.769 597.453 395.545 596.072 395.284L588.456 393.94L585.264 393.324C584.928 393.287 584.424 393.193 583.752 393.044C583.043 393.044 582.576 393.156 582.352 393.38L581.68 393.884C581.568 393.996 581.325 394.052 580.952 394.052C580.579 394.052 580.243 393.828 579.944 393.38C579.608 392.969 579.44 392.54 579.44 392.092ZM579.44 405.07C579.44 403.875 579.627 402.942 580 402.27C580.411 401.598 581.027 401.057 581.848 400.646C583.304 399.862 585.059 399.47 587.112 399.47C590.696 399.47 594.093 400.011 597.304 401.094C600.552 402.177 603.277 403.651 605.48 405.518C607.571 407.31 608.616 409.27 608.616 411.398C608.616 412.518 608.149 413.395 607.216 414.03C606.32 414.702 605.219 415.038 603.912 415.038C601.635 415.038 599.656 414.441 597.976 413.246C596.296 412.089 594.896 410.521 593.776 408.542C592.768 406.825 591.76 404.734 590.752 402.27L586.72 402.158C583.584 402.158 582.016 403.11 582.016 405.014C582.016 405.873 582.221 406.769 582.632 407.702C583.08 408.635 583.603 409.606 584.2 410.614C584.461 411.099 584.592 411.491 584.592 411.79C584.592 412.425 584.256 412.742 583.584 412.742C583.099 412.742 582.52 412.275 581.848 411.342C581.176 410.446 580.597 409.382 580.112 408.15C579.664 406.918 579.44 405.891 579.44 405.07ZM593.44 402.718C593.627 403.054 594.019 403.801 594.616 404.958C594.84 405.481 595.213 406.227 595.736 407.198C596.707 408.953 597.827 410.259 599.096 411.118C600.365 412.014 601.933 412.462 603.8 412.462C605.256 412.462 605.984 411.846 605.984 410.614C605.984 409.531 604.995 408.262 603.016 406.806C601.037 405.275 598.443 404.043 595.232 403.11C594.336 402.849 593.739 402.718 593.44 402.718Z" fill="#FFF490"/>
</g>
<rect x="-8" y="4" width="644" height="552" stroke="white" stroke-width="8"/>
<defs>
<filter id="filter0_dddddd_457_560" x="-289.266" y="-69.3978" width="728.533" height="681.93" filterUnits="userSpaceOnUse" color-interpolation-filters="sRGB">
<feFlood flood-opacity="0" result="BackgroundImageFix"/>
<feColorMatrix in="SourceAlpha" type="matrix" values="0 0 0 0 0 0 0 0 0 0 0 0 0 0 0 0 0 0 127 0" result="hardAlpha"/>
<feOffset/>
<feGaussianBlur stdDeviation="3.46858"/>
<feColorMatrix type="matrix" values="0 0 0 0 0.992157 0 0 0 0 0.952941 0 0 0 0 0.603922 0 0 0 1 0"/>
<feBlend mode="normal" in2="BackgroundImageFix" result="effect1_dropShadow_457_560"/>
<feColorMatrix in="SourceAlpha" type="matrix" values="0 0 0 0 0 0 0 0 0 0 0 0 0 0 0 0 0 0 127 0" result="hardAlpha"/>
<feOffset/>
<feGaussianBlur stdDeviation="6.93716"/>
<feColorMatrix type="matrix" values="0 0 0 0 0.992157 0 0 0 0 0.952941 0 0 0 0 0.603922 0 0 0 1 0"/>
<feBlend mode="normal" in2="effect1_dropShadow_457_560" result="effect2_dropShadow_457_560"/>
<feColorMatrix in="SourceAlpha" type="matrix" values="0 0 0 0 0 0 0 0 0 0 0 0 0 0 0 0 0 0 127 0" result="hardAlpha"/>
<feOffset/>
<feGaussianBlur stdDeviation="24.2801"/>
<feColorMatrix type="matrix" values="0 0 0 0 0.992157 0 0 0 0 0.952941 0 0 0 0 0.603922 0 0 0 1 0"/>
<feBlend mode="normal" in2="effect2_dropShadow_457_560" result="effect3_dropShadow_457_560"/>
<feColorMatrix in="SourceAlpha" type="matrix" values="0 0 0 0 0 0 0 0 0 0 0 0 0 0 0 0 0 0 127 0" result="hardAlpha"/>
<feOffset/>
<feGaussianBlur stdDeviation="48.5601"/>
<feColorMatrix type="matrix" values="0 0 0 0 0.992157 0 0 0 0 0.952941 0 0 0 0 0.603922 0 0 0 1 0"/>
<feBlend mode="normal" in2="effect3_dropShadow_457_560" result="effect4_dropShadow_457_560"/>
<feColorMatrix in="SourceAlpha" type="matrix" values="0 0 0 0 0 0 0 0 0 0 0 0 0 0 0 0 0 0 127 0" result="hardAlpha"/>
<feOffset/>
<feGaussianBlur stdDeviation="83.2459"/>
<feColorMatrix type="matrix" values="0 0 0 0 0.992157 0 0 0 0 0.952941 0 0 0 0 0.603922 0 0 0 1 0"/>
<feBlend mode="normal" in2="effect4_dropShadow_457_560" result="effect5_dropShadow_457_560"/>
<feColorMatrix in="SourceAlpha" type="matrix" values="0 0 0 0 0 0 0 0 0 0 0 0 0 0 0 0 0 0 127 0" result="hardAlpha"/>
<feOffset/>
<feGaussianBlur stdDeviation="145.68"/>
<feColorMatrix type="matrix" values="0 0 0 0 0.992157 0 0 0 0 0.952941 0 0 0 0 0.603922 0 0 0 1 0"/>
<feBlend mode="normal" in2="effect5_dropShadow_457_560" result="effect6_dropShadow_457_560"/>
<feBlend mode="normal" in="SourceGraphic" in2="effect6_dropShadow_457_560" result="shape"/>
</filter>
<filter id="filter1_dddddd_457_560" x="-264.574" y="-79.7859" width="679.151" height="702.705" filterUnits="userSpaceOnUse" color-interpolation-filters="sRGB">
<feFlood flood-opacity="0" result="BackgroundImageFix"/>
<feColorMatrix in="SourceAlpha" type="matrix" values="0 0 0 0 0 0 0 0 0 0 0 0 0 0 0 0 0 0 127 0" result="hardAlpha"/>
<feOffset/>
<feGaussianBlur stdDeviation="3.38703"/>
<feColorMatrix type="matrix" values="0 0 0 0 0.992157 0 0 0 0 0.952941 0 0 0 0 0.603922 0 0 0 1 0"/>
<feBlend mode="normal" in2="BackgroundImageFix" result="effect1_dropShadow_457_560"/>
<feColorMatrix in="SourceAlpha" type="matrix" values="0 0 0 0 0 0 0 0 0 0 0 0 0 0 0 0 0 0 127 0" result="hardAlpha"/>
<feOffset/>
<feGaussianBlur stdDeviation="6.77406"/>
<feColorMatrix type="matrix" values="0 0 0 0 0.992157 0 0 0 0 0.952941 0 0 0 0 0.603922 0 0 0 1 0"/>
<feBlend mode="normal" in2="effect1_dropShadow_457_560" result="effect2_dropShadow_457_560"/>
<feColorMatrix in="SourceAlpha" type="matrix" values="0 0 0 0 0 0 0 0 0 0 0 0 0 0 0 0 0 0 127 0" result="hardAlpha"/>
<feOffset/>
<feGaussianBlur stdDeviation="23.7092"/>
<feColorMatrix type="matrix" values="0 0 0 0 0.992157 0 0 0 0 0.952941 0 0 0 0 0.603922 0 0 0 1 0"/>
<feBlend mode="normal" in2="effect2_dropShadow_457_560" result="effect3_dropShadow_457_560"/>
<feColorMatrix in="SourceAlpha" type="matrix" values="0 0 0 0 0 0 0 0 0 0 0 0 0 0 0 0 0 0 127 0" result="hardAlpha"/>
<feOffset/>
<feGaussianBlur stdDeviation="47.4184"/>
<feColorMatrix type="matrix" values="0 0 0 0 0.992157 0 0 0 0 0.952941 0 0 0 0 0.603922 0 0 0 1 0"/>
<feBlend mode="normal" in2="effect3_dropShadow_457_560" result="effect4_dropShadow_457_560"/>
<feColorMatrix in="SourceAlpha" type="matrix" values="0 0 0 0 0 0 0 0 0 0 0 0 0 0 0 0 0 0 127 0" result="hardAlpha"/>
<feOffset/>
<feGaussianBlur stdDeviation="81.2887"/>
<feColorMatrix type="matrix" values="0 0 0 0 0.992157 0 0 0 0 0.952941 0 0 0 0 0.603922 0 0 0 1 0"/>
<feBlend mode="normal" in2="effect4_dropShadow_457_560" result="effect5_dropShadow_457_560"/>
<feColorMatrix in="SourceAlpha" type="matrix" values="0 0 0 0 0 0 0 0 0 0 0 0 0 0 0 0 0 0 127 0" result="hardAlpha"/>
<feOffset/>
<feGaussianBlur stdDeviation="142.255"/>
<feColorMatrix type="matrix" values="0 0 0 0 0.992157 0 0 0 0 0.952941 0 0 0 0 0.603922 0 0 0 1 0"/>
<feBlend mode="normal" in2="effect5_dropShadow_457_560" result="effect6_dropShadow_457_560"/>
<feBlend mode="normal" in="SourceGraphic" in2="effect6_dropShadow_457_560" result="shape"/>
</filter>
<filter id="filter2_dddddd_457_560" x="-298.107" y="-63.0833" width="746.213" height="669.299" filterUnits="userSpaceOnUse" color-interpolation-filters="sRGB">
<feFlood flood-opacity="0" result="BackgroundImageFix"/>
<feColorMatrix in="SourceAlpha" type="matrix" values="0 0 0 0 0 0 0 0 0 0 0 0 0 0 0 0 0 0 127 0" result="hardAlpha"/>
<feOffset/>
<feGaussianBlur stdDeviation="3.50118"/>
<feColorMatrix type="matrix" values="0 0 0 0 0.992157 0 0 0 0 0.952941 0 0 0 0 0.603922 0 0 0 1 0"/>
<feBlend mode="normal" in2="BackgroundImageFix" result="effect1_dropShadow_457_560"/>
<feColorMatrix in="SourceAlpha" type="matrix" values="0 0 0 0 0 0 0 0 0 0 0 0 0 0 0 0 0 0 127 0" result="hardAlpha"/>
<feOffset/>
<feGaussianBlur stdDeviation="7.00235"/>
<feColorMatrix type="matrix" values="0 0 0 0 0.992157 0 0 0 0 0.952941 0 0 0 0 0.603922 0 0 0 1 0"/>
<feBlend mode="normal" in2="effect1_dropShadow_457_560" result="effect2_dropShadow_457_560"/>
<feColorMatrix in="SourceAlpha" type="matrix" values="0 0 0 0 0 0 0 0 0 0 0 0 0 0 0 0 0 0 127 0" result="hardAlpha"/>
<feOffset/>
<feGaussianBlur stdDeviation="24.5082"/>
<feColorMatrix type="matrix" values="0 0 0 0 0.992157 0 0 0 0 0.952941 0 0 0 0 0.603922 0 0 0 1 0"/>
<feBlend mode="normal" in2="effect2_dropShadow_457_560" result="effect3_dropShadow_457_560"/>
<feColorMatrix in="SourceAlpha" type="matrix" values="0 0 0 0 0 0 0 0 0 0 0 0 0 0 0 0 0 0 127 0" result="hardAlpha"/>
<feOffset/>
<feGaussianBlur stdDeviation="49.0165"/>
<feColorMatrix type="matrix" values="0 0 0 0 0.992157 0 0 0 0 0.952941 0 0 0 0 0.603922 0 0 0 1 0"/>
<feBlend mode="normal" in2="effect3_dropShadow_457_560" result="effect4_dropShadow_457_560"/>
<feColorMatrix in="SourceAlpha" type="matrix" values="0 0 0 0 0 0 0 0 0 0 0 0 0 0 0 0 0 0 127 0" result="hardAlpha"/>
<feOffset/>
<feGaussianBlur stdDeviation="84.0283"/>
<feColorMatrix type="matrix" values="0 0 0 0 0.992157 0 0 0 0 0.952941 0 0 0 0 0.603922 0 0 0 1 0"/>
<feBlend mode="normal" in2="effect4_dropShadow_457_560" result="effect5_dropShadow_457_560"/>
<feColorMatrix in="SourceAlpha" type="matrix" values="0 0 0 0 0 0 0 0 0 0 0 0 0 0 0 0 0 0 127 0" result="hardAlpha"/>
<feOffset/>
<feGaussianBlur stdDeviation="147.049"/>
<feColorMatrix type="matrix" values="0 0 0 0 0.992157 0 0 0 0 0.952941 0 0 0 0 0.603922 0 0 0 1 0"/>
<feBlend mode="normal" in2="effect5_dropShadow_457_560" result="effect6_dropShadow_457_560"/>
<feBlend mode="normal" in="SourceGraphic" in2="effect6_dropShadow_457_560" result="shape"/>
</filter>
<filter id="filter3_dddddd_457_560" x="-285.446" y="-71.554" width="720.889" height="686.243" filterUnits="userSpaceOnUse" color-interpolation-filters="sRGB">
<feFlood flood-opacity="0" result="BackgroundImageFix"/>
<feColorMatrix in="SourceAlpha" type="matrix" values="0 0 0 0 0 0 0 0 0 0 0 0 0 0 0 0 0 0 127 0" result="hardAlpha"/>
<feOffset/>
<feGaussianBlur stdDeviation="3.455"/>
<feColorMatrix type="matrix" values="0 0 0 0 0.992157 0 0 0 0 0.952941 0 0 0 0 0.603922 0 0 0 1 0"/>
<feBlend mode="normal" in2="BackgroundImageFix" result="effect1_dropShadow_457_560"/>
<feColorMatrix in="SourceAlpha" type="matrix" values="0 0 0 0 0 0 0 0 0 0 0 0 0 0 0 0 0 0 127 0" result="hardAlpha"/>
<feOffset/>
<feGaussianBlur stdDeviation="6.91"/>
<feColorMatrix type="matrix" values="0 0 0 0 0.992157 0 0 0 0 0.952941 0 0 0 0 0.603922 0 0 0 1 0"/>
<feBlend mode="normal" in2="effect1_dropShadow_457_560" result="effect2_dropShadow_457_560"/>
<feColorMatrix in="SourceAlpha" type="matrix" values="0 0 0 0 0 0 0 0 0 0 0 0 0 0 0 0 0 0 127 0" result="hardAlpha"/>
<feOffset/>
<feGaussianBlur stdDeviation="24.185"/>
<feColorMatrix type="matrix" values="0 0 0 0 0.992157 0 0 0 0 0.952941 0 0 0 0 0.603922 0 0 0 1 0"/>
<feBlend mode="normal" in2="effect2_dropShadow_457_560" result="effect3_dropShadow_457_560"/>
<feColorMatrix in="SourceAlpha" type="matrix" values="0 0 0 0 0 0 0 0 0 0 0 0 0 0 0 0 0 0 127 0" result="hardAlpha"/>
<feOffset/>
<feGaussianBlur stdDeviation="48.37"/>
<feColorMatrix type="matrix" values="0 0 0 0 0.992157 0 0 0 0 0.952941 0 0 0 0 0.603922 0 0 0 1 0"/>
<feBlend mode="normal" in2="effect3_dropShadow_457_560" result="effect4_dropShadow_457_560"/>
<feColorMatrix in="SourceAlpha" type="matrix" values="0 0 0 0 0 0 0 0 0 0 0 0 0 0 0 0 0 0 127 0" result="hardAlpha"/>
<feOffset/>
<feGaussianBlur stdDeviation="82.92"/>
<feColorMatrix type="matrix" values="0 0 0 0 0.992157 0 0 0 0 0.952941 0 0 0 0 0.603922 0 0 0 1 0"/>
<feBlend mode="normal" in2="effect4_dropShadow_457_560" result="effect5_dropShadow_457_560"/>
<feColorMatrix in="SourceAlpha" type="matrix" values="0 0 0 0 0 0 0 0 0 0 0 0 0 0 0 0 0 0 127 0" result="hardAlpha"/>
<feOffset/>
<feGaussianBlur stdDeviation="145.11"/>
<feColorMatrix type="matrix" values="0 0 0 0 0.992157 0 0 0 0 0.952941 0 0 0 0 0.603922 0 0 0 1 0"/>
<feBlend mode="normal" in2="effect5_dropShadow_457_560" result="effect6_dropShadow_457_560"/>
<feBlend mode="normal" in="SourceGraphic" in2="effect6_dropShadow_457_560" result="shape"/>
</filter>
<filter id="filter4_dddddd_457_560" x="33.8011" y="236.469" width="63.9407" height="63.4446" filterUnits="userSpaceOnUse" color-interpolation-filters="sRGB">
<feFlood flood-opacity="0" result="BackgroundImageFix"/>
<feColorMatrix in="SourceAlpha" type="matrix" values="0 0 0 0 0 0 0 0 0 0 0 0 0 0 0 0 0 0 127 0" result="hardAlpha"/>
<feOffset/>
<feGaussianBlur stdDeviation="0.310961"/>
<feColorMatrix type="matrix" values="0 0 0 0 0.992157 0 0 0 0 0.952941 0 0 0 0 0.603922 0 0 0 1 0"/>
<feBlend mode="normal" in2="BackgroundImageFix" result="effect1_dropShadow_457_560"/>
<feColorMatrix in="SourceAlpha" type="matrix" values="0 0 0 0 0 0 0 0 0 0 0 0 0 0 0 0 0 0 127 0" result="hardAlpha"/>
<feOffset/>
<feGaussianBlur stdDeviation="0.621922"/>
<feColorMatrix type="matrix" values="0 0 0 0 0.992157 0 0 0 0 0.952941 0 0 0 0 0.603922 0 0 0 1 0"/>
<feBlend mode="normal" in2="effect1_dropShadow_457_560" result="effect2_dropShadow_457_560"/>
<feColorMatrix in="SourceAlpha" type="matrix" values="0 0 0 0 0 0 0 0 0 0 0 0 0 0 0 0 0 0 127 0" result="hardAlpha"/>
<feOffset/>
<feGaussianBlur stdDeviation="2.17673"/>
<feColorMatrix type="matrix" values="0 0 0 0 0.992157 0 0 0 0 0.952941 0 0 0 0 0.603922 0 0 0 1 0"/>
<feBlend mode="normal" in2="effect2_dropShadow_457_560" result="effect3_dropShadow_457_560"/>
<feColorMatrix in="SourceAlpha" type="matrix" values="0 0 0 0 0 0 0 0 0 0 0 0 0 0 0 0 0 0 127 0" result="hardAlpha"/>
<feOffset/>
<feGaussianBlur stdDeviation="4.35346"/>
<feColorMatrix type="matrix" values="0 0 0 0 0.992157 0 0 0 0 0.952941 0 0 0 0 0.603922 0 0 0 1 0"/>
<feBlend mode="normal" in2="effect3_dropShadow_457_560" result="effect4_dropShadow_457_560"/>
<feColorMatrix in="SourceAlpha" type="matrix" values="0 0 0 0 0 0 0 0 0 0 0 0 0 0 0 0 0 0 127 0" result="hardAlpha"/>
<feOffset/>
<feGaussianBlur stdDeviation="7.46307"/>
<feColorMatrix type="matrix" values="0 0 0 0 0.992157 0 0 0 0 0.952941 0 0 0 0 0.603922 0 0 0 1 0"/>
<feBlend mode="normal" in2="effect4_dropShadow_457_560" result="effect5_dropShadow_457_560"/>
<feColorMatrix in="SourceAlpha" type="matrix" values="0 0 0 0 0 0 0 0 0 0 0 0 0 0 0 0 0 0 127 0" result="hardAlpha"/>
<feOffset/>
<feGaussianBlur stdDeviation="13.0604"/>
<feColorMatrix type="matrix" values="0 0 0 0 0.992157 0 0 0 0 0.952941 0 0 0 0 0.603922 0 0 0 1 0"/>
<feBlend mode="normal" in2="effect5_dropShadow_457_560" result="effect6_dropShadow_457_560"/>
<feBlend mode="normal" in="SourceGraphic" in2="effect6_dropShadow_457_560" result="shape"/>
</filter>
<filter id="filter5_dddddd_457_560" x="52.0789" y="236.352" width="63.8851" height="63.4652" filterUnits="userSpaceOnUse" color-interpolation-filters="sRGB">
<feFlood flood-opacity="0" result="BackgroundImageFix"/>
<feColorMatrix in="SourceAlpha" type="matrix" values="0 0 0 0 0 0 0 0 0 0 0 0 0 0 0 0 0 0 127 0" result="hardAlpha"/>
<feOffset/>
<feGaussianBlur stdDeviation="0.310863"/>
<feColorMatrix type="matrix" values="0 0 0 0 0.992157 0 0 0 0 0.952941 0 0 0 0 0.603922 0 0 0 1 0"/>
<feBlend mode="normal" in2="BackgroundImageFix" result="effect1_dropShadow_457_560"/>
<feColorMatrix in="SourceAlpha" type="matrix" values="0 0 0 0 0 0 0 0 0 0 0 0 0 0 0 0 0 0 127 0" result="hardAlpha"/>
<feOffset/>
<feGaussianBlur stdDeviation="0.621725"/>
<feColorMatrix type="matrix" values="0 0 0 0 0.992157 0 0 0 0 0.952941 0 0 0 0 0.603922 0 0 0 1 0"/>
<feBlend mode="normal" in2="effect1_dropShadow_457_560" result="effect2_dropShadow_457_560"/>
<feColorMatrix in="SourceAlpha" type="matrix" values="0 0 0 0 0 0 0 0 0 0 0 0 0 0 0 0 0 0 127 0" result="hardAlpha"/>
<feOffset/>
<feGaussianBlur stdDeviation="2.17604"/>
<feColorMatrix type="matrix" values="0 0 0 0 0.992157 0 0 0 0 0.952941 0 0 0 0 0.603922 0 0 0 1 0"/>
<feBlend mode="normal" in2="effect2_dropShadow_457_560" result="effect3_dropShadow_457_560"/>
<feColorMatrix in="SourceAlpha" type="matrix" values="0 0 0 0 0 0 0 0 0 0 0 0 0 0 0 0 0 0 127 0" result="hardAlpha"/>
<feOffset/>
<feGaussianBlur stdDeviation="4.35208"/>
<feColorMatrix type="matrix" values="0 0 0 0 0.992157 0 0 0 0 0.952941 0 0 0 0 0.603922 0 0 0 1 0"/>
<feBlend mode="normal" in2="effect3_dropShadow_457_560" result="effect4_dropShadow_457_560"/>
<feColorMatrix in="SourceAlpha" type="matrix" values="0 0 0 0 0 0 0 0 0 0 0 0 0 0 0 0 0 0 127 0" result="hardAlpha"/>
<feOffset/>
<feGaussianBlur stdDeviation="7.4607"/>
<feColorMatrix type="matrix" values="0 0 0 0 0.992157 0 0 0 0 0.952941 0 0 0 0 0.603922 0 0 0 1 0"/>
<feBlend mode="normal" in2="effect4_dropShadow_457_560" result="effect5_dropShadow_457_560"/>
<feColorMatrix in="SourceAlpha" type="matrix" values="0 0 0 0 0 0 0 0 0 0 0 0 0 0 0 0 0 0 127 0" result="hardAlpha"/>
<feOffset/>
<feGaussianBlur stdDeviation="13.0562"/>
<feColorMatrix type="matrix" values="0 0 0 0 0.992157 0 0 0 0 0.952941 0 0 0 0 0.603922 0 0 0 1 0"/>
<feBlend mode="normal" in2="effect5_dropShadow_457_560" result="effect6_dropShadow_457_560"/>
<feBlend mode="normal" in="SourceGraphic" in2="effect6_dropShadow_457_560" result="shape"/>
</filter>
<clipPath id="clip0_457_560">
<rect x="-12" width="652" height="560" fill="white"/>
</clipPath>
</defs>
</svg>
