<svg width="40" height="1150" viewBox="0 0 40 1150" fill="none" xmlns="http://www.w3.org/2000/svg">
<g clip-path="url(#clip0_638_2915)">
<path d="M26.8947 1130.18C10.1156 1006.28 10.1156 1014.94 26.8947 1086.93C43.6738 1158.92 -3.85376 1159.69 26.8947 1043.67C9.32416 919.643 9.32416 928.294 26.8947 1000.42C44.4653 1072.54 -11.8871 1071.84 26.8947 957.161C4.73365 832.372 4.73365 841.023 26.8947 913.906C49.0558 986.789 -17.7044 984.369 26.8947 870.651C1.40949 745.311 1.40949 753.962 26.8947 827.396C52.38 900.83 -21.8596 897.17 26.8947 784.141C-0.964908 658.407 -0.964908 667.058 26.8947 740.886C54.7544 814.714 -12.1642 812.268 26.8947 697.631C4.57536 572.815 4.57536 581.466 26.8947 654.376C49.2141 727.285 -8.56299 726.355 26.8947 611.121C6.63318 486.647 6.63318 495.298 26.8947 567.866C47.1563 640.434 -9.11702 639.753 26.8947 524.611C6.31659 400.084 6.31659 408.735 26.8947 481.356C47.4729 553.976 -18.2585 551.727 26.8947 438.1C1.09291 312.708 1.09291 321.359 26.8947 394.845C52.6965 468.332 -2.74571 467.789 26.8947 351.59C9.95734 227.668 9.95734 236.319 26.8947 308.335C43.8321 380.352 -16.5964 378.982 26.8947 265.08C2.04267 139.845 2.04267 148.496 26.8947 221.825C51.7468 295.155 -17.9814 292.243 26.8947 178.57C1.2512 53.2038 1.2512 61.8549 26.8947 135.315C52.5383 208.776 -17.7044 205.779 26.8947 92.0603C1.40949 -33.2799 1.40949 -24.6289 26.8947 48.8052" stroke="#FF0088" stroke-width="6"/>
</g>
<defs>
<clipPath id="clip0_638_2915">
<rect width="40" height="1150" fill="white"/>
</clipPath>
</defs>
</svg>
