<svg width="660" height="121" viewBox="0 0 660 121" fill="none" xmlns="http://www.w3.org/2000/svg">
<path d="M4 60.5C11.6183 -7.39417 17.06 -7.39417 20.325 60.5C22.4669 81.6875 27.9086 81.6875 36.65 60.5C44.2683 39.3125 49.71 39.3125 52.975 60.5C59.2873 121.237 64.729 121.237 69.3 60.5C76.9183 -0.2375 82.36 -0.2375 85.625 60.5C89.2823 135.833 94.724 135.833 101.95 60.5C109.568 -14.8333 115.01 -14.8333 118.275 60.5C120.936 107.96 126.378 107.96 134.6 60.5C142.218 13.04 147.66 13.04 150.925 60.5C154.53 117.848 159.972 117.848 167.25 60.5C174.868 3.1525 180.31 3.1525 183.575 60.5C186.904 120.107 192.346 120.107 199.9 60.5C207.518 0.892501 212.96 0.892501 216.225 60.5C219.66 126.323 225.102 126.323 232.55 60.5C240.168 -5.3225 245.61 -5.3225 248.875 60.5C251.822 113.516 257.264 113.516 265.2 60.5C272.818 7.48417 278.26 7.48417 281.525 60.5C283.677 77.3558 289.118 77.3558 297.85 60.5C305.468 43.6442 310.91 43.6442 314.175 60.5C317.659 79.6158 323.101 79.6158 330.5 60.5C338.118 41.3842 343.56 41.3842 346.825 60.5C351.385 94.7767 356.826 94.7767 363.15 60.5C370.768 26.2233 376.21 26.2233 379.475 60.5C381.87 76.5083 387.312 76.5083 395.8 60.5C403.418 44.4917 408.86 44.4917 412.125 60.5C415.16 74.2483 420.601 74.2483 428.45 60.5C436.068 46.7517 441.51 46.7517 444.775 60.5C448.264 76.1317 453.705 76.1317 461.1 60.5C468.718 44.8683 474.16 44.8683 477.425 60.5C486.866 135.268 492.308 135.268 493.75 60.5C501.368 -14.2683 506.81 -14.2683 510.075 60.5C513.324 134.515 518.765 134.515 526.4 60.5C534.018 -13.515 539.46 -13.515 542.725 60.5C545.755 123.874 551.197 123.874 559.05 60.5C566.668 -2.87417 572.11 -2.87417 575.375 60.5C577.257 70.1992 582.699 70.1992 591.7 60.5C599.318 50.8008 604.76 50.8008 608.025 60.5C618.723 114.363 624.165 114.363 624.35 60.5C631.968 6.63667 637.41 6.63667 640.675 60.5C642.616 70.67 648.057 70.67 657 60.5" stroke="white" stroke-width="8"/>
</svg>
