<svg width="663" height="596" viewBox="0 0 663 596" fill="none" xmlns="http://www.w3.org/2000/svg">
<g clip-path="url(#clip0_457_419)">
<rect width="679" height="596" fill="#BEFF00"/>
<path d="M492.36 52V24H509.216V28.088H499.808V52H492.36ZM513.196 24H519.188L520.196 26.52H520.364C520.364 26.4453 520.681 26.1467 521.316 25.624C521.951 25.064 522.828 24.56 523.948 24.112C525.068 23.6267 526.412 23.384 527.98 23.384C531.303 23.384 533.916 24.6533 535.82 27.192C537.724 29.7307 538.676 33.1467 538.676 37.44C538.676 40.464 538.228 43.1333 537.332 45.448C536.436 47.7253 535.148 49.4987 533.468 50.768C531.825 52 529.865 52.616 527.588 52.616C526.132 52.616 524.9 52.448 523.892 52.112C522.884 51.8133 522.119 51.496 521.596 51.16C521.073 50.7867 520.812 50.5627 520.812 50.488H520.644V66L513.196 66.224V24ZM524.788 48.36C526.207 48.36 527.327 48.024 528.148 47.352C529.007 46.68 529.641 45.5787 530.052 44.048C530.463 42.48 530.668 40.3333 530.668 37.608C530.668 35.032 530.463 33.0347 530.052 31.616C529.679 30.16 529.1 29.152 528.316 28.592C527.569 28.032 526.58 27.752 525.348 27.752C524.452 27.752 523.649 27.92 522.94 28.256C522.268 28.592 521.727 28.9467 521.316 29.32C520.943 29.6933 520.719 29.9733 520.644 30.16V46.512C520.719 46.624 520.905 46.8293 521.204 47.128C521.503 47.3893 521.951 47.6693 522.548 47.968C523.183 48.2293 523.929 48.36 524.788 48.36ZM545.952 66.616C545.093 66.616 544.328 66.5413 543.656 66.392C543.021 66.28 542.536 66.1493 542.2 66C541.864 65.888 541.658 65.8133 541.584 65.776L542.2 61.408C542.349 61.4827 542.722 61.5947 543.32 61.744C543.917 61.9307 544.514 62.024 545.112 62.024C546.792 62.024 548.154 61.352 549.2 60.008C550.245 58.7013 551.402 56.4053 552.672 53.12L540.744 24H549.76L556.592 43.936L562.36 24H567.008L557.32 52.616C556.162 55.7893 555.061 58.3653 554.016 60.344C553.008 62.3227 551.85 63.8533 550.544 64.936C549.237 66.056 547.706 66.616 545.952 66.616ZM582.265 52.616C577.971 52.616 574.667 51.384 572.353 48.92C570.075 46.456 568.937 42.872 568.937 38.168C568.937 33.6133 570.131 30.0107 572.521 27.36C574.91 24.7093 578.214 23.384 582.433 23.384C583.59 23.384 584.766 23.552 585.961 23.888C587.193 24.1867 588.219 24.5227 589.041 24.896C589.862 25.232 590.385 25.456 590.609 25.568L589.881 29.152C589.694 29.04 589.227 28.8347 588.481 28.536C587.734 28.2 586.875 27.8827 585.905 27.584C584.934 27.2853 584.057 27.136 583.273 27.136C581.854 27.136 580.697 27.4347 579.801 28.032C578.905 28.6293 578.214 29.7307 577.729 31.336C577.243 32.904 577.001 35.144 577.001 38.056C577.001 42.2 577.523 45.0373 578.569 46.568C579.614 48.0987 581.107 48.864 583.049 48.864C584.355 48.864 585.475 48.584 586.409 48.024C587.379 47.4267 588.126 46.8107 588.649 46.176C589.171 45.504 589.433 45.112 589.433 45L592.065 46.68C592.065 46.904 591.729 47.52 591.057 48.528C590.385 49.4987 589.321 50.432 587.865 51.328C586.409 52.1867 584.542 52.616 582.265 52.616ZM600.985 52V28.088H592.921L592.865 24H616.441V28.088H608.377V52H600.985ZM620.438 24H627.886V33.632H630.518C638.769 33.632 642.894 36.5813 642.894 42.48C642.894 45.728 641.867 48.136 639.814 49.704C637.798 51.2347 634.699 52 630.518 52H620.438V24ZM630.182 48.64C631.75 48.64 632.926 48.2107 633.71 47.352C634.531 46.456 634.942 44.832 634.942 42.48C634.942 40.352 634.513 38.896 633.654 38.112C632.795 37.328 631.638 36.936 630.182 36.936H627.886V48.64H630.182Z" fill="#003FFF"/>
<path d="M9 190.5C16.525 122.606 21.9 122.606 25.125 190.5C27.2407 211.687 32.6157 211.687 41.25 190.5C48.775 169.312 54.15 169.312 57.375 190.5C63.61 251.237 68.985 251.237 73.5 190.5C81.025 129.763 86.4 129.763 89.625 190.5C93.2375 265.833 98.6125 265.833 105.75 190.5C113.275 115.167 118.65 115.167 121.875 190.5C124.503 237.96 129.878 237.96 138 190.5C145.525 143.04 150.9 143.04 154.125 190.5C157.686 247.848 163.061 247.848 170.25 190.5C177.775 133.152 183.15 133.152 186.375 190.5C189.664 250.107 195.039 250.107 202.5 190.5C210.025 130.893 215.4 130.893 218.625 190.5C222.018 256.323 227.393 256.323 234.75 190.5C242.275 124.677 247.65 124.677 250.875 190.5C253.786 243.516 259.161 243.516 267 190.5C274.525 137.484 279.9 137.484 283.125 190.5C285.25 207.356 290.625 207.356 299.25 190.5C306.775 173.644 312.15 173.644 315.375 190.5C318.816 209.616 324.191 209.616 331.5 190.5C339.025 171.384 344.4 171.384 347.625 190.5C352.129 224.777 357.504 224.777 363.75 190.5C371.275 156.223 376.65 156.223 379.875 190.5C382.241 206.508 387.616 206.508 396 190.5C403.525 174.492 408.9 174.492 412.125 190.5C415.122 204.248 420.497 204.248 428.25 190.5C435.775 176.752 441.15 176.752 444.375 190.5C447.821 206.132 453.196 206.132 460.5 190.5C468.025 174.868 473.4 174.868 476.625 190.5C485.95 265.268 491.325 265.268 492.75 190.5C500.275 115.732 505.65 115.732 508.875 190.5C512.084 264.515 517.459 264.515 525 190.5C532.525 116.485 537.9 116.485 541.125 190.5C544.118 253.874 549.493 253.874 557.25 190.5C564.775 127.126 570.15 127.126 573.375 190.5C575.234 200.199 580.609 200.199 589.5 190.5C597.025 180.801 602.4 180.801 605.625 190.5C616.192 244.363 621.567 244.363 621.75 190.5C629.275 136.637 634.65 136.637 637.875 190.5C639.792 200.67 645.167 200.67 654 190.5" stroke="#003FFF" stroke-width="10"/>
<path d="M101.286 374.484L97.5315 373.134L101.286 374.484C108.404 354.695 110.737 348.941 113.43 343.075C114.95 346.376 116.358 349.873 117.798 353.644C118.593 355.725 119.402 357.904 120.246 360.176C122.035 364.993 123.979 370.226 126.264 375.823C131.835 389.462 130.148 395.391 127.784 398.052C126.491 399.506 124.55 400.564 121.952 401.245C119.35 401.928 116.346 402.165 113.253 402.165C107.025 402.165 102.388 400.751 100.045 397.54C97.7348 394.373 96.488 387.824 101.286 374.484Z" fill="#003FFF" stroke="#003FFF" stroke-width="8"/>
<path d="M229.286 455.484L225.531 454.134L229.286 455.484C236.404 435.695 238.737 429.941 241.43 424.075C242.95 427.376 244.358 430.873 245.798 434.644C246.593 436.725 247.402 438.904 248.246 441.176C250.035 445.993 251.979 451.226 254.264 456.823C259.835 470.462 258.148 476.391 255.784 479.052C254.491 480.506 252.55 481.564 249.952 482.245C247.35 482.928 244.346 483.165 241.253 483.165C235.025 483.165 230.388 481.751 228.045 478.54C225.735 475.373 224.488 468.824 229.286 455.484Z" fill="#003FFF" stroke="#003FFF" stroke-width="8"/>
<path d="M377.286 355.484L373.531 354.134L377.286 355.484C384.404 335.695 386.737 329.941 389.43 324.075C390.95 327.376 392.358 330.873 393.798 334.644C394.593 336.725 395.402 338.904 396.246 341.176C398.035 345.993 399.979 351.226 402.264 356.823C407.835 370.462 406.148 376.391 403.784 379.052C402.491 380.506 400.55 381.564 397.952 382.245C395.35 382.928 392.346 383.165 389.253 383.165C383.025 383.165 378.388 381.751 376.045 378.54C373.735 375.373 372.488 368.824 377.286 355.484Z" fill="#003FFF" stroke="#003FFF" stroke-width="8"/>
<path d="M519.286 446.484L515.531 445.134L519.286 446.484C526.404 426.695 528.737 420.941 531.43 415.075C532.95 418.376 534.358 421.873 535.798 425.644C536.593 427.725 537.402 429.904 538.246 432.176C540.035 436.993 541.979 442.226 544.264 447.823C549.835 461.462 548.148 467.391 545.784 470.052C544.491 471.506 542.55 472.564 539.952 473.245C537.35 473.928 534.346 474.165 531.253 474.165C525.025 474.165 520.388 472.751 518.045 469.54C515.735 466.373 514.488 459.824 519.286 446.484Z" fill="#003FFF" stroke="#003FFF" stroke-width="8"/>
</g>
<defs>
<clipPath id="clip0_457_419">
<rect width="679" height="596" fill="white"/>
</clipPath>
</defs>
</svg>
