<svg width="200" height="248" viewBox="0 0 200 248" fill="none" xmlns="http://www.w3.org/2000/svg">
<path d="M71.1622 213.767C-103.543 116.891 201.591 -24.9099 176.542 189.717" stroke="#969696" stroke-width="8" stroke-linecap="round"/>
<path d="M176.551 189.599C173.372 201.628 160.008 198.261 157.039 183.349C151.196 154.008 161.849 113.814 126.551 100.209C79.1296 81.9303 -17.7803 139.83 85.9039 204.033" stroke="#969696" stroke-width="8" stroke-linecap="round"/>
<path d="M85.9089 204.032C111.364 216.705 103.323 231.874 81.1623 233.856C77.5924 234.175 73.1702 225.882 69.0436 225.679C64.697 225.466 57.4593 234.726 52.7098 233.857C48.2423 233.038 47.3336 221.854 42.6987 220.386C38.4933 219.055 33.215 220.386 27.946 221.35" stroke="#969696" stroke-width="8" stroke-linecap="round"/>
<ellipse cx="171.644" cy="114.176" rx="15.807" ry="14.4302" fill="#00EFFF"/>
<ellipse cx="184.192" cy="157.272" rx="15.807" ry="14.4302" fill="#00EFFF"/>
<ellipse cx="127.716" cy="77.9791" rx="15.807" ry="14.4302" fill="#00EFFF"/>
<ellipse cx="72.2831" cy="81.2232" rx="15.807" ry="14.4302" fill="#00EFFF"/>
<ellipse cx="31.4955" cy="110.004" rx="15.807" ry="14.4302" fill="#00EFFF"/>
<ellipse cx="15.807" cy="148.932" rx="15.807" ry="14.4302" fill="#00EFFF"/>
<ellipse cx="29.4051" cy="187.858" rx="15.807" ry="14.4302" fill="#00EFFF"/>
<path d="M108.765 56.0059L114.616 41.2732L102.647 28.9181L114.616 16.1767L107.341 1.17813" stroke="#969696" stroke-width="2" stroke-linecap="round"/>
<path d="M144.204 59.0848L157.665 50.7122L155.38 33.6627L172.578 30.5274L175.639 14.1412" stroke="#969696" stroke-width="2" stroke-linecap="round"/>
<path d="M128.056 57.2173L137.382 44.3989L128.856 29.4587L143.614 20.0885L140.292 3.7532" stroke="#969696" stroke-width="2" stroke-linecap="round"/>
</svg>
