<svg width="40" height="73" viewBox="0 0 40 73" fill="none" xmlns="http://www.w3.org/2000/svg">
<path d="M7.2863 40.4844L3.5224 39.1305L7.28631 40.4844C14.4045 20.6952 16.7369 14.9413 19.4295 9.07533C20.9499 12.3756 22.3584 15.8725 23.7985 19.644C24.5932 21.7253 25.4024 23.9044 26.246 26.1758C28.0351 30.9933 29.9785 36.2263 32.2644 41.8228C37.8352 55.4617 36.1483 61.391 33.7841 64.0517C32.4915 65.5063 30.5503 66.5637 27.9516 67.2454C25.3504 67.9277 22.3462 68.1653 19.2532 68.1653C13.0253 68.1653 8.38786 66.7507 6.04542 63.54C3.73482 60.3729 2.48797 53.8239 7.2863 40.4844Z" fill="white" stroke="white" stroke-width="8"/>
</svg>
