<svg width="40" height="1150" viewBox="0 0 40 1150" fill="none" xmlns="http://www.w3.org/2000/svg">
<g clip-path="url(#clip0_638_2912)">
<path d="M20.8498 1134.47C2.62963 1205.87 2.62963 982.615 20.8498 1060.05C39.0699 1137.49 43.3162 914.944 20.8498 985.637C-1.6166 1056.33 -1.6166 833.076 20.8498 911.219C43.3162 989.362 30.6547 764.01 20.8498 836.801C11.0449 909.593 11.0449 686.34 20.8498 762.384C30.6547 838.427 31.1951 615.264 20.8498 687.966C10.5044 760.668 10.5044 537.416 20.8498 613.549C31.1951 689.682 41.3089 468.106 20.8498 539.131C0.39071 610.156 0.39071 386.903 20.8498 464.714C41.3089 542.524 30.6547 317.505 20.8498 390.296C11.0449 463.088 11.0449 239.835 20.8498 315.879C30.6547 391.922 38.6839 170.001 20.8498 241.461C3.01565 312.921 3.01565 89.6686 20.8498 167.044C38.6839 244.418 36.5994 20.8201 20.8498 92.626C5.10016 164.432 5.10016 -58.8208 20.8498 18.2084" stroke="#FFD700" stroke-width="6"/>
</g>
<defs>
<clipPath id="clip0_638_2912">
<rect width="40" height="1150" fill="white"/>
</clipPath>
</defs>
</svg>
